<svg width="18" height="18" viewBox="0 0 18 18" fill="none" xmlns="http://www.w3.org/2000/svg">
<path d="M9 15.75C9.2094 15.75 9.4041 15.6546 9.79343 15.4638L12.9228 13.9303C14.3076 13.2516 15 12.9123 15 12.375V5.625M9 15.75C8.7906 15.75 8.5959 15.6546 8.20657 15.4638L5.07717 13.9303C3.69239 13.2516 3 12.9123 3 12.375V5.625M9 15.75V9" stroke="#2B2B2B" stroke-width="1.4" stroke-linecap="round" stroke-linejoin="round"/>
<path d="M8.20657 2.53619C8.5959 2.3454 8.7906 2.25 9 2.25C9.2094 2.25 9.4041 2.3454 9.79343 2.53619L12.9228 4.06976C14.3076 4.74837 15 5.08768 15 5.625C15 6.16232 14.3076 6.50163 12.9228 7.18024L9.79343 8.7138C9.4041 8.9046 9.2094 9 9 9C8.7906 9 8.5959 8.9046 8.20657 8.7138L5.07717 7.18024C3.69239 6.50163 3 6.16232 3 5.625C3 5.08768 3.69239 4.74837 5.07717 4.06976L8.20657 2.53619Z" stroke="#2B2B2B" stroke-width="1.4" stroke-linejoin="round"/>
</svg>
