<svg width="18" height="18" viewBox="0 0 18 18" fill="none" xmlns="http://www.w3.org/2000/svg">
<path d="M3 11.25V14.25" stroke="#10182B" stroke-width="1.4" stroke-linecap="round" stroke-linejoin="round"/>
<path d="M9 6.75V14.25" stroke="#10182B" stroke-width="1.4" stroke-linecap="round" stroke-linejoin="round"/>
<path d="M16.5 16.5H1.5" stroke="#10182B" stroke-width="1.4" stroke-linecap="round" stroke-linejoin="round"/>
<path d="M15 9.75V14.25" stroke="#10182B" stroke-width="1.4" stroke-linecap="round" stroke-linejoin="round"/>
<path d="M4.20007 6.59995C3.92641 6.23564 3.49072 6 3 6C2.17157 6 1.5 6.67157 1.5 7.5C1.5 8.32845 2.17157 9 3 9C3.82843 9 4.5 8.32845 4.5 7.5C4.5 7.1623 4.3884 6.85066 4.20007 6.59995ZM4.20007 6.59995L7.79993 3.90005M7.79993 3.90005C8.0736 4.26436 8.50928 4.5 9 4.5C9.58725 4.5 10.0957 4.16254 10.3419 3.67096M7.79993 3.90005C7.6116 3.64934 7.5 3.3377 7.5 3C7.5 2.17157 8.17155 1.5 9 1.5C9.82845 1.5 10.5 2.17157 10.5 3C10.5 3.24118 10.4431 3.46907 10.3419 3.67096M10.3419 3.67096L13.6581 5.32904M13.6581 5.32904C13.5569 5.53093 13.5 5.75882 13.5 6C13.5 6.82843 14.1716 7.5 15 7.5C15.8284 7.5 16.5 6.82843 16.5 6C16.5 5.17157 15.8284 4.5 15 4.5C14.4128 4.5 13.9043 4.83746 13.6581 5.32904Z" stroke="#10182B" stroke-width="1.4"/>
</svg>
