<svg width="18" height="18" viewBox="0 0 18 18" fill="none" xmlns="http://www.w3.org/2000/svg">
<path d="M6.74961 16.5L6.56164 13.8683C6.46057 12.4535 7.58118 11.25 8.99958 11.25C10.4181 11.25 11.5386 12.4535 11.4376 13.8683L11.2496 16.5" stroke="#2B2B2B" stroke-width="1.4"/>
<path d="M1.76366 9.91012C1.4989 8.18715 1.36652 7.32572 1.69225 6.56203C2.01797 5.79834 2.74064 5.27582 4.18598 4.23079L5.26586 3.45C7.06384 2.15 7.96286 1.5 9.00011 1.5C10.0374 1.5 10.9364 2.15 12.7344 3.45L13.8143 4.23079C15.2596 5.27582 15.9823 5.79834 16.308 6.56203C16.6338 7.32572 16.5014 8.18715 16.2366 9.91012L16.0108 11.3793C15.6355 13.8217 15.4478 15.0429 14.5719 15.7714C13.6959 16.5 12.4154 16.5 9.85421 16.5H8.14601C5.58488 16.5 4.3043 16.5 3.42837 15.7714C2.55244 15.0429 2.36477 13.8217 1.98944 11.3793L1.76366 9.91012Z" stroke="#2B2B2B" stroke-width="1.4" stroke-linejoin="round"/>
</svg>
