<svg width="207" height="33" viewBox="0 0 207 33" fill="none" xmlns="http://www.w3.org/2000/svg">
<path d="M5.13922 27.7823C3.86173 26.4952 2.81786 25.1335 2.05236 23.7967C2.03744 23.896 2.03247 24.0004 2.03247 24.1048C2.04241 24.5023 2.15177 24.9148 2.32575 25.3422C2.72838 26.3212 3.47898 27.3797 4.47811 28.3886C4.47811 28.3886 4.48308 28.3886 4.48308 28.3935C4.49302 28.4035 4.49799 28.4085 4.50793 28.4134C5.26846 29.1688 6.06379 29.7801 6.82432 30.2074C7.5948 30.6348 8.34539 30.8982 9.02142 30.8336C9.02142 30.8336 9.02142 30.8336 9.02639 30.8336C7.72901 30.0733 6.41672 29.0545 5.17402 27.822C5.16408 27.8071 5.15413 27.7972 5.13922 27.7823Z" fill="#3A6593"/>
<path d="M13.848 31.733C12.8738 31.2858 11.8746 30.7242 10.8805 30.0633C10.6717 29.9887 10.4579 29.9092 10.2392 29.8148C8.96671 29.2681 7.59973 28.3587 6.33218 27.1411C6.23773 27.0517 6.14329 26.9622 6.04885 26.8678C6.02399 26.8429 5.99914 26.8131 5.97428 26.7883C4.44328 25.2328 3.37953 23.5083 2.8725 21.9926C1.95788 20.5912 1.24705 19.1898 0.759914 17.843C0.67541 18.1064 0.60582 18.3797 0.580966 18.6679C0.506404 19.4581 0.625704 20.3228 0.904068 21.2323C1.15758 22.0572 1.55027 22.917 2.05232 23.7916C2.8228 25.1284 3.86169 26.4901 5.13919 27.7723C5.1541 27.7872 5.16404 27.7971 5.17896 27.8071C6.42166 29.0445 7.73395 30.0583 9.03133 30.8186C9.41408 31.0423 9.79683 31.251 10.1746 31.4299C11.8398 32.2151 13.4255 32.563 14.7577 32.2747C14.7577 32.2747 14.7577 32.2747 14.7627 32.2747C14.8521 32.2549 14.9416 32.225 15.0311 32.2002C14.6334 32.066 14.2407 31.9119 13.848 31.733Z" fill="#5089B3"/>
<path d="M20.9961 29.7204C20.9563 29.7701 20.9215 29.8247 20.8768 29.8694C20.4542 30.2869 19.9373 30.5801 19.3159 30.759C18.5902 30.9677 17.7104 31.0025 16.741 30.8683C16.7261 30.8683 16.7112 30.8634 16.6913 30.8584C15.8016 30.7292 14.8372 30.4559 13.8381 30.0334C11.7603 29.1588 9.53339 27.6629 7.51027 25.6503C7.47548 25.6204 7.44565 25.5906 7.41086 25.5558C7.40092 25.5459 7.39097 25.531 7.37606 25.521C4.71668 22.8424 2.96696 19.806 2.33567 17.2268C2.05731 16.0937 1.99269 15.06 2.13684 14.1854C2.28099 13.3107 2.61901 12.61 3.15585 12.0733C3.19562 12.0335 3.2503 11.9987 3.29006 11.959C3.04649 11.0495 2.90731 10.1749 2.86755 9.33503C2.31082 9.55866 1.80379 9.87672 1.37631 10.2991C0.610803 11.0595 0.183316 12.0683 0.0491046 13.2014C-0.085107 14.3295 0.0590414 15.5868 0.441793 16.9137C0.531267 17.2218 0.640627 17.5349 0.754956 17.848C1.24209 19.1947 1.95292 20.5912 2.86755 21.9976C3.82691 23.4636 4.99505 24.9346 6.37196 26.3311C6.4167 26.3758 6.45646 26.4205 6.5012 26.4653C6.57576 26.5398 6.65529 26.6094 6.72986 26.6839C8.067 28.0009 9.47374 29.129 10.8755 30.0583C11.8697 30.7192 12.8688 31.2808 13.8431 31.7281C14.2407 31.907 14.6334 32.066 15.0212 32.2101C17.0144 32.9506 18.8934 33.2041 20.4791 32.8264C20.4791 32.8264 20.4841 32.8264 20.489 32.8264C21.3192 32.6226 22.0648 32.23 22.6563 31.6436C23.0788 31.2212 23.387 30.7193 23.6107 30.1676C22.7756 30.1229 21.9007 29.9688 20.9961 29.7204Z" fill="#68A5C4"/>
<path d="M30.1075 23.6873C29.8988 23.7668 29.68 23.8414 29.4564 23.896C29.4564 23.896 29.4564 23.901 29.4514 23.901C29.0239 24.0004 28.5765 24.0551 28.1142 24.065C27.9751 25.2428 27.5525 26.2218 26.8417 26.9225C26.3248 27.4344 25.6835 27.7972 24.923 28.0109C23.2429 28.488 20.9513 28.2047 18.4858 27.171C16.2589 26.2367 13.8978 24.6912 11.7056 22.6338C11.477 22.4151 11.2433 22.2014 11.0197 21.9728C10.8954 21.8486 10.7811 21.7243 10.6568 21.6051C7.7787 18.6034 5.86495 15.2489 5.14418 12.3516C4.80617 11.0049 4.72663 9.76248 4.89564 8.70396C5.06962 7.64543 5.48219 6.78569 6.13834 6.12473C6.6553 5.61286 7.29156 5.25008 8.05707 5.03639C8.35034 4.9519 8.66848 4.90221 9.00152 4.86742C9.00649 4.66367 9.01146 4.46488 9.03631 4.2661C9.09596 3.77411 9.21029 3.30696 9.38427 2.86964C8.5442 2.82491 7.7439 2.87958 6.99828 3.06345C6.02898 3.30696 5.15909 3.76417 4.47312 4.44997C3.58832 5.32959 3.0813 6.49745 2.91726 7.80446C2.85761 8.29148 2.85264 8.80335 2.87749 9.33013C2.91726 10.17 3.05644 11.0446 3.30001 11.9541C3.31492 12.0087 3.32486 12.0584 3.33978 12.1131C4.31405 15.557 6.66524 19.4184 10.11 22.8723C12.7694 25.536 15.6723 27.5537 18.4361 28.7911C19.311 29.1787 20.1659 29.4869 21.006 29.7155C21.9107 29.9639 22.7855 30.118 23.6157 30.1627C24.4557 30.2075 25.2511 30.1528 25.9867 29.9689C25.9917 29.9689 25.9917 29.9689 25.9917 29.9689C26.961 29.7254 27.8259 29.2682 28.5169 28.5824C29.7298 27.3599 30.207 25.6354 30.1075 23.6873Z" fill="#7FB0CC"/>
<path d="M32.5633 16.0938C32.4837 15.8105 32.3843 15.5223 32.2799 15.234C32.1308 15.6068 31.922 15.9447 31.6337 16.228C31.4051 16.4566 31.1416 16.6355 30.8533 16.7746C30.9577 17.5201 30.9627 18.2108 30.8682 18.8171C30.7191 19.6918 30.3861 20.3975 29.8492 20.9292C29.4267 21.3467 28.9097 21.6399 28.2884 21.8188C26.8866 22.2213 24.9281 21.9877 22.8155 21.0932C20.8521 20.2682 18.7643 18.8867 16.8357 17.043C16.6865 16.8989 16.5374 16.7597 16.3883 16.6106C16.2889 16.5112 16.1895 16.4069 16.09 16.3025C13.5798 13.6935 11.9195 10.7763 11.3081 8.28155C11.0298 7.15345 10.9652 6.1148 11.1093 5.24512C11.2535 4.37047 11.5915 3.66975 12.1283 3.13304C12.5459 2.71559 13.0628 2.42238 13.6842 2.24348C14.4199 2.02978 15.3096 1.99997 16.2889 2.14409C16.4281 1.86579 16.602 1.6024 16.8257 1.37877C17.1091 1.0955 17.452 0.886774 17.8249 0.737686C15.8862 0.0369709 14.062 -0.196601 12.521 0.17612C11.6859 0.379874 10.9403 0.767503 10.3488 1.35889C9.91631 1.78627 9.59321 2.29814 9.36953 2.86965C9.19555 3.30697 9.08122 3.77412 9.02157 4.26611C8.99672 4.45992 8.99671 4.66368 8.98677 4.86743C8.95198 5.8365 9.09613 6.88509 9.40929 7.97841C10.2842 11.0198 12.3918 14.4439 15.4637 17.53C17.8199 19.8906 20.3749 21.6846 22.8056 22.7978C24.6895 23.6575 26.5039 24.1098 28.1045 24.065C28.5668 24.0501 29.0191 24.0004 29.4416 23.901C29.4416 23.901 29.4416 23.8961 29.4466 23.8961C29.6703 23.8414 29.884 23.7718 30.0978 23.6873C30.6694 23.4637 31.1864 23.1407 31.6188 22.7133C32.3843 21.9529 32.8118 20.9391 32.946 19.811C33.0902 18.673 32.9411 17.4207 32.5633 16.0938Z" fill="#9AC6DD"/>
<path d="M32.2103 11.6261C31.8624 10.5079 31.2659 9.31521 30.4706 8.12251C30.5948 8.44553 30.6793 8.75862 30.7042 9.05679C30.734 9.42455 30.6545 9.77739 30.4209 10.0159C30.3065 10.1253 30.1624 10.1998 30.0083 10.2445C30.1773 10.6421 30.3115 11.0347 30.4059 11.4025C30.5899 12.123 30.6346 12.7741 30.5551 13.3058C30.4706 13.8425 30.2767 14.25 29.9685 14.5582C29.7299 14.8017 29.4267 14.9657 29.0489 15.07C28.2088 15.3086 26.9612 15.1545 25.5992 14.5631C24.2322 13.9767 22.7559 12.9728 21.4138 11.6211C19.6591 9.8569 18.4959 7.86906 18.0734 6.20921C17.8895 5.48861 17.8398 4.83263 17.9243 4.30088C18.0088 3.76416 18.2026 3.35665 18.5158 3.04854C18.7594 2.80503 19.0526 2.63606 19.4304 2.5317C20.2506 2.29813 21.4585 2.44224 22.7807 2.99884C22.8255 2.84478 22.905 2.70066 23.0144 2.59133C23.1933 2.41243 23.4518 2.32297 23.7302 2.30807C24.1129 2.29316 24.5255 2.40249 24.9579 2.57642C24.2819 2.11922 23.6109 1.73159 22.9497 1.41851C21.2796 0.633307 19.6988 0.280465 18.3667 0.568702C18.1827 0.608459 18.0088 0.668094 17.8398 0.737669C17.4669 0.886757 17.124 1.09548 16.8406 1.37875C16.6169 1.60238 16.443 1.8608 16.3038 2.14407C16.1099 2.5317 15.9857 2.95908 15.9409 3.41629C15.8664 4.20646 15.9857 5.07117 16.269 5.98061C16.9052 8.03802 18.3518 10.339 20.4196 12.4361C20.4494 12.4659 20.4743 12.4958 20.5041 12.5256C20.5737 12.6001 20.6532 12.6647 20.7228 12.7343C22.2787 14.25 23.9439 15.4278 25.5296 16.1832C27.1948 16.9684 28.7855 17.3213 30.1127 17.033H30.1226C30.3861 16.9734 30.6346 16.8839 30.8682 16.7696C31.1565 16.6305 31.42 16.4516 31.6486 16.223C31.932 15.9397 32.1457 15.6018 32.2948 15.229C32.4241 14.9011 32.5136 14.5532 32.5484 14.1854C32.608 13.4052 32.4887 12.5355 32.2103 11.6261Z" fill="#B6D4E3"/>
<path d="M30.7039 9.05697C30.679 8.7588 30.5945 8.44571 30.4703 8.12269C30.4355 8.0382 30.4007 7.95372 30.3659 7.86924C29.9334 6.92501 29.163 5.87642 28.1638 4.87256C27.3933 4.10227 26.598 3.47113 25.8425 3.02387C25.5392 2.84496 25.246 2.70084 24.9577 2.58157C24.5252 2.40267 24.1126 2.29831 23.7299 2.31321C23.4515 2.32812 23.193 2.41758 23.0141 2.59648C22.8997 2.71078 22.8252 2.84993 22.7804 3.00399C22.7307 3.17296 22.7158 3.35683 22.7307 3.55065C22.7556 3.92337 22.8848 4.32094 23.0737 4.73341C23.5112 5.68261 24.2767 6.72623 25.2758 7.73506C25.2808 7.74003 25.2857 7.745 25.2907 7.74997C25.3404 7.79966 25.3951 7.84439 25.4448 7.89409C26.1606 8.58486 26.8913 9.16133 27.5972 9.57878C28.3477 10.026 29.0735 10.3193 29.7097 10.2894H29.7147C29.8191 10.2845 29.9185 10.2646 30.013 10.2397C30.172 10.195 30.3162 10.1205 30.4255 10.0111C30.6492 9.77757 30.7337 9.42472 30.7039 9.05697ZM29.158 8.38608C29.1282 8.41589 29.0884 8.43577 29.0138 8.45068C28.8399 8.48547 28.4173 8.40595 27.8954 8.13263C27.3784 7.86427 26.777 7.417 26.2004 6.84053C25.4547 6.09509 24.9278 5.28504 24.7191 4.69863C24.6246 4.44518 24.5898 4.24142 24.5948 4.10724C24.5998 3.97306 24.6296 3.9184 24.6644 3.88361C24.6942 3.85379 24.734 3.83391 24.8135 3.81901C24.9875 3.78422 25.415 3.86373 25.927 4.14203C26.4489 4.41536 27.0404 4.85268 27.617 5.42419L27.622 5.42916C28.3676 6.1746 28.8945 6.98465 29.1033 7.57106C29.1978 7.82451 29.2325 8.02826 29.2276 8.16244C29.2276 8.29662 29.1977 8.34632 29.158 8.38608Z" fill="#D0E3F3"/>
<path d="M40.176 8.16H48.984V10.812H43.176V14.736H48.564V17.376H43.176V24H40.176V8.16ZM57.876 24V22.284C57.804 22.46 57.62 22.708 57.324 23.028C57.028 23.348 56.628 23.64 56.124 23.904C55.628 24.16 55.044 24.288 54.372 24.288C53.428 24.288 52.592 24.064 51.864 23.616C51.136 23.16 50.564 22.54 50.148 21.756C49.74 20.964 49.536 20.072 49.536 19.08C49.536 18.088 49.74 17.2 50.148 16.416C50.564 15.624 51.136 15 51.864 14.544C52.592 14.088 53.428 13.86 54.372 13.86C55.028 13.86 55.596 13.972 56.076 14.196C56.564 14.412 56.956 14.668 57.252 14.964C57.556 15.252 57.752 15.512 57.84 15.744V14.148H60.864V24H57.876ZM52.524 19.08C52.524 19.632 52.648 20.12 52.896 20.544C53.144 20.96 53.472 21.284 53.88 21.516C54.288 21.748 54.732 21.864 55.212 21.864C55.716 21.864 56.164 21.748 56.556 21.516C56.948 21.276 57.256 20.948 57.48 20.532C57.712 20.108 57.828 19.624 57.828 19.08C57.828 18.536 57.712 18.056 57.48 17.64C57.256 17.216 56.948 16.884 56.556 16.644C56.164 16.404 55.716 16.284 55.212 16.284C54.732 16.284 54.288 16.404 53.88 16.644C53.472 16.876 53.144 17.204 52.896 17.628C52.648 18.044 52.524 18.528 52.524 19.08ZM67.9622 21.864C68.4822 21.864 68.9062 21.776 69.2342 21.6C69.5622 21.424 69.7782 21.292 69.8822 21.204L71.2982 23.304C71.1862 23.392 70.9782 23.516 70.6742 23.676C70.3702 23.836 69.9822 23.976 69.5102 24.096C69.0462 24.224 68.5142 24.288 67.9142 24.288C66.8742 24.288 65.9422 24.08 65.1182 23.664C64.2942 23.24 63.6422 22.64 63.1622 21.864C62.6902 21.08 62.4542 20.148 62.4542 19.068C62.4542 17.98 62.6902 17.048 63.1622 16.272C63.6422 15.496 64.2942 14.9 65.1182 14.484C65.9422 14.068 66.8742 13.86 67.9142 13.86C68.5062 13.86 69.0302 13.924 69.4862 14.052C69.9502 14.18 70.3382 14.328 70.6502 14.496C70.9622 14.656 71.1782 14.788 71.2982 14.892L69.8462 17.004C69.7902 16.94 69.6822 16.852 69.5222 16.74C69.3622 16.628 69.1502 16.524 68.8862 16.428C68.6302 16.332 68.3222 16.284 67.9622 16.284C67.5222 16.284 67.1022 16.4 66.7022 16.632C66.3102 16.864 65.9902 17.188 65.7422 17.604C65.4942 18.02 65.3702 18.508 65.3702 19.068C65.3702 19.628 65.4942 20.12 65.7422 20.544C65.9902 20.96 66.3102 21.284 66.7022 21.516C67.1022 21.748 67.5222 21.864 67.9622 21.864ZM71.5974 14.148H73.3734V10.104H76.3974V14.148H78.7254V16.68H76.3974V20.244C76.3974 20.716 76.4734 21.084 76.6254 21.348C76.7774 21.604 77.0174 21.732 77.3454 21.732C77.5934 21.732 77.7974 21.684 77.9574 21.588C78.1174 21.484 78.2134 21.412 78.2454 21.372L79.3254 23.556C79.2774 23.604 79.1214 23.688 78.8574 23.808C78.6014 23.928 78.2694 24.036 77.8614 24.132C77.4614 24.236 77.0094 24.288 76.5054 24.288C75.6014 24.288 74.8534 24.028 74.2614 23.508C73.6694 22.98 73.3734 22.164 73.3734 21.06V16.68H71.5974V14.148ZM85.2075 24.288C84.1595 24.288 83.2235 24.064 82.3995 23.616C81.5835 23.168 80.9435 22.556 80.4795 21.78C80.0155 20.996 79.7835 20.104 79.7835 19.104C79.7835 18.104 80.0155 17.212 80.4795 16.428C80.9435 15.636 81.5835 15.012 82.3995 14.556C83.2235 14.092 84.1595 13.86 85.2075 13.86C86.2635 13.86 87.1955 14.092 88.0035 14.556C88.8115 15.012 89.4435 15.636 89.8995 16.428C90.3555 17.212 90.5835 18.104 90.5835 19.104C90.5835 20.104 90.3555 20.996 89.8995 21.78C89.4435 22.556 88.8115 23.168 88.0035 23.616C87.1955 24.064 86.2635 24.288 85.2075 24.288ZM85.2075 21.756C85.7115 21.756 86.1475 21.644 86.5155 21.42C86.8915 21.188 87.1795 20.872 87.3795 20.472C87.5875 20.064 87.6915 19.604 87.6915 19.092C87.6915 18.58 87.5875 18.12 87.3795 17.712C87.1795 17.304 86.8915 16.984 86.5155 16.752C86.1475 16.512 85.7115 16.392 85.2075 16.392C84.7035 16.392 84.2635 16.512 83.8875 16.752C83.5195 16.984 83.2315 17.304 83.0235 17.712C82.8155 18.12 82.7115 18.58 82.7115 19.092C82.7115 19.604 82.8155 20.064 83.0235 20.472C83.2315 20.872 83.5195 21.188 83.8875 21.42C84.2635 21.644 84.7035 21.756 85.2075 21.756ZM94.9933 24H91.9453V14.148H94.9933V15.744H94.9333C94.9893 15.552 95.1413 15.308 95.3893 15.012C95.6453 14.716 95.9973 14.452 96.4453 14.22C96.8933 13.98 97.4333 13.86 98.0653 13.86C98.5213 13.86 98.9333 13.928 99.3013 14.064C99.6773 14.192 99.9453 14.32 100.105 14.448L98.9053 16.944C98.8013 16.816 98.6053 16.684 98.3173 16.548C98.0373 16.412 97.6853 16.344 97.2613 16.344C96.7573 16.344 96.3373 16.484 96.0013 16.764C95.6653 17.036 95.4133 17.372 95.2453 17.772C95.0773 18.164 94.9933 18.532 94.9933 18.876V24ZM105.395 21.324L108.311 14.148H111.323L104.591 28.992H101.531L103.799 24L99.7071 14.148H102.755L105.395 21.324ZM133.785 8.16V24H130.797V13.86L130.941 11.556L130.401 14.172L127.293 22.872H124.341L121.245 14.172L120.717 11.556L120.849 13.86V24H117.849V8.16H122.001L125.625 19.452L125.817 20.532L126.009 19.452L129.645 8.16H133.785ZM144.083 24V22.284C144.011 22.46 143.827 22.708 143.531 23.028C143.235 23.348 142.835 23.64 142.331 23.904C141.835 24.16 141.251 24.288 140.579 24.288C139.635 24.288 138.799 24.064 138.071 23.616C137.343 23.16 136.771 22.54 136.355 21.756C135.947 20.964 135.743 20.072 135.743 19.08C135.743 18.088 135.947 17.2 136.355 16.416C136.771 15.624 137.343 15 138.071 14.544C138.799 14.088 139.635 13.86 140.579 13.86C141.235 13.86 141.803 13.972 142.283 14.196C142.771 14.412 143.163 14.668 143.459 14.964C143.763 15.252 143.959 15.512 144.047 15.744V14.148H147.071V24H144.083ZM138.731 19.08C138.731 19.632 138.855 20.12 139.103 20.544C139.351 20.96 139.679 21.284 140.087 21.516C140.495 21.748 140.939 21.864 141.419 21.864C141.923 21.864 142.371 21.748 142.763 21.516C143.155 21.276 143.463 20.948 143.687 20.532C143.919 20.108 144.035 19.624 144.035 19.08C144.035 18.536 143.919 18.056 143.687 17.64C143.463 17.216 143.155 16.884 142.763 16.644C142.371 16.404 141.923 16.284 141.419 16.284C140.939 16.284 140.495 16.404 140.087 16.644C139.679 16.876 139.351 17.204 139.103 17.628C138.855 18.044 138.731 18.528 138.731 19.08ZM155.381 13.86C156.053 13.86 156.709 14 157.349 14.28C157.989 14.552 158.513 14.988 158.921 15.588C159.337 16.188 159.545 16.972 159.545 17.94V24H156.485V18.468C156.485 17.66 156.293 17.06 155.909 16.668C155.533 16.276 155.037 16.08 154.421 16.08C154.021 16.08 153.637 16.192 153.269 16.416C152.909 16.632 152.613 16.936 152.381 17.328C152.157 17.712 152.045 18.152 152.045 18.648V24H148.997V14.148H152.045V15.72C152.133 15.448 152.333 15.168 152.645 14.88C152.957 14.592 153.353 14.352 153.833 14.16C154.313 13.96 154.829 13.86 155.381 13.86ZM169.185 24V22.284C169.113 22.46 168.929 22.708 168.633 23.028C168.337 23.348 167.937 23.64 167.433 23.904C166.937 24.16 166.353 24.288 165.681 24.288C164.737 24.288 163.901 24.064 163.173 23.616C162.445 23.16 161.873 22.54 161.457 21.756C161.049 20.964 160.845 20.072 160.845 19.08C160.845 18.088 161.049 17.2 161.457 16.416C161.873 15.624 162.445 15 163.173 14.544C163.901 14.088 164.737 13.86 165.681 13.86C166.337 13.86 166.905 13.972 167.385 14.196C167.873 14.412 168.265 14.668 168.561 14.964C168.865 15.252 169.061 15.512 169.149 15.744V14.148H172.173V24H169.185ZM163.833 19.08C163.833 19.632 163.957 20.12 164.205 20.544C164.453 20.96 164.781 21.284 165.189 21.516C165.597 21.748 166.041 21.864 166.521 21.864C167.025 21.864 167.473 21.748 167.865 21.516C168.257 21.276 168.565 20.948 168.789 20.532C169.021 20.108 169.137 19.624 169.137 19.08C169.137 18.536 169.021 18.056 168.789 17.64C168.565 17.216 168.257 16.884 167.865 16.644C167.473 16.404 167.025 16.284 166.521 16.284C166.041 16.284 165.597 16.404 165.189 16.644C164.781 16.876 164.453 17.204 164.205 17.628C163.957 18.044 163.833 18.528 163.833 19.08ZM179.188 29.268C178.468 29.268 177.776 29.2 177.112 29.064C176.456 28.928 175.86 28.716 175.324 28.428C174.788 28.14 174.34 27.764 173.98 27.3L175.828 25.428C175.996 25.644 176.212 25.86 176.476 26.076C176.748 26.3 177.092 26.484 177.508 26.628C177.924 26.78 178.444 26.856 179.068 26.856C179.66 26.856 180.168 26.74 180.592 26.508C181.024 26.284 181.356 25.964 181.588 25.548C181.828 25.132 181.948 24.648 181.948 24.096V23.82H184.936V24.276C184.936 25.364 184.68 26.28 184.168 27.024C183.656 27.768 182.968 28.328 182.104 28.704C181.24 29.08 180.268 29.268 179.188 29.268ZM181.948 24V22.284C181.876 22.46 181.692 22.708 181.396 23.028C181.1 23.348 180.7 23.64 180.196 23.904C179.7 24.16 179.116 24.288 178.444 24.288C177.5 24.288 176.664 24.064 175.936 23.616C175.208 23.16 174.636 22.54 174.22 21.756C173.812 20.964 173.608 20.072 173.608 19.08C173.608 18.088 173.812 17.2 174.22 16.416C174.636 15.624 175.208 15 175.936 14.544C176.664 14.088 177.5 13.86 178.444 13.86C179.1 13.86 179.668 13.972 180.148 14.196C180.636 14.412 181.028 14.668 181.324 14.964C181.628 15.252 181.824 15.512 181.912 15.744V14.148H184.936V24H181.948ZM176.596 19.08C176.596 19.632 176.72 20.12 176.968 20.544C177.216 20.96 177.544 21.284 177.952 21.516C178.36 21.748 178.804 21.864 179.284 21.864C179.788 21.864 180.236 21.748 180.628 21.516C181.02 21.276 181.328 20.948 181.552 20.532C181.784 20.108 181.9 19.624 181.9 19.08C181.9 18.536 181.784 18.056 181.552 17.64C181.328 17.216 181.02 16.884 180.628 16.644C180.236 16.404 179.788 16.284 179.284 16.284C178.804 16.284 178.36 16.404 177.952 16.644C177.544 16.876 177.216 17.204 176.968 17.628C176.72 18.044 176.596 18.528 176.596 19.08ZM189.273 19.752C189.297 20.2 189.417 20.6 189.633 20.952C189.849 21.304 190.161 21.58 190.569 21.78C190.985 21.98 191.481 22.08 192.057 22.08C192.577 22.08 193.033 22.016 193.425 21.888C193.825 21.76 194.161 21.604 194.433 21.42C194.713 21.228 194.921 21.044 195.057 20.868L196.317 22.74C196.093 23.02 195.793 23.28 195.417 23.52C195.049 23.752 194.577 23.936 194.001 24.072C193.433 24.216 192.721 24.288 191.865 24.288C190.785 24.288 189.837 24.076 189.021 23.652C188.205 23.228 187.569 22.616 187.113 21.816C186.657 21.016 186.429 20.064 186.429 18.96C186.429 18 186.633 17.136 187.041 16.368C187.449 15.592 188.041 14.98 188.817 14.532C189.601 14.084 190.541 13.86 191.637 13.86C192.669 13.86 193.561 14.06 194.313 14.46C195.073 14.852 195.661 15.428 196.077 16.188C196.493 16.948 196.701 17.876 196.701 18.972C196.701 19.036 196.697 19.168 196.689 19.368C196.689 19.56 196.681 19.688 196.665 19.752H189.273ZM193.845 17.868C193.837 17.612 193.757 17.336 193.605 17.04C193.461 16.744 193.233 16.492 192.921 16.284C192.609 16.076 192.193 15.972 191.673 15.972C191.153 15.972 190.725 16.072 190.389 16.272C190.061 16.472 189.813 16.72 189.645 17.016C189.477 17.304 189.381 17.588 189.357 17.868H193.845ZM201.111 24H198.063V14.148H201.111V15.744H201.051C201.107 15.552 201.259 15.308 201.507 15.012C201.763 14.716 202.115 14.452 202.563 14.22C203.011 13.98 203.551 13.86 204.183 13.86C204.639 13.86 205.051 13.928 205.419 14.064C205.795 14.192 206.063 14.32 206.223 14.448L205.023 16.944C204.919 16.816 204.723 16.684 204.435 16.548C204.155 16.412 203.803 16.344 203.379 16.344C202.875 16.344 202.455 16.484 202.119 16.764C201.783 17.036 201.531 17.372 201.363 17.772C201.195 18.164 201.111 18.532 201.111 18.876V24Z" fill="#1D1D1D"/>
</svg>
