<svg width="188" height="45" viewBox="0 0 188 45" fill="none" xmlns="http://www.w3.org/2000/svg">
<path d="M0 9.11111C0 4.07918 4.07918 0 9.11111 0H35.8889C40.9208 0 45 4.07918 45 9.11111V35.8889C45 40.9208 40.9208 45 35.8889 45H9.11111C4.07918 45 0 40.9208 0 35.8889V9.11111Z" fill="#10182B"/>
<path d="M20.5588 11.2284L13.6837 14.1231C12.2003 14.7477 11.4586 15.06 11.0413 15.6885C10.624 16.317 10.624 17.1218 10.624 18.7313V34.374H14.374V21.874C14.374 20.6955 14.374 20.1063 14.7401 19.7401C15.1063 19.374 15.6955 19.374 16.874 19.374H28.124C29.3025 19.374 29.8918 19.374 30.2579 19.7401C30.624 20.1063 30.624 20.6955 30.624 21.874V34.374H34.374V18.7313C34.374 17.1218 34.374 16.317 33.9568 15.6885C33.5394 15.06 32.7978 14.7477 31.3143 14.1231L24.4393 11.2284C23.4824 10.8255 23.0039 10.624 22.499 10.624C21.9941 10.624 21.5156 10.8255 20.5588 11.2284Z" stroke="#3CA0C9" stroke-width="2" stroke-linecap="round"/>
<path d="M21.251 15.6255H23.751" stroke="#3CA0C9" stroke-width="2" stroke-linecap="round"/>
<path d="M23.75 26.875H21.25C20.0715 26.875 19.4822 26.875 19.1161 27.2411C18.75 27.6073 18.75 28.1965 18.75 29.375V31.875C18.75 33.0535 18.75 33.6427 19.1161 34.0089C19.4822 34.375 20.0715 34.375 21.25 34.375H23.75C24.9285 34.375 25.5177 34.375 25.8839 34.0089C26.25 33.6427 26.25 33.0535 26.25 31.875V29.375C26.25 28.1965 26.25 27.6073 25.8839 27.2411C25.5177 26.875 24.9285 26.875 23.75 26.875Z" stroke="#3CA0C9" stroke-width="2" stroke-linecap="round"/>
<path d="M54.2585 15.12H61.1255V17.478H56.9495V19.872H60.8105V22.221H56.9495V27H54.2585V15.12ZM68.0144 27V25.803C67.9604 25.923 67.8224 26.097 67.6004 26.325C67.3844 26.553 67.0964 26.76 66.7364 26.946C66.3764 27.126 65.9564 27.216 65.4764 27.216C64.7564 27.216 64.1264 27.042 63.5864 26.694C63.0464 26.34 62.6264 25.869 62.3264 25.281C62.0264 24.687 61.8764 24.03 61.8764 23.31C61.8764 22.59 62.0264 21.936 62.3264 21.348C62.6264 20.754 63.0464 20.28 63.5864 19.926C64.1264 19.572 64.7564 19.395 65.4764 19.395C65.9384 19.395 66.3434 19.47 66.6914 19.62C67.0394 19.764 67.3214 19.938 67.5374 20.142C67.7534 20.34 67.9034 20.523 67.9874 20.691V19.611H70.7054V27H68.0144ZM64.5584 23.31C64.5584 23.646 64.6364 23.949 64.7924 24.219C64.9484 24.483 65.1554 24.69 65.4134 24.84C65.6774 24.99 65.9684 25.065 66.2864 25.065C66.6164 25.065 66.9074 24.99 67.1594 24.84C67.4114 24.69 67.6094 24.483 67.7534 24.219C67.9034 23.949 67.9784 23.646 67.9784 23.31C67.9784 22.974 67.9034 22.674 67.7534 22.41C67.6094 22.14 67.4114 21.93 67.1594 21.78C66.9074 21.624 66.6164 21.546 66.2864 21.546C65.9684 21.546 65.6774 21.624 65.4134 21.78C65.1554 21.93 64.9484 22.14 64.7924 22.41C64.6364 22.674 64.5584 22.974 64.5584 23.31ZM76.4465 25.065C76.7885 25.065 77.0705 25.008 77.2925 24.894C77.5145 24.774 77.6645 24.678 77.7425 24.606L78.9935 26.46C78.8975 26.538 78.7325 26.64 78.4985 26.766C78.2645 26.886 77.9705 26.991 77.6165 27.081C77.2685 27.171 76.8695 27.216 76.4195 27.216C75.5735 27.216 74.8295 27.057 74.1875 26.739C73.5455 26.415 73.0445 25.959 72.6845 25.371C72.3305 24.783 72.1535 24.093 72.1535 23.301C72.1535 22.503 72.3305 21.813 72.6845 21.231C73.0445 20.649 73.5455 20.199 74.1875 19.881C74.8295 19.557 75.5735 19.395 76.4195 19.395C76.8635 19.395 77.2595 19.443 77.6075 19.539C77.9615 19.629 78.2585 19.734 78.4985 19.854C78.7385 19.968 78.9065 20.067 79.0025 20.151L77.7245 22.023C77.6825 21.981 77.6045 21.921 77.4905 21.843C77.3825 21.765 77.2415 21.696 77.0675 21.636C76.8935 21.576 76.6865 21.546 76.4465 21.546C76.1525 21.546 75.8765 21.621 75.6185 21.771C75.3665 21.921 75.1625 22.128 75.0065 22.392C74.8505 22.656 74.7725 22.959 74.7725 23.301C74.7725 23.643 74.8505 23.949 75.0065 24.219C75.1625 24.483 75.3665 24.69 75.6185 24.84C75.8765 24.99 76.1525 25.065 76.4465 25.065ZM79.4053 19.611H80.6653V16.578H83.3743V19.611H85.0303V21.861H83.3743V23.922C83.3743 24.228 83.4193 24.477 83.5093 24.669C83.5993 24.855 83.7643 24.948 84.0043 24.948C84.1663 24.948 84.3043 24.912 84.4183 24.84C84.5323 24.768 84.6013 24.72 84.6253 24.696L85.5613 26.64C85.5193 26.676 85.3873 26.742 85.1653 26.838C84.9493 26.934 84.6733 27.021 84.3373 27.099C84.0013 27.177 83.6263 27.216 83.2123 27.216C82.4743 27.216 81.8653 27.009 81.3853 26.595C80.9053 26.175 80.6653 25.53 80.6653 24.66V21.861H79.4053V19.611ZM90.3364 27.216C89.5264 27.216 88.8064 27.051 88.1764 26.721C87.5524 26.385 87.0604 25.926 86.7004 25.344C86.3464 24.756 86.1694 24.084 86.1694 23.328C86.1694 22.572 86.3464 21.9 86.7004 21.312C87.0604 20.718 87.5524 20.25 88.1764 19.908C88.8064 19.566 89.5264 19.395 90.3364 19.395C91.1464 19.395 91.8604 19.566 92.4784 19.908C93.0964 20.25 93.5794 20.718 93.9274 21.312C94.2754 21.9 94.4494 22.572 94.4494 23.328C94.4494 24.084 94.2754 24.756 93.9274 25.344C93.5794 25.926 93.0964 26.385 92.4784 26.721C91.8604 27.051 91.1464 27.216 90.3364 27.216ZM90.3364 24.966C90.6484 24.966 90.9184 24.897 91.1464 24.759C91.3744 24.621 91.5514 24.426 91.6774 24.174C91.8034 23.922 91.8664 23.637 91.8664 23.319C91.8664 22.995 91.8034 22.707 91.6774 22.455C91.5514 22.203 91.3744 22.005 91.1464 21.861C90.9184 21.717 90.6484 21.645 90.3364 21.645C90.0244 21.645 89.7514 21.717 89.5174 21.861C89.2894 22.005 89.1094 22.203 88.9774 22.455C88.8514 22.707 88.7884 22.995 88.7884 23.319C88.7884 23.637 88.8514 23.922 88.9774 24.174C89.1094 24.426 89.2894 24.621 89.5174 24.759C89.7514 24.897 90.0244 24.966 90.3364 24.966ZM98.3752 27H95.6392V19.611H98.3752V20.754H98.3302C98.3782 20.616 98.4952 20.442 98.6812 20.232C98.8672 20.016 99.1282 19.824 99.4642 19.656C99.8002 19.482 100.211 19.395 100.697 19.395C101.039 19.395 101.354 19.449 101.642 19.557C101.93 19.659 102.14 19.758 102.272 19.854L101.21 22.077C101.126 21.975 100.976 21.87 100.76 21.762C100.55 21.648 100.286 21.591 99.9682 21.591C99.6022 21.591 99.2992 21.684 99.0592 21.87C98.8252 22.056 98.6512 22.281 98.5372 22.545C98.4292 22.809 98.3752 23.058 98.3752 23.292V27ZM106.736 24.633L108.734 19.611H111.416L106.34 30.744H103.604L105.314 27L102.227 19.611H104.954L106.736 24.633ZM129.682 15.12V27H127V20.007L127.117 18.018L126.658 20.295L124.66 26.046H122.023L120.034 20.295L119.584 18.018L119.701 20.007V27H117.01V15.12H120.79L123.184 23.049L123.346 23.994L123.508 23.049L125.902 15.12H129.682ZM137.571 27V25.803C137.517 25.923 137.379 26.097 137.157 26.325C136.941 26.553 136.653 26.76 136.293 26.946C135.933 27.126 135.513 27.216 135.033 27.216C134.313 27.216 133.683 27.042 133.143 26.694C132.603 26.34 132.183 25.869 131.883 25.281C131.583 24.687 131.433 24.03 131.433 23.31C131.433 22.59 131.583 21.936 131.883 21.348C132.183 20.754 132.603 20.28 133.143 19.926C133.683 19.572 134.313 19.395 135.033 19.395C135.495 19.395 135.9 19.47 136.248 19.62C136.596 19.764 136.878 19.938 137.094 20.142C137.31 20.34 137.46 20.523 137.544 20.691V19.611H140.262V27H137.571ZM134.115 23.31C134.115 23.646 134.193 23.949 134.349 24.219C134.505 24.483 134.712 24.69 134.97 24.84C135.234 24.99 135.525 25.065 135.843 25.065C136.173 25.065 136.464 24.99 136.716 24.84C136.968 24.69 137.166 24.483 137.31 24.219C137.46 23.949 137.535 23.646 137.535 23.31C137.535 22.974 137.46 22.674 137.31 22.41C137.166 22.14 136.968 21.93 136.716 21.78C136.464 21.624 136.173 21.546 135.843 21.546C135.525 21.546 135.234 21.624 134.97 21.78C134.712 21.93 134.505 22.14 134.349 22.41C134.193 22.674 134.115 22.974 134.115 23.31ZM147.083 19.395C147.599 19.395 148.103 19.5 148.595 19.71C149.087 19.92 149.492 20.253 149.81 20.709C150.128 21.159 150.287 21.753 150.287 22.491V27H147.542V22.941C147.542 22.413 147.416 22.017 147.164 21.753C146.912 21.483 146.582 21.348 146.174 21.348C145.904 21.348 145.649 21.42 145.409 21.564C145.175 21.702 144.983 21.9 144.833 22.158C144.689 22.41 144.617 22.701 144.617 23.031V27H141.881V19.611H144.617V20.7C144.689 20.502 144.839 20.304 145.067 20.106C145.301 19.902 145.592 19.734 145.94 19.602C146.294 19.464 146.675 19.395 147.083 19.395ZM157.61 27V25.803C157.556 25.923 157.418 26.097 157.196 26.325C156.98 26.553 156.692 26.76 156.332 26.946C155.972 27.126 155.552 27.216 155.072 27.216C154.352 27.216 153.722 27.042 153.182 26.694C152.642 26.34 152.222 25.869 151.922 25.281C151.622 24.687 151.472 24.03 151.472 23.31C151.472 22.59 151.622 21.936 151.922 21.348C152.222 20.754 152.642 20.28 153.182 19.926C153.722 19.572 154.352 19.395 155.072 19.395C155.534 19.395 155.939 19.47 156.287 19.62C156.635 19.764 156.917 19.938 157.133 20.142C157.349 20.34 157.499 20.523 157.583 20.691V19.611H160.301V27H157.61ZM154.154 23.31C154.154 23.646 154.232 23.949 154.388 24.219C154.544 24.483 154.751 24.69 155.009 24.84C155.273 24.99 155.564 25.065 155.882 25.065C156.212 25.065 156.503 24.99 156.755 24.84C157.007 24.69 157.205 24.483 157.349 24.219C157.499 23.949 157.574 23.646 157.574 23.31C157.574 22.974 157.499 22.674 157.349 22.41C157.205 22.14 157.007 21.93 156.755 21.78C156.503 21.624 156.212 21.546 155.882 21.546C155.564 21.546 155.273 21.624 155.009 21.78C154.751 21.93 154.544 22.14 154.388 22.41C154.232 22.674 154.154 22.974 154.154 23.31ZM165.916 30.951C165.4 30.951 164.887 30.906 164.377 30.816C163.873 30.726 163.402 30.573 162.964 30.357C162.526 30.141 162.157 29.844 161.857 29.466L163.459 27.801C163.597 27.963 163.765 28.122 163.963 28.278C164.167 28.434 164.416 28.563 164.71 28.665C165.01 28.767 165.373 28.818 165.799 28.818C166.195 28.818 166.54 28.749 166.834 28.611C167.128 28.473 167.356 28.272 167.518 28.008C167.686 27.744 167.77 27.423 167.77 27.045V26.865H170.461V27.207C170.461 28.023 170.257 28.71 169.849 29.268C169.447 29.826 168.904 30.246 168.22 30.528C167.536 30.81 166.768 30.951 165.916 30.951ZM167.77 27V25.803C167.716 25.923 167.578 26.097 167.356 26.325C167.14 26.553 166.852 26.76 166.492 26.946C166.132 27.126 165.712 27.216 165.232 27.216C164.512 27.216 163.882 27.042 163.342 26.694C162.802 26.34 162.382 25.869 162.082 25.281C161.782 24.687 161.632 24.03 161.632 23.31C161.632 22.59 161.782 21.936 162.082 21.348C162.382 20.754 162.802 20.28 163.342 19.926C163.882 19.572 164.512 19.395 165.232 19.395C165.694 19.395 166.099 19.47 166.447 19.62C166.795 19.764 167.077 19.938 167.293 20.142C167.509 20.34 167.659 20.523 167.743 20.691V19.611H170.461V27H167.77ZM164.314 23.31C164.314 23.646 164.392 23.949 164.548 24.219C164.704 24.483 164.911 24.69 165.169 24.84C165.433 24.99 165.724 25.065 166.042 25.065C166.372 25.065 166.663 24.99 166.915 24.84C167.167 24.69 167.365 24.483 167.509 24.219C167.659 23.949 167.734 23.646 167.734 23.31C167.734 22.974 167.659 22.674 167.509 22.41C167.365 22.14 167.167 21.93 166.915 21.78C166.663 21.624 166.372 21.546 166.042 21.546C165.724 21.546 165.433 21.624 165.169 21.78C164.911 21.93 164.704 22.14 164.548 22.41C164.392 22.674 164.314 22.974 164.314 23.31ZM174.393 23.886C174.411 24.15 174.495 24.384 174.645 24.588C174.795 24.792 175.002 24.954 175.266 25.074C175.536 25.188 175.854 25.245 176.22 25.245C176.568 25.245 176.88 25.209 177.156 25.137C177.438 25.065 177.681 24.975 177.885 24.867C178.095 24.759 178.257 24.648 178.371 24.534L179.433 26.226C179.283 26.388 179.07 26.547 178.794 26.703C178.524 26.853 178.167 26.976 177.723 27.072C177.279 27.168 176.718 27.216 176.04 27.216C175.224 27.216 174.498 27.063 173.862 26.757C173.226 26.451 172.725 26.001 172.359 25.407C171.993 24.813 171.81 24.087 171.81 23.229C171.81 22.509 171.966 21.861 172.278 21.285C172.596 20.703 173.055 20.244 173.655 19.908C174.255 19.566 174.978 19.395 175.824 19.395C176.628 19.395 177.324 19.542 177.912 19.836C178.506 20.13 178.962 20.568 179.28 21.15C179.604 21.726 179.766 22.446 179.766 23.31C179.766 23.358 179.763 23.454 179.757 23.598C179.757 23.742 179.751 23.838 179.739 23.886H174.393ZM177.192 22.455C177.186 22.263 177.135 22.074 177.039 21.888C176.943 21.696 176.799 21.54 176.607 21.42C176.415 21.294 176.169 21.231 175.869 21.231C175.569 21.231 175.314 21.291 175.104 21.411C174.9 21.525 174.744 21.675 174.636 21.861C174.528 22.047 174.468 22.245 174.456 22.455H177.192ZM183.682 27H180.946V19.611H183.682V20.754H183.637C183.685 20.616 183.802 20.442 183.988 20.232C184.174 20.016 184.435 19.824 184.771 19.656C185.107 19.482 185.518 19.395 186.004 19.395C186.346 19.395 186.661 19.449 186.949 19.557C187.237 19.659 187.447 19.758 187.579 19.854L186.517 22.077C186.433 21.975 186.283 21.87 186.067 21.762C185.857 21.648 185.593 21.591 185.275 21.591C184.909 21.591 184.606 21.684 184.366 21.87C184.132 22.056 183.958 22.281 183.844 22.545C183.736 22.809 183.682 23.058 183.682 23.292V27Z" fill="#10182B"/>
</svg>
