<svg width="206" height="46" viewBox="0 0 206 46" fill="none" xmlns="http://www.w3.org/2000/svg">
<path d="M0 10.2222C0 4.57664 4.57664 0 10.2222 0H35.7778C41.4234 0 46 4.57664 46 10.2222V35.7778C46 41.4234 41.4234 46 35.7778 46H10.2222C4.57664 46 0 41.4234 0 35.7778V10.2222Z" fill="#03070D"/>
<path d="M21.0588 11.7294L14.1837 14.6241C12.7003 15.2487 11.9586 15.561 11.5413 16.1895C11.124 16.818 11.124 17.6228 11.124 19.2323V34.875H14.874V22.375C14.874 21.1965 14.874 20.6072 15.2401 20.2411C15.6063 19.875 16.1955 19.875 17.374 19.875H28.624C29.8025 19.875 30.3918 19.875 30.7579 20.2411C31.124 20.6072 31.124 21.1965 31.124 22.375V34.875H34.874V19.2323C34.874 17.6228 34.874 16.818 34.4568 16.1895C34.0394 15.561 33.2978 15.2487 31.8143 14.6241L24.9393 11.7294C23.9824 11.3265 23.5039 11.125 22.999 11.125C22.4941 11.125 22.0156 11.3265 21.0588 11.7294Z" stroke="#3CA0C9" stroke-width="2" stroke-linecap="round"/>
<path d="M21.751 16.125H24.251" stroke="#3CA0C9" stroke-width="2" stroke-linecap="round"/>
<path d="M24.25 27.375H21.75C20.5715 27.375 19.9822 27.375 19.6161 27.7411C19.25 28.1073 19.25 28.6965 19.25 29.875V32.375C19.25 33.5535 19.25 34.1427 19.6161 34.5089C19.9822 34.875 20.5715 34.875 21.75 34.875H24.25C25.4285 34.875 26.0177 34.875 26.3839 34.5089C26.75 34.1427 26.75 33.5535 26.75 32.375V29.875C26.75 28.6965 26.75 28.1073 26.3839 27.7411C26.0177 27.375 25.4285 27.375 24.25 27.375Z" stroke="#3CA0C9" stroke-width="2" stroke-linecap="round"/>
<path d="M56.91 16.3H64.54V18.92H59.9V21.58H64.19V24.19H59.9V29.5H56.91V16.3ZM72.1944 29.5V28.17C72.1344 28.3033 71.981 28.4967 71.7344 28.75C71.4944 29.0033 71.1744 29.2333 70.7744 29.44C70.3744 29.64 69.9077 29.74 69.3744 29.74C68.5744 29.74 67.8744 29.5467 67.2744 29.16C66.6744 28.7667 66.2077 28.2433 65.8744 27.59C65.541 26.93 65.3744 26.2 65.3744 25.4C65.3744 24.6 65.541 23.8733 65.8744 23.22C66.2077 22.56 66.6744 22.0333 67.2744 21.64C67.8744 21.2467 68.5744 21.05 69.3744 21.05C69.8877 21.05 70.3377 21.1333 70.7244 21.3C71.111 21.46 71.4244 21.6533 71.6644 21.88C71.9044 22.1 72.071 22.3033 72.1644 22.49V21.29H75.1844V29.5H72.1944ZM68.3544 25.4C68.3544 25.7733 68.441 26.11 68.6144 26.41C68.7877 26.7033 69.0177 26.9333 69.3044 27.1C69.5977 27.2667 69.921 27.35 70.2744 27.35C70.641 27.35 70.9644 27.2667 71.2444 27.1C71.5244 26.9333 71.7444 26.7033 71.9044 26.41C72.071 26.11 72.1544 25.7733 72.1544 25.4C72.1544 25.0267 72.071 24.6933 71.9044 24.4C71.7444 24.1 71.5244 23.8667 71.2444 23.7C70.9644 23.5267 70.641 23.44 70.2744 23.44C69.921 23.44 69.5977 23.5267 69.3044 23.7C69.0177 23.8667 68.7877 24.1 68.6144 24.4C68.441 24.6933 68.3544 25.0267 68.3544 25.4ZM81.5634 27.35C81.9434 27.35 82.2568 27.2867 82.5034 27.16C82.7501 27.0267 82.9168 26.92 83.0034 26.84L84.3934 28.9C84.2868 28.9867 84.1034 29.1 83.8434 29.24C83.5834 29.3733 83.2568 29.49 82.8634 29.59C82.4768 29.69 82.0334 29.74 81.5334 29.74C80.5934 29.74 79.7668 29.5633 79.0534 29.21C78.3401 28.85 77.7834 28.3433 77.3834 27.69C76.9901 27.0367 76.7934 26.27 76.7934 25.39C76.7934 24.5033 76.9901 23.7367 77.3834 23.09C77.7834 22.4433 78.3401 21.9433 79.0534 21.59C79.7668 21.23 80.5934 21.05 81.5334 21.05C82.0268 21.05 82.4668 21.1033 82.8534 21.21C83.2468 21.31 83.5768 21.4267 83.8434 21.56C84.1101 21.6867 84.2968 21.7967 84.4034 21.89L82.9834 23.97C82.9368 23.9233 82.8501 23.8567 82.7234 23.77C82.6034 23.6833 82.4468 23.6067 82.2534 23.54C82.0601 23.4733 81.8301 23.44 81.5634 23.44C81.2368 23.44 80.9301 23.5233 80.6434 23.69C80.3634 23.8567 80.1368 24.0867 79.9634 24.38C79.7901 24.6733 79.7034 25.01 79.7034 25.39C79.7034 25.77 79.7901 26.11 79.9634 26.41C80.1368 26.7033 80.3634 26.9333 80.6434 27.1C80.9301 27.2667 81.2368 27.35 81.5634 27.35ZM84.8509 21.29H86.2509V17.92H89.2609V21.29H91.1009V23.79H89.2609V26.08C89.2609 26.42 89.3109 26.6967 89.4109 26.91C89.5109 27.1167 89.6943 27.22 89.9609 27.22C90.1409 27.22 90.2943 27.18 90.4209 27.1C90.5476 27.02 90.6243 26.9667 90.6509 26.94L91.6909 29.1C91.6443 29.14 91.4976 29.2133 91.2509 29.32C91.0109 29.4267 90.7043 29.5233 90.3309 29.61C89.9576 29.6967 89.5409 29.74 89.0809 29.74C88.2609 29.74 87.5843 29.51 87.0509 29.05C86.5176 28.5833 86.2509 27.8667 86.2509 26.9V23.79H84.8509V21.29ZM96.9966 29.74C96.0966 29.74 95.2966 29.5567 94.5966 29.19C93.9032 28.8167 93.3566 28.3067 92.9566 27.66C92.5632 27.0067 92.3666 26.26 92.3666 25.42C92.3666 24.58 92.5632 23.8333 92.9566 23.18C93.3566 22.52 93.9032 22 94.5966 21.62C95.2966 21.24 96.0966 21.05 96.9966 21.05C97.8966 21.05 98.6899 21.24 99.3766 21.62C100.063 22 100.6 22.52 100.987 23.18C101.373 23.8333 101.567 24.58 101.567 25.42C101.567 26.26 101.373 27.0067 100.987 27.66C100.6 28.3067 100.063 28.8167 99.3766 29.19C98.6899 29.5567 97.8966 29.74 96.9966 29.74ZM96.9966 27.24C97.3432 27.24 97.6432 27.1633 97.8966 27.01C98.1499 26.8567 98.3466 26.64 98.4866 26.36C98.6266 26.08 98.6966 25.7633 98.6966 25.41C98.6966 25.05 98.6266 24.73 98.4866 24.45C98.3466 24.17 98.1499 23.95 97.8966 23.79C97.6432 23.63 97.3432 23.55 96.9966 23.55C96.6499 23.55 96.3466 23.63 96.0866 23.79C95.8332 23.95 95.6332 24.17 95.4866 24.45C95.3466 24.73 95.2766 25.05 95.2766 25.41C95.2766 25.7633 95.3466 26.08 95.4866 26.36C95.6332 26.64 95.8332 26.8567 96.0866 27.01C96.3466 27.1633 96.6499 27.24 96.9966 27.24ZM105.929 29.5H102.889V21.29H105.929V22.56H105.879C105.932 22.4067 106.062 22.2133 106.269 21.98C106.475 21.74 106.765 21.5267 107.139 21.34C107.512 21.1467 107.969 21.05 108.509 21.05C108.889 21.05 109.239 21.11 109.559 21.23C109.879 21.3433 110.112 21.4533 110.259 21.56L109.079 24.03C108.985 23.9167 108.819 23.8 108.579 23.68C108.345 23.5533 108.052 23.49 107.699 23.49C107.292 23.49 106.955 23.5933 106.689 23.8C106.429 24.0067 106.235 24.2567 106.109 24.55C105.989 24.8433 105.929 25.12 105.929 25.38V29.5ZM115.218 26.87L117.438 21.29H120.418L114.778 33.66H111.738L113.638 29.5L110.208 21.29H113.238L115.218 26.87ZM140.714 16.3V29.5H137.734V21.73L137.864 19.52L137.354 22.05L135.134 28.44H132.204L129.994 22.05L129.494 19.52L129.624 21.73V29.5H126.634V16.3H130.834L133.494 25.11L133.674 26.16L133.854 25.11L136.514 16.3H140.714ZM149.48 29.5V28.17C149.42 28.3033 149.266 28.4967 149.02 28.75C148.78 29.0033 148.46 29.2333 148.06 29.44C147.66 29.64 147.193 29.74 146.66 29.74C145.86 29.74 145.16 29.5467 144.56 29.16C143.96 28.7667 143.493 28.2433 143.16 27.59C142.826 26.93 142.66 26.2 142.66 25.4C142.66 24.6 142.826 23.8733 143.16 23.22C143.493 22.56 143.96 22.0333 144.56 21.64C145.16 21.2467 145.86 21.05 146.66 21.05C147.173 21.05 147.623 21.1333 148.01 21.3C148.396 21.46 148.71 21.6533 148.95 21.88C149.19 22.1 149.356 22.3033 149.45 22.49V21.29H152.47V29.5H149.48ZM145.64 25.4C145.64 25.7733 145.726 26.11 145.9 26.41C146.073 26.7033 146.303 26.9333 146.59 27.1C146.883 27.2667 147.206 27.35 147.56 27.35C147.926 27.35 148.25 27.2667 148.53 27.1C148.81 26.9333 149.03 26.7033 149.19 26.41C149.356 26.11 149.44 25.7733 149.44 25.4C149.44 25.0267 149.356 24.6933 149.19 24.4C149.03 24.1 148.81 23.8667 148.53 23.7C148.25 23.5267 147.926 23.44 147.56 23.44C147.206 23.44 146.883 23.5267 146.59 23.7C146.303 23.8667 146.073 24.1 145.9 24.4C145.726 24.6933 145.64 25.0267 145.64 25.4ZM160.049 21.05C160.622 21.05 161.182 21.1667 161.729 21.4C162.275 21.6333 162.725 22.0033 163.079 22.51C163.432 23.01 163.609 23.67 163.609 24.49V29.5H160.559V24.99C160.559 24.4033 160.419 23.9633 160.139 23.67C159.859 23.37 159.492 23.22 159.039 23.22C158.739 23.22 158.455 23.3 158.189 23.46C157.929 23.6133 157.715 23.8333 157.549 24.12C157.389 24.4 157.309 24.7233 157.309 25.09V29.5H154.269V21.29H157.309V22.5C157.389 22.28 157.555 22.06 157.809 21.84C158.069 21.6133 158.392 21.4267 158.779 21.28C159.172 21.1267 159.595 21.05 160.049 21.05ZM171.745 29.5V28.17C171.685 28.3033 171.532 28.4967 171.285 28.75C171.045 29.0033 170.725 29.2333 170.325 29.44C169.925 29.64 169.458 29.74 168.925 29.74C168.125 29.74 167.425 29.5467 166.825 29.16C166.225 28.7667 165.758 28.2433 165.425 27.59C165.092 26.93 164.925 26.2 164.925 25.4C164.925 24.6 165.092 23.8733 165.425 23.22C165.758 22.56 166.225 22.0333 166.825 21.64C167.425 21.2467 168.125 21.05 168.925 21.05C169.438 21.05 169.888 21.1333 170.275 21.3C170.662 21.46 170.975 21.6533 171.215 21.88C171.455 22.1 171.622 22.3033 171.715 22.49V21.29H174.735V29.5H171.745ZM167.905 25.4C167.905 25.7733 167.992 26.11 168.165 26.41C168.338 26.7033 168.568 26.9333 168.855 27.1C169.148 27.2667 169.472 27.35 169.825 27.35C170.192 27.35 170.515 27.2667 170.795 27.1C171.075 26.9333 171.295 26.7033 171.455 26.41C171.622 26.11 171.705 25.7733 171.705 25.4C171.705 25.0267 171.622 24.6933 171.455 24.4C171.295 24.1 171.075 23.8667 170.795 23.7C170.515 23.5267 170.192 23.44 169.825 23.44C169.472 23.44 169.148 23.5267 168.855 23.7C168.568 23.8667 168.338 24.1 168.165 24.4C167.992 24.6933 167.905 25.0267 167.905 25.4ZM180.974 33.89C180.401 33.89 179.831 33.84 179.264 33.74C178.704 33.64 178.181 33.47 177.694 33.23C177.208 32.99 176.798 32.66 176.464 32.24L178.244 30.39C178.398 30.57 178.584 30.7467 178.804 30.92C179.031 31.0933 179.308 31.2367 179.634 31.35C179.968 31.4633 180.371 31.52 180.844 31.52C181.284 31.52 181.668 31.4433 181.994 31.29C182.321 31.1367 182.574 30.9133 182.754 30.62C182.941 30.3267 183.034 29.97 183.034 29.55V29.35H186.024V29.73C186.024 30.6367 185.798 31.4 185.344 32.02C184.898 32.64 184.294 33.1067 183.534 33.42C182.774 33.7333 181.921 33.89 180.974 33.89ZM183.034 29.5V28.17C182.974 28.3033 182.821 28.4967 182.574 28.75C182.334 29.0033 182.014 29.2333 181.614 29.44C181.214 29.64 180.748 29.74 180.214 29.74C179.414 29.74 178.714 29.5467 178.114 29.16C177.514 28.7667 177.048 28.2433 176.714 27.59C176.381 26.93 176.214 26.2 176.214 25.4C176.214 24.6 176.381 23.8733 176.714 23.22C177.048 22.56 177.514 22.0333 178.114 21.64C178.714 21.2467 179.414 21.05 180.214 21.05C180.728 21.05 181.178 21.1333 181.564 21.3C181.951 21.46 182.264 21.6533 182.504 21.88C182.744 22.1 182.911 22.3033 183.004 22.49V21.29H186.024V29.5H183.034ZM179.194 25.4C179.194 25.7733 179.281 26.11 179.454 26.41C179.628 26.7033 179.858 26.9333 180.144 27.1C180.438 27.2667 180.761 27.35 181.114 27.35C181.481 27.35 181.804 27.2667 182.084 27.1C182.364 26.9333 182.584 26.7033 182.744 26.41C182.911 26.11 182.994 25.7733 182.994 25.4C182.994 25.0267 182.911 24.6933 182.744 24.4C182.584 24.1 182.364 23.8667 182.084 23.7C181.804 23.5267 181.481 23.44 181.114 23.44C180.761 23.44 180.438 23.5267 180.144 23.7C179.858 23.8667 179.628 24.1 179.454 24.4C179.281 24.6933 179.194 25.0267 179.194 25.4ZM190.393 26.04C190.413 26.3333 190.506 26.5933 190.673 26.82C190.839 27.0467 191.069 27.2267 191.363 27.36C191.663 27.4867 192.016 27.55 192.423 27.55C192.809 27.55 193.156 27.51 193.463 27.43C193.776 27.35 194.046 27.25 194.273 27.13C194.506 27.01 194.686 26.8867 194.813 26.76L195.993 28.64C195.826 28.82 195.589 28.9967 195.283 29.17C194.983 29.3367 194.586 29.4733 194.093 29.58C193.599 29.6867 192.976 29.74 192.223 29.74C191.316 29.74 190.509 29.57 189.803 29.23C189.096 28.89 188.539 28.39 188.133 27.73C187.726 27.07 187.523 26.2633 187.523 25.31C187.523 24.51 187.696 23.79 188.043 23.15C188.396 22.5033 188.906 21.9933 189.573 21.62C190.239 21.24 191.043 21.05 191.983 21.05C192.876 21.05 193.649 21.2133 194.303 21.54C194.963 21.8667 195.469 22.3533 195.823 23C196.183 23.64 196.363 24.44 196.363 25.4C196.363 25.4533 196.359 25.56 196.353 25.72C196.353 25.88 196.346 25.9867 196.333 26.04H190.393ZM193.503 24.45C193.496 24.2367 193.439 24.0267 193.333 23.82C193.226 23.6067 193.066 23.4333 192.853 23.3C192.639 23.16 192.366 23.09 192.033 23.09C191.699 23.09 191.416 23.1567 191.183 23.29C190.956 23.4167 190.783 23.5833 190.663 23.79C190.543 23.9967 190.476 24.2167 190.463 24.45H193.503ZM200.714 29.5H197.674V21.29H200.714V22.56H200.664C200.717 22.4067 200.847 22.2133 201.054 21.98C201.26 21.74 201.55 21.5267 201.924 21.34C202.297 21.1467 202.754 21.05 203.294 21.05C203.674 21.05 204.024 21.11 204.344 21.23C204.664 21.3433 204.897 21.4533 205.044 21.56L203.864 24.03C203.77 23.9167 203.604 23.8 203.364 23.68C203.13 23.5533 202.837 23.49 202.484 23.49C202.077 23.49 201.74 23.5933 201.474 23.8C201.214 24.0067 201.02 24.2567 200.894 24.55C200.774 24.8433 200.714 25.12 200.714 25.38V29.5Z" fill="#10182B"/>
</svg>
