<svg width="205" height="38" viewBox="0 0 205 38" fill="none" xmlns="http://www.w3.org/2000/svg">
<g clip-path="url(#clip0_2935_905)">
<path d="M48.1645 11.4925H55.1036H56.7096C56.8549 11.4925 56.9937 11.4991 57.1259 11.5123C57.2581 11.5255 57.3572 11.5718 57.4233 11.6511C57.4762 11.7172 57.5092 11.8097 57.5224 11.9287C57.5489 12.0344 57.5621 12.16 57.5621 12.3054C57.5621 12.4375 57.5555 12.5763 57.5422 12.7217C57.5422 12.8539 57.5422 12.9794 57.5422 13.0984C57.5422 13.1909 57.5422 13.2834 57.5422 13.376C57.5555 13.4685 57.5555 13.5544 57.5422 13.6337C57.5158 13.6998 57.4894 13.7659 57.4629 13.832C57.4497 13.8848 57.4167 13.9311 57.3638 13.9707C57.2581 14.05 57.073 14.0897 56.8087 14.0897C56.5575 14.0765 56.3395 14.0699 56.1544 14.0699H52.328C52.1165 14.0699 51.8588 14.0699 51.5548 14.0699C51.264 14.0567 51.0525 14.0897 50.9203 14.169C50.841 14.2219 50.7749 14.321 50.7221 14.4664C50.6956 14.5589 50.6824 14.6779 50.6824 14.8233C50.6956 14.9687 50.7022 15.0942 50.7022 15.2V16.1516C50.7022 16.2177 50.6956 16.297 50.6824 16.3895C50.6824 16.482 50.689 16.5614 50.7022 16.6274V16.8455C50.7287 16.9645 50.7551 17.0636 50.7815 17.1429C50.8212 17.2222 50.8939 17.2817 50.9996 17.3214C51.0657 17.3478 51.145 17.3676 51.2375 17.3808C51.3301 17.3808 51.4292 17.3808 51.5349 17.3808H52.2883H55.0442C55.1499 17.3808 55.2689 17.3808 55.401 17.3808C55.5464 17.3676 55.6852 17.3676 55.8174 17.3808C55.9628 17.3808 56.0883 17.3874 56.1941 17.4007C56.313 17.4139 56.3989 17.4403 56.4518 17.48C56.584 17.5725 56.6435 17.7509 56.6302 18.0153C56.6302 18.2664 56.6302 18.4977 56.6302 18.7092C56.6302 18.8149 56.6302 18.9339 56.6302 19.066C56.6435 19.185 56.6369 19.2974 56.6104 19.4031C56.5575 19.5485 56.4849 19.6476 56.3923 19.7005C56.2998 19.7534 56.1214 19.7798 55.857 19.7798C55.5927 19.7666 55.3746 19.76 55.2028 19.76H51.9513C51.7002 19.76 51.4556 19.7666 51.2177 19.7798C50.9798 19.793 50.8278 19.8855 50.7617 20.0574C50.7353 20.097 50.7221 20.1433 50.7221 20.1961C50.7221 20.2358 50.7155 20.2754 50.7022 20.3151V20.5134V20.8107V21.346V24.1415C50.7022 24.3266 50.7022 24.5579 50.7022 24.8354C50.7155 25.0998 50.689 25.2914 50.6229 25.4104C50.5833 25.4765 50.5304 25.5227 50.4643 25.5492C50.3982 25.5624 50.3322 25.5822 50.2661 25.6087C50.1735 25.6351 50.0744 25.6417 49.9687 25.6285C49.8629 25.6153 49.7572 25.6087 49.6515 25.6087H48.5016C48.3562 25.6087 48.2174 25.6087 48.0852 25.6087C47.9662 25.5954 47.8671 25.5558 47.7878 25.4897C47.6953 25.4236 47.6424 25.3245 47.6292 25.1923C47.6292 25.0469 47.6292 24.9015 47.6292 24.7561V23.0511V15.7947V12.9001C47.6292 12.7151 47.6226 12.497 47.6094 12.2459C47.6094 11.9947 47.6424 11.8163 47.7085 11.7106C47.7614 11.618 47.8605 11.552 48.0059 11.5123C48.0323 11.4991 48.0588 11.4991 48.0852 11.5123C48.1116 11.5123 48.1381 11.5057 48.1645 11.4925ZM68.1646 24.8156C68.191 24.961 68.2042 25.1064 68.2042 25.2518C68.2174 25.3972 68.1513 25.4963 68.006 25.5492C67.9267 25.5888 67.8341 25.6087 67.7284 25.6087C67.6227 25.6087 67.5169 25.6087 67.4112 25.6087H66.3406C66.2216 25.6087 66.1027 25.6087 65.9837 25.6087C65.878 25.5954 65.792 25.5624 65.726 25.5095C65.6334 25.4567 65.5607 25.384 65.5079 25.2914C65.4682 25.1857 65.4087 25.0998 65.3294 25.0337C65.303 25.0073 65.27 24.9874 65.2303 24.9742C65.1907 24.9478 65.1378 24.9412 65.0717 24.9544C65.0056 24.9808 64.9395 25.0139 64.8734 25.0535C64.8206 25.0932 64.7611 25.1262 64.695 25.1527C64.6289 25.2055 64.5562 25.2518 64.4769 25.2914C64.3976 25.3311 64.3183 25.3707 64.239 25.4104C64.0672 25.4897 63.8887 25.5558 63.7037 25.6087C63.5187 25.6483 63.327 25.6946 63.1287 25.7474C63.0362 25.7739 62.9437 25.7871 62.8512 25.7871C62.7719 25.8003 62.686 25.8135 62.5934 25.8267C62.5538 25.8267 62.5141 25.8267 62.4745 25.8267C62.4348 25.84 62.3952 25.8466 62.3555 25.8466H62.1374C62.0053 25.873 61.8731 25.873 61.7409 25.8466H61.5625C61.47 25.8201 61.3774 25.8069 61.2849 25.8069C61.2056 25.8201 61.1263 25.8135 61.047 25.7871C60.9148 25.7607 60.7893 25.7342 60.6703 25.7078C60.5513 25.6946 60.439 25.6615 60.3333 25.6087C59.95 25.4633 59.6195 25.2782 59.342 25.0535C59.0776 24.8156 58.8661 24.505 58.7075 24.1217C58.6679 24.0292 58.6282 23.93 58.5886 23.8243C58.5621 23.7186 58.5357 23.6062 58.5093 23.4873C58.4828 23.4212 58.4696 23.3551 58.4696 23.289C58.4828 23.2229 58.4828 23.1568 58.4696 23.0907C58.4564 23.0511 58.4432 22.9718 58.43 22.8528C58.43 22.7207 58.4366 22.6281 58.4498 22.5753C58.4762 22.4431 58.4894 22.3307 58.4894 22.2382C58.5291 22.0928 58.5687 21.9474 58.6084 21.802C58.648 21.6434 58.7009 21.5047 58.767 21.3857C58.9917 21.0024 59.2494 20.7116 59.5402 20.5134C59.831 20.3151 60.2011 20.1433 60.6505 19.9979C60.8223 19.9318 61.0007 19.8855 61.1858 19.8591C61.3708 19.8327 61.5559 19.7996 61.7409 19.76C61.8467 19.7335 61.959 19.7203 62.078 19.7203C62.1969 19.7071 62.3159 19.6873 62.4348 19.6608C62.5273 19.6344 62.6199 19.6278 62.7124 19.641C62.8049 19.641 62.904 19.6278 63.0098 19.6014C63.1023 19.5749 63.1948 19.5617 63.2874 19.5617C63.3799 19.5617 63.479 19.5485 63.5847 19.522C63.8623 19.456 64.1134 19.4031 64.3381 19.3634C64.576 19.3106 64.7875 19.1916 64.9726 19.0066C65.0915 18.8876 65.1708 18.7554 65.2105 18.61C65.2237 18.5704 65.2237 18.5374 65.2105 18.5109C65.2105 18.4845 65.2171 18.458 65.2303 18.4316C65.2435 18.4052 65.2501 18.3655 65.2501 18.3127C65.2501 18.2598 65.2501 18.2201 65.2501 18.1937C65.2369 18.1408 65.2237 18.088 65.2105 18.0351C65.2105 17.9822 65.2039 17.936 65.1907 17.8963C65.0585 17.4998 64.7809 17.2288 64.358 17.0834C64.239 17.0438 64.0936 17.0174 63.9218 17.0041C63.7632 16.9777 63.598 16.9711 63.4261 16.9843C63.2543 16.9843 63.0891 16.9975 62.9305 17.024C62.7719 17.0504 62.6331 17.0834 62.5141 17.1231C62.4348 17.1495 62.3555 17.1892 62.2762 17.242C62.2101 17.2817 62.144 17.328 62.078 17.3808C62.0119 17.4337 61.9392 17.5064 61.8599 17.5989C61.7938 17.6914 61.7475 17.7774 61.7211 17.8567C61.655 17.9888 61.5955 18.1144 61.5426 18.2334C61.503 18.3523 61.4105 18.4316 61.2651 18.4713C61.1593 18.4977 61.047 18.5109 60.928 18.5109C60.8091 18.5109 60.6901 18.5109 60.5712 18.5109H59.8178C59.7517 18.5109 59.6856 18.5175 59.6195 18.5307C59.5534 18.5307 59.494 18.5241 59.4411 18.5109H59.2627C59.2362 18.4977 59.2032 18.4911 59.1635 18.4911C59.1239 18.4911 59.0908 18.4779 59.0644 18.4514C58.9586 18.425 58.886 18.3391 58.8463 18.1937C58.8331 18.1276 58.8331 18.0615 58.8463 17.9954C58.8595 17.9294 58.8727 17.8699 58.886 17.817C58.9256 17.6716 58.9653 17.5394 59.0049 17.4205C59.0578 17.2883 59.1173 17.1694 59.1833 17.0636C59.223 16.9975 59.2627 16.9314 59.3023 16.8654C59.342 16.7993 59.3816 16.7332 59.4213 16.6671C59.527 16.5217 59.6592 16.3829 59.8178 16.2507C59.8442 16.2375 59.8839 16.2045 59.9367 16.1516C60.0028 16.0987 60.0623 16.0525 60.1152 16.0128C60.168 15.9732 60.2275 15.9335 60.2936 15.8939C60.5183 15.7485 60.7562 15.6361 61.0073 15.5568C61.2585 15.4643 61.5162 15.3784 61.7806 15.2991C61.9392 15.2594 62.1044 15.233 62.2762 15.2198C62.448 15.2066 62.6199 15.1801 62.7917 15.1405C62.8446 15.1273 62.9239 15.1273 63.0296 15.1405C63.1486 15.1537 63.2213 15.1471 63.2477 15.1207C63.7896 15.1074 64.3051 15.1273 64.7941 15.1801C65.2964 15.233 65.7458 15.3321 66.1423 15.4775C66.552 15.6229 66.9023 15.8212 67.1931 16.0723C67.4839 16.3102 67.7086 16.6208 67.8672 17.0041C67.9597 17.2288 68.0126 17.4866 68.0258 17.7774C68.039 18.0681 68.0456 18.3655 68.0456 18.6695V23.0907C68.0456 23.3419 68.0456 23.5996 68.0456 23.864C68.0456 24.1151 68.072 24.3464 68.1249 24.5579C68.1381 24.5975 68.1447 24.6438 68.1447 24.6967C68.1447 24.7363 68.1514 24.776 68.1646 24.8156ZM65.2501 21.7624C65.2634 21.6963 65.27 21.6236 65.27 21.5443C65.27 21.4518 65.2634 21.3725 65.2501 21.3064C65.2237 21.2271 65.2105 21.1544 65.2105 21.0883C65.2105 21.0222 65.184 20.9694 65.1312 20.9297C65.0651 20.8768 64.966 20.8504 64.8338 20.8504C64.7809 20.8636 64.7347 20.8768 64.695 20.89C64.6553 20.89 64.6091 20.8967 64.5562 20.9099C64.4637 20.9363 64.3646 20.9561 64.2588 20.9694C64.1531 20.9826 64.0474 21.0024 63.9416 21.0288C63.902 21.042 63.8425 21.0487 63.7632 21.0487C63.5913 21.0883 63.4195 21.1147 63.2477 21.128C63.0759 21.1412 62.9107 21.1742 62.752 21.2271C62.6463 21.2535 62.5472 21.28 62.4547 21.3064C62.3621 21.3196 62.2696 21.346 62.1771 21.3857C61.8995 21.5047 61.6616 21.6831 61.4634 21.921C61.2783 22.1589 61.2122 22.4894 61.2651 22.9123C61.2915 23.137 61.3642 23.322 61.4832 23.4674C61.5757 23.6128 61.7145 23.7318 61.8995 23.8243C62.0846 23.9036 62.2828 23.9631 62.4943 24.0027C62.719 24.0424 62.9503 24.0556 63.1882 24.0424C63.4393 24.016 63.6707 23.9697 63.8821 23.9036C64.2258 23.7979 64.4967 23.6327 64.695 23.408C64.8933 23.17 65.0453 22.8793 65.151 22.5356C65.1774 22.4431 65.1907 22.3506 65.1907 22.258C65.2039 22.1523 65.2237 22.0466 65.2501 21.9408V21.7624ZM74.7511 15.1008C75.8217 15.0744 76.7139 15.233 77.4276 15.5767C78.1546 15.9203 78.7296 16.4094 79.1525 17.0438C79.364 17.361 79.5226 17.7245 79.6283 18.1342C79.6548 18.2003 79.6746 18.2862 79.6878 18.392C79.7143 18.4977 79.7143 18.5902 79.6878 18.6695C79.6349 18.8149 79.5424 18.9008 79.4103 18.9273C79.2781 18.9405 79.1195 18.9471 78.9344 18.9471H77.9035C77.7845 18.9471 77.6589 18.9471 77.5268 18.9471C77.4078 18.9471 77.3087 18.9207 77.2294 18.8678C77.1236 18.8149 77.0509 18.7356 77.0113 18.6299C76.9716 18.5109 76.9188 18.392 76.8527 18.273C76.7734 18.1276 76.6875 17.9954 76.595 17.8765C76.5024 17.7575 76.3967 17.6518 76.2777 17.5593C76.0927 17.4403 75.8878 17.3478 75.6631 17.2817C75.5838 17.2553 75.5045 17.242 75.4252 17.242C75.3459 17.242 75.2732 17.2288 75.2071 17.2024H75.0089C74.7445 17.2024 74.533 17.2288 74.3744 17.2817C73.9911 17.4007 73.6805 17.5857 73.4426 17.8368C73.2047 18.0747 73.013 18.3655 72.8676 18.7092C72.8016 18.8546 72.7487 19.0132 72.709 19.185C72.6826 19.3436 72.6496 19.5154 72.6099 19.7005C72.5967 19.7534 72.5901 19.8062 72.5901 19.8591C72.5901 19.912 72.5835 19.9648 72.5703 20.0177C72.5438 20.1499 72.5306 20.3349 72.5306 20.5728C72.5438 20.8107 72.5636 20.9958 72.5901 21.128C72.5901 21.2337 72.5967 21.3064 72.6099 21.346C72.6363 21.4386 72.6496 21.5311 72.6496 21.6236C72.6628 21.7161 72.6826 21.8087 72.709 21.9012C72.8148 22.2052 72.9403 22.4827 73.0857 22.7339C73.2311 22.985 73.4162 23.1965 73.6409 23.3683C73.6937 23.408 73.773 23.4542 73.8788 23.5071C74.0242 23.5996 74.1696 23.6591 74.3149 23.6855C74.4736 23.712 74.6652 23.7384 74.8899 23.7648C74.9163 23.7648 74.956 23.7648 75.0089 23.7648C75.0617 23.7648 75.1014 23.7582 75.1278 23.745H75.3063C75.3988 23.7186 75.4847 23.6987 75.564 23.6855C75.6565 23.6591 75.7424 23.6327 75.8217 23.6062C76.2183 23.4344 76.5223 23.1833 76.7337 22.8528C76.7866 22.7867 76.8329 22.714 76.8725 22.6347C76.9122 22.5422 76.9452 22.4629 76.9716 22.3968C77.0245 22.2514 77.0708 22.1259 77.1104 22.0201C77.1501 21.9012 77.2426 21.8087 77.388 21.7426C77.5069 21.6897 77.6986 21.6699 77.9629 21.6831C78.2273 21.6831 78.4454 21.6831 78.6172 21.6831C78.7097 21.6831 78.8023 21.6831 78.8948 21.6831C79.0005 21.6699 79.0864 21.6765 79.1525 21.7029H79.3111C79.364 21.7161 79.4169 21.7294 79.4697 21.7426C79.5226 21.7426 79.5623 21.7558 79.5887 21.7822C79.6548 21.8351 79.6944 21.9144 79.7076 22.0201C79.7341 22.1127 79.7341 22.2118 79.7076 22.3175C79.5887 22.7537 79.4433 23.1436 79.2715 23.4873C78.7296 24.505 77.8638 25.2121 76.6743 25.6087C76.5421 25.6483 76.4033 25.6747 76.2579 25.688C76.1125 25.7144 75.9671 25.7474 75.8217 25.7871C75.7424 25.8003 75.6631 25.8069 75.5838 25.8069C75.5045 25.8069 75.4252 25.8135 75.3459 25.8267H75.1278C75.0617 25.8532 74.9626 25.8598 74.8304 25.8466C74.6983 25.8466 74.5991 25.84 74.533 25.8267C74.4273 25.8003 74.3282 25.7871 74.2356 25.7871C74.1563 25.8003 74.0704 25.7937 73.9779 25.7673C73.9118 25.754 73.8457 25.7408 73.7796 25.7276C73.7136 25.7276 73.6475 25.721 73.5814 25.7078C73.436 25.6681 73.2972 25.6285 73.165 25.5888C73.0329 25.5492 72.9073 25.5029 72.7883 25.45C72.1671 25.1857 71.645 24.8487 71.2221 24.4389C70.7991 24.016 70.4555 23.4939 70.1911 22.8727C70.125 22.7537 70.0722 22.6281 70.0325 22.496C69.9929 22.3506 69.9532 22.2052 69.9136 22.0598C69.9003 22.0069 69.8937 21.9607 69.8937 21.921C69.8937 21.8681 69.8805 21.8087 69.8541 21.7426C69.8276 21.65 69.8144 21.5575 69.8144 21.465C69.8144 21.3593 69.8012 21.2601 69.7748 21.1676V20.8306C69.7483 20.7645 69.7351 20.6918 69.7351 20.6125C69.7351 20.52 69.7483 20.4407 69.7748 20.3746C69.788 20.3085 69.788 20.249 69.7748 20.1961C69.7616 20.1433 69.7616 20.0904 69.7748 20.0375C69.8012 19.945 69.8078 19.8591 69.7946 19.7798C69.7946 19.7005 69.8078 19.6212 69.8343 19.5419C69.9003 19.304 69.9532 19.0793 69.9929 18.8678C70.0325 18.6431 70.092 18.425 70.1713 18.2135C70.4621 17.5394 70.8256 16.9777 71.2617 16.5283C71.7111 16.0789 72.2795 15.7154 72.9668 15.4379C73.1518 15.3586 73.3435 15.3057 73.5417 15.2793C73.74 15.2396 73.9449 15.1934 74.1563 15.1405C74.2621 15.1273 74.3612 15.1207 74.4537 15.1207C74.5463 15.1207 74.6454 15.114 74.7511 15.1008ZM82.6066 12.3252H83.9349C84.1332 12.3252 84.305 12.3384 84.4504 12.3648C84.609 12.378 84.7213 12.4574 84.7874 12.6027C84.8139 12.6688 84.8271 12.7481 84.8271 12.8407C84.8271 12.9332 84.8271 13.0257 84.8271 13.1182V14.0104C84.8271 14.0765 84.8205 14.1558 84.8072 14.2483C84.8072 14.3276 84.8139 14.4003 84.8271 14.4664V14.6845C84.8271 14.7902 84.8337 14.8894 84.8469 14.9819C84.8601 15.0612 84.8932 15.1339 84.946 15.2C85.0386 15.3189 85.2038 15.385 85.4417 15.3982C85.6928 15.3982 85.9307 15.3982 86.1554 15.3982C86.2347 15.3982 86.314 15.3982 86.3933 15.3982C86.4726 15.3982 86.5453 15.4114 86.6114 15.4379C86.7568 15.504 86.8361 15.6229 86.8493 15.7947C86.8758 15.9666 86.889 16.1582 86.889 16.3697C86.889 16.4622 86.889 16.5547 86.889 16.6473C86.9022 16.7398 86.8956 16.8191 86.8692 16.8852C86.8031 17.0967 86.6643 17.209 86.4528 17.2222C86.2413 17.2354 86.0034 17.242 85.7391 17.242C85.6862 17.242 85.6267 17.242 85.5606 17.242C85.5078 17.2288 85.4615 17.2288 85.4219 17.242C85.369 17.2553 85.3227 17.2619 85.2831 17.2619C85.2434 17.2487 85.2038 17.2553 85.1641 17.2817C85.0584 17.3081 84.9791 17.3676 84.9262 17.4601C84.8865 17.5394 84.8535 17.6386 84.8271 17.7575C84.8139 17.8236 84.8139 17.8963 84.8271 17.9756C84.8403 18.0549 84.8403 18.1276 84.8271 18.1937V19.4229V21.7426C84.8271 22.073 84.8337 22.3638 84.8469 22.6149C84.8733 22.8528 84.9592 23.0643 85.1046 23.2494C85.1707 23.3287 85.2566 23.3881 85.3624 23.4278C85.4813 23.4542 85.6003 23.4807 85.7192 23.5071C85.7589 23.5203 85.7985 23.5269 85.8382 23.5269C85.8911 23.5137 85.9307 23.5137 85.9572 23.5269H86.1752C86.3206 23.5269 86.4462 23.5335 86.5519 23.5467C86.6577 23.56 86.7436 23.6128 86.8097 23.7054C86.8625 23.7847 86.889 23.8904 86.889 24.0226C86.889 24.1415 86.889 24.2671 86.889 24.3993C86.889 24.6768 86.8824 24.9346 86.8692 25.1725C86.8692 25.3972 86.7634 25.5492 86.5519 25.6285C86.4859 25.6549 86.4264 25.6615 86.3735 25.6483C86.3206 25.6483 86.2612 25.6615 86.1951 25.688H85.9968C85.9704 25.688 85.9307 25.6814 85.8779 25.6681C85.825 25.6681 85.7787 25.6747 85.7391 25.688C85.673 25.7012 85.6003 25.7012 85.521 25.688C85.4549 25.688 85.3888 25.688 85.3227 25.688C85.2566 25.688 85.1905 25.688 85.1245 25.688C85.0584 25.7012 84.9989 25.7012 84.946 25.688H84.7279C84.6619 25.6747 84.5892 25.6681 84.5099 25.6681C84.4306 25.6681 84.3579 25.6615 84.2918 25.6483C84.1992 25.6351 84.1133 25.6219 84.034 25.6087C83.9547 25.5954 83.8754 25.5822 83.7961 25.569C83.6507 25.5294 83.5119 25.4831 83.3798 25.4302C83.2476 25.3774 83.122 25.3179 83.0031 25.2518C82.9634 25.2254 82.9238 25.1989 82.8841 25.1725C82.8445 25.1328 82.7982 25.0932 82.7453 25.0535C82.7189 25.0271 82.6859 25.0007 82.6462 24.9742C82.6066 24.9346 82.5736 24.9015 82.5472 24.8751C82.3621 24.624 82.2233 24.3464 82.1308 24.0424C82.1044 23.9895 82.0912 23.9433 82.0912 23.9036C82.1044 23.8507 82.1044 23.7913 82.0912 23.7252C82.0779 23.6987 82.0713 23.6657 82.0713 23.626C82.0713 23.5864 82.0647 23.5534 82.0515 23.5269V23.3287C82.0383 23.2758 82.0317 23.2163 82.0317 23.1502C82.0449 23.0841 82.0515 23.018 82.0515 22.952V22.1986V19.2445V18.1937C82.0515 18.1012 82.0515 18.0087 82.0515 17.9161C82.0647 17.8236 82.0581 17.7377 82.0317 17.6584C81.9788 17.4734 81.8863 17.3544 81.7541 17.3015C81.6087 17.2354 81.4237 17.2156 81.199 17.242C80.9743 17.2685 80.7826 17.2487 80.624 17.1826C80.5183 17.1429 80.4522 17.0834 80.4258 17.0041C80.3993 16.9248 80.3729 16.8257 80.3465 16.7067V16.2904C80.3465 16.0525 80.3597 15.8608 80.3861 15.7154C80.4125 15.57 80.5249 15.4709 80.7232 15.418C80.776 15.3916 80.8289 15.385 80.8818 15.3982C80.9346 15.3982 80.9941 15.3982 81.0602 15.3982C81.2585 15.3982 81.4435 15.3916 81.6153 15.3784C81.7871 15.352 81.9061 15.2727 81.9722 15.1405C82.0119 15.048 82.0317 14.9422 82.0317 14.8233C82.0449 14.7043 82.0515 14.5854 82.0515 14.4664V13.2372C82.0515 13.1314 82.0515 13.0191 82.0515 12.9001C82.0515 12.7812 82.0647 12.682 82.0912 12.6027C82.1572 12.4706 82.2564 12.3847 82.3885 12.345C82.415 12.3318 82.448 12.3318 82.4877 12.345C82.5405 12.345 82.5802 12.3384 82.6066 12.3252ZM98.2609 20.0772C98.2873 20.1565 98.3006 20.2688 98.3006 20.4142C98.3006 20.5596 98.2873 20.672 98.2609 20.7513V20.9495C98.2345 21.0553 98.2212 21.161 98.2212 21.2667C98.2345 21.3725 98.2279 21.4782 98.2014 21.584C98.175 21.6765 98.1552 21.7624 98.1419 21.8417C98.1287 21.921 98.1155 22.0069 98.1023 22.0994C98.0494 22.2448 98.0032 22.3968 97.9635 22.5554C97.9239 22.7008 97.871 22.8396 97.8049 22.9718C97.5273 23.6062 97.1638 24.1217 96.7145 24.5182C96.2651 24.9147 95.7232 25.2452 95.0887 25.5095C94.9301 25.5756 94.7649 25.6219 94.5931 25.6483C94.4345 25.688 94.2692 25.7276 94.0974 25.7673C94.0313 25.7937 93.9586 25.8069 93.8793 25.8069C93.8 25.8069 93.7273 25.8135 93.6612 25.8267C93.6216 25.8267 93.5753 25.8267 93.5225 25.8267C93.4828 25.84 93.4432 25.8466 93.4035 25.8466C93.3374 25.8598 93.2317 25.8664 93.0863 25.8664C92.9409 25.8796 92.8285 25.873 92.7492 25.8466H92.551C92.4849 25.8334 92.4122 25.8267 92.3329 25.8267C92.2668 25.84 92.2007 25.8334 92.1346 25.8069C92.0818 25.7937 92.0289 25.7871 91.976 25.7871C91.9364 25.7871 91.8835 25.7805 91.8174 25.7673C91.6852 25.7276 91.5531 25.6946 91.4209 25.6681C91.2887 25.6417 91.1632 25.602 91.0442 25.5492C90.8856 25.4963 90.7336 25.4434 90.5882 25.3906C90.456 25.3377 90.3172 25.2716 90.1719 25.1923C89.7092 24.9147 89.3127 24.5909 88.9823 24.2208C88.6518 23.8507 88.3743 23.408 88.1496 22.8925C88.0835 22.7735 88.0306 22.648 87.991 22.5158C87.9645 22.3836 87.9315 22.2448 87.8918 22.0994C87.8654 22.0334 87.8522 21.9739 87.8522 21.921C87.8522 21.8681 87.839 21.8087 87.8126 21.7426C87.7861 21.6368 87.7729 21.5311 87.7729 21.4254C87.7729 21.3064 87.7597 21.194 87.7332 21.0883C87.72 21.0222 87.7134 20.9627 87.7134 20.9099C87.7134 20.857 87.7134 20.7975 87.7134 20.7314C87.687 20.6521 87.6738 20.5398 87.6738 20.3944C87.687 20.249 87.7068 20.1367 87.7332 20.0574V19.9186C87.7465 19.8525 87.7465 19.7864 87.7332 19.7203C87.7332 19.641 87.7465 19.5683 87.7729 19.5022C87.7861 19.4361 87.7927 19.3767 87.7927 19.3238C87.7927 19.2577 87.8059 19.1916 87.8324 19.1255C87.8852 18.9537 87.9315 18.7885 87.9712 18.6299C88.0108 18.458 88.0637 18.2928 88.1298 18.1342C88.3677 17.5923 88.6518 17.1429 88.9823 16.786C89.3127 16.416 89.7159 16.0789 90.1917 15.7749C90.3239 15.7088 90.4626 15.6494 90.608 15.5965C90.7534 15.5436 90.8988 15.4841 91.0442 15.418C91.216 15.352 91.3945 15.3057 91.5795 15.2793C91.7645 15.2528 91.9562 15.2132 92.1545 15.1603C92.2602 15.1471 92.3593 15.1405 92.4519 15.1405C92.5444 15.1405 92.6369 15.1339 92.7294 15.1207C93.496 15.1074 94.1569 15.1867 94.712 15.3586C95.2804 15.5304 95.7826 15.7683 96.2188 16.0723C96.3642 16.178 96.5096 16.297 96.655 16.4292C96.8136 16.5481 96.9458 16.6803 97.0515 16.8257C97.1572 16.9579 97.2498 17.09 97.3291 17.2222C97.4216 17.3544 97.5141 17.4932 97.6066 17.6386C97.6992 17.784 97.7719 17.9426 97.8247 18.1144C97.8776 18.273 97.9371 18.4448 98.0032 18.6299C98.0428 18.7356 98.0758 18.848 98.1023 18.9669C98.1287 19.0859 98.1552 19.2048 98.1816 19.3238C98.1948 19.3767 98.2014 19.4295 98.2014 19.4824C98.2014 19.5353 98.208 19.5881 98.2212 19.641C98.2477 19.7071 98.2543 19.7798 98.2411 19.8591C98.2278 19.9384 98.2345 20.0111 98.2609 20.0772ZM95.4852 20.7909C95.4985 20.7248 95.5051 20.6323 95.5051 20.5134C95.5051 20.3812 95.4985 20.282 95.4852 20.216V20.0574C95.4588 19.9913 95.4456 19.9186 95.4456 19.8393C95.4456 19.76 95.439 19.6873 95.4258 19.6212C95.4258 19.5683 95.4192 19.5287 95.4059 19.5022C95.3795 19.3965 95.3531 19.2907 95.3266 19.185C95.3134 19.066 95.287 18.9537 95.2473 18.848C95.1019 18.5043 94.9301 18.2135 94.7319 17.9756C94.5336 17.7245 94.2692 17.5262 93.9388 17.3808C93.8595 17.3544 93.7802 17.3346 93.7009 17.3214C93.6216 17.2949 93.5357 17.2685 93.4432 17.242C93.3374 17.2156 93.2251 17.209 93.1061 17.2222C92.9872 17.2222 92.8682 17.2222 92.7492 17.2222C92.7096 17.2487 92.6633 17.2619 92.6105 17.2619C92.5576 17.2487 92.5113 17.2487 92.4717 17.2619C92.3792 17.2883 92.2866 17.3147 92.1941 17.3412C92.1148 17.3544 92.0421 17.3808 91.976 17.4205C91.6456 17.5659 91.3746 17.7774 91.1632 18.0549C90.9649 18.3193 90.8063 18.6299 90.6873 18.9867C90.6477 19.1189 90.6146 19.2577 90.5882 19.4031C90.575 19.5485 90.5552 19.6939 90.5287 19.8393C90.5155 19.9054 90.5089 19.9714 90.5089 20.0375C90.5089 20.1036 90.5089 20.1697 90.5089 20.2358C90.4825 20.3283 90.4692 20.4671 90.4692 20.6521C90.4825 20.8372 90.5023 20.976 90.5287 21.0685V21.2469C90.5552 21.3527 90.575 21.4584 90.5882 21.5641C90.6014 21.6567 90.6212 21.7558 90.6477 21.8615C90.7799 22.258 90.9186 22.5819 91.064 22.833C91.2226 23.0709 91.4672 23.289 91.7976 23.4873C91.8901 23.5534 91.9892 23.6062 92.095 23.6459C92.2139 23.6855 92.3329 23.7186 92.4519 23.745C92.5047 23.7582 92.551 23.7648 92.5906 23.7648C92.6303 23.7516 92.6765 23.7516 92.7294 23.7648C92.7823 23.778 92.8352 23.7913 92.888 23.8045C92.9541 23.8045 93.0136 23.7979 93.0665 23.7847H93.2251C93.3308 23.7582 93.4365 23.7384 93.5423 23.7252C93.648 23.712 93.7472 23.6855 93.8397 23.6459C94.1833 23.5137 94.4609 23.3353 94.6724 23.1106C94.8838 22.8859 95.0623 22.6083 95.2077 22.2779C95.2605 22.1457 95.3002 22.0135 95.3266 21.8814C95.3531 21.7492 95.3861 21.6104 95.4258 21.465C95.439 21.4121 95.4456 21.3659 95.4456 21.3262C95.4456 21.2734 95.4522 21.2205 95.4654 21.1676C95.4654 21.1015 95.4654 21.042 95.4654 20.9892C95.4654 20.9231 95.472 20.857 95.4852 20.7909ZM105.761 15.1207C105.906 15.1207 106.032 15.1339 106.138 15.1603C106.257 15.1867 106.349 15.2462 106.415 15.3387C106.494 15.4445 106.534 15.6295 106.534 15.8939C106.534 16.145 106.534 16.3697 106.534 16.568C106.534 16.7134 106.534 16.8786 106.534 17.0636C106.547 17.2487 106.528 17.394 106.475 17.4998C106.422 17.5923 106.343 17.6518 106.237 17.6782C106.144 17.7047 106.032 17.7179 105.9 17.7179C105.781 17.7179 105.649 17.7113 105.503 17.698C105.371 17.6848 105.245 17.6914 105.127 17.7179C105.034 17.7443 104.941 17.7641 104.849 17.7774C104.756 17.7774 104.671 17.7906 104.591 17.817C104.38 17.8831 104.168 17.9822 103.957 18.1144C103.745 18.2334 103.58 18.3721 103.461 18.5307C103.395 18.6365 103.322 18.7488 103.243 18.8678C103.177 18.9735 103.111 19.0859 103.045 19.2048C103.005 19.3106 102.965 19.4229 102.926 19.5419C102.899 19.6476 102.873 19.7534 102.847 19.8591C102.82 19.9516 102.807 20.0507 102.807 20.1565C102.807 20.249 102.794 20.3415 102.767 20.434C102.754 20.4869 102.747 20.5398 102.747 20.5927C102.761 20.6323 102.761 20.672 102.747 20.7116V21.0288C102.721 21.1214 102.714 21.2271 102.728 21.346C102.741 21.4518 102.747 21.5575 102.747 21.6633V22.9321V24.6174C102.747 24.7892 102.741 24.9478 102.728 25.0932C102.714 25.2386 102.675 25.3575 102.609 25.45C102.582 25.4897 102.536 25.5227 102.47 25.5492C102.417 25.5624 102.357 25.5756 102.291 25.5888H102.192C102.126 25.602 102.053 25.6087 101.974 25.6087C101.895 25.6087 101.822 25.6087 101.756 25.6087H100.904C100.824 25.5954 100.738 25.5888 100.646 25.5888C100.567 25.5888 100.481 25.5888 100.388 25.5888C100.322 25.5624 100.256 25.5426 100.19 25.5294C100.124 25.5029 100.077 25.4567 100.051 25.3906C99.9982 25.3245 99.9651 25.232 99.9519 25.113C99.9519 24.9808 99.9519 24.8487 99.9519 24.7165V23.3683V17.7774V16.3102C99.9519 16.178 99.9519 16.0525 99.9519 15.9335C99.9519 15.8014 99.9783 15.6956 100.031 15.6163C100.097 15.5106 100.196 15.4445 100.329 15.418C100.461 15.3916 100.619 15.3784 100.804 15.3784H101.816C101.974 15.3784 102.113 15.3916 102.232 15.418C102.351 15.4313 102.443 15.4907 102.509 15.5965C102.549 15.6626 102.569 15.7551 102.569 15.874C102.582 15.993 102.595 16.112 102.609 16.2309C102.622 16.3367 102.642 16.4358 102.668 16.5283C102.708 16.6208 102.774 16.6671 102.866 16.6671C102.893 16.6407 102.919 16.6274 102.946 16.6274C102.972 16.6274 102.999 16.6142 103.025 16.5878C103.104 16.5217 103.17 16.449 103.223 16.3697C103.289 16.2772 103.369 16.1979 103.461 16.1318C103.514 16.0921 103.56 16.0525 103.6 16.0128C103.64 15.96 103.686 15.9137 103.739 15.874C103.858 15.7947 103.977 15.7154 104.096 15.6361C104.228 15.5568 104.36 15.4841 104.492 15.418C104.624 15.3652 104.756 15.3189 104.889 15.2793C105.034 15.2396 105.179 15.2 105.325 15.1603C105.364 15.1471 105.437 15.1471 105.543 15.1603C105.662 15.1603 105.735 15.1471 105.761 15.1207ZM106.905 15.3387H108.412C108.544 15.3387 108.676 15.3387 108.808 15.3387C108.941 15.3387 109.053 15.3652 109.145 15.418C109.304 15.5238 109.41 15.689 109.463 15.9137C109.529 16.1384 109.595 16.3433 109.661 16.5283C109.727 16.6869 109.78 16.8521 109.819 17.024C109.872 17.1958 109.932 17.361 109.998 17.5196C110.104 17.8236 110.203 18.1276 110.295 18.4316C110.388 18.7224 110.487 19.0132 110.593 19.304L111.009 20.553C111.049 20.672 111.082 20.7975 111.108 20.9297C111.148 21.0487 111.194 21.1676 111.247 21.2866C111.287 21.3923 111.326 21.5113 111.366 21.6434C111.419 21.7756 111.518 21.8351 111.663 21.8219C111.69 21.7954 111.71 21.7822 111.723 21.7822C111.749 21.769 111.776 21.7492 111.802 21.7227C111.842 21.6567 111.875 21.5906 111.901 21.5245C111.928 21.4584 111.954 21.3923 111.981 21.3262C112.047 21.1808 112.099 21.0288 112.139 20.8702C112.179 20.6984 112.225 20.5332 112.278 20.3746C112.463 19.8194 112.641 19.2709 112.813 18.729C112.985 18.1871 113.163 17.6386 113.349 17.0834C113.415 16.8984 113.468 16.72 113.507 16.5481C113.56 16.3631 113.62 16.1847 113.686 16.0128C113.725 15.9071 113.758 15.808 113.785 15.7154C113.824 15.6097 113.89 15.5238 113.983 15.4577C114.062 15.3916 114.161 15.3586 114.28 15.3586C114.399 15.3454 114.532 15.3387 114.677 15.3387H115.886C116.018 15.3387 116.144 15.3454 116.263 15.3586C116.382 15.3718 116.474 15.4114 116.541 15.4775C116.62 15.57 116.633 15.689 116.58 15.8344C116.554 15.9401 116.521 16.0459 116.481 16.1516C116.441 16.2574 116.402 16.3631 116.362 16.4688C116.177 16.9314 115.999 17.4073 115.827 17.8963C115.655 18.3721 115.477 18.8414 115.292 19.304C115.212 19.5022 115.139 19.7071 115.073 19.9186C115.007 20.1168 114.935 20.3151 114.855 20.5134C114.789 20.6984 114.723 20.8768 114.657 21.0487C114.591 21.2205 114.525 21.3989 114.459 21.584C114.194 22.2448 113.943 22.9123 113.705 23.5864C113.481 24.2473 113.236 24.9015 112.972 25.5492C112.932 25.6417 112.899 25.7276 112.873 25.8069C112.859 25.8862 112.833 25.9655 112.793 26.0448C112.688 26.296 112.589 26.5405 112.496 26.7784C112.404 27.0163 112.304 27.241 112.199 27.4525C112.093 27.6772 111.967 27.882 111.822 28.0671C111.677 28.2521 111.498 28.4174 111.287 28.5627C111.115 28.6817 110.923 28.7742 110.712 28.8403C110.513 28.9196 110.295 28.9923 110.057 29.0584C109.952 29.0848 109.846 29.098 109.74 29.098C109.634 29.098 109.529 29.1113 109.423 29.1377H108.908C108.802 29.1377 108.676 29.1377 108.531 29.1377C108.385 29.1377 108.24 29.1311 108.095 29.1179C107.962 29.1047 107.837 29.0848 107.718 29.0584C107.612 29.0452 107.533 29.0187 107.48 28.9791C107.414 28.9262 107.368 28.8601 107.341 28.7808C107.328 28.7147 107.308 28.6288 107.282 28.5231V28.0473C107.282 27.8226 107.282 27.5847 107.282 27.3335C107.282 27.0824 107.361 26.9238 107.52 26.8577C107.586 26.8313 107.672 26.8114 107.777 26.7982C107.896 26.7982 107.995 26.8114 108.075 26.8379H108.57H108.808C108.861 26.8247 108.914 26.818 108.967 26.818C109.02 26.818 109.073 26.8048 109.126 26.7784C109.535 26.6594 109.8 26.3885 109.919 25.9655C109.945 25.9127 109.971 25.8334 109.998 25.7276C110.024 25.6219 110.024 25.5294 109.998 25.45C109.971 25.384 109.958 25.3179 109.958 25.2518C109.958 25.1857 109.945 25.1196 109.919 25.0535C109.839 24.7892 109.753 24.5314 109.661 24.2803C109.568 24.016 109.469 23.7582 109.363 23.5071C109.258 23.256 109.159 23.0048 109.066 22.7537C108.987 22.5026 108.894 22.2514 108.789 22.0003C108.722 21.8417 108.663 21.6831 108.61 21.5245C108.57 21.3659 108.518 21.2073 108.452 21.0487C108.24 20.5464 108.042 20.0309 107.857 19.5022C107.685 18.9735 107.493 18.458 107.282 17.9558C107.255 17.9029 107.242 17.8633 107.242 17.8368C107.242 17.7972 107.229 17.7575 107.202 17.7179C107.097 17.48 107.004 17.242 106.925 17.0041C106.859 16.753 106.773 16.5151 106.667 16.2904C106.641 16.2111 106.594 16.0987 106.528 15.9534C106.476 15.7947 106.469 15.6626 106.509 15.5568C106.548 15.4511 106.634 15.385 106.766 15.3586C106.793 15.3454 106.813 15.3454 106.826 15.3586C106.852 15.3586 106.879 15.352 106.905 15.3387ZM123.735 11.4727H126.332C126.544 11.4727 126.755 11.4727 126.967 11.4727C127.191 11.4727 127.363 11.5189 127.482 11.6114C127.575 11.6775 127.641 11.7767 127.68 11.9088C127.72 12.0278 127.76 12.1467 127.799 12.2657C127.879 12.4772 127.951 12.6953 128.017 12.92C128.097 13.1314 128.176 13.3495 128.255 13.5742C128.559 14.4069 128.843 15.2528 129.108 16.112C129.385 16.9711 129.683 17.8236 130 18.6695C130.106 18.9339 130.198 19.2048 130.278 19.4824C130.357 19.76 130.449 20.0309 130.555 20.2953C130.582 20.3614 130.608 20.4274 130.634 20.4935C130.661 20.5596 130.707 20.6125 130.773 20.6521C130.8 20.6654 130.826 20.6786 130.852 20.6918C130.879 20.705 130.905 20.6984 130.932 20.672C131.038 20.6455 131.11 20.5662 131.15 20.434C131.19 20.3019 131.229 20.1829 131.269 20.0772C131.375 19.7732 131.467 19.4758 131.546 19.185C131.639 18.881 131.738 18.577 131.844 18.273C132.108 17.4667 132.372 16.6605 132.637 15.8542C132.901 15.0347 133.166 14.2153 133.43 13.3958C133.496 13.1843 133.562 12.9794 133.628 12.7812C133.694 12.5697 133.76 12.3582 133.826 12.1467C133.866 12.041 133.906 11.9353 133.945 11.8295C133.985 11.7238 134.058 11.6379 134.163 11.5718C134.243 11.5057 134.342 11.4727 134.461 11.4727C134.593 11.4727 134.725 11.4727 134.857 11.4727H136.146H137.514C137.633 11.4727 137.752 11.4727 137.871 11.4727C138.003 11.4727 138.102 11.4991 138.168 11.552C138.314 11.6313 138.386 11.7833 138.386 12.008C138.386 12.2194 138.386 12.4375 138.386 12.6622V15.6361V23.0114V24.7363C138.386 24.8817 138.38 25.0271 138.367 25.1725C138.367 25.3047 138.327 25.4038 138.248 25.4699C138.168 25.536 138.069 25.5756 137.95 25.5888C137.831 25.5888 137.699 25.5888 137.554 25.5888H136.602H136.067C135.961 25.5624 135.869 25.5426 135.789 25.5294C135.723 25.5161 135.664 25.4699 135.611 25.3906C135.558 25.3245 135.531 25.2386 135.531 25.1328C135.531 25.0271 135.531 24.9147 135.531 24.7958V23.7847V18.6894C135.518 18.5043 135.512 18.3325 135.512 18.1739C135.512 18.002 135.512 17.8302 135.512 17.6584C135.512 17.5527 135.512 17.4469 135.512 17.3412C135.525 17.2222 135.518 17.1099 135.492 17.0041C135.465 16.9116 135.452 16.8125 135.452 16.7067C135.452 16.601 135.413 16.5349 135.333 16.5085C135.294 16.4953 135.26 16.5019 135.234 16.5283C135.221 16.5547 135.208 16.5746 135.194 16.5878C135.142 16.6407 135.095 16.7067 135.056 16.786C135.029 16.8521 135.003 16.9182 134.976 16.9843C134.897 17.1826 134.818 17.3874 134.738 17.5989C134.672 17.8104 134.6 18.0219 134.52 18.2334C134.494 18.3127 134.467 18.392 134.441 18.4713C134.428 18.5506 134.401 18.6299 134.362 18.7092C134.296 18.881 134.236 19.0528 134.183 19.2247C134.13 19.3965 134.071 19.5683 134.005 19.7401C133.978 19.7798 133.965 19.826 133.965 19.8789C133.965 19.9186 133.952 19.9582 133.926 19.9979C133.873 20.1168 133.826 20.2424 133.787 20.3746C133.76 20.5067 133.714 20.6389 133.648 20.7711C133.595 20.89 133.549 21.0156 133.509 21.1478C133.483 21.28 133.443 21.4121 133.39 21.5443C133.232 21.9276 133.093 22.3175 132.974 22.714C132.855 23.0974 132.723 23.4807 132.577 23.864C132.551 23.9036 132.538 23.9433 132.538 23.9829C132.538 24.0226 132.524 24.0622 132.498 24.1019C132.432 24.2473 132.379 24.3993 132.339 24.5579C132.3 24.7033 132.247 24.8487 132.181 24.994C132.141 25.0866 132.102 25.1725 132.062 25.2518C132.035 25.3311 131.989 25.3972 131.923 25.45C131.857 25.5029 131.791 25.536 131.725 25.5492C131.659 25.5492 131.579 25.5624 131.487 25.5888H131.031C130.938 25.5888 130.826 25.5954 130.694 25.6087C130.575 25.6087 130.449 25.6087 130.317 25.6087C130.198 25.6087 130.086 25.602 129.98 25.5888C129.874 25.5756 129.795 25.5492 129.742 25.5095C129.637 25.4434 129.564 25.3707 129.524 25.2914C129.485 25.1989 129.438 25.0932 129.385 24.9742C129.319 24.8156 129.26 24.657 129.207 24.4984C129.167 24.3266 129.114 24.1614 129.048 24.0027L128.989 23.8243C128.923 23.6657 128.863 23.5005 128.81 23.3287C128.758 23.1436 128.698 22.9718 128.632 22.8132C128.619 22.7735 128.606 22.7405 128.592 22.714C128.592 22.6744 128.586 22.6347 128.573 22.5951C128.506 22.4761 128.454 22.3506 128.414 22.2184C128.374 22.0862 128.328 21.954 128.275 21.8219C128.262 21.7954 128.249 21.7624 128.235 21.7227C128.235 21.6831 128.229 21.65 128.216 21.6236C128.163 21.4914 128.116 21.3593 128.077 21.2271C128.05 21.0949 128.004 20.9627 127.938 20.8306C127.832 20.5662 127.733 20.2887 127.641 19.9979C127.548 19.7071 127.449 19.4229 127.343 19.1454C127.224 18.8149 127.112 18.4779 127.006 18.1342C126.901 17.7906 126.775 17.4601 126.63 17.1429C126.563 16.9579 126.491 16.8059 126.411 16.6869C126.385 16.6605 126.359 16.6407 126.332 16.6274C126.306 16.601 126.273 16.601 126.233 16.6274C126.167 16.6671 126.134 16.7332 126.134 16.8257C126.134 16.9182 126.121 17.0107 126.094 17.1033C126.068 17.1958 126.055 17.2949 126.055 17.4007C126.068 17.4932 126.074 17.5923 126.074 17.698C126.074 17.8434 126.074 17.9888 126.074 18.1342C126.074 18.2796 126.068 18.425 126.055 18.5704V23.8441V24.8156C126.055 24.9214 126.055 25.0271 126.055 25.1328C126.055 25.2386 126.028 25.3245 125.975 25.3906C125.922 25.4831 125.823 25.5426 125.678 25.569C125.585 25.5954 125.486 25.6087 125.381 25.6087C125.275 25.5954 125.169 25.5888 125.063 25.5888H124.032C123.887 25.5888 123.755 25.5888 123.636 25.5888C123.517 25.5756 123.418 25.536 123.338 25.4699C123.259 25.4038 123.213 25.3047 123.2 25.1725C123.186 25.0271 123.18 24.8817 123.18 24.7363V22.9916V15.6163V12.8407C123.18 12.7614 123.18 12.6688 123.18 12.5631C123.18 12.4441 123.18 12.3318 123.18 12.226C123.18 12.1203 123.186 12.0212 123.2 11.9287C123.213 11.8229 123.233 11.7436 123.259 11.6907C123.312 11.5982 123.418 11.5321 123.576 11.4925C123.603 11.4793 123.629 11.4793 123.656 11.4925C123.682 11.4925 123.708 11.4859 123.735 11.4727ZM149.929 24.8156C149.956 24.961 149.969 25.1064 149.969 25.2518C149.982 25.3972 149.916 25.4963 149.771 25.5492C149.691 25.5888 149.599 25.6087 149.493 25.6087C149.387 25.6087 149.282 25.6087 149.176 25.6087H148.105C147.986 25.6087 147.867 25.6087 147.748 25.6087C147.643 25.5954 147.557 25.5624 147.491 25.5095C147.398 25.4567 147.325 25.384 147.273 25.2914C147.233 25.1857 147.174 25.0998 147.094 25.0337C147.068 25.0073 147.035 24.9874 146.995 24.9742C146.955 24.9478 146.903 24.9412 146.836 24.9544C146.77 24.9808 146.704 25.0139 146.638 25.0535C146.585 25.0932 146.526 25.1262 146.46 25.1527C146.394 25.2055 146.321 25.2518 146.242 25.2914C146.162 25.3311 146.083 25.3707 146.004 25.4104C145.832 25.4897 145.654 25.5558 145.468 25.6087C145.283 25.6483 145.092 25.6946 144.894 25.7474C144.801 25.7739 144.708 25.7871 144.616 25.7871C144.537 25.8003 144.451 25.8135 144.358 25.8267C144.319 25.8267 144.279 25.8267 144.239 25.8267C144.2 25.84 144.16 25.8466 144.12 25.8466H143.902C143.77 25.873 143.638 25.873 143.506 25.8466H143.327C143.235 25.8201 143.142 25.8069 143.05 25.8069C142.97 25.8201 142.891 25.8135 142.812 25.7871C142.68 25.7607 142.554 25.7342 142.435 25.7078C142.316 25.6946 142.204 25.6615 142.098 25.6087C141.715 25.4633 141.384 25.2782 141.107 25.0535C140.842 24.8156 140.631 24.505 140.472 24.1217C140.433 24.0292 140.393 23.93 140.353 23.8243C140.327 23.7186 140.3 23.6062 140.274 23.4873C140.248 23.4212 140.234 23.3551 140.234 23.289C140.248 23.2229 140.248 23.1568 140.234 23.0907C140.221 23.0511 140.208 22.9718 140.195 22.8528C140.195 22.7207 140.201 22.6281 140.215 22.5753C140.241 22.4431 140.254 22.3307 140.254 22.2382C140.294 22.0928 140.334 21.9474 140.373 21.802C140.413 21.6434 140.466 21.5047 140.532 21.3857C140.756 21.0024 141.014 20.7116 141.305 20.5134C141.596 20.3151 141.966 20.1433 142.415 19.9979C142.587 19.9318 142.765 19.8855 142.951 19.8591C143.136 19.8327 143.321 19.7996 143.506 19.76C143.611 19.7335 143.724 19.7203 143.843 19.7203C143.962 19.7071 144.081 19.6873 144.2 19.6608C144.292 19.6344 144.385 19.6278 144.477 19.641C144.57 19.641 144.669 19.6278 144.775 19.6014C144.867 19.5749 144.96 19.5617 145.052 19.5617C145.145 19.5617 145.244 19.5485 145.35 19.522C145.627 19.456 145.878 19.4031 146.103 19.3634C146.341 19.3106 146.552 19.1916 146.737 19.0066C146.856 18.8876 146.936 18.7554 146.975 18.61C146.988 18.5704 146.988 18.5374 146.975 18.5109C146.975 18.4845 146.982 18.458 146.995 18.4316C147.008 18.4052 147.015 18.3655 147.015 18.3127C147.015 18.2598 147.015 18.2201 147.015 18.1937C147.002 18.1408 146.988 18.088 146.975 18.0351C146.975 17.9822 146.969 17.936 146.955 17.8963C146.823 17.4998 146.546 17.2288 146.123 17.0834C146.004 17.0438 145.858 17.0174 145.687 17.0041C145.528 16.9777 145.363 16.9711 145.191 16.9843C145.019 16.9843 144.854 16.9975 144.695 17.024C144.537 17.0504 144.398 17.0834 144.279 17.1231C144.2 17.1495 144.12 17.1892 144.041 17.242C143.975 17.2817 143.909 17.328 143.843 17.3808C143.777 17.4337 143.704 17.5064 143.625 17.5989C143.559 17.6914 143.512 17.7774 143.486 17.8567C143.42 17.9888 143.36 18.1144 143.307 18.2334C143.268 18.3523 143.175 18.4316 143.03 18.4713C142.924 18.4977 142.812 18.5109 142.693 18.5109C142.574 18.5109 142.455 18.5109 142.336 18.5109H141.583C141.516 18.5109 141.45 18.5175 141.384 18.5307C141.318 18.5307 141.259 18.5241 141.206 18.5109H141.027C141.001 18.4977 140.968 18.4911 140.928 18.4911C140.889 18.4911 140.856 18.4779 140.829 18.4514C140.723 18.425 140.651 18.3391 140.611 18.1937C140.598 18.1276 140.598 18.0615 140.611 17.9954C140.624 17.9294 140.638 17.8699 140.651 17.817C140.69 17.6716 140.73 17.5394 140.77 17.4205C140.823 17.2883 140.882 17.1694 140.948 17.0636C140.988 16.9975 141.027 16.9314 141.067 16.8654C141.107 16.7993 141.146 16.7332 141.186 16.6671C141.292 16.5217 141.424 16.3829 141.583 16.2507C141.609 16.2375 141.649 16.2045 141.702 16.1516C141.768 16.0987 141.827 16.0525 141.88 16.0128C141.933 15.9732 141.992 15.9335 142.058 15.8939C142.283 15.7485 142.521 15.6361 142.772 15.5568C143.023 15.4643 143.281 15.3784 143.545 15.2991C143.704 15.2594 143.869 15.233 144.041 15.2198C144.213 15.2066 144.385 15.1801 144.556 15.1405C144.609 15.1273 144.689 15.1273 144.794 15.1405C144.913 15.1537 144.986 15.1471 145.012 15.1207C145.554 15.1074 146.07 15.1273 146.559 15.1801C147.061 15.233 147.511 15.3321 147.907 15.4775C148.317 15.6229 148.667 15.8212 148.958 16.0723C149.249 16.3102 149.473 16.6208 149.632 17.0041C149.724 17.2288 149.777 17.4866 149.791 17.7774C149.804 18.0681 149.81 18.3655 149.81 18.6695V23.0907C149.81 23.3419 149.81 23.5996 149.81 23.864C149.81 24.1151 149.837 24.3464 149.89 24.5579C149.903 24.5975 149.909 24.6438 149.909 24.6967C149.909 24.7363 149.916 24.776 149.929 24.8156ZM147.015 21.7624C147.028 21.6963 147.035 21.6236 147.035 21.5443C147.035 21.4518 147.028 21.3725 147.015 21.3064C146.988 21.2271 146.975 21.1544 146.975 21.0883C146.975 21.0222 146.949 20.9694 146.896 20.9297C146.83 20.8768 146.731 20.8504 146.599 20.8504C146.546 20.8636 146.499 20.8768 146.46 20.89C146.42 20.89 146.374 20.8967 146.321 20.9099C146.228 20.9363 146.129 20.9561 146.024 20.9694C145.918 20.9826 145.812 21.0024 145.706 21.0288C145.667 21.042 145.607 21.0487 145.528 21.0487C145.356 21.0883 145.184 21.1147 145.012 21.128C144.841 21.1412 144.675 21.1742 144.517 21.2271C144.411 21.2535 144.312 21.28 144.219 21.3064C144.127 21.3196 144.034 21.346 143.942 21.3857C143.664 21.5047 143.426 21.6831 143.228 21.921C143.043 22.1589 142.977 22.4894 143.03 22.9123C143.056 23.137 143.129 23.322 143.248 23.4674C143.34 23.6128 143.479 23.7318 143.664 23.8243C143.849 23.9036 144.048 23.9631 144.259 24.0027C144.484 24.0424 144.715 24.0556 144.953 24.0424C145.204 24.016 145.435 23.9697 145.647 23.9036C145.991 23.7979 146.261 23.6327 146.46 23.408C146.658 23.17 146.81 22.8793 146.916 22.5356C146.942 22.4431 146.955 22.3506 146.955 22.258C146.969 22.1523 146.988 22.0466 147.015 21.9408V21.7624ZM157.646 15.1207C158.439 15.0942 159.1 15.2066 159.628 15.4577C160.157 15.7088 160.573 16.0789 160.877 16.568C160.97 16.7134 161.043 16.872 161.096 17.0438C161.148 17.2024 161.201 17.3676 161.254 17.5394C161.281 17.6452 161.294 17.7443 161.294 17.8368C161.307 17.9294 161.327 18.0219 161.353 18.1144C161.353 18.1937 161.36 18.2466 161.373 18.273C161.4 18.458 161.413 18.6497 161.413 18.848C161.413 19.0462 161.413 19.2379 161.413 19.4229V21.1874V24.3993C161.413 24.6504 161.406 24.8949 161.393 25.1328C161.393 25.3575 161.3 25.5029 161.115 25.569C161.036 25.5954 160.944 25.6087 160.838 25.6087C160.732 25.6087 160.626 25.6087 160.521 25.6087H159.45C159.291 25.6087 159.146 25.602 159.014 25.5888C158.895 25.5624 158.802 25.5029 158.736 25.4104C158.683 25.3311 158.65 25.232 158.637 25.113C158.637 24.9808 158.637 24.842 158.637 24.6967V23.3088V20.3547C158.637 19.8657 158.617 19.4163 158.578 19.0066C158.538 18.5836 158.419 18.2267 158.221 17.936C158.036 17.6716 157.765 17.4866 157.408 17.3808C157.342 17.3544 157.269 17.3412 157.19 17.3412C157.124 17.3412 157.051 17.328 156.972 17.3015C156.906 17.2883 156.82 17.2883 156.714 17.3015C156.621 17.3015 156.549 17.3081 156.496 17.3214C156.443 17.3346 156.397 17.3412 156.357 17.3412C156.317 17.3412 156.278 17.3478 156.238 17.361C155.934 17.4403 155.69 17.546 155.505 17.6782C155.082 17.9822 154.831 18.425 154.751 19.0066C154.672 19.5881 154.632 20.2424 154.632 20.9694V23.4476V24.657C154.632 24.776 154.632 24.8949 154.632 25.0139C154.632 25.1328 154.612 25.232 154.573 25.3113C154.507 25.4567 154.401 25.5426 154.256 25.569C154.11 25.5954 153.932 25.6087 153.72 25.6087H152.729C152.584 25.6087 152.438 25.602 152.293 25.5888C152.147 25.5756 152.042 25.5294 151.976 25.45C151.883 25.3311 151.837 25.1593 151.837 24.9346C151.85 24.7099 151.857 24.4984 151.857 24.3001V21.6038V17.242V16.2309C151.857 16.0855 151.857 15.9534 151.857 15.8344C151.87 15.7154 151.909 15.6163 151.976 15.537C152.002 15.4974 152.042 15.4709 152.094 15.4577C152.161 15.4313 152.227 15.4114 152.293 15.3982H152.392C152.458 15.385 152.524 15.3784 152.59 15.3784C152.669 15.3784 152.742 15.3784 152.808 15.3784H153.641C153.747 15.3784 153.846 15.385 153.938 15.3982C154.044 15.3982 154.137 15.4114 154.216 15.4379C154.308 15.4775 154.368 15.537 154.394 15.6163C154.434 15.6956 154.467 15.7881 154.493 15.8939C154.507 15.9467 154.507 15.993 154.493 16.0327C154.493 16.0723 154.507 16.112 154.533 16.1516C154.56 16.2177 154.579 16.2574 154.593 16.2706C154.619 16.2838 154.652 16.3036 154.692 16.33C154.837 16.3433 154.956 16.297 155.049 16.1913C155.141 16.0723 155.24 15.9798 155.346 15.9137C155.703 15.6494 156.099 15.4379 156.536 15.2793C156.655 15.2396 156.773 15.2132 156.892 15.2C157.025 15.1867 157.163 15.1669 157.309 15.1405C157.348 15.1273 157.408 15.1273 157.487 15.1405C157.566 15.1405 157.619 15.1339 157.646 15.1207ZM172.67 24.8156C172.696 24.961 172.709 25.1064 172.709 25.2518C172.723 25.3972 172.657 25.4963 172.511 25.5492C172.432 25.5888 172.339 25.6087 172.234 25.6087C172.128 25.6087 172.022 25.6087 171.916 25.6087H170.846C170.727 25.6087 170.608 25.6087 170.489 25.6087C170.383 25.5954 170.297 25.5624 170.231 25.5095C170.139 25.4567 170.066 25.384 170.013 25.2914C169.973 25.1857 169.914 25.0998 169.835 25.0337C169.808 25.0073 169.775 24.9874 169.736 24.9742C169.696 24.9478 169.643 24.9412 169.577 24.9544C169.511 24.9808 169.445 25.0139 169.379 25.0535C169.326 25.0932 169.266 25.1262 169.2 25.1527C169.134 25.2055 169.062 25.2518 168.982 25.2914C168.903 25.3311 168.824 25.3707 168.744 25.4104C168.572 25.4897 168.394 25.5558 168.209 25.6087C168.024 25.6483 167.832 25.6946 167.634 25.7474C167.542 25.7739 167.449 25.7871 167.356 25.7871C167.277 25.8003 167.191 25.8135 167.099 25.8267C167.059 25.8267 167.019 25.8267 166.98 25.8267C166.94 25.84 166.9 25.8466 166.861 25.8466H166.643C166.511 25.873 166.378 25.873 166.246 25.8466H166.068C165.975 25.8201 165.883 25.8069 165.79 25.8069C165.711 25.8201 165.632 25.8135 165.552 25.7871C165.42 25.7607 165.295 25.7342 165.176 25.7078C165.057 25.6946 164.944 25.6615 164.839 25.6087C164.455 25.4633 164.125 25.2782 163.847 25.0535C163.583 24.8156 163.371 24.505 163.213 24.1217C163.173 24.0292 163.134 23.93 163.094 23.8243C163.067 23.7186 163.041 23.6062 163.015 23.4873C162.988 23.4212 162.975 23.3551 162.975 23.289C162.988 23.2229 162.988 23.1568 162.975 23.0907C162.962 23.0511 162.948 22.9718 162.935 22.8528C162.935 22.7207 162.942 22.6281 162.955 22.5753C162.982 22.4431 162.995 22.3307 162.995 22.2382C163.034 22.0928 163.074 21.9474 163.114 21.802C163.153 21.6434 163.206 21.5047 163.272 21.3857C163.497 21.0024 163.755 20.7116 164.045 20.5134C164.336 20.3151 164.706 20.1433 165.156 19.9979C165.328 19.9318 165.506 19.8855 165.691 19.8591C165.876 19.8327 166.061 19.7996 166.246 19.76C166.352 19.7335 166.464 19.7203 166.583 19.7203C166.702 19.7071 166.821 19.6873 166.94 19.6608C167.033 19.6344 167.125 19.6278 167.218 19.641C167.31 19.641 167.409 19.6278 167.515 19.6014C167.608 19.5749 167.7 19.5617 167.793 19.5617C167.885 19.5617 167.984 19.5485 168.09 19.522C168.368 19.456 168.619 19.4031 168.843 19.3634C169.081 19.3106 169.293 19.1916 169.478 19.0066C169.597 18.8876 169.676 18.7554 169.716 18.61C169.729 18.5704 169.729 18.5374 169.716 18.5109C169.716 18.4845 169.722 18.458 169.736 18.4316C169.749 18.4052 169.755 18.3655 169.755 18.3127C169.755 18.2598 169.755 18.2201 169.755 18.1937C169.742 18.1408 169.729 18.088 169.716 18.0351C169.716 17.9822 169.709 17.936 169.696 17.8963C169.564 17.4998 169.286 17.2288 168.863 17.0834C168.744 17.0438 168.599 17.0174 168.427 17.0041C168.268 16.9777 168.103 16.9711 167.931 16.9843C167.76 16.9843 167.594 16.9975 167.436 17.024C167.277 17.0504 167.138 17.0834 167.019 17.1231C166.94 17.1495 166.861 17.1892 166.782 17.242C166.715 17.2817 166.649 17.328 166.583 17.3808C166.517 17.4337 166.444 17.5064 166.365 17.5989C166.299 17.6914 166.253 17.7774 166.226 17.8567C166.16 17.9888 166.101 18.1144 166.048 18.2334C166.008 18.3523 165.916 18.4316 165.77 18.4713C165.665 18.4977 165.552 18.5109 165.433 18.5109C165.314 18.5109 165.195 18.5109 165.076 18.5109H164.323C164.257 18.5109 164.191 18.5175 164.125 18.5307C164.059 18.5307 163.999 18.5241 163.946 18.5109H163.768C163.741 18.4977 163.708 18.4911 163.669 18.4911C163.629 18.4911 163.596 18.4779 163.57 18.4514C163.464 18.425 163.391 18.3391 163.352 18.1937C163.338 18.1276 163.338 18.0615 163.352 17.9954C163.365 17.9294 163.378 17.8699 163.391 17.817C163.431 17.6716 163.471 17.5394 163.51 17.4205C163.563 17.2883 163.623 17.1694 163.689 17.0636C163.728 16.9975 163.768 16.9314 163.808 16.8654C163.847 16.7993 163.887 16.7332 163.927 16.6671C164.032 16.5217 164.164 16.3829 164.323 16.2507C164.35 16.2375 164.389 16.2045 164.442 16.1516C164.508 16.0987 164.568 16.0525 164.62 16.0128C164.673 15.9732 164.733 15.9335 164.799 15.8939C165.024 15.7485 165.261 15.6361 165.513 15.5568C165.764 15.4643 166.021 15.3784 166.286 15.2991C166.444 15.2594 166.61 15.233 166.782 15.2198C166.953 15.2066 167.125 15.1801 167.297 15.1405C167.35 15.1273 167.429 15.1273 167.535 15.1405C167.654 15.1537 167.727 15.1471 167.753 15.1207C168.295 15.1074 168.81 15.1273 169.299 15.1801C169.802 15.233 170.251 15.3321 170.648 15.4775C171.057 15.6229 171.408 15.8212 171.698 16.0723C171.989 16.3102 172.214 16.6208 172.372 17.0041C172.465 17.2288 172.518 17.4866 172.531 17.7774C172.544 18.0681 172.551 18.3655 172.551 18.6695V23.0907C172.551 23.3419 172.551 23.5996 172.551 23.864C172.551 24.1151 172.577 24.3464 172.63 24.5579C172.643 24.5975 172.65 24.6438 172.65 24.6967C172.65 24.7363 172.657 24.776 172.67 24.8156ZM169.755 21.7624C169.769 21.6963 169.775 21.6236 169.775 21.5443C169.775 21.4518 169.769 21.3725 169.755 21.3064C169.729 21.2271 169.716 21.1544 169.716 21.0883C169.716 21.0222 169.689 20.9694 169.636 20.9297C169.57 20.8768 169.471 20.8504 169.339 20.8504C169.286 20.8636 169.24 20.8768 169.2 20.89C169.161 20.89 169.114 20.8967 169.061 20.9099C168.969 20.9363 168.87 20.9561 168.764 20.9694C168.658 20.9826 168.553 21.0024 168.447 21.0288C168.407 21.042 168.348 21.0487 168.268 21.0487C168.097 21.0883 167.925 21.1147 167.753 21.128C167.581 21.1412 167.416 21.1742 167.257 21.2271C167.152 21.2535 167.052 21.28 166.96 21.3064C166.867 21.3196 166.775 21.346 166.682 21.3857C166.405 21.5047 166.167 21.6831 165.969 21.921C165.784 22.1589 165.718 22.4894 165.77 22.9123C165.797 23.137 165.869 23.322 165.988 23.4674C166.081 23.6128 166.22 23.7318 166.405 23.8243C166.59 23.9036 166.788 23.9631 167 24.0027C167.224 24.0424 167.456 24.0556 167.693 24.0424C167.945 24.016 168.176 23.9697 168.387 23.9036C168.731 23.7979 169.002 23.6327 169.2 23.408C169.399 23.17 169.551 22.8793 169.656 22.5356C169.683 22.4431 169.696 22.3506 169.696 22.258C169.709 22.1523 169.729 22.0466 169.755 21.9408V21.7624ZM184.252 15.4974C184.345 15.5634 184.391 15.6758 184.391 15.8344C184.404 15.9798 184.411 16.1318 184.411 16.2904V24.7561C184.411 24.8619 184.404 24.9676 184.391 25.0734C184.391 25.1659 184.391 25.265 184.391 25.3707C184.378 25.4765 184.365 25.569 184.352 25.6483C184.352 25.7408 184.345 25.84 184.332 25.9457C184.279 26.1307 184.233 26.3026 184.193 26.4612C184.167 26.633 184.12 26.7916 184.054 26.937C183.829 27.4393 183.539 27.8556 183.182 28.186C182.838 28.5165 182.415 28.7874 181.913 28.9989C181.768 29.065 181.622 29.1179 181.477 29.1575C181.331 29.1972 181.179 29.2368 181.021 29.2765C180.875 29.3161 180.73 29.3426 180.585 29.3558C180.439 29.369 180.294 29.3888 180.148 29.4153C180.096 29.4153 180.043 29.4153 179.99 29.4153C179.937 29.4285 179.877 29.4351 179.811 29.4351C179.758 29.4483 179.699 29.4483 179.633 29.4351C179.567 29.4351 179.501 29.4417 179.435 29.4549C179.369 29.4681 179.283 29.4747 179.177 29.4747C179.071 29.4747 178.985 29.4681 178.919 29.4549C178.853 29.4549 178.794 29.4549 178.741 29.4549C178.688 29.4549 178.635 29.4483 178.582 29.4351C178.476 29.4087 178.364 29.3954 178.245 29.3954C178.139 29.3954 178.04 29.3822 177.948 29.3558C177.921 29.3426 177.888 29.336 177.849 29.336C177.809 29.336 177.776 29.3294 177.749 29.3161C177.617 29.2897 177.485 29.2567 177.353 29.217C177.234 29.1906 177.115 29.1509 176.996 29.098C176.494 28.8866 176.044 28.6156 175.648 28.2852C175.251 27.968 174.961 27.5384 174.776 26.9965C174.749 26.9568 174.736 26.9172 174.736 26.8775C174.736 26.8379 174.729 26.8048 174.716 26.7784C174.676 26.6066 174.69 26.4744 174.756 26.3819C174.835 26.3026 174.941 26.2497 175.073 26.2233C175.205 26.1968 175.35 26.1836 175.509 26.1836C175.681 26.1968 175.84 26.2034 175.985 26.2034H176.659C176.725 26.2034 176.778 26.2034 176.818 26.2034C176.871 26.2167 176.93 26.2233 176.996 26.2233C177.208 26.2761 177.34 26.3422 177.393 26.4215C177.445 26.514 177.525 26.633 177.631 26.7784C177.67 26.8313 177.73 26.8973 177.809 26.9767C177.822 27.0031 177.835 27.0229 177.849 27.0361C177.862 27.0494 177.875 27.0692 177.888 27.0956C177.994 27.1749 178.106 27.2476 178.225 27.3137C178.344 27.3798 178.476 27.4393 178.622 27.4921C178.714 27.5186 178.807 27.5318 178.899 27.5318C178.992 27.545 179.091 27.5648 179.197 27.5913H179.415C179.507 27.6177 179.626 27.6177 179.772 27.5913C179.917 27.578 180.029 27.5582 180.109 27.5318C180.175 27.5054 180.228 27.4921 180.267 27.4921C180.32 27.4921 180.373 27.4789 180.426 27.4525C180.704 27.3335 180.935 27.1749 181.12 26.9767C181.305 26.7784 181.457 26.5471 181.576 26.2827C181.602 26.2034 181.622 26.1241 181.635 26.0448C181.649 25.9655 181.668 25.8796 181.695 25.7871C181.721 25.6681 181.735 25.5426 181.735 25.4104C181.748 25.265 181.754 25.1196 181.754 24.9742C181.754 24.9214 181.754 24.8685 181.754 24.8156C181.768 24.7627 181.768 24.7165 181.754 24.6768C181.728 24.6107 181.715 24.5513 181.715 24.4984C181.728 24.4455 181.721 24.3927 181.695 24.3398C181.682 24.3134 181.662 24.2935 181.635 24.2803C181.622 24.2671 181.602 24.2473 181.576 24.2208C181.457 24.2076 181.358 24.234 181.279 24.3001C181.212 24.3662 181.146 24.4257 181.08 24.4786C180.961 24.5711 180.842 24.657 180.723 24.7363C180.604 24.8156 180.472 24.8883 180.327 24.9544C180.181 25.0205 180.036 25.0734 179.891 25.113C179.745 25.1527 179.593 25.1923 179.435 25.232C179.355 25.2452 179.276 25.2584 179.197 25.2716C179.131 25.2716 179.065 25.2782 178.999 25.2914C178.932 25.3047 178.827 25.3113 178.681 25.3113C178.536 25.3113 178.43 25.3047 178.364 25.2914H178.205C178.166 25.2782 178.12 25.2716 178.067 25.2716C178.027 25.2716 177.981 25.265 177.928 25.2518C177.743 25.2121 177.564 25.1791 177.393 25.1527C177.221 25.113 177.062 25.0601 176.917 24.994C176.348 24.7694 175.886 24.4587 175.529 24.0622C175.185 23.6525 174.894 23.1634 174.657 22.5951C174.59 22.4497 174.544 22.2977 174.518 22.1391C174.491 21.9805 174.452 21.8219 174.399 21.6633C174.399 21.5972 174.392 21.5443 174.379 21.5047C174.353 21.3989 174.339 21.2866 174.339 21.1676C174.339 21.0354 174.326 20.9165 174.3 20.8107C174.287 20.7447 174.28 20.6852 174.28 20.6323C174.28 20.5662 174.28 20.5001 174.28 20.434C174.267 20.368 174.26 20.2887 174.26 20.1961C174.26 20.0904 174.267 20.0045 174.28 19.9384V19.7401C174.293 19.6873 174.293 19.6344 174.28 19.5815C174.28 19.5287 174.293 19.4758 174.32 19.4229C174.346 19.2907 174.366 19.1652 174.379 19.0462C174.392 18.914 174.412 18.7819 174.439 18.6497C174.518 18.3854 174.597 18.1342 174.676 17.8963C174.769 17.6584 174.881 17.4337 175.013 17.2222C175.08 17.09 175.152 16.9711 175.232 16.8654C175.324 16.7464 175.417 16.6274 175.509 16.5085C175.549 16.4424 175.602 16.3763 175.668 16.3102C175.747 16.2441 175.82 16.1847 175.886 16.1318L176.005 16.0128C176.071 15.96 176.137 15.9137 176.203 15.874C176.269 15.8212 176.335 15.7749 176.401 15.7353C176.573 15.6295 176.752 15.537 176.937 15.4577C177.122 15.3784 177.326 15.3057 177.551 15.2396C177.657 15.2 177.763 15.1801 177.868 15.1801C177.987 15.1669 178.1 15.1471 178.205 15.1207C178.258 15.1074 178.331 15.1074 178.424 15.1207C178.516 15.1339 178.576 15.1273 178.602 15.1008C179.025 15.0876 179.402 15.1273 179.732 15.2198C180.076 15.3123 180.38 15.4445 180.644 15.6163C180.684 15.6427 180.723 15.6758 180.763 15.7154C180.803 15.7419 180.849 15.7749 180.902 15.8146C180.981 15.8807 181.054 15.9467 181.12 16.0128C181.186 16.0789 181.265 16.1384 181.358 16.1913C181.384 16.2045 181.417 16.2177 181.457 16.2309C181.51 16.2441 181.549 16.2375 181.576 16.2111C181.642 16.1847 181.682 16.1384 181.695 16.0723C181.708 16.0062 181.728 15.9401 181.754 15.874C181.781 15.808 181.801 15.7419 181.814 15.6758C181.84 15.5965 181.88 15.5304 181.933 15.4775C182.012 15.4247 182.105 15.3982 182.21 15.3982C182.329 15.385 182.448 15.3784 182.567 15.3784H183.578C183.724 15.3784 183.849 15.385 183.955 15.3982C184.074 15.3982 184.173 15.4313 184.252 15.4974ZM181.536 21.6236C181.589 21.5047 181.635 21.3527 181.675 21.1676C181.715 20.9826 181.741 20.7909 181.754 20.5927C181.768 20.3812 181.768 20.1763 181.754 19.978C181.754 19.7798 181.734 19.6014 181.695 19.4427C181.668 19.3899 181.655 19.3502 181.655 19.3238C181.668 19.2841 181.668 19.2379 181.655 19.185C181.629 19.0925 181.602 19 181.576 18.9074C181.549 18.8149 181.516 18.729 181.477 18.6497C181.292 18.1871 181.027 17.8302 180.684 17.5791C180.34 17.328 179.838 17.2024 179.177 17.2024C179.15 17.2288 179.111 17.242 179.058 17.242C179.018 17.2288 178.979 17.2288 178.939 17.242C178.846 17.2685 178.761 17.2949 178.681 17.3214C178.602 17.3346 178.523 17.3544 178.443 17.3808C178.1 17.5262 177.835 17.7443 177.65 18.0351C177.465 18.3259 177.313 18.6497 177.194 19.0066C177.168 19.0727 177.155 19.1255 177.155 19.1652C177.155 19.2048 177.148 19.2577 177.135 19.3238C177.095 19.4692 177.069 19.6807 177.056 19.9582C177.042 20.2358 177.056 20.4605 177.095 20.6323V20.8306C177.122 20.9363 177.141 21.042 177.155 21.1478C177.168 21.2403 177.188 21.3394 177.214 21.4452C177.333 21.7888 177.479 22.0928 177.65 22.3572C177.822 22.6083 178.06 22.8132 178.364 22.9718C178.496 23.0379 178.681 23.104 178.919 23.17C179.012 23.17 179.084 23.1767 179.137 23.1899C179.164 23.1899 179.203 23.1965 179.256 23.2097C179.309 23.2097 179.349 23.2031 179.375 23.1899H179.573C179.692 23.1634 179.805 23.1436 179.91 23.1304C180.016 23.1172 180.122 23.0841 180.228 23.0313C180.558 22.8991 180.823 22.714 181.021 22.4761C181.232 22.2382 181.404 21.954 181.536 21.6236ZM196.194 20.3944C196.221 20.5001 196.221 20.6191 196.194 20.7513C196.168 20.8834 196.122 20.9694 196.056 21.009C195.989 21.0619 195.89 21.1015 195.758 21.128C195.639 21.1412 195.5 21.1544 195.342 21.1676C195.196 21.1676 195.044 21.1676 194.886 21.1676C194.74 21.1544 194.608 21.1478 194.489 21.1478H189.652C189.559 21.1478 189.467 21.1478 189.374 21.1478C189.295 21.1478 189.222 21.161 189.156 21.1874C189.05 21.2403 188.984 21.2932 188.958 21.346C188.931 21.3725 188.905 21.4254 188.878 21.5047C188.852 21.5707 188.845 21.6368 188.859 21.7029C188.885 21.7822 188.898 21.8615 188.898 21.9408C188.912 22.0069 188.931 22.0796 188.958 22.1589C189.064 22.4761 189.189 22.7405 189.334 22.952C189.493 23.1502 189.705 23.3287 189.969 23.4873C190.075 23.5534 190.18 23.5996 190.286 23.626C190.405 23.6393 190.524 23.6657 190.643 23.7054C190.749 23.7318 190.894 23.7516 191.079 23.7648C191.264 23.778 191.423 23.7714 191.555 23.745H191.733C191.866 23.7186 191.985 23.6921 192.09 23.6657C192.209 23.626 192.322 23.5864 192.427 23.5467C192.56 23.4807 192.705 23.3947 192.864 23.289C193.035 23.1833 193.161 23.0775 193.24 22.9718C193.306 22.8793 193.372 22.7934 193.439 22.714C193.518 22.6215 193.61 22.5554 193.716 22.5158C193.848 22.4497 194.013 22.4233 194.212 22.4365C194.423 22.4365 194.615 22.4365 194.787 22.4365C194.866 22.4365 194.945 22.4365 195.025 22.4365C195.117 22.4233 195.196 22.4299 195.262 22.4563H195.461C195.593 22.4827 195.685 22.5158 195.738 22.5554C195.791 22.5819 195.818 22.6414 195.818 22.7339C195.831 22.8264 195.824 22.9057 195.798 22.9718C195.732 23.1568 195.659 23.322 195.58 23.4674C195.5 23.6128 195.408 23.7582 195.302 23.9036C195.011 24.3398 194.681 24.69 194.311 24.9544C193.941 25.2187 193.478 25.4434 192.923 25.6285C192.778 25.6814 192.632 25.7144 192.487 25.7276C192.341 25.7408 192.189 25.7673 192.031 25.8069C191.978 25.8201 191.919 25.8201 191.852 25.8069C191.8 25.8069 191.747 25.8135 191.694 25.8267H191.476C191.41 25.8532 191.33 25.8598 191.238 25.8466C191.159 25.8466 191.086 25.84 191.02 25.8267C190.914 25.8135 190.821 25.8135 190.742 25.8267C190.663 25.84 190.577 25.8334 190.484 25.8069C190.418 25.7805 190.346 25.7673 190.266 25.7673C190.187 25.7673 190.114 25.754 190.048 25.7276C189.903 25.7012 189.757 25.6681 189.612 25.6285C189.467 25.602 189.335 25.5558 189.216 25.4897C189.07 25.4368 188.931 25.3906 188.799 25.3509C188.68 25.298 188.568 25.2386 188.462 25.1725C188.039 24.9081 187.663 24.6041 187.332 24.2605C187.002 23.9036 186.731 23.4939 186.519 23.0313C186.453 22.8859 186.4 22.7405 186.361 22.5951C186.321 22.4365 186.268 22.2779 186.202 22.1193C186.189 22.0664 186.182 22.0201 186.182 21.9805C186.182 21.9276 186.176 21.8747 186.162 21.8219C186.109 21.6633 186.076 21.4914 186.063 21.3064C186.05 21.1214 186.037 20.9363 186.024 20.7513C186.024 20.6852 186.017 20.6125 186.004 20.5332C186.004 20.4539 186.01 20.3812 186.024 20.3151V20.0772L186.083 19.6014C186.136 19.3767 186.182 19.1586 186.222 18.9471C186.261 18.7356 186.321 18.5374 186.4 18.3523C186.969 16.9777 187.933 16.0062 189.295 15.4379C189.48 15.3586 189.665 15.3057 189.85 15.2793C190.048 15.2396 190.253 15.1934 190.465 15.1405C190.57 15.1273 190.669 15.1207 190.762 15.1207C190.854 15.1207 190.954 15.114 191.059 15.1008C191.733 15.0876 192.308 15.1669 192.784 15.3387C193.273 15.4974 193.709 15.7088 194.093 15.9732C194.212 16.0525 194.331 16.145 194.45 16.2507C194.569 16.3433 194.674 16.4424 194.767 16.5481C194.807 16.6142 194.859 16.6671 194.925 16.7067C195.031 16.8521 195.13 17.0041 195.223 17.1627C195.315 17.3081 195.415 17.4601 195.52 17.6187C195.586 17.7377 195.639 17.8633 195.679 17.9954C195.732 18.1144 195.785 18.2466 195.837 18.392C195.904 18.5638 195.956 18.7422 195.996 18.9273C196.036 19.1123 196.082 19.2974 196.135 19.4824C196.161 19.5881 196.168 19.7071 196.155 19.8393C196.155 19.9582 196.168 20.0706 196.194 20.1763V20.3944ZM193.22 19.2247C193.313 19.0925 193.32 18.9339 193.24 18.7488C193.174 18.5506 193.121 18.4052 193.082 18.3127C192.897 17.9558 192.652 17.6848 192.348 17.4998C192.044 17.3015 191.621 17.1958 191.079 17.1826C191.04 17.209 190.993 17.2156 190.94 17.2024C190.888 17.1892 190.841 17.1892 190.802 17.2024C190.736 17.2288 190.663 17.2487 190.584 17.2619C190.504 17.2619 190.432 17.2751 190.365 17.3015C189.784 17.4866 189.354 17.85 189.077 18.392C189.05 18.4448 189.017 18.5175 188.978 18.61C188.951 18.6894 188.931 18.7753 188.918 18.8678C188.905 18.9471 188.905 19.0264 188.918 19.1057C188.945 19.185 188.991 19.2511 189.057 19.304C189.163 19.37 189.308 19.4031 189.493 19.4031C189.678 19.4031 189.857 19.4031 190.028 19.4031H192.229C192.414 19.4031 192.606 19.4031 192.804 19.4031C193.016 19.3899 193.154 19.3304 193.22 19.2247ZM203.494 15.1207C203.64 15.1207 203.765 15.1339 203.871 15.1603C203.99 15.1867 204.083 15.2462 204.149 15.3387C204.228 15.4445 204.268 15.6295 204.268 15.8939C204.268 16.145 204.268 16.3697 204.268 16.568C204.268 16.7134 204.268 16.8786 204.268 17.0636C204.281 17.2487 204.261 17.394 204.208 17.4998C204.155 17.5923 204.076 17.6518 203.97 17.6782C203.878 17.7047 203.765 17.7179 203.633 17.7179C203.514 17.7179 203.382 17.7113 203.237 17.698C203.105 17.6848 202.979 17.6914 202.86 17.7179C202.768 17.7443 202.675 17.7641 202.582 17.7774C202.49 17.7774 202.404 17.7906 202.325 17.817C202.113 17.8831 201.902 17.9822 201.69 18.1144C201.479 18.2334 201.314 18.3721 201.195 18.5307C201.129 18.6365 201.056 18.7488 200.977 18.8678C200.91 18.9735 200.844 19.0859 200.778 19.2048C200.739 19.3106 200.699 19.4229 200.659 19.5419C200.633 19.6476 200.606 19.7534 200.58 19.8591C200.554 19.9516 200.54 20.0507 200.54 20.1565C200.54 20.249 200.527 20.3415 200.501 20.434C200.487 20.4869 200.481 20.5398 200.481 20.5927C200.494 20.6323 200.494 20.672 200.481 20.7116V21.0288C200.454 21.1214 200.448 21.2271 200.461 21.346C200.474 21.4518 200.481 21.5575 200.481 21.6633V22.9321V24.6174C200.481 24.7892 200.474 24.9478 200.461 25.0932C200.448 25.2386 200.408 25.3575 200.342 25.45C200.316 25.4897 200.269 25.5227 200.203 25.5492C200.15 25.5624 200.091 25.5756 200.025 25.5888H199.926C199.86 25.602 199.787 25.6087 199.708 25.6087C199.628 25.6087 199.556 25.6087 199.49 25.6087H198.637C198.558 25.5954 198.472 25.5888 198.379 25.5888C198.3 25.5888 198.214 25.5888 198.122 25.5888C198.055 25.5624 197.989 25.5426 197.923 25.5294C197.857 25.5029 197.811 25.4567 197.785 25.3906C197.732 25.3245 197.699 25.232 197.685 25.113C197.685 24.9808 197.685 24.8487 197.685 24.7165V23.3683V17.7774V16.3102C197.685 16.178 197.685 16.0525 197.685 15.9335C197.685 15.8014 197.712 15.6956 197.765 15.6163C197.831 15.5106 197.93 15.4445 198.062 15.418C198.194 15.3916 198.353 15.3784 198.538 15.3784H199.549C199.708 15.3784 199.846 15.3916 199.965 15.418C200.084 15.4313 200.177 15.4907 200.243 15.5965C200.283 15.6626 200.302 15.7551 200.302 15.874C200.316 15.993 200.329 16.112 200.342 16.2309C200.355 16.3367 200.375 16.4358 200.402 16.5283C200.441 16.6208 200.507 16.6671 200.6 16.6671C200.626 16.6407 200.653 16.6274 200.679 16.6274C200.706 16.6274 200.732 16.6142 200.758 16.5878C200.838 16.5217 200.904 16.449 200.957 16.3697C201.023 16.2772 201.102 16.1979 201.195 16.1318C201.247 16.0921 201.294 16.0525 201.333 16.0128C201.373 15.96 201.419 15.9137 201.472 15.874C201.591 15.7947 201.71 15.7154 201.829 15.6361C201.961 15.5568 202.093 15.4841 202.226 15.418C202.358 15.3652 202.49 15.3189 202.622 15.2793C202.768 15.2396 202.913 15.2 203.058 15.1603C203.098 15.1471 203.171 15.1471 203.276 15.1603C203.395 15.1603 203.468 15.1471 203.494 15.1207Z" fill="#2B2B2B"/>
<path d="M29.5556 0H8.44443C3.7807 0 0 3.7807 0 8.44443V29.5556C0 34.2193 3.7807 38 8.44443 38H29.5556C34.2193 38 38 34.2193 38 29.5556V8.44443C38 3.7807 34.2193 0 29.5556 0Z" fill="#2B2B2B"/>
<path d="M27.7634 10.1309L27.6719 10.237L27.7634 10.146V10.1309Z" fill="#67B8D9"/>
<path d="M9.91679 27.8083C8.91003 26.7917 8.08633 25.7295 7.47619 24.6826C7.46094 24.7585 7.46094 24.8344 7.46094 24.9254C7.46094 25.2288 7.55246 25.5626 7.68974 25.8965C8.01007 26.6703 8.60496 27.5048 9.39817 28.2938L9.41337 28.309C10.0083 28.9007 10.6337 29.3863 11.2438 29.72C11.854 30.0538 12.4489 30.2663 12.9828 30.2056C11.9608 29.6139 10.9235 28.8097 9.94727 27.8386C9.93207 27.8234 9.91679 27.8083 9.91679 27.8083Z" fill="#67B8D9"/>
<path d="M19.04 30.2203C19.0552 30.2203 19.0705 30.2203 19.0705 30.2203C19.0857 30.2052 19.0857 30.19 19.101 30.1748C19.0857 30.19 19.0552 30.2052 19.04 30.2203Z" fill="#67B8D9"/>
<path d="M16.7809 30.9035C16.003 30.5545 15.2251 30.1145 14.4319 29.5834C14.2641 29.5228 14.0963 29.4621 13.9285 29.3863C12.9218 28.9614 11.8387 28.2482 10.8472 27.2924C10.771 27.2165 10.6947 27.1558 10.6184 27.0799C10.6032 27.0648 10.5727 27.0344 10.5574 27.0193C9.35241 25.7902 8.51344 24.4398 8.10157 23.2564C7.38465 22.1487 6.82026 21.0562 6.43892 19.9941C6.3779 20.2066 6.31689 20.419 6.30163 20.6466C6.24062 21.2687 6.33214 21.9515 6.56095 22.6646C6.75924 23.3171 7.06432 23.9846 7.46091 24.6826C8.07106 25.7296 8.89476 26.8068 9.90151 27.8083C9.91679 27.8234 9.91679 27.8234 9.93199 27.8386C10.9083 28.8096 11.9455 29.6138 12.9675 30.2056C13.2726 30.3876 13.5777 30.5394 13.8675 30.6911C15.1793 31.3132 16.4301 31.5863 17.4826 31.3587C17.5588 31.3435 17.6199 31.3132 17.6961 31.298C17.4063 31.1614 17.1013 31.0401 16.7809 30.9035Z" fill="#67B8D9"/>
<path d="M22.4404 29.3243C22.4099 29.3546 22.3794 29.4002 22.3488 29.4457C22.0133 29.7795 21.6014 30.0071 21.1133 30.1436C20.5337 30.3106 19.8473 30.3409 19.0845 30.2347C19.0693 30.2347 19.0541 30.2347 19.0541 30.2347C18.3524 30.1285 17.5897 29.9161 16.7965 29.5822C15.1492 28.8995 13.395 27.716 11.7933 26.138C11.7628 26.1076 11.7476 26.0925 11.717 26.0621C11.7018 26.0621 11.7018 26.047 11.6865 26.0318C9.58149 23.9227 8.20868 21.5406 7.70531 19.5226C7.49175 18.6274 7.43074 17.8232 7.55277 17.1405C7.65955 16.4577 7.93412 15.8963 8.36119 15.4865C8.39176 15.4562 8.43753 15.4259 8.46801 15.3955C8.26966 14.6824 8.16292 13.9845 8.13241 13.332C7.69006 13.5141 7.29346 13.7569 6.95788 14.0907C6.34773 14.6824 6.01215 15.4865 5.90537 16.3666C5.7986 17.2618 5.92063 18.2481 6.21044 19.2799C6.28672 19.5226 6.36298 19.7653 6.4545 20.0233C6.83585 21.0854 7.40023 22.1779 8.11716 23.2855C8.87981 24.4386 9.79503 25.5918 10.8781 26.6994C10.9086 26.7298 10.9391 26.7753 10.9848 26.8056C11.0459 26.8663 11.1069 26.9118 11.1679 26.9725C12.2204 28.0042 13.3339 28.8995 14.4475 29.6278C15.2406 30.1436 16.0186 30.5837 16.7965 30.9478C17.1168 31.0844 17.4219 31.2057 17.727 31.3272C19.2981 31.9037 20.793 32.1162 22.0286 31.8127C22.6845 31.661 23.2793 31.3423 23.7369 30.8871C24.0725 30.5533 24.3166 30.1588 24.4843 29.7188C23.8437 29.643 23.142 29.5216 22.4404 29.3243Z" fill="#67B8D9"/>
<path d="M29.6252 24.5768C29.4574 24.6375 29.2897 24.6982 29.1066 24.7438C28.771 24.8196 28.4202 24.8651 28.0541 24.8803C27.9473 25.8059 27.6117 26.5797 27.0473 27.1259C26.6355 27.5355 26.1321 27.8086 25.5372 27.9756C24.2101 28.3549 22.395 28.1273 20.4578 27.3079C18.7036 26.5797 16.8274 25.3658 15.1037 23.7423C14.9207 23.5754 14.7376 23.4085 14.5546 23.2264C14.463 23.1354 14.3715 23.0292 14.2648 22.9381C11.992 20.5863 10.4818 17.9462 9.91742 15.6703C9.65811 14.6082 9.58186 13.6371 9.71916 12.8026C9.85646 11.9681 10.1767 11.3005 10.6954 10.7846C11.1072 10.3749 11.6107 10.1018 12.2055 9.93492C12.4343 9.87421 12.6937 9.82869 12.953 9.79837C12.953 9.64662 12.9682 9.47975 12.9834 9.328C13.0292 8.94866 13.1207 8.56932 13.258 8.23555C12.5868 8.2052 11.9615 8.25072 11.3818 8.38725C10.6191 8.58452 9.9327 8.93354 9.3836 9.47975C8.68193 10.1777 8.28532 11.0881 8.14803 12.1198C8.10227 12.4992 8.10227 12.9088 8.11752 13.3185C8.14803 13.9709 8.25481 14.6689 8.4531 15.382C8.46838 15.4275 8.46838 15.4579 8.48358 15.5034C9.24631 18.2042 11.1072 21.2388 13.8224 23.9548C15.9275 26.0486 18.2155 27.6418 20.3967 28.5976C21.0831 28.9011 21.7695 29.1439 22.4255 29.326C23.1424 29.5232 23.8288 29.6446 24.4847 29.6749C25.1406 29.7053 25.7813 29.6597 26.3609 29.5232C27.1237 29.326 27.81 28.977 28.3591 28.4308C29.3354 27.4749 29.7167 26.1093 29.6252 24.5768Z" fill="#67B8D9"/>
<path d="M31.5773 18.6129C31.5164 18.3853 31.4401 18.1577 31.3486 17.9452C31.2266 18.2336 31.0587 18.5067 30.8452 18.719C30.6621 18.9012 30.4639 19.0377 30.235 19.1439C30.3114 19.7205 30.3266 20.2667 30.2503 20.7523C30.1283 21.4351 29.869 21.9965 29.4418 22.4061C29.1063 22.7399 28.6945 22.9675 28.2063 23.1041C27.0928 23.4227 25.5522 23.2406 23.8895 22.5275C22.3337 21.875 20.6862 20.7978 19.1608 19.3412C19.0388 19.2349 18.9168 19.1136 18.81 19.0073C18.7338 18.9315 18.6575 18.8405 18.5813 18.7646C16.5982 16.7163 15.2864 14.4251 14.8136 12.4678C14.6 11.5878 14.539 10.7685 14.6611 10.0857C14.7678 9.40285 15.0424 8.84152 15.4695 8.43178C15.805 8.09801 16.2016 7.87042 16.7051 7.73386C17.2846 7.56695 17.9863 7.53661 18.7642 7.658C18.8711 7.4304 19.0083 7.23315 19.1914 7.05108C19.4202 6.82348 19.6795 6.65658 19.9845 6.55037C18.4592 6.00415 17.0101 5.82207 15.7898 6.11036C15.1339 6.26208 14.539 6.58071 14.0661 7.0359C13.7306 7.36971 13.4713 7.77938 13.2882 8.2194C13.1509 8.56834 13.0594 8.93256 13.0136 9.31181C12.9984 9.46357 12.9984 9.63052 12.9831 9.78219C12.9526 10.5409 13.0746 11.3602 13.3187 12.2251C14.0052 14.6072 15.683 17.308 18.1084 19.7357C19.9693 21.5868 21.9828 22.9978 23.9048 23.8779C25.3996 24.5455 26.8183 24.9097 28.0843 24.8793C28.4504 24.8641 28.8012 24.8338 29.1367 24.7428C29.3198 24.6973 29.4876 24.6518 29.6554 24.5758C30.113 24.3938 30.5096 24.151 30.8605 23.802C31.4706 23.2103 31.8062 22.4061 31.913 21.5261C31.9892 20.6461 31.8672 19.6598 31.5773 18.6129Z" fill="#67B8D9"/>
<path d="M31.2874 15.1065C31.0129 14.2265 30.54 13.2858 29.9146 12.3602C30.0214 12.6181 30.0824 12.8609 30.0977 13.0885C30.1282 13.3768 30.0519 13.6499 29.8689 13.8472C29.7773 13.9382 29.6705 13.9989 29.5485 14.0293C29.6858 14.3479 29.7926 14.6513 29.8689 14.9396C30.0214 15.501 30.0519 16.0169 29.9909 16.4418C29.9298 16.8665 29.7621 17.1852 29.5333 17.428C29.3503 17.6252 29.1061 17.7466 28.8011 17.8376C28.13 18.0198 27.1537 17.8983 26.0707 17.4432C24.9877 16.988 23.8284 16.199 22.7606 15.1369C21.3726 13.7561 20.4573 12.1933 20.1218 10.8884C19.9692 10.327 19.9387 9.81118 19.9997 9.38633C20.0607 8.96147 20.2132 8.64285 20.4725 8.40006C20.6709 8.20282 20.8997 8.08143 21.1895 7.9904C21.8301 7.80832 22.7911 7.91453 23.8284 8.35454C23.8589 8.23316 23.9199 8.12695 24.0114 8.03591C24.1487 7.89935 24.3623 7.82349 24.5758 7.80832C24.8809 7.79314 25.2012 7.88418 25.5521 8.02074C25.0182 7.65659 24.4843 7.35313 23.9657 7.11036C22.6538 6.48827 21.4031 6.21516 20.3505 6.44275C20.2132 6.4731 20.076 6.51861 19.9387 6.57931C19.6489 6.70069 19.3743 6.86759 19.1455 7.08001C18.9625 7.26209 18.8252 7.45934 18.7184 7.68693C18.5659 7.9904 18.4591 8.32423 18.4286 8.68836C18.3676 9.31041 18.4591 9.99325 18.6879 10.7063C19.1913 12.3298 20.3353 14.1354 21.9674 15.7741C21.9827 15.8044 22.0132 15.8196 22.0285 15.85C22.0894 15.9107 22.1505 15.9562 22.1963 16.0169C23.4318 17.2156 24.7436 18.1411 25.9944 18.7328C27.3063 19.355 28.557 19.6281 29.6096 19.4005C29.8231 19.355 30.0062 19.279 30.2044 19.188C30.4333 19.0819 30.6468 18.9301 30.8146 18.7632C31.0434 18.5356 31.2112 18.2777 31.318 17.9894C31.4247 17.7315 31.4858 17.4584 31.5163 17.17C31.6078 16.5024 31.5163 15.8196 31.2874 15.1065Z" fill="#67B8D9"/>
<path d="M30.0982 13.09C30.083 12.8624 30.0068 12.6044 29.9152 12.3616C29.8847 12.301 29.8542 12.2251 29.8237 12.1645C29.4881 11.421 28.8779 10.6016 28.0848 9.81259C27.4747 9.20567 26.8492 8.72017 26.2544 8.35603C26.0103 8.21946 25.7815 8.09808 25.5527 8.00704C25.217 7.87049 24.8815 7.77944 24.5764 7.79462C24.3629 7.80979 24.1493 7.87049 24.012 8.02221C23.9205 8.11325 23.8595 8.21946 23.829 8.34083C23.7832 8.47739 23.7832 8.61394 23.7832 8.76569C23.7985 9.054 23.9053 9.37262 24.0578 9.69124C24.4086 10.4347 25.0035 11.254 25.7967 12.043C25.7967 12.043 25.812 12.043 25.812 12.0582C25.8578 12.1037 25.8882 12.1341 25.934 12.1645C26.4984 12.7107 27.078 13.1658 27.6271 13.4845C28.2221 13.8335 28.7865 14.0611 29.2898 14.0459C29.3661 14.0459 29.4424 14.0307 29.5186 14.0004C29.6407 13.97 29.7627 13.9093 29.8389 13.8183C30.0677 13.6514 30.1288 13.3782 30.0982 13.09ZM27.7949 10.0857C27.8102 10.1009 27.7949 10.1009 27.7949 10.0857ZM28.8779 12.5589C28.8474 12.5741 28.8322 12.6044 28.7559 12.6044C28.6186 12.6348 28.2831 12.5741 27.8713 12.3465C27.4594 12.1341 26.9865 11.7851 26.5289 11.3299C25.934 10.7381 25.5221 10.1009 25.3543 9.64572C25.2781 9.44845 25.2476 9.28158 25.2628 9.17535C25.2628 9.06911 25.2934 9.0236 25.3239 8.99328C25.3543 8.96296 25.3849 8.94776 25.4459 8.94776C25.5832 8.91744 25.9187 8.97808 26.3306 9.20566C26.7424 9.41813 27.2153 9.76707 27.6729 10.2223L27.7644 10.1161V10.1312L27.6729 10.2223C28.2678 10.8141 28.6797 11.4513 28.8474 11.9065C28.9237 12.1037 28.9543 12.2706 28.939 12.3768C28.939 12.4831 28.9085 12.5286 28.8779 12.5589Z" fill="#67B8D9"/>
</g>
<defs>
<clipPath id="clip0_2935_905">
<rect width="204.87" height="38" fill="white"/>
</clipPath>
</defs>
</svg>
