<svg width="14" height="14" viewBox="0 0 14 14" fill="none" xmlns="http://www.w3.org/2000/svg">
<path d="M1 7C1 4.81266 1 3.71898 1.55703 2.95229C1.73693 2.70468 1.95468 2.48693 2.20229 2.30703C2.96898 1.75 4.06266 1.75 6.25 1.75H7.41667C9.60399 1.75 10.6977 1.75 11.4644 2.30703C11.712 2.48693 11.9297 2.70468 12.1096 2.95229C12.6667 3.71898 12.6667 4.81266 12.6667 7C12.6667 9.18732 12.6667 10.281 12.1096 11.0477C11.9297 11.2953 11.712 11.5131 11.4644 11.693C10.6977 12.25 9.60399 12.25 7.41667 12.25H6.25C4.06266 12.25 2.96898 12.25 2.20229 11.693C1.95468 11.5131 1.73693 11.2953 1.55703 11.0477C1 10.281 1 9.18732 1 7Z" stroke="#2B2B2B" stroke-width="0.9" stroke-linejoin="round"/>
<path d="M5.375 2.04199V11.9587" stroke="#2B2B2B" stroke-width="0.9" stroke-linejoin="round"/>
<path d="M2.75 4.08301C2.75 4.08301 3.28329 4.08301 3.625 4.08301" stroke="#2B2B2B" stroke-width="0.9" stroke-linecap="round" stroke-linejoin="round"/>
<path d="M2.75 6.41699H3.625" stroke="#2B2B2B" stroke-width="0.9" stroke-linecap="round" stroke-linejoin="round"/>
<path d="M9.75065 5.83301L9.03519 6.44971C8.73437 6.70894 8.58398 6.83862 8.58398 6.99967C8.58398 7.16073 8.73437 7.29041 9.03519 7.54964L9.75065 8.16634" stroke="#2B2B2B" stroke-width="0.9" stroke-linecap="round" stroke-linejoin="round"/>
</svg>
