<svg width="14" height="14" viewBox="0 0 14 14" fill="none" xmlns="http://www.w3.org/2000/svg">
<path d="M13 7C13 4.81266 13 3.71898 12.443 2.95229C12.2631 2.70468 12.0453 2.48693 11.7977 2.30703C11.031 1.75 9.93734 1.75 7.75 1.75H6.58333C4.39601 1.75 3.30232 1.75 2.53564 2.30703C2.28802 2.48693 2.07026 2.70468 1.89036 2.95229C1.33333 3.71898 1.33333 4.81266 1.33333 7C1.33333 9.18732 1.33333 10.281 1.89036 11.0477C2.07026 11.2953 2.28802 11.5131 2.53564 11.693C3.30232 12.25 4.39601 12.25 6.58333 12.25H7.75C9.93734 12.25 11.031 12.25 11.7977 11.693C12.0453 11.5131 12.2631 11.2953 12.443 11.0477C13 10.281 13 9.18732 13 7Z" stroke="#2B2B2B" stroke-width="0.9" stroke-linejoin="round"/>
<path d="M8.625 2.04199V11.9587" stroke="#2B2B2B" stroke-width="0.9" stroke-linejoin="round"/>
<path d="M11.25 4.08301C11.25 4.08301 10.7167 4.08301 10.375 4.08301" stroke="#2B2B2B" stroke-width="0.9" stroke-linecap="round" stroke-linejoin="round"/>
<path d="M11.25 6.41699H10.375" stroke="#2B2B2B" stroke-width="0.9" stroke-linecap="round" stroke-linejoin="round"/>
<path d="M4.24984 5.83301L4.9653 6.44971C5.26612 6.70894 5.4165 6.83862 5.4165 6.99967C5.4165 7.16073 5.26612 7.29041 4.9653 7.54964L4.24984 8.16634" stroke="#2B2B2B" stroke-width="0.9" stroke-linecap="round" stroke-linejoin="round"/>
</svg>
