<svg width="12" height="12" viewBox="0 0 12 12" fill="none" xmlns="http://www.w3.org/2000/svg">
<path d="M4.5 7.5C4.5 6.0858 4.5 5.3787 4.93934 4.93934C5.3787 4.5 6.0858 4.5 7.5 4.5H8C9.4142 4.5 10.1213 4.5 10.5607 4.93934C11 5.3787 11 6.0858 11 7.5V8C11 9.4142 11 10.1213 10.5607 10.5607C10.1213 11 9.4142 11 8 11H7.5C6.0858 11 5.3787 11 4.93934 10.5607C4.5 10.1213 4.5 9.4142 4.5 8V7.5Z" stroke="#5F5F5F" stroke-width="1.1" stroke-linecap="round" stroke-linejoin="round"/>
<path d="M8.49995 4.49951C8.49875 3.02097 8.4764 2.25512 8.046 1.73073C7.9629 1.62946 7.87005 1.5366 7.7688 1.45349C7.2156 0.999512 6.39375 0.999512 4.75 0.999512C3.10626 0.999512 2.28439 0.999512 1.73121 1.45349C1.62994 1.5366 1.53709 1.62946 1.45398 1.73073C1 2.2839 1 3.10577 1 4.74951C1 6.39326 1 7.21511 1.45398 7.76831C1.53708 7.86956 1.62994 7.96241 1.73121 8.04551C2.2556 8.47591 3.02145 8.49826 4.5 8.49946" stroke="#5F5F5F" stroke-width="1.1" stroke-linecap="round" stroke-linejoin="round"/>
</svg>
