<svg width="19" height="19" viewBox="0 0 19 19" fill="none" xmlns="http://www.w3.org/2000/svg">
<path d="M15.4375 4.35449L14.9469 12.291C14.8215 14.3187 14.7589 15.3326 14.2506 16.0616C13.9993 16.4219 13.6758 16.7261 13.3006 16.9547C12.5417 17.417 11.5259 17.417 9.49422 17.417C7.45997 17.417 6.44282 17.417 5.68341 16.9538C5.30797 16.7248 4.98433 16.4201 4.73312 16.0591C4.22503 15.3291 4.16373 14.3137 4.04115 12.2832L3.5625 4.35449" stroke="#A73737" stroke-width="1.4" stroke-linecap="round"/>
<path d="M2.375 4.35384H16.625M12.7108 4.35384L12.1704 3.23896C11.8114 2.49838 11.6318 2.12809 11.3222 1.89715C11.2535 1.84592 11.1808 1.80035 11.1047 1.7609C10.7618 1.58301 10.3503 1.58301 9.52731 1.58301C8.68363 1.58301 8.26183 1.58301 7.91325 1.76835C7.836 1.80943 7.76228 1.85685 7.69285 1.9101C7.37963 2.1504 7.20467 2.53423 6.85473 3.30192L6.37523 4.35384" stroke="#A73737" stroke-width="1.4" stroke-linecap="round"/>
<path d="M7.52148 13.0625V8.3125" stroke="#A73737" stroke-width="1.4" stroke-linecap="round"/>
<path d="M11.4785 13.0625V8.3125" stroke="#A73737" stroke-width="1.4" stroke-linecap="round"/>
</svg>
