<svg width="36" height="36" viewBox="0 0 36 36" fill="none" xmlns="http://www.w3.org/2000/svg">
<g filter="url(#filter0_d_20441_68440)">
<path d="M6 9C6 6.79086 7.79086 5 10 5H26C28.2091 5 30 6.79086 30 9V25C30 27.2091 28.2091 29 26 29H10C7.79086 29 6 27.2091 6 25V9Z" fill="white" shape-rendering="crispEdges"/>
<path d="M23 12.667L22.5869 19.3504C22.4813 21.0579 22.4285 21.9117 22.0005 22.5256C21.7889 22.8291 21.5165 23.0852 21.2005 23.2777C20.5614 23.667 19.706 23.667 17.9951 23.667C16.2821 23.667 15.4255 23.667 14.786 23.2769C14.4699 23.0841 14.1973 22.8275 13.9858 22.5235C13.5579 21.9087 13.5063 21.0537 13.4031 19.3438L13 12.667" stroke="#5F5F5F" stroke-width="1.4" stroke-linecap="round"/>
<path d="M12 12.6663H24M20.7038 12.6663L20.2487 11.7275C19.9464 11.1038 19.7952 10.792 19.5345 10.5975C19.4767 10.5544 19.4154 10.516 19.3513 10.4828C19.0626 10.333 18.7161 10.333 18.023 10.333C17.3125 10.333 16.9573 10.333 16.6638 10.4891C16.5987 10.5237 16.5367 10.5636 16.4782 10.6085C16.2144 10.8108 16.0671 11.134 15.7724 11.7805L15.3686 12.6663" stroke="#5F5F5F" stroke-width="1.4" stroke-linecap="round"/>
<path d="M16.334 20V16" stroke="#5F5F5F" stroke-width="1.4" stroke-linecap="round"/>
<path d="M19.666 20V16" stroke="#5F5F5F" stroke-width="1.4" stroke-linecap="round"/>
</g>
<defs>
<filter id="filter0_d_20441_68440" x="0" y="0" width="36" height="36" filterUnits="userSpaceOnUse" color-interpolation-filters="sRGB">
<feFlood flood-opacity="0" result="BackgroundImageFix"/>
<feColorMatrix in="SourceAlpha" type="matrix" values="0 0 0 0 0 0 0 0 0 0 0 0 0 0 0 0 0 0 127 0" result="hardAlpha"/>
<feOffset dy="1"/>
<feGaussianBlur stdDeviation="3"/>
<feComposite in2="hardAlpha" operator="out"/>
<feColorMatrix type="matrix" values="0 0 0 0 0 0 0 0 0 0 0 0 0 0 0 0 0 0 0.1 0"/>
<feBlend mode="normal" in2="BackgroundImageFix" result="effect1_dropShadow_20441_68440"/>
<feBlend mode="normal" in="SourceGraphic" in2="effect1_dropShadow_20441_68440" result="shape"/>
</filter>
</defs>
</svg>
