<svg width="36" height="36" viewBox="0 0 36 36" fill="none" xmlns="http://www.w3.org/2000/svg">
<g filter="url(#filter0_d_20441_68436)">
<rect x="6" y="5" width="24" height="24" rx="4" fill="white" shape-rendering="crispEdges"/>
<path d="M20.1421 12.9886L21.0765 12.0541C21.5927 11.538 22.4295 11.538 22.9456 12.0541C23.4617 12.5702 23.4617 13.407 22.9456 13.9231L22.0111 14.8576M20.1421 12.9886L14.6528 18.4779C13.956 19.1747 13.6075 19.5231 13.3703 19.9477C13.133 20.3723 12.8943 21.3749 12.666 22.3337C13.6247 22.1054 14.6273 21.8667 15.0519 21.6294C15.4765 21.3921 15.825 21.0437 16.5218 20.3469L22.0111 14.8576M20.1421 12.9886L22.0111 14.8576" stroke="#5F5F5F" stroke-width="1.4" stroke-linecap="round" stroke-linejoin="round"/>
<path d="M17.334 22.333H21.334" stroke="#5F5F5F" stroke-width="1.4" stroke-linecap="round"/>
</g>
<defs>
<filter id="filter0_d_20441_68436" x="0" y="0" width="36" height="36" filterUnits="userSpaceOnUse" color-interpolation-filters="sRGB">
<feFlood flood-opacity="0" result="BackgroundImageFix"/>
<feColorMatrix in="SourceAlpha" type="matrix" values="0 0 0 0 0 0 0 0 0 0 0 0 0 0 0 0 0 0 127 0" result="hardAlpha"/>
<feOffset dy="1"/>
<feGaussianBlur stdDeviation="3"/>
<feComposite in2="hardAlpha" operator="out"/>
<feColorMatrix type="matrix" values="0 0 0 0 0 0 0 0 0 0 0 0 0 0 0 0 0 0 0.1 0"/>
<feBlend mode="normal" in2="BackgroundImageFix" result="effect1_dropShadow_20441_68436"/>
<feBlend mode="normal" in="SourceGraphic" in2="effect1_dropShadow_20441_68436" result="shape"/>
</filter>
</defs>
</svg>
