<svg width="26" height="26" viewBox="0 0 26 26" fill="none" xmlns="http://www.w3.org/2000/svg">
<rect width="26" height="26" rx="4" fill="#2B2B2B" fill-opacity="0.2"/>
<path d="M11.8358 6.23763L7.71083 7.97448C6.82077 8.34924 6.37575 8.53661 6.12537 8.9137C5.875 9.29078 5.875 9.77365 5.875 10.7394V20.125H8.125V12.625C8.125 11.9179 8.125 11.5643 8.34467 11.3447C8.56434 11.125 8.91789 11.125 9.625 11.125H16.375C17.0821 11.125 17.4356 11.125 17.6553 11.3447C17.875 11.5643 17.875 11.9179 17.875 12.625V20.125H20.125V10.7394C20.125 9.77365 20.125 9.29078 19.8747 8.9137C19.6242 8.53661 19.1793 8.34924 18.2892 7.97448L14.1642 6.23763C13.59 5.99588 13.3029 5.875 13 5.875C12.6971 5.875 12.41 5.99588 11.8358 6.23763Z" stroke="#2B2B2B" stroke-width="1.4" stroke-linecap="round" stroke-linejoin="round"/>
<path d="M12.25 8.875H13.75" stroke="#2B2B2B" stroke-width="1.4" stroke-linecap="round" stroke-linejoin="round"/>
<path d="M13.75 15.625H12.25C11.5429 15.625 11.1893 15.625 10.9697 15.8447C10.75 16.0644 10.75 16.4179 10.75 17.125V18.625C10.75 19.3321 10.75 19.6856 10.9697 19.9053C11.1893 20.125 11.5429 20.125 12.25 20.125H13.75C14.4571 20.125 14.8106 20.125 15.0303 19.9053C15.25 19.6856 15.25 19.3321 15.25 18.625V17.125C15.25 16.4179 15.25 16.0644 15.0303 15.8447C14.8106 15.625 14.4571 15.625 13.75 15.625Z" stroke="#2B2B2B" stroke-width="1.4" stroke-linecap="round" stroke-linejoin="round"/>
</svg>
