<svg width="12" height="12" viewBox="0 0 12 12" fill="none" xmlns="http://www.w3.org/2000/svg">
<path d="M4.25 9C5.15675 8.02315 6.8335 7.97715 7.75 9M6.9703 6C6.9703 6.5523 6.5344 7 5.9967 7C5.459 7 5.0231 6.5523 5.0231 6C5.0231 5.4477 5.459 5 5.9967 5C6.5344 5 6.9703 5.4477 6.9703 6Z" stroke="#475467" stroke-linecap="round"/>
<path d="M4.75 2C3.4278 2.00493 2.7205 2.05116 2.26256 2.485C1.75 2.97059 1.75 3.75212 1.75 5.31522V7.68363C1.75 9.24673 1.75 10.0282 2.26256 10.5138C2.77512 10.9994 3.60009 10.9994 5.25 10.9994H6.75C8.3999 10.9994 9.22485 10.9994 9.73745 10.5138C10.25 10.0282 10.25 9.24673 10.25 7.68363V5.31522C10.25 3.75212 10.25 2.97059 9.73745 2.485C9.2795 2.05116 8.5722 2.00493 7.25 2" stroke="#475467" stroke-linecap="round" stroke-linejoin="round"/>
<path d="M4.88608 1.81581C4.93405 1.60841 4.95804 1.50471 5.0041 1.42002C5.11145 1.22273 5.3094 1.07774 5.5457 1.02335C5.64715 1 5.7648 1 6 1C6.2352 1 6.35285 1 6.4543 1.02335C6.6906 1.07774 6.88855 1.22272 6.9959 1.42002C7.04195 1.50471 7.06595 1.60841 7.1139 1.81581L7.15555 1.99588C7.24065 2.36372 7.2832 2.54764 7.219 2.68912C7.17745 2.78075 7.1066 2.85921 7.0155 2.91456C6.8748 3 6.6662 3 6.24905 3H5.75095C5.3338 3 5.1252 3 4.9845 2.91456C4.89338 2.85921 4.82255 2.78075 4.78098 2.68912C4.7168 2.54764 4.75934 2.36372 4.84443 1.99588L4.88608 1.81581Z" stroke="#475467"/>
</svg>
