<svg width="26" height="26" viewBox="0 0 26 26" fill="none" xmlns="http://www.w3.org/2000/svg">
<rect width="26" height="26" rx="4" fill="#3874C9" fill-opacity="0.2"/>
<path d="M19.9881 9.35604L19.6179 8.71359C19.3379 8.22772 19.198 7.98479 18.9598 7.88791C18.7216 7.79104 18.4522 7.86748 17.9135 8.02036L16.9983 8.27814C16.6544 8.35746 16.2935 8.31246 15.9794 8.15109L15.7268 8.00532C15.4574 7.83282 15.2503 7.5785 15.1356 7.27956L14.8852 6.53152C14.7205 6.03651 14.6381 5.789 14.4421 5.64743C14.2461 5.50586 13.9857 5.50586 13.4649 5.50586H12.6288C12.1081 5.50586 11.8477 5.50586 11.6516 5.64743C11.4556 5.789 11.3733 6.03651 11.2086 6.53152L10.9581 7.27956C10.8435 7.5785 10.6363 7.83282 10.367 8.00532L10.1144 8.15109C9.8003 8.31246 9.43944 8.35746 9.09548 8.27814L8.18031 8.02036C7.64156 7.86748 7.37219 7.79104 7.134 7.88791C6.89582 7.98479 6.75584 8.22772 6.47586 8.71359L6.10568 9.35604C5.84324 9.81148 5.71202 10.0392 5.73749 10.2816C5.76296 10.524 5.93862 10.7194 6.28994 11.1101L7.06322 11.9746C7.25222 12.2139 7.38641 12.6309 7.38641 13.0058C7.38641 13.3809 7.25227 13.7977 7.06325 14.037L6.28994 14.9016C5.93862 15.2923 5.76296 15.4876 5.73749 15.7301C5.71202 15.9725 5.84324 16.2002 6.10568 16.6556L6.47585 17.298C6.75582 17.7839 6.89582 18.0269 7.134 18.1237C7.37219 18.2206 7.64156 18.1442 8.18033 17.9913L9.09545 17.7335C9.43947 17.6541 9.8004 17.6992 10.1145 17.8606L10.3671 18.0064C10.6364 18.1789 10.8435 18.4332 10.9581 18.7321L11.2086 19.4802C11.3733 19.9752 11.4556 20.2227 11.6516 20.3643C11.8477 20.5059 12.1081 20.5059 12.6288 20.5059H13.4649C13.9857 20.5059 14.2461 20.5059 14.4421 20.3643C14.6381 20.2227 14.7205 19.9752 14.8852 19.4802L15.1357 18.7321C15.2503 18.4332 15.4574 18.1789 15.7267 18.0064L15.9793 17.8606C16.2934 17.6992 16.6543 17.6541 16.9983 17.7335L17.9135 17.9913C18.4522 18.1442 18.7216 18.2206 18.9598 18.1237C19.198 18.0269 19.3379 17.7839 19.6179 17.298L19.9881 16.6556C20.2505 16.2002 20.3817 15.9725 20.3563 15.7301C20.3308 15.4876 20.1551 15.2923 19.8038 14.9016L19.0305 14.037C18.8415 13.7977 18.7073 13.3809 18.7073 13.0058C18.7073 12.6309 18.8416 12.2139 19.0305 11.9746L19.8038 11.1101C20.1551 10.7194 20.3308 10.524 20.3563 10.2816C20.3817 10.0392 20.2505 9.81148 19.9881 9.35604Z" stroke="#3874C9" stroke-width="1.4" stroke-linecap="round"/>
<path d="M15.6406 13C15.6406 14.4497 14.4654 15.625 13.0156 15.625C11.5659 15.625 10.3906 14.4497 10.3906 13C10.3906 11.5503 11.5659 10.375 13.0156 10.375C14.4654 10.375 15.6406 11.5503 15.6406 13Z" stroke="#3874C9" stroke-width="1.4"/>
</svg>
