<svg width="23" height="24" viewBox="0 0 23 24" fill="none" xmlns="http://www.w3.org/2000/svg">
<path d="M3.97149 9.83125C4.4397 10.1441 5.09148 10.1441 6.39505 10.1441C7.69862 10.1441 8.3504 10.1441 8.81862 9.83125C9.02131 9.69582 9.19534 9.52179 9.33077 9.31909C9.64361 8.85088 9.64361 8.1991 9.64361 6.89554C9.64361 5.59197 9.64361 4.94019 9.33077 4.47198C9.19534 4.26929 9.02131 4.09526 8.81862 3.95982C8.3504 3.64697 7.69862 3.64697 6.39505 3.64697C5.09148 3.64697 4.4397 3.64697 3.97149 3.95982C3.7688 4.09526 3.59477 4.26929 3.45934 4.47198C3.14648 4.94019 3.14648 5.59197 3.14648 6.89554C3.14648 8.1991 3.14648 8.85088 3.45934 9.31909C3.59477 9.52179 3.7688 9.69582 3.97149 9.83125Z" stroke="#5F5F5F" stroke-width="1.87586" stroke-linecap="round" stroke-linejoin="round"/>
<path d="M15.1804 12.8313C15.6487 13.1441 16.3004 13.1441 17.604 13.1441C18.9075 13.1441 19.5594 13.1441 20.0276 12.8313C20.2303 12.6958 20.4043 12.5218 20.5397 12.3191C20.8526 11.8509 20.8526 11.1991 20.8526 9.89554C20.8526 8.59197 20.8526 7.94019 20.5397 7.47198C20.4043 7.26929 20.2303 7.09526 20.0276 6.95982C19.5594 6.64697 18.9075 6.64697 17.604 6.64697C16.3004 6.64697 15.6487 6.64697 15.1804 6.95982C14.9778 7.09526 14.8038 7.26929 14.6683 7.47198C14.3555 7.94019 14.3555 8.59197 14.3555 9.89554C14.3555 11.1991 14.3555 11.8509 14.6683 12.3191C14.8038 12.5218 14.9778 12.6958 15.1804 12.8313Z" stroke="#5F5F5F" stroke-width="1.87586" stroke-linecap="round" stroke-linejoin="round"/>
<path d="M6.18042 21.0407C6.64868 21.3536 7.30043 21.3536 8.60403 21.3536C9.90754 21.3536 10.5594 21.3536 11.0276 21.0407C11.2303 20.9053 11.4043 20.7312 11.5397 20.5285C11.8526 20.0604 11.8526 19.4086 11.8526 18.105C11.8526 16.8014 11.8526 16.1497 11.5397 15.6815C11.4043 15.4788 11.2303 15.3047 11.0276 15.1693C10.5594 14.8564 9.90754 14.8564 8.60403 14.8564C7.30043 14.8564 6.64868 14.8564 6.18042 15.1693C5.9778 15.3047 5.80377 15.4788 5.66826 15.6815C5.35547 16.1497 5.35547 16.8014 5.35547 18.105C5.35547 19.4086 5.35547 20.0604 5.66826 20.5285C5.80377 20.7312 5.9778 20.9053 6.18042 21.0407Z" stroke="#5F5F5F" stroke-width="1.87586" stroke-linecap="round" stroke-linejoin="round"/>
</svg>
