<svg width="26" height="26" viewBox="0 0 26 26" fill="none" xmlns="http://www.w3.org/2000/svg">
<rect width="26" height="26" rx="4" fill="#E57272" fill-opacity="0.2"/>
<path d="M10.8575 12.0182L11.0127 11.8631C12.4967 10.379 14.9029 10.379 16.3869 11.8631C17.871 13.3471 17.871 15.7532 16.3869 17.2373L14.2373 19.3869C12.7532 20.871 10.3471 20.871 8.86304 19.3869C7.37899 17.9029 7.37899 15.4967 8.86304 14.0127L9.2113 13.6645" stroke="#E57272" stroke-width="1.4" stroke-linecap="round"/>
<path d="M16.7887 12.3355L17.1369 11.9873C18.621 10.5032 18.621 8.09709 17.1369 6.61304C15.6529 5.12899 13.2467 5.12899 11.7627 6.61304L9.61304 8.76273C8.12899 10.2468 8.12899 12.6529 9.61304 14.1369C11.0971 15.621 13.5032 15.621 14.9873 14.1369L15.1424 13.9817" stroke="#E57272" stroke-width="1.4" stroke-linecap="round"/>
</svg>
