<svg width="26" height="26" viewBox="0 0 26 26" fill="none" xmlns="http://www.w3.org/2000/svg">
<rect width="26" height="26" rx="4" fill="#3A4DE9" fill-opacity="0.2"/>
<path d="M19.2688 14.0175C18.3767 14.9095 16.6981 14.8749 14.1244 14.8749C12.4686 14.8749 11.126 13.5303 11.1252 11.8745C11.1252 9.30251 11.0905 7.62299 11.9826 6.73104C12.8747 5.83909 13.2687 5.8752 17.2206 5.8752C17.6025 5.87357 17.7947 6.33542 17.5247 6.60546L15.4899 8.64036C14.9735 9.15687 14.9721 9.99425 15.4886 10.5107C16.0051 11.0271 16.8426 11.0272 17.3592 10.5108L19.3944 8.47641C19.6645 8.20644 20.1264 8.39862 20.1248 8.78046C20.1248 12.7317 20.1609 13.1256 19.2688 14.0175Z" stroke="#3A4DE9" stroke-width="1.4"/>
<path d="M14.125 14.875L9.49631 19.5037C8.66789 20.3321 7.32475 20.3321 6.49632 19.5037C5.66789 18.6752 5.66789 17.3321 6.49632 16.5037L11.125 11.875" stroke="#3A4DE9" stroke-width="1.4" stroke-linecap="round"/>
<path d="M8.13172 17.875H8.125" stroke="#3A4DE9" stroke-width="1.6" stroke-linecap="round" stroke-linejoin="round"/>
</svg>
