<svg width="18" height="18" viewBox="0 0 18 18" fill="none" xmlns="http://www.w3.org/2000/svg">
<path d="M9 16.5C8.38635 16.5 7.80015 16.2524 6.6277 15.7571C3.70923 14.5243 2.25 13.9079 2.25 12.871C2.25 12.5807 2.25 7.54838 2.25 5.25M9 16.5C9.61365 16.5 10.1999 16.2524 11.3723 15.7571C14.2908 14.5243 15.75 13.9079 15.75 12.871V5.25M9 16.5V8.5161" stroke="#FCA82B" stroke-width="1.4" stroke-linecap="round" stroke-linejoin="round"/>
<path d="M6.24444 7.26853L4.05354 6.20839C2.85118 5.62658 2.25 5.33567 2.25 4.875C2.25 4.41433 2.85118 4.12342 4.05354 3.54161L6.24444 2.48146C7.5966 1.82716 8.27273 1.5 9 1.5C9.72727 1.5 10.4034 1.82715 11.7556 2.48146L13.9465 3.54161C15.1488 4.12342 15.75 4.41433 15.75 4.875C15.75 5.33567 15.1488 5.62658 13.9465 6.20839L11.7556 7.26853C10.4034 7.92285 9.72727 8.25 9 8.25C8.27273 8.25 7.5966 7.92285 6.24444 7.26853Z" stroke="#FCA82B" stroke-width="1.4" stroke-linecap="round" stroke-linejoin="round"/>
<path d="M4.5 9L6 9.75" stroke="#FCA82B" stroke-width="1.4" stroke-linecap="round" stroke-linejoin="round"/>
<path d="M12.75 3L5.25 6.75" stroke="#FCA82B" stroke-width="1.4" stroke-linecap="round" stroke-linejoin="round"/>
</svg>
