<svg width="29" height="29" viewBox="0 0 29 29" fill="none" xmlns="http://www.w3.org/2000/svg">
<rect width="29" height="29" fill="white"/>
<path d="M12.2307 6.979C10.1199 7.0271 8.88699 7.22803 8.04461 8.06749C7.30735 8.80219 7.0609 9.83499 6.97852 11.4915M16.768 6.979C18.8788 7.0271 20.1117 7.22803 20.9541 8.06749C21.6913 8.80219 21.9378 9.83499 22.0202 11.4915M16.768 22.0207C18.8788 21.9725 20.1117 21.7716 20.9541 20.9322C21.6913 20.1975 21.9378 19.1647 22.0202 17.5082M12.2307 22.0207C10.1199 21.9725 8.88699 21.7716 8.04461 20.9322C7.30735 20.1975 7.0609 19.1647 6.97852 17.5082" stroke="#2B2B2B" stroke-width="1.6" stroke-linecap="round" stroke-linejoin="round"/>
<path d="M17.6673 14.5002C17.6673 16.249 16.2495 17.6668 14.5007 17.6668C12.7517 17.6668 11.334 16.249 11.334 14.5002C11.334 12.7513 12.7517 11.3335 14.5007 11.3335C16.2495 11.3335 17.6673 12.7513 17.6673 14.5002Z" stroke="#2B2B2B" stroke-width="1.6" stroke-linecap="round" stroke-linejoin="round"/>
</svg>
