<svg width="19" height="19" viewBox="0 0 19 19" fill="none" xmlns="http://www.w3.org/2000/svg">
<path d="M9.5 13.0623V11.479" stroke="#2B2B2B" stroke-width="1.6" stroke-linecap="round"/>
<path d="M3.37803 14.9187C3.55606 16.241 4.65129 17.2769 5.98408 17.3382C7.10556 17.3898 8.24479 17.4167 9.49935 17.4167C10.7539 17.4167 11.8931 17.3898 13.0146 17.3382C14.3474 17.2769 15.4426 16.241 15.6207 14.9187C15.7369 14.0558 15.8327 13.1714 15.8327 12.2708C15.8327 11.3702 15.7369 10.4859 15.6207 9.62295C15.4426 8.30063 14.3474 7.26472 13.0146 7.20345C11.8931 7.15189 10.7539 7.125 9.49935 7.125C8.24479 7.125 7.10556 7.15189 5.98408 7.20345C4.65129 7.26472 3.55606 8.30063 3.37803 9.62295C3.26185 10.4859 3.16602 11.3702 3.16602 12.2708C3.16602 13.1714 3.26185 14.0558 3.37803 14.9187Z" stroke="#2B2B2B" stroke-width="1.6"/>
<path d="M5.9375 7.12516V5.146C5.9375 3.17848 7.53249 1.5835 9.5 1.5835C11.0511 1.5835 12.2708 2.771 12.6667 3.9585" stroke="#2B2B2B" stroke-width="1.6" stroke-linecap="round" stroke-linejoin="round"/>
</svg>
