<svg width="16" height="4" viewBox="0 0 16 4" fill="none" xmlns="http://www.w3.org/2000/svg">
<path d="M3.46021 1.73011C3.46021 2.68527 2.68526 3.46022 1.73011 3.46022C0.774949 3.46022 0 2.68527 0 1.73011C0 0.77495 0.774949 0 1.73011 0C2.68526 0 3.46021 0.77495 3.46021 1.73011Z" fill="#95989A"/>
<path d="M9.72975 1.73011C9.72975 2.68527 8.9548 3.46022 7.99964 3.46022C7.04448 3.46022 6.26953 2.68527 6.26953 1.73011C6.26953 0.77495 7.04448 0 7.99964 0C8.9548 0 9.72975 0.77495 9.72975 1.73011Z" fill="#95989A"/>
<path d="M15.9998 1.73011C15.9998 2.68527 15.2248 3.46022 14.2697 3.46022C13.3145 3.46022 12.5396 2.68527 12.5396 1.73011C12.5396 0.77495 13.3145 0 14.2697 0C15.2248 0 15.9998 0.77495 15.9998 1.73011Z" fill="#95989A"/>
</svg>
