<svg width="18" height="18" viewBox="0 0 18 18" fill="none" xmlns="http://www.w3.org/2000/svg">
<path d="M14.625 1.5H10.125C9.08947 1.5 8.25 2.33947 8.25 3.375V7.875C8.25 8.91053 9.08947 9.75 10.125 9.75H14.625C15.6605 9.75 16.5 8.91053 16.5 7.875V3.375C16.5 2.33947 15.6605 1.5 14.625 1.5Z" stroke="#2B2B2B" stroke-width="1.4" stroke-linecap="round" stroke-linejoin="round"/>
<path d="M8.25 4.87537C6.72935 4.8781 5.93306 4.91544 5.42417 5.42432C4.875 5.9735 4.875 6.85738 4.875 8.62515V9.37515C4.875 11.1429 4.875 12.0268 5.42417 12.576C5.97335 13.1251 6.85723 13.1251 8.625 13.1251H9.375C11.1427 13.1251 12.0266 13.1251 12.5758 12.576C13.0847 12.0671 13.1221 11.2708 13.1248 9.75015" stroke="#2B2B2B" stroke-width="1.4" stroke-linecap="round" stroke-linejoin="round"/>
<path d="M4.875 8.25037C3.35435 8.25307 2.55806 8.29042 2.04917 8.79929C1.5 9.34852 1.5 10.2324 1.5 12.0001V12.7501C1.5 14.5179 1.5 15.4018 2.04917 15.951C2.59835 16.5001 3.48224 16.5001 5.25 16.5001H6C7.76775 16.5001 8.65163 16.5001 9.20085 15.951C9.70973 15.4421 9.74707 14.6458 9.74977 13.1251" stroke="#2B2B2B" stroke-width="1.4" stroke-linecap="round" stroke-linejoin="round"/>
</svg>
