<svg width="16" height="16" viewBox="0 0 16 16" fill="none" xmlns="http://www.w3.org/2000/svg">
<path d="M7.33325 8.6665H10.6666M5.33325 8.6665H5.33924M8.66659 11.3332H5.33325M10.6666 11.3332H10.6606" stroke="#95989A" stroke-width="1.2" stroke-linecap="round" stroke-linejoin="round"/>
<path d="M12 1.3335V2.66683M4 1.3335V2.66683" stroke="#95989A" stroke-width="1.2" stroke-linecap="round" stroke-linejoin="round"/>
<path d="M1.66675 8.16213C1.66675 5.25729 1.66675 3.80485 2.50149 2.90243C3.33624 2 4.67974 2 7.36675 2H8.63341C11.3204 2 12.6639 2 13.4987 2.90243C14.3334 3.80485 14.3334 5.25729 14.3334 8.16213V8.50453C14.3334 11.4094 14.3334 12.8618 13.4987 13.7643C12.6639 14.6667 11.3204 14.6667 8.63341 14.6667H7.36675C4.67974 14.6667 3.33624 14.6667 2.50149 13.7643C1.66675 12.8618 1.66675 11.4094 1.66675 8.50453V8.16213Z" stroke="#95989A" stroke-width="1.2" stroke-linecap="round" stroke-linejoin="round"/>
<path d="M2 5.3335H14" stroke="#95989A" stroke-width="1.2" stroke-linecap="round" stroke-linejoin="round"/>
</svg>
