<svg width="25" height="24" viewBox="0 0 25 24" fill="none" xmlns="http://www.w3.org/2000/svg">
<path d="M7.5 6H17.25C19.3567 6 20.41 6 21.1667 6.50559C21.4943 6.72447 21.7755 7.00572 21.9944 7.33329C22.5 8.08996 22.5 9.14331 22.5 11.25C22.5 14.7612 22.5 16.5167 21.6573 17.7779C21.475 18.0508 21.2666 18.3045 21.0355 18.5355M3.96447 18.5355C2.5 17.0711 2.5 14.714 2.5 10V6.94427C2.5 5.1278 2.5 4.21956 2.88032 3.53806C3.15142 3.05227 3.55227 2.65142 4.03806 2.38032C4.71956 2 5.6278 2 7.44427 2C8.60802 2 9.1899 2 9.69926 2.19101C10.8622 2.62712 11.3418 3.68358 11.8666 4.73313L12.5 6" stroke="#3874C9" stroke-width="1.6" stroke-linecap="round"/>
<path d="M18.75 21.25L16.5 19V16M18.75 20.5C18.3358 20.5 18 20.8358 18 21.25C18 21.6642 18.3358 22 18.75 22C19.1642 22 19.5 21.6642 19.5 21.25C19.5 20.8358 19.1642 20.5 18.75 20.5Z" stroke="#3874C9" stroke-width="1.6" stroke-linecap="round" stroke-linejoin="round"/>
<path d="M6.25 21.25L8.5 19V16M6.25 20.5C6.66421 20.5 7 20.8358 7 21.25C7 21.6642 6.66421 22 6.25 22C5.83579 22 5.5 21.6642 5.5 21.25C5.5 20.8358 5.83579 20.5 6.25 20.5Z" stroke="#3874C9" stroke-width="1.6" stroke-linecap="round" stroke-linejoin="round"/>
<path d="M12.5 21.25V16M12.5 20.5C12.0858 20.5 11.75 20.8358 11.75 21.25C11.75 21.6642 12.0858 22 12.5 22C12.9142 22 13.25 21.6642 13.25 21.25C13.25 20.8358 12.9142 20.5 12.5 20.5Z" stroke="#3874C9" stroke-width="1.6" stroke-linecap="round" stroke-linejoin="round"/>
</svg>
