<svg width="25" height="24" viewBox="0 0 25 24" fill="none" xmlns="http://www.w3.org/2000/svg">
<path d="M13.5 22C12.6818 22 11.9002 21.6588 10.3369 20.9764C8.51233 20.18 7.11554 19.5703 6.14648 19H2.5M13.5 22C14.3182 22 15.0998 21.6588 16.6631 20.9764C20.5544 19.2779 22.5 18.4286 22.5 17V6.5M13.5 22V11M4.5 6.5V9.5" stroke="#3874C9" stroke-width="1.6" stroke-linecap="round" stroke-linejoin="round"/>
<path d="M9.82592 9.69138L6.90472 8.27785C5.30157 7.5021 4.5 7.11423 4.5 6.5C4.5 5.88577 5.30157 5.4979 6.90472 4.72215L9.82592 3.30862C11.6288 2.43621 12.5303 2 13.5 2C14.4697 2 15.3712 2.4362 17.1741 3.30862L20.0953 4.72215C21.6984 5.4979 22.5 5.88577 22.5 6.5C22.5 7.11423 21.6984 7.5021 20.0953 8.27785L17.1741 9.69138C15.3712 10.5638 14.4697 11 13.5 11C12.5303 11 11.6288 10.5638 9.82592 9.69138Z" stroke="#3874C9" stroke-width="1.6" stroke-linecap="round" stroke-linejoin="round"/>
<path d="M18.6366 4.01562L8.36719 8.98485" stroke="#3874C9" stroke-width="1.6" stroke-linecap="round" stroke-linejoin="round"/>
<path d="M2.5 13H5.5" stroke="#3874C9" stroke-width="1.6" stroke-linecap="round" stroke-linejoin="round"/>
<path d="M2.5 16H5.5" stroke="#3874C9" stroke-width="1.6" stroke-linecap="round" stroke-linejoin="round"/>
</svg>
