<svg width="16" height="17" viewBox="0 0 16 17" fill="none" xmlns="http://www.w3.org/2000/svg">
<path d="M6 10.5405C6 8.65493 6 7.71213 6.58579 7.12631C7.1716 6.54053 8.1144 6.54053 10 6.54053H10.6667C12.5523 6.54053 13.4951 6.54053 14.0809 7.12631C14.6667 7.71213 14.6667 8.65493 14.6667 10.5405V11.2072C14.6667 13.0928 14.6667 14.0356 14.0809 14.6214C13.4951 15.2072 12.5523 15.2072 10.6667 15.2072H10C8.1144 15.2072 7.1716 15.2072 6.58579 14.6214C6 14.0356 6 13.0928 6 11.2072V10.5405Z" stroke="#475467" stroke-width="1.1" stroke-linecap="round" stroke-linejoin="round"/>
<path d="M11.3334 6.54069C11.3318 4.5693 11.302 3.54816 10.7282 2.84898C10.6174 2.71395 10.4936 2.59014 10.3586 2.47933C9.62096 1.87402 8.52516 1.87402 6.3335 1.87402C4.14184 1.87402 3.04602 1.87402 2.30845 2.47933C2.17342 2.59014 2.04962 2.71395 1.9388 2.84898C1.3335 3.58654 1.3335 4.68237 1.3335 6.87402C1.3335 9.06569 1.3335 10.1615 1.9388 10.8991C2.04961 11.0341 2.17342 11.1579 2.30845 11.2687C3.00764 11.8426 4.02877 11.8724 6.00016 11.874" stroke="#475467" stroke-width="1.1" stroke-linecap="round" stroke-linejoin="round"/>
</svg>
