<svg width="16" height="17" viewBox="0 0 16 17" fill="none" xmlns="http://www.w3.org/2000/svg">
<path d="M5.6665 12.5404C6.8755 11.2379 9.11117 11.1766 10.3332 12.5404M9.29357 8.54036C9.29357 9.27676 8.71237 9.8737 7.99544 9.8737C7.2785 9.8737 6.6973 9.27676 6.6973 8.54036C6.6973 7.80396 7.2785 7.20703 7.99544 7.20703C8.71237 7.20703 9.29357 7.80396 9.29357 8.54036Z" stroke="#475467" stroke-width="1.1" stroke-linecap="round"/>
<path d="M6.3335 3.20703C4.57057 3.2136 3.6275 3.27524 3.01692 3.8537C2.3335 4.50114 2.3335 5.5432 2.3335 7.62733V10.7852C2.3335 12.8693 2.3335 13.9113 3.01692 14.5588C3.70033 15.2063 4.80028 15.2063 7.00016 15.2063H9.00016C11.2 15.2063 12.3 15.2063 12.9834 14.5588C13.6668 13.9113 13.6668 12.8693 13.6668 10.7852V7.62733C13.6668 5.5432 13.6668 4.50114 12.9834 3.8537C12.3728 3.27524 11.4298 3.2136 9.66683 3.20703" stroke="#475467" stroke-width="1.1" stroke-linecap="round" stroke-linejoin="round"/>
<path d="M6.51493 2.96178C6.57889 2.68524 6.61088 2.54697 6.67229 2.43405C6.81543 2.171 7.07936 1.97768 7.39443 1.90516C7.52969 1.87402 7.68656 1.87402 8.00016 1.87402C8.31376 1.87402 8.47063 1.87402 8.60589 1.90516C8.92096 1.97768 9.18489 2.17099 9.32803 2.43405C9.38943 2.54697 9.42143 2.68524 9.48536 2.96178L9.54089 3.20186C9.65436 3.69232 9.71109 3.93754 9.62549 4.12618C9.57009 4.24836 9.47563 4.35297 9.35416 4.42676C9.16656 4.54069 8.88843 4.54069 8.33223 4.54069H7.66809C7.11189 4.54069 6.83376 4.54069 6.64617 4.42676C6.52467 4.35297 6.43023 4.24836 6.37481 4.12618C6.28923 3.93754 6.34595 3.69232 6.4594 3.20186L6.51493 2.96178Z" stroke="#475467" stroke-width="1.1"/>
</svg>
