<svg width="18" height="18" viewBox="0 0 18 18" fill="none" xmlns="http://www.w3.org/2000/svg">
<g id="home-03">
<path id="Vector" d="M6.74961 16.5L6.56164 13.8683C6.46057 12.4535 7.58118 11.25 8.99958 11.25C10.4181 11.25 11.5386 12.4535 11.4376 13.8683L11.2496 16.5" stroke="#2B2B2B" stroke-width="1.4"/>
<path id="Vector_2" d="M1.7636 9.91012C1.49884 8.18715 1.36646 7.32572 1.69219 6.56203C2.01791 5.79834 2.74058 5.27582 4.18592 4.23079L5.2658 3.45C7.06378 2.15 7.9628 1.5 9.00005 1.5C10.0374 1.5 10.9363 2.15 12.7343 3.45L13.8142 4.23079C15.2595 5.27582 15.9822 5.79834 16.308 6.56203C16.6337 7.32572 16.5013 8.18715 16.2365 9.91012L16.0107 11.3793C15.6354 13.8217 15.4477 15.0429 14.5718 15.7714C13.6959 16.5 12.4153 16.5 9.85415 16.5H8.14595C5.58482 16.5 4.30424 16.5 3.42831 15.7714C2.55238 15.0429 2.36471 13.8217 1.98938 11.3793L1.7636 9.91012Z" stroke="#2B2B2B" stroke-width="1.4" stroke-linejoin="round"/>
</g>
</svg>
