<svg width="18" height="18" viewBox="0 0 18 18" fill="none" xmlns="http://www.w3.org/2000/svg">
<path d="M9.74988 12.75L10.5169 13.1958C10.9029 11.7958 12.3834 10.9649 13.8237 11.3401C14.5611 11.5321 15.1449 12.0029 15.4875 12.6045M16.4999 15L15.7329 14.5542C15.347 15.9542 13.8665 16.7851 12.4261 16.4099C11.706 16.2224 11.1321 15.7688 10.7867 15.1872" stroke="#2B2B2B" stroke-width="1.4" stroke-linecap="round" stroke-linejoin="round"/>
<path d="M15.75 9.75V8.625C15.75 5.26624 15.75 3.58687 14.7066 2.54343C13.6631 1.5 11.9837 1.5 8.625 1.5C5.26624 1.5 3.58687 1.5 2.54343 2.54343C1.5 3.58687 1.5 5.26624 1.5 8.625C1.5 11.9837 1.5 13.6631 2.54343 14.7066C3.46322 15.6263 4.87717 15.7354 7.5 15.7483H8.25" stroke="#2B2B2B" stroke-width="1.4" stroke-linecap="round"/>
<path d="M1.5 8.625H15.75" stroke="#2B2B2B" stroke-width="1.4" stroke-linecap="round" stroke-linejoin="round"/>
<path d="M9.375 4.875H12.375" stroke="#2B2B2B" stroke-width="1.2" stroke-linecap="round" stroke-linejoin="round"/>
<path d="M5.8125 5.8125C6.33027 5.8125 6.75 5.39277 6.75 4.875C6.75 4.35723 6.33027 3.9375 5.8125 3.9375C5.29473 3.9375 4.875 4.35723 4.875 4.875C4.875 5.39277 5.29473 5.8125 5.8125 5.8125Z" stroke="#2B2B2B" stroke-width="1.2" stroke-linecap="round" stroke-linejoin="round"/>
<path d="M5.8125 13.3125C6.33027 13.3125 6.75 12.8928 6.75 12.375C6.75 11.8572 6.33027 11.4375 5.8125 11.4375C5.29473 11.4375 4.875 11.8572 4.875 12.375C4.875 12.8928 5.29473 13.3125 5.8125 13.3125Z" stroke="#2B2B2B" stroke-width="1.2" stroke-linecap="round" stroke-linejoin="round"/>
</svg>
