<svg width="18" height="18" viewBox="0 0 18 18" fill="none" xmlns="http://www.w3.org/2000/svg">
<path d="M2.25 4.5C2.25 3.43934 2.25 2.90901 2.57951 2.57951C2.90901 2.25 3.43934 2.25 4.5 2.25C5.56066 2.25 6.09099 2.25 6.4205 2.57951C6.75 2.90901 6.75 3.43934 6.75 4.5C6.75 5.56066 6.75 6.09099 6.4205 6.4205C6.09099 6.75 5.56066 6.75 4.5 6.75C3.43934 6.75 2.90901 6.75 2.57951 6.4205C2.25 6.09099 2.25 5.56066 2.25 4.5Z" stroke="#2B2B2B" stroke-width="1.4"/>
<path d="M2.25 13.5C2.25 12.4394 2.25 11.909 2.57951 11.5795C2.90901 11.25 3.43934 11.25 4.5 11.25C5.56066 11.25 6.09099 11.25 6.4205 11.5795C6.75 11.909 6.75 12.4394 6.75 13.5C6.75 14.5606 6.75 15.091 6.4205 15.4205C6.09099 15.75 5.56066 15.75 4.5 15.75C3.43934 15.75 2.90901 15.75 2.57951 15.4205C2.25 15.091 2.25 14.5606 2.25 13.5Z" stroke="#2B2B2B" stroke-width="1.4"/>
<path d="M2.25 9H6.75" stroke="#2B2B2B" stroke-width="1.4" stroke-linecap="round" stroke-linejoin="round"/>
<path d="M9 2.25V6" stroke="#2B2B2B" stroke-width="1.4" stroke-linecap="round" stroke-linejoin="round"/>
<path d="M11.25 4.5C11.25 3.43934 11.25 2.90901 11.5795 2.57951C11.909 2.25 12.4394 2.25 13.5 2.25C14.5606 2.25 15.091 2.25 15.4205 2.57951C15.75 2.90901 15.75 3.43934 15.75 4.5C15.75 5.56066 15.75 6.09099 15.4205 6.4205C15.091 6.75 14.5606 6.75 13.5 6.75C12.4394 6.75 11.909 6.75 11.5795 6.4205C11.25 6.09099 11.25 5.56066 11.25 4.5Z" stroke="#2B2B2B" stroke-width="1.4"/>
<path d="M15.75 9H11.25C10.1894 9 9.65902 9 9.32947 9.32947C9 9.65902 9 10.1894 9 11.25M9 13.3269V15.4039M11.25 11.25V12.375C11.25 13.4598 11.8378 13.5 12.75 13.5C13.1642 13.5 13.5 13.8358 13.5 14.25M12 15.75H11.25M13.5 11.25C14.5606 11.25 15.091 11.25 15.4205 11.58C15.75 11.9099 15.75 12.4411 15.75 13.5032C15.75 14.5654 15.75 15.0965 15.4205 15.4265C15.18 15.6674 14.8325 15.7325 14.25 15.75" stroke="#2B2B2B" stroke-width="1.4" stroke-linecap="round"/>
</svg>
