<svg width="18" height="18" viewBox="0 0 18 18" fill="none" xmlns="http://www.w3.org/2000/svg">
<g id="settings-04">
<path id="Vector" d="M1.875 9C1.875 5.64124 1.875 3.96187 2.91843 2.91843C3.96187 1.875 5.64124 1.875 9 1.875C12.3587 1.875 14.0381 1.875 15.0816 2.91843C16.125 3.96187 16.125 5.64124 16.125 9C16.125 12.3587 16.125 14.0381 15.0816 15.0816C14.0381 16.125 12.3587 16.125 9 16.125C5.64124 16.125 3.96187 16.125 2.91843 15.0816C1.875 14.0381 1.875 12.3587 1.875 9Z" stroke="#95989A" stroke-width="1.4" stroke-linejoin="round"/>
<path id="Vector_2" d="M7.5 11.625C7.5 12.2463 6.99632 12.75 6.375 12.75C5.75368 12.75 5.25 12.2463 5.25 11.625C5.25 11.0037 5.75368 10.5 6.375 10.5C6.99632 10.5 7.5 11.0037 7.5 11.625Z" stroke="#95989A" stroke-width="1.4"/>
<path id="Vector_3" d="M12.75 6.375C12.75 5.75368 12.2463 5.25 11.625 5.25C11.0037 5.25 10.5 5.75368 10.5 6.375C10.5 6.99632 11.0037 7.5 11.625 7.5C12.2463 7.5 12.75 6.99632 12.75 6.375Z" stroke="#95989A" stroke-width="1.4"/>
<path id="Vector_4" d="M6.375 10.5V5.25" stroke="#95989A" stroke-width="1.4" stroke-linecap="round"/>
<path id="Vector_5" d="M11.625 7.5V12.75" stroke="#95989A" stroke-width="1.4" stroke-linecap="round"/>
</g>
</svg>
