<svg width="39" height="39" viewBox="0 0 39 39" fill="none" xmlns="http://www.w3.org/2000/svg">
<path d="M19 7C19 7.552 19.448 8 20 8C20.552 8 21 7.552 21 7C21 6.448 20.552 6 20 6C19.448 6 19 6.448 19 7Z" fill="#2D2D2D" fill-opacity="0.3"/>
<path d="M6 7C6 7.552 6.448 8 7 8C7.552 8 8 7.552 8 7C8 6.448 7.552 6 7 6C6.448 6 6 6.448 6 7Z" fill="#2D2D2D" fill-opacity="0.3"/>
<path d="M32 20C32 20.552 32.448 21 33 21C33.552 21 34 20.552 34 20C34 19.448 33.552 19 33 19C32.448 19 32 19.448 32 20Z" fill="#2D2D2D" fill-opacity="0.3"/>
<path d="M32 7C32 7.552 32.448 8 33 8C33.552 8 34 7.552 34 7C34 6.448 33.552 6 33 6C32.448 6 32 6.448 32 7Z" fill="#2D2D2D" fill-opacity="0.3"/>
<path d="M19 20C19 20.552 19.448 21 20 21C20.552 21 21 20.552 21 20C21 19.448 20.552 19 20 19C19.448 19 19 19.448 19 20Z" fill="#2D2D2D" fill-opacity="0.3"/>
<path d="M6 20C6 20.552 6.448 21 7 21C7.552 21 8 20.552 8 20C8 19.448 7.552 19 7 19C6.448 19 6 19.448 6 20Z" fill="#2D2D2D" fill-opacity="0.3"/>
<path d="M32 33C32 33.552 32.448 34 33 34C33.552 34 34 33.552 34 33C34 32.448 33.552 32 33 32C32.448 32 32 32.448 32 33Z" fill="#2D2D2D" fill-opacity="0.3"/>
<path d="M19 33C19 33.552 19.448 34 20 34C20.552 34 21 33.552 21 33C21 32.448 20.552 32 20 32C19.448 32 19 32.448 19 33Z" fill="#2D2D2D" fill-opacity="0.3"/>
<path d="M6 33C6 33.552 6.448 34 7 34C7.552 34 8 33.552 8 33C8 32.448 7.552 32 7 32C6.448 32 6 32.448 6 33Z" fill="#2D2D2D" fill-opacity="0.3"/>
</svg>
