<svg width="18" height="18" viewBox="0 0 18 18" fill="none" xmlns="http://www.w3.org/2000/svg">
<path d="M6 1.5H1.5V1.875C1.5 2.70343 2.17157 3.375 3 3.375H6V1.5Z" stroke="#10182B" stroke-width="1.125" stroke-linecap="round" stroke-linejoin="round"/>
<path d="M16.5 1.5H12V3.375H15C15.8284 3.375 16.5 2.70343 16.5 1.875V1.5Z" stroke="#10182B" stroke-width="1.125" stroke-linecap="round" stroke-linejoin="round"/>
<path d="M12 1.5H6V7.5H12V1.5Z" stroke="#10182B" stroke-width="1.125" stroke-linecap="round" stroke-linejoin="round"/>
<path d="M10.125 9.75H7.875L6 7.5H12L10.125 9.75Z" stroke="#10182B" stroke-width="1.125" stroke-linecap="round" stroke-linejoin="round"/>
<path d="M10.125 9.75H7.875V11.068C7.875 11.6647 8.11208 12.2371 8.53403 12.659L9 13.125L9.46597 12.659C9.88792 12.2371 10.125 11.6647 10.125 11.068V9.75Z" stroke="#10182B" stroke-width="1.125" stroke-linecap="round" stroke-linejoin="round"/>
<path d="M1.5 16.5H7.5C8.32845 16.5 9 15.8284 9 15" stroke="#10182B" stroke-width="1.125" stroke-linecap="round" stroke-linejoin="round"/>
<path d="M10.5 3.75V3.7575" stroke="#10182B" stroke-width="1.125" stroke-linecap="round" stroke-linejoin="round"/>
<path d="M10.5 5.625V5.6325" stroke="#10182B" stroke-width="1.125" stroke-linecap="round" stroke-linejoin="round"/>
</svg>
