<svg width="64" height="64" viewBox="0 0 64 64" fill="none" xmlns="http://www.w3.org/2000/svg">
<path d="M35.1745 58.4766C20.5516 60.2295 7.27638 49.7962 5.5235 35.1734C3.77061 20.5505 14.2038 7.27529 28.8267 5.5224C43.4495 3.76952 56.7248 14.2027 58.4777 28.8256C58.7518 31.1117 58.728 33.3644 58.437 35.5457C58.1212 37.9121 55.7411 39.279 53.4105 38.7601C51.4293 38.3189 50.2957 36.2514 50.5372 34.2358C50.7109 32.7859 50.7161 31.2923 50.5346 29.7778C49.3076 19.5418 40.0149 12.2385 29.7789 13.4655C19.5429 14.6926 12.2396 23.9852 13.4666 34.2212C14.5526 43.2805 21.9563 50.0425 30.7402 50.627" stroke="white" stroke-width="4" stroke-linecap="round"/>
<path d="M46.3369 42.3813L45.7473 43.9745C44.9742 46.0637 44.5878 47.1083 43.8257 47.8702C43.0638 48.6322 42.0193 49.0188 39.9302 49.7918L38.3369 50.3813L39.9302 50.9709C42.0193 51.7439 43.0638 52.1305 43.8257 52.8925C44.5878 53.6544 44.9742 54.699 45.7473 56.7881L46.3369 58.3813L46.9265 56.7881C47.6996 54.699 48.086 53.6544 48.8481 52.8924C49.61 52.1305 50.6545 51.7439 52.7436 50.9709L54.3369 50.3813L52.7436 49.7918C50.6545 49.0188 49.61 48.6322 48.8481 47.8702C48.086 47.1083 47.6996 46.0637 46.9265 43.9745L46.3369 42.3813Z" stroke="white" stroke-width="2.88372" stroke-linejoin="round"/>
</svg>
