<svg width="68" height="68" viewBox="0 0 68 68" fill="none" xmlns="http://www.w3.org/2000/svg">
<rect width="68" height="68" rx="13.1613" fill="#10182B"/>
<path d="M30.0701 24.1748L29.0564 26.9142C27.7272 30.5062 27.0626 32.3023 25.7524 33.6126C24.4422 34.9227 22.6462 35.5872 19.0541 36.9166L16.3147 37.9302L19.0541 38.9438C22.6462 40.2731 24.4422 40.9377 25.7524 42.2478C27.0626 43.5581 27.7272 45.3542 29.0564 48.9461L30.0701 51.6856L31.0836 48.9461C32.413 45.3542 33.0776 43.5581 34.3877 42.2478C35.698 40.9377 37.494 40.2731 41.086 38.9438L43.8254 37.9302L41.086 36.9166C37.494 35.5872 35.698 34.9227 34.3877 33.6126C33.0776 32.3023 32.413 30.5062 31.0836 26.9142L30.0701 24.1748Z" stroke="#3CA0C9" stroke-width="2.94758" stroke-linejoin="round"/>
<path d="M45.7904 16.3145L45.356 17.4885C44.7863 19.0279 44.5015 19.7977 43.9399 20.3592C43.3785 20.9207 42.6088 21.2055 41.0694 21.7752L39.8953 22.2096L41.0694 22.644C42.6088 23.2137 43.3785 23.4985 43.9399 24.06C44.5015 24.6215 44.7863 25.3913 45.356 26.9308L45.7904 28.1048L46.2249 26.9308C46.7946 25.3913 47.0793 24.6215 47.6409 24.06C48.2023 23.4985 48.972 23.2137 50.5115 22.644L51.6856 22.2096L50.5115 21.7752C48.972 21.2055 48.2023 20.9207 47.6409 20.3592C47.0793 19.7977 46.7946 19.0279 46.2249 17.4885L45.7904 16.3145Z" stroke="#3CA0C9" stroke-width="2.94758" stroke-linejoin="round"/>
</svg>
