<svg width="96" height="96" viewBox="0 0 96 96" fill="none" xmlns="http://www.w3.org/2000/svg">
<rect width="96" height="96" fill="#1E1E1E"/>
<path d="M-1673 -668C-1673 -669.105 -1672.1 -670 -1671 -670H1348C1349.1 -670 1350 -669.105 1350 -668V2147C1350 2148.1 1349.1 2149 1348 2149H-1671C-1672.1 2149 -1673 2148.1 -1673 2147V-668Z" fill="#444444"/>
<path d="M-1671 -670V-669H1348V-670V-671H-1671V-670ZM1350 -668H1349V2147H1350H1351V-668H1350ZM1348 2149V2148H-1671V2149V2150H1348V2149ZM-1673 2147H-1672V-668H-1673H-1674V2147H-1673ZM-1671 2149V2148C-1671.55 2148 -1672 2147.55 -1672 2147H-1673H-1674C-1674 2148.66 -1672.66 2150 -1671 2150V2149ZM1350 2147H1349C1349 2147.55 1348.55 2148 1348 2148V2149V2150C1349.66 2150 1351 2148.66 1351 2147H1350ZM1348 -670V-669C1348.55 -669 1349 -668.552 1349 -668H1350H1351C1351 -669.657 1349.66 -671 1348 -671V-670ZM-1671 -670V-671C-1672.66 -671 -1674 -669.657 -1674 -668H-1673H-1672C-1672 -668.552 -1671.55 -669 -1671 -669V-670Z" fill="white" fill-opacity="0.1"/>
<rect width="1440" height="949" transform="translate(-553 -386)" fill="white"/>
<rect width="96" height="96" rx="24" fill="#03070D"/>
<path d="M51.1745 74.4766C36.5516 76.2295 23.2764 65.7962 21.5235 51.1734C19.7706 36.5505 30.2038 23.2753 44.8267 21.5224C59.4495 19.7695 72.7248 30.2027 74.4777 44.8256C74.7518 47.1117 74.728 49.3644 74.437 51.5457C74.1212 53.9121 71.7411 55.279 69.4105 54.7601C67.4293 54.3189 66.2957 52.2514 66.5372 50.2358C66.7109 48.7859 66.7161 47.2923 66.5346 45.7778C65.3076 35.5418 56.0149 28.2385 45.7789 29.4655C35.5429 30.6926 28.2396 39.9852 29.4666 50.2212C30.5526 59.2805 37.9563 66.0425 46.7402 66.627" stroke="#3CA0C9" stroke-width="4" stroke-linecap="round"/>
<path d="M62.3369 58.3813L61.7473 59.9745C60.9742 62.0637 60.5878 63.1083 59.8257 63.8702C59.0638 64.6322 58.0193 65.0188 55.9302 65.7918L54.3369 66.3813L55.9302 66.9709C58.0193 67.7439 59.0638 68.1305 59.8257 68.8925C60.5878 69.6544 60.9742 70.699 61.7473 72.7881L62.3369 74.3813L62.9265 72.7881C63.6996 70.699 64.086 69.6544 64.8481 68.8924C65.61 68.1305 66.6545 67.7439 68.7436 66.9709L70.3369 66.3813L68.7436 65.7918C66.6545 65.0188 65.61 64.6322 64.8481 63.8702C64.086 63.1083 63.6996 62.0637 62.9265 59.9745L62.3369 58.3813Z" stroke="#3CA0C9" stroke-width="2.88372" stroke-linejoin="round"/>
</svg>
