<svg width="20" height="20" viewBox="0 0 20 20" fill="none" xmlns="http://www.w3.org/2000/svg">
<path d="M4.43509 8.06927C6.44649 4.51015 7.45218 2.73059 8.83224 2.2725C9.59141 2.02049 10.4092 2.02049 11.1684 2.2725C12.5485 2.73059 13.5542 4.51015 15.5656 8.06927C17.577 11.6284 18.5827 13.4079 18.281 14.8579C18.115 15.6557 17.7061 16.3792 17.1128 16.9249C16.0345 17.9169 14.0232 17.9169 10.0003 17.9169C5.97754 17.9169 3.96614 17.9169 2.8878 16.9249C2.29456 16.3792 1.88565 15.6557 1.71968 14.8579C1.41799 13.4079 2.42369 11.6284 4.43509 8.06927Z" stroke="#FCA82B" stroke-width="1.3"/>
<path d="M9.99316 13.3335H9.99841" stroke="#FCA82B" stroke-width="1.5" stroke-linecap="round" stroke-linejoin="round"/>
<path d="M10 10.8334V7.5" stroke="#FCA82B" stroke-width="1.3" stroke-linecap="round" stroke-linejoin="round"/>
</svg>
