<svg width="42" height="43" viewBox="0 0 42 43" fill="none" xmlns="http://www.w3.org/2000/svg">
<rect y="0.5" width="42" height="42" rx="10" fill="#10182B"/>
<path d="M15.5 27V24M20.5 27V18M25.5 27V23" stroke="#3CA0C9" stroke-width="1.4" stroke-linecap="round" stroke-linejoin="round"/>
<path d="M30.5 15C30.5 16.6568 29.1569 18 27.5 18C25.8431 18 24.5 16.6568 24.5 15C24.5 13.3432 25.8431 12 27.5 12C29.1569 12 30.5 13.3432 30.5 15Z" stroke="#3CA0C9" stroke-width="1.4" stroke-linecap="round" stroke-linejoin="round"/>
<path d="M30.4955 20.5C30.4955 20.5 30.5 20.8395 30.5 21.5C30.5 25.9784 30.5 28.2175 29.1088 29.6088C27.7175 31 25.4783 31 21 31C16.5217 31 14.2825 31 12.8912 29.6088C11.5 28.2175 11.5 25.9784 11.5 21.5C11.5 17.0217 11.5 14.7825 12.8912 13.3913C14.2825 12 16.5217 12 21 12L22 12" stroke="#3CA0C9" stroke-width="1.4" stroke-linecap="round" stroke-linejoin="round"/>
</svg>
