<svg width="26" height="26" viewBox="0 0 26 26" fill="none" xmlns="http://www.w3.org/2000/svg">
<g id="Outline/Interface/Apps">
<g id="Icon">
<path fill-rule="evenodd" clip-rule="evenodd" d="M6.57224 4.19668C5.811 4.1116 5.02234 4.1116 4.2611 4.19668C4.24695 4.19826 4.23297 4.20466 4.22147 4.216C4.21024 4.22706 4.20586 4.23825 4.20475 4.24775C4.11392 5.02436 4.11392 5.80891 4.20475 6.58553C4.20586 6.59502 4.21024 6.60621 4.22147 6.61728C4.23297 6.62861 4.24695 6.63501 4.2611 6.63659C5.02234 6.72167 5.811 6.72167 6.57224 6.63659C6.58638 6.63501 6.60037 6.62861 6.61186 6.61728C6.62309 6.60621 6.62747 6.59502 6.62858 6.58553C6.71942 5.80891 6.71942 5.02436 6.62858 4.24775C6.62747 4.23825 6.62309 4.22706 6.61186 4.216C6.60037 4.20466 6.58638 4.19826 6.57224 4.19668ZM4.0806 2.58174C4.9618 2.48325 5.87154 2.48325 6.75273 2.58174C7.52442 2.66799 8.1509 3.27512 8.24258 4.05898C8.34808 4.96101 8.34808 5.87227 8.24258 6.7743C8.1509 7.55815 7.52442 8.16529 6.75273 8.25154C5.87154 8.35003 4.9618 8.35003 4.0806 8.25154C3.30892 8.16529 2.68243 7.55816 2.59075 6.7743C2.48525 5.87227 2.48525 4.96101 2.59075 4.05898C2.68243 3.27512 3.30891 2.66799 4.0806 2.58174Z" fill="#2b2b2b"/>
<path fill-rule="evenodd" clip-rule="evenodd" d="M14.1556 4.19668C13.3943 4.1116 12.6057 4.1116 11.8444 4.19668C11.8303 4.19826 11.8163 4.20466 11.8048 4.216C11.7936 4.22706 11.7892 4.23825 11.7881 4.24775C11.6973 5.02436 11.6973 5.80891 11.7881 6.58553C11.7892 6.59502 11.7936 6.60621 11.8048 6.61728C11.8163 6.62861 11.8303 6.63501 11.8444 6.63659C12.6057 6.72167 13.3943 6.72167 14.1556 6.63659C14.1697 6.63501 14.1837 6.62861 14.1952 6.61728C14.2064 6.60621 14.2108 6.59502 14.2119 6.58553C14.3027 5.80891 14.3027 5.02436 14.2119 4.24775C14.2108 4.23825 14.2064 4.22706 14.1952 4.216C14.1837 4.20466 14.1697 4.19826 14.1556 4.19668ZM11.6639 2.58174C12.5451 2.48325 13.4549 2.48325 14.3361 2.58174C15.1078 2.66799 15.7342 3.27512 15.8259 4.05898C15.9314 4.96101 15.9314 5.87227 15.8259 6.7743C15.7342 7.55815 15.1078 8.16529 14.3361 8.25154C13.4549 8.35003 12.5451 8.35003 11.6639 8.25154C10.8922 8.16529 10.2658 7.55816 10.1741 6.7743C10.0686 5.87227 10.0686 4.96101 10.1741 4.05898C10.2658 3.27512 10.8922 2.66799 11.6639 2.58174Z" fill="#2b2b2b"/>
<path fill-rule="evenodd" clip-rule="evenodd" d="M21.7389 4.19668C20.9777 4.1116 20.189 4.1116 19.4278 4.19668C19.4136 4.19826 19.3996 4.20466 19.3881 4.216C19.3769 4.22706 19.3725 4.23825 19.3714 4.24775C19.2806 5.02436 19.2806 5.80891 19.3714 6.58553C19.3725 6.59502 19.3769 6.60621 19.3881 6.61728C19.3996 6.62861 19.4136 6.63501 19.4278 6.63659C20.189 6.72167 20.9777 6.72167 21.7389 6.63659C21.753 6.63501 21.767 6.62861 21.7785 6.61728C21.7898 6.60621 21.7941 6.59502 21.7952 6.58553C21.8861 5.80891 21.8861 5.02436 21.7952 4.24775C21.7941 4.23825 21.7898 4.22706 21.7785 4.216C21.767 4.20466 21.753 4.19826 21.7389 4.19668ZM19.2473 2.58174C20.1285 2.48325 21.0382 2.48325 21.9194 2.58174C22.6911 2.66799 23.3176 3.27512 23.4092 4.05898C23.5147 4.96101 23.5147 5.87227 23.4092 6.7743C23.3176 7.55815 22.6911 8.16529 21.9194 8.25154C21.0382 8.35003 20.1285 8.35003 19.2473 8.25154C18.4756 8.16529 17.8491 7.55816 17.7574 6.7743C17.6519 5.87227 17.6519 4.96101 17.7574 4.05898C17.8491 3.27512 18.4756 2.66799 19.2473 2.58174Z" fill="#2b2b2b"/>
<path fill-rule="evenodd" clip-rule="evenodd" d="M6.57224 11.78C5.811 11.6949 5.02234 11.6949 4.2611 11.78C4.24695 11.7816 4.23297 11.788 4.22147 11.7993C4.21024 11.8104 4.20586 11.8216 4.20475 11.8311C4.11392 12.6077 4.11392 13.3922 4.20475 14.1689C4.20586 14.1784 4.21024 14.1895 4.22147 14.2006C4.23297 14.2119 4.24695 14.2183 4.2611 14.2199C5.02234 14.305 5.811 14.305 6.57224 14.2199C6.58638 14.2183 6.60037 14.2119 6.61186 14.2006C6.62309 14.1895 6.62747 14.1784 6.62858 14.1689C6.71942 13.3922 6.71942 12.6077 6.62858 11.8311C6.62747 11.8216 6.62309 11.8104 6.61186 11.7993C6.60037 11.788 6.58638 11.7816 6.57224 11.78ZM4.0806 10.1651C4.9618 10.0666 5.87154 10.0666 6.75273 10.1651C7.52442 10.2513 8.1509 10.8585 8.24258 11.6423C8.34808 12.5443 8.34808 13.4556 8.24258 14.3576C8.1509 15.1415 7.52442 15.7486 6.75273 15.8349C5.87154 15.9334 4.9618 15.9334 4.0806 15.8349C3.30892 15.7486 2.68243 15.1415 2.59075 14.3576C2.48525 13.4556 2.48525 12.5443 2.59075 11.6423C2.68243 10.8585 3.30891 10.2513 4.0806 10.1651Z" fill="#2b2b2b"/>
<path fill-rule="evenodd" clip-rule="evenodd" d="M14.1556 11.78C13.3943 11.6949 12.6057 11.6949 11.8444 11.78C11.8303 11.7816 11.8163 11.788 11.8048 11.7993C11.7936 11.8104 11.7892 11.8216 11.7881 11.8311C11.6973 12.6077 11.6973 13.3922 11.7881 14.1689C11.7892 14.1784 11.7936 14.1895 11.8048 14.2006C11.8163 14.2119 11.8303 14.2183 11.8444 14.2199C12.6057 14.305 13.3943 14.305 14.1556 14.2199C14.1697 14.2183 14.1837 14.2119 14.1952 14.2006C14.2064 14.1895 14.2108 14.1784 14.2119 14.1689C14.3027 13.3922 14.3027 12.6077 14.2119 11.8311C14.2108 11.8216 14.2064 11.8104 14.1952 11.7993C14.1837 11.788 14.1697 11.7816 14.1556 11.78ZM11.6639 10.1651C12.5451 10.0666 13.4549 10.0666 14.3361 10.1651C15.1078 10.2513 15.7342 10.8585 15.8259 11.6423C15.9314 12.5443 15.9314 13.4556 15.8259 14.3576C15.7342 15.1415 15.1078 15.7486 14.3361 15.8349C13.4549 15.9334 12.5451 15.9334 11.6639 15.8349C10.8922 15.7486 10.2658 15.1415 10.1741 14.3576C10.0686 13.4556 10.0686 12.5443 10.1741 11.6423C10.2658 10.8585 10.8922 10.2513 11.6639 10.1651Z" fill="#2b2b2b"/>
<path fill-rule="evenodd" clip-rule="evenodd" d="M21.7389 11.78C20.9777 11.6949 20.189 11.6949 19.4278 11.78C19.4136 11.7816 19.3996 11.788 19.3881 11.7993C19.3769 11.8104 19.3725 11.8216 19.3714 11.8311C19.2806 12.6077 19.2806 13.3922 19.3714 14.1689C19.3725 14.1784 19.3769 14.1895 19.3881 14.2006C19.3996 14.2119 19.4136 14.2183 19.4278 14.2199C20.189 14.305 20.9777 14.305 21.7389 14.2199C21.753 14.2183 21.767 14.2119 21.7785 14.2006C21.7898 14.1895 21.7941 14.1784 21.7952 14.1689C21.8861 13.3922 21.8861 12.6077 21.7952 11.8311C21.7941 11.8216 21.7898 11.8104 21.7785 11.7993C21.767 11.788 21.753 11.7816 21.7389 11.78ZM19.2473 10.1651C20.1285 10.0666 21.0382 10.0666 21.9194 10.1651C22.6911 10.2513 23.3176 10.8585 23.4092 11.6423C23.5147 12.5443 23.5147 13.4556 23.4092 14.3576C23.3176 15.1415 22.6911 15.7486 21.9194 15.8349C21.0382 15.9334 20.1285 15.9334 19.2473 15.8349C18.4756 15.7486 17.8491 15.1415 17.7574 14.3576C17.6519 13.4556 17.6519 12.5443 17.7574 11.6423C17.8491 10.8585 18.4756 10.2513 19.2473 10.1651Z" fill="#2b2b2b"/>
<path fill-rule="evenodd" clip-rule="evenodd" d="M6.57224 19.3633C5.811 19.2783 5.02234 19.2783 4.2611 19.3633C4.24695 19.3649 4.23297 19.3713 4.22147 19.3827C4.21024 19.3937 4.20586 19.4049 4.20475 19.4144C4.11392 20.191 4.11392 20.9756 4.20475 21.7522C4.20586 21.7617 4.21024 21.7729 4.22147 21.7839C4.23297 21.7953 4.24695 21.8017 4.2611 21.8033C5.02234 21.8883 5.811 21.8883 6.57224 21.8033C6.58638 21.8017 6.60037 21.7953 6.61186 21.7839C6.62309 21.7729 6.62747 21.7617 6.62858 21.7522C6.71942 20.9756 6.71942 20.191 6.62858 19.4144C6.62747 19.4049 6.62309 19.3937 6.61186 19.3827C6.60037 19.3713 6.58638 19.3649 6.57224 19.3633ZM4.0806 17.7484C4.9618 17.6499 5.87154 17.6499 6.75273 17.7484C7.52442 17.8347 8.1509 18.4418 8.24258 19.2256C8.34808 20.1277 8.34808 21.0389 8.24258 21.941C8.1509 22.7248 7.52442 23.332 6.75273 23.4182C5.87154 23.5167 4.9618 23.5167 4.0806 23.4182C3.30892 23.332 2.68243 22.7248 2.59075 21.941C2.48525 21.0389 2.48525 20.1277 2.59075 19.2256C2.68243 18.4418 3.30891 17.8347 4.0806 17.7484Z" fill="#2b2b2b"/>
<path fill-rule="evenodd" clip-rule="evenodd" d="M14.1556 19.3633C13.3943 19.2783 12.6057 19.2783 11.8444 19.3633C11.8303 19.3649 11.8163 19.3713 11.8048 19.3827C11.7936 19.3937 11.7892 19.4049 11.7881 19.4144C11.6973 20.191 11.6973 20.9756 11.7881 21.7522C11.7892 21.7617 11.7936 21.7729 11.8048 21.7839C11.8163 21.7953 11.8303 21.8017 11.8444 21.8033C12.6057 21.8883 13.3943 21.8883 14.1556 21.8033C14.1697 21.8017 14.1837 21.7953 14.1952 21.7839C14.2064 21.7729 14.2108 21.7617 14.2119 21.7522C14.3027 20.9756 14.3027 20.191 14.2119 19.4144C14.2108 19.4049 14.2064 19.3937 14.1952 19.3827C14.1837 19.3713 14.1697 19.3649 14.1556 19.3633ZM11.6639 17.7484C12.5451 17.6499 13.4549 17.6499 14.3361 17.7484C15.1078 17.8347 15.7342 18.4418 15.8259 19.2256C15.9314 20.1277 15.9314 21.0389 15.8259 21.941C15.7342 22.7248 15.1078 23.332 14.3361 23.4182C13.4549 23.5167 12.5451 23.5167 11.6639 23.4182C10.8922 23.332 10.2658 22.7248 10.1741 21.941C10.0686 21.0389 10.0686 20.1277 10.1741 19.2256C10.2658 18.4418 10.8922 17.8347 11.6639 17.7484Z" fill="#2b2b2b"/>
<path fill-rule="evenodd" clip-rule="evenodd" d="M21.7389 19.3633C20.9777 19.2783 20.189 19.2783 19.4278 19.3633C19.4136 19.3649 19.3996 19.3713 19.3881 19.3827C19.3769 19.3937 19.3725 19.4049 19.3714 19.4144C19.2806 20.191 19.2806 20.9756 19.3714 21.7522C19.3725 21.7617 19.3769 21.7729 19.3881 21.7839C19.3996 21.7953 19.4136 21.8017 19.4278 21.8033C20.189 21.8883 20.9777 21.8883 21.7389 21.8033C21.753 21.8017 21.767 21.7953 21.7785 21.7839C21.7898 21.7729 21.7941 21.7617 21.7952 21.7522C21.8861 20.9756 21.8861 20.191 21.7952 19.4144C21.7941 19.4049 21.7898 19.3937 21.7785 19.3827C21.767 19.3713 21.753 19.3649 21.7389 19.3633ZM19.2473 17.7484C20.1285 17.6499 21.0382 17.6499 21.9194 17.7484C22.6911 17.8347 23.3176 18.4418 23.4092 19.2256C23.5147 20.1277 23.5147 21.0389 23.4092 21.941C23.3176 22.7248 22.6911 23.332 21.9194 23.4182C21.0382 23.5167 20.1285 23.5167 19.2473 23.4182C18.4756 23.332 17.8491 22.7248 17.7574 21.941C17.6519 21.0389 17.6519 20.1277 17.7574 19.2256C17.8491 18.4418 18.4756 17.8347 19.2473 17.7484Z" fill="#2b2b2b"/>
</g>
</g>
</svg>
