<svg width="18" height="18" viewBox="0 0 18 18" fill="none" xmlns="http://www.w3.org/2000/svg">
<path d="M5.625 3.70898H12C12.6213 3.70898 13.125 4.21266 13.125 4.83398V5.95898" stroke="#10182B" stroke-width="1.4" stroke-linecap="round" stroke-linejoin="round"/>
<path d="M11.25 9.70898H6.75" stroke="#10182B" stroke-width="1.4" stroke-linecap="round" stroke-linejoin="round"/>
<path d="M9 12.709H6.75" stroke="#10182B" stroke-width="1.4" stroke-linecap="round" stroke-linejoin="round"/>
<path d="M13.8727 1.5L4.73075 1.50002C4.35803 1.50002 3.97681 1.55471 3.67553 1.77587C2.72024 2.47709 1.98404 4.04101 3.47073 5.45295C3.88816 5.8494 4.47163 5.99311 5.04519 5.99311H13.7126C14.3078 5.99311 15.375 6.07829 15.375 7.89547V13.4859C15.375 15.1505 14.0327 16.5 12.3769 16.5H5.60435C3.95165 16.5 2.74964 15.332 2.65469 13.5535L2.62958 3.87478" stroke="#10182B" stroke-width="1.4" stroke-linecap="round"/>
</svg>
