<svg width="18" height="18" viewBox="0 0 18 18" fill="none" xmlns="http://www.w3.org/2000/svg">
<path d="M6.375 9C6.99632 9 7.5 8.49632 7.5 7.875C7.5 7.25368 6.99632 6.75 6.375 6.75C5.75368 6.75 5.25 7.25368 5.25 7.875C5.25 8.49632 5.75368 9 6.375 9Z" stroke="#10182B" stroke-width="1.4" stroke-linecap="round" stroke-linejoin="round"/>
<path d="M10.875 12.75C11.4963 12.75 12 12.2463 12 11.625C12 11.0037 11.4963 10.5 10.875 10.5C10.2537 10.5 9.75 11.0037 9.75 11.625C9.75 12.2463 10.2537 12.75 10.875 12.75Z" stroke="#10182B" stroke-width="1.4" stroke-linecap="round" stroke-linejoin="round"/>
<path d="M13.875 6.75C14.4963 6.75 15 6.24632 15 5.625C15 5.00368 14.4963 4.5 13.875 4.5C13.2537 4.5 12.75 5.00368 12.75 5.625C12.75 6.24632 13.2537 6.75 13.875 6.75Z" stroke="#10182B" stroke-width="1.4" stroke-linecap="round" stroke-linejoin="round"/>
<path d="M11.5756 10.7222L13.5 6.75M7.18688 8.6763L9.90285 10.7222M2.25 14.25L5.69218 8.9094" stroke="#10182B" stroke-width="1.4" stroke-linecap="round" stroke-linejoin="round"/>
<path d="M15 15.75H6.75C4.27513 15.75 3.03769 15.75 2.26885 14.9812C1.5 14.2123 1.5 12.9748 1.5 10.5V2.25" stroke="#10182B" stroke-width="1.4" stroke-linecap="round" stroke-linejoin="round"/>
</svg>
