<svg width="18" height="18" viewBox="0 0 18 18" fill="none" xmlns="http://www.w3.org/2000/svg">
<path d="M2.25 3C2.25 1.759 2.509 1.5 3.75 1.5H6.75C7.99103 1.5 8.25 1.759 8.25 3C8.25 4.241 7.99103 4.5 6.75 4.5H3.75C2.509 4.5 2.25 4.241 2.25 3Z" stroke="#98A2B3" stroke-width="1.4"/>
<path d="M9.75 9.75C9.75 8.50897 10.009 8.25 11.25 8.25H14.25C15.491 8.25 15.75 8.50897 15.75 9.75C15.75 10.991 15.491 11.25 14.25 11.25H11.25C10.009 11.25 9.75 10.991 9.75 9.75Z" stroke="#98A2B3" stroke-width="1.4"/>
<path d="M3 15C3 13.759 3.259 13.5 4.5 13.5H7.5C8.74103 13.5 9 13.759 9 15C9 16.241 8.74103 16.5 7.5 16.5H4.5C3.259 16.5 3 16.241 3 15Z" stroke="#98A2B3" stroke-width="1.4"/>
<path d="M12.75 8.25C12.75 7.90147 12.75 7.72725 12.7212 7.58235C12.6028 6.98733 12.1377 6.52218 11.5426 6.40382C11.3977 6.375 11.2235 6.375 10.875 6.375H7.125C6.77651 6.375 6.60227 6.375 6.45737 6.34618C5.86233 6.22782 5.39718 5.76267 5.27882 5.16764C5.25 5.02274 5.25 4.84849 5.25 4.5" stroke="#98A2B3" stroke-width="1.4" stroke-linecap="round" stroke-linejoin="round"/>
<path d="M12.75 11.25V12C12.75 13.4142 12.75 14.1213 12.3106 14.5606C11.8713 15 11.1642 15 9.75 15H9" stroke="#98A2B3" stroke-width="1.4" stroke-linecap="round" stroke-linejoin="round"/>
</svg>
