<svg width="16" height="4" viewBox="0 0 16 4" fill="none" xmlns="http://www.w3.org/2000/svg">
<g clip-path="url(#clip0_16323_65905)">
<path d="M3.9625 1.85161C3.9625 2.70644 3.26894 3.4 2.41411 3.4C1.55928 3.4 0.865723 2.70644 0.865723 1.85161C0.865723 0.996776 1.55928 0.303223 2.41411 0.303223C3.26894 0.303223 3.9625 0.996776 3.9625 1.85161Z" fill="#10182B"/>
<path d="M9.57382 1.85161C9.57382 2.70644 8.88027 3.4 8.02544 3.4C7.1706 3.4 6.47705 2.70644 6.47705 1.85161C6.47705 0.996776 7.1706 0.303223 8.02544 0.303223C8.88027 0.303223 9.57382 0.996776 9.57382 1.85161Z" fill="#10182B"/>
<path d="M15.1852 1.85161C15.1852 2.70644 14.4916 3.4 13.6368 3.4C12.7819 3.4 12.0884 2.70644 12.0884 1.85161C12.0884 0.996776 12.7819 0.303223 13.6368 0.303223C14.4916 0.303223 15.1852 0.996776 15.1852 1.85161Z" fill="#10182B"/>
</g>
<defs>
<clipPath id="clip0_16323_65905">
<rect width="14.4" height="3.25161" fill="white" transform="translate(0.799805 0.200195)"/>
</clipPath>
</defs>
</svg>
