<svg width="14" height="14" viewBox="0 0 14 14" fill="none" xmlns="http://www.w3.org/2000/svg">
<path d="M5.375 8.625C5.375 7.09295 5.375 6.32693 5.85095 5.85095C6.32693 5.375 7.09295 5.375 8.625 5.375H9.16667C10.6987 5.375 11.4647 5.375 11.9407 5.85095C12.4167 6.32693 12.4167 7.09295 12.4167 8.625V9.16667C12.4167 10.6987 12.4167 11.4647 11.9407 11.9407C11.4647 12.4167 10.6987 12.4167 9.16667 12.4167H8.625C7.09295 12.4167 6.32693 12.4167 5.85095 11.9407C5.375 11.4647 5.375 10.6987 5.375 9.16667V8.625Z" stroke="#5F5F5F" stroke-width="1.125" stroke-linecap="round" stroke-linejoin="round"/>
<path d="M9.70844 5.37467C9.70714 3.77292 9.68293 2.94325 9.21666 2.37516C9.12664 2.26545 9.02605 2.16486 8.91636 2.07482C8.31706 1.58301 7.42672 1.58301 5.646 1.58301C3.86528 1.58301 2.97492 1.58301 2.37565 2.07482C2.26594 2.16485 2.16534 2.26545 2.07531 2.37516C1.5835 2.97443 1.5835 3.86479 1.5835 5.64551C1.5835 7.42624 1.5835 8.31657 2.07531 8.91587C2.16534 9.02556 2.26594 9.12615 2.37565 9.21617C2.94373 9.68244 3.77341 9.70665 5.37516 9.70795" stroke="#5F5F5F" stroke-width="1.125" stroke-linecap="round" stroke-linejoin="round"/>
</svg>
