<svg width="12" height="13" viewBox="0 0 12 13" fill="none" xmlns="http://www.w3.org/2000/svg">
<path d="M4.5 8C4.5 6.5858 4.5 5.8787 4.93934 5.43934C5.3787 5 6.0858 5 7.5 5H8C9.4142 5 10.1213 5 10.5606 5.43934C11 5.8787 11 6.5858 11 8V8.5C11 9.9142 11 10.6213 10.5606 11.0606C10.1213 11.5 9.4142 11.5 8 11.5H7.5C6.0858 11.5 5.3787 11.5 4.93934 11.0606C4.5 10.6213 4.5 9.9142 4.5 8.5V8Z" stroke="#475467" stroke-width="1.1" stroke-linecap="round" stroke-linejoin="round"/>
<path d="M8.49995 5C8.49875 3.52146 8.4764 2.7556 8.046 2.23122C7.9629 2.12995 7.87005 2.03709 7.7688 1.95398C7.2156 1.5 6.39375 1.5 4.75 1.5C3.10626 1.5 2.28439 1.5 1.73122 1.95398C1.62995 2.03708 1.53709 2.12995 1.45398 2.23122C1 2.78439 1 3.60626 1 5.25C1 6.89375 1 7.7156 1.45398 8.2688C1.53708 8.37005 1.62995 8.4629 1.73122 8.546C2.2556 8.9764 3.02146 8.99875 4.5 8.99995" stroke="#475467" stroke-width="1.1" stroke-linecap="round" stroke-linejoin="round"/>
</svg>
