<svg width="18" height="18" viewBox="0 0 18 18" fill="none" xmlns="http://www.w3.org/2000/svg">
<path d="M13.3125 7.875C15.0729 7.875 16.5 6.44791 16.5 4.6875C16.5 2.92709 15.0729 1.5 13.3125 1.5C11.5521 1.5 10.125 2.92709 10.125 4.6875C10.125 6.44791 11.5521 7.875 13.3125 7.875Z" stroke="#10182B" stroke-width="1.4"/>
<path d="M4.6875 7.875C6.44791 7.875 7.875 6.44791 7.875 4.6875C7.875 2.92709 6.44791 1.5 4.6875 1.5C2.92709 1.5 1.5 2.92709 1.5 4.6875C1.5 6.44791 2.92709 7.875 4.6875 7.875Z" stroke="#10182B" stroke-width="1.4"/>
<path d="M13.3125 16.5C15.0729 16.5 16.5 15.0729 16.5 13.3125C16.5 11.5521 15.0729 10.125 13.3125 10.125C11.5521 10.125 10.125 11.5521 10.125 13.3125C10.125 15.0729 11.5521 16.5 13.3125 16.5Z" stroke="#10182B" stroke-width="1.4"/>
<path d="M4.6875 16.5C6.44791 16.5 7.875 15.0729 7.875 13.3125C7.875 11.5521 6.44791 10.125 4.6875 10.125C2.92709 10.125 1.5 11.5521 1.5 13.3125C1.5 15.0729 2.92709 16.5 4.6875 16.5Z" stroke="#10182B" stroke-width="1.4"/>
</svg>
