<svg width="8" height="14" viewBox="0 0 8 14" fill="none" xmlns="http://www.w3.org/2000/svg">
<g id="Group 598">
<path id="Vector" fill-rule="evenodd" clip-rule="evenodd" d="M4.02066 10.8539L6.40088 8.47366C6.76639 8.1099 7.35683 8.1099 7.72235 8.47366C7.89983 8.64939 8 8.88926 8 9.13878C8 9.38919 7.89984 9.62818 7.72235 9.80478L4.68578 12.8413C4.51005 13.0179 4.27018 13.1181 4.02066 13.1181C3.77114 13.1181 3.53126 13.018 3.35554 12.8413L0.271515 9.80478C0.0966671 9.62729 -0.00173132 9.38829 2.3135e-05 9.13878C-0.00173402 8.89012 0.0966738 8.65025 0.271515 8.47366C0.637027 8.1099 1.22747 8.1099 1.59298 8.47366L4.02066 10.8539ZM4.02066 2.26422L6.40088 4.64534C6.76639 5.00822 7.35683 5.00822 7.72235 4.64534C7.89983 4.46873 8 4.22973 8 3.97934C8 3.7298 7.89984 3.48994 7.72235 3.31422L4.68578 0.277654C4.51005 0.100171 4.27018 0 4.02066 0C3.77114 0 3.53126 0.100164 3.35554 0.277654L0.271515 3.31422C0.0966671 3.49083 -0.00173132 3.7307 2.3135e-05 3.97934C-0.00173402 4.22888 0.0966738 4.46787 0.271515 4.64534C0.637027 5.00822 1.22747 5.00822 1.59298 4.64534L4.02066 2.26422Z" fill="#95989A"/>
</g>
</svg>
