<svg width="8" height="14" viewBox="0 0 8 14" fill="none" xmlns="http://www.w3.org/2000/svg">
<path fill-rule="evenodd" clip-rule="evenodd" d="M4.02066 11.2948L6.40088 8.91458C6.76639 8.55082 7.35683 8.55082 7.72235 8.91458C7.89983 9.0903 8 9.33018 8 9.5797C8 9.83011 7.89984 10.0691 7.72235 10.2457L4.68578 13.2823C4.51005 13.4589 4.27018 13.559 4.02066 13.559C3.77114 13.559 3.53126 13.4589 3.35554 13.2823L0.271515 10.2457C0.0966671 10.0682 -0.00173132 9.82921 2.3135e-05 9.5797C-0.00173402 9.33104 0.0966738 9.09117 0.271515 8.91458C0.637027 8.55082 1.22747 8.55082 1.59298 8.91458L4.02066 11.2948ZM4.02066 2.70514L6.40088 5.08626C6.76639 5.44914 7.35683 5.44914 7.72235 5.08626C7.89983 4.90965 8 4.67065 8 4.42026C8 4.17072 7.89984 3.93085 7.72235 3.75514L4.68578 0.718572C4.51005 0.541089 4.27018 0.440918 4.02066 0.440918C3.77114 0.440918 3.53126 0.541082 3.35554 0.718572L0.271515 3.75514C0.0966671 3.93174 -0.00173132 4.17162 2.3135e-05 4.42026C-0.00173402 4.6698 0.0966738 4.90879 0.271515 5.08626C0.637027 5.44914 1.22747 5.44914 1.59298 5.08626L4.02066 2.70514Z" fill="#95989A"/>
</svg>
