<svg width="14" height="13" viewBox="0 0 14 13" fill="none" xmlns="http://www.w3.org/2000/svg">
<path d="M1 2.97058H3" stroke="#95989A" stroke-width="1.2" stroke-linecap="round" stroke-linejoin="round"/>
<path d="M1 9.63721H5" stroke="#95989A" stroke-width="1.2" stroke-linecap="round" stroke-linejoin="round"/>
<path d="M11 9.63721H13" stroke="#95989A" stroke-width="1.2" stroke-linecap="round" stroke-linejoin="round"/>
<path d="M9 2.97058H13" stroke="#95989A" stroke-width="1.2" stroke-linecap="round" stroke-linejoin="round"/>
<path d="M3 2.97058C3 2.34933 3 2.0387 3.10149 1.79367C3.23682 1.46697 3.49639 1.2074 3.82309 1.07207C4.06812 0.970581 4.37875 0.970581 5 0.970581C5.62125 0.970581 5.93187 0.970581 6.17693 1.07207C6.5036 1.2074 6.7632 1.46697 6.89853 1.79367C7 2.0387 7 2.34933 7 2.97058C7 3.59183 7 3.90246 6.89853 4.14749C6.7632 4.47419 6.5036 4.73376 6.17693 4.86909C5.93187 4.97058 5.62125 4.97058 5 4.97058C4.37875 4.97058 4.06812 4.97058 3.82309 4.86909C3.49639 4.73376 3.23682 4.47419 3.10149 4.14749C3 3.90246 3 3.59183 3 2.97058Z" stroke="#95989A" stroke-width="1.2"/>
<path d="M7 9.63721C7 9.01594 7 8.70534 7.10147 8.46027C7.2368 8.13361 7.4964 7.87401 7.82307 7.73867C8.06813 7.63721 8.37873 7.63721 9 7.63721C9.62127 7.63721 9.93187 7.63721 10.1769 7.73867C10.5036 7.87401 10.7632 8.13361 10.8985 8.46027C11 8.70534 11 9.01594 11 9.63721C11 10.2585 11 10.5691 10.8985 10.8141C10.7632 11.1408 10.5036 11.4004 10.1769 11.5357C9.93187 11.6372 9.62127 11.6372 9 11.6372C8.37873 11.6372 8.06813 11.6372 7.82307 11.5357C7.4964 11.4004 7.2368 11.1408 7.10147 10.8141C7 10.5691 7 10.2585 7 9.63721Z" stroke="#95989A" stroke-width="1.2"/>
</svg>
