<svg width="19" height="19" viewBox="0 0 19 19" fill="none" xmlns="http://www.w3.org/2000/svg">
<path d="M2.63354 7.88672H10.6659" stroke="#3CA0C9" stroke-width="1.3" stroke-linecap="round" stroke-linejoin="round"/>
<path d="M13.5868 7.88672H16.5077" stroke="#3CA0C9" stroke-width="1.3" stroke-linecap="round" stroke-linejoin="round"/>
<path d="M7.745 16.6493V7.88672" stroke="#3CA0C9" stroke-width="1.3"/>
<path d="M7.745 5.69625V2.77539" stroke="#3CA0C9" stroke-width="1.3" stroke-linecap="round" stroke-linejoin="round"/>
<path d="M13.2217 13.3635C11.7612 13.3635 10.3008 14.5481 10.3008 16.6495H8.47527C5.72145 16.6495 4.34455 16.6495 3.48904 15.794C2.63355 14.9385 2.63354 13.5616 2.63354 10.8078V8.61712C2.63354 5.8633 2.63355 4.4864 3.48904 3.63089C4.34455 2.77539 5.72145 2.77539 8.47527 2.77539H10.6659C13.4197 2.77539 14.7967 2.77539 15.6521 3.63089C16.5076 4.4864 16.5076 5.8633 16.5076 8.61712V13.9792C16.5076 15.454 15.3121 16.6495 13.8374 16.6495" stroke="#3CA0C9" stroke-width="1.3" stroke-linecap="round" stroke-linejoin="round"/>
</svg>
