<svg width="48" height="48" viewBox="0 0 48 48" fill="none" xmlns="http://www.w3.org/2000/svg">
<rect width="48" height="48" rx="10.9333" fill="#3874C9"/>
<path d="M8.91936 14.408H20.8222V18.4952H13.5838V22.6448H20.2762V26.7164H13.5838V35H8.91936V14.408ZM22.8804 14.408H30.3684C31.6892 14.408 32.88 14.642 33.9408 15.11C35.0016 15.5676 35.844 16.2696 36.468 17.216C37.1024 18.152 37.4196 19.3272 37.4196 20.7416C37.4196 22.1456 37.1024 23.3416 36.468 24.3296C35.844 25.3072 35.0016 26.056 33.9408 26.576C32.88 27.0856 31.6892 27.3404 30.3684 27.3404H27.5448V35H22.8804V14.408ZM27.5448 23.6588H29.0736C29.708 23.6588 30.2748 23.5652 30.774 23.378C31.2836 23.1908 31.6892 22.8944 31.9908 22.4888C32.2924 22.0728 32.4432 21.5268 32.4432 20.8508C32.4432 20.1644 32.2924 19.6236 31.9908 19.2284C31.6892 18.8228 31.2836 18.5316 30.774 18.3548C30.2748 18.178 29.708 18.0896 29.0736 18.0896H27.5448V23.6588Z" fill="white"/>
<path d="M39.9799 35.3744C39.2103 35.3744 38.5447 35.0988 37.9831 34.5476C37.4319 33.986 37.1563 33.3204 37.1563 32.5508C37.1563 31.7604 37.4319 31.0896 37.9831 30.5384C38.5447 29.9768 39.2103 29.696 39.9799 29.696C40.7703 29.696 41.4411 29.9768 41.9923 30.5384C42.5435 31.0896 42.8191 31.7604 42.8191 32.5508C42.8191 33.3204 42.5435 33.986 41.9923 34.5476C41.4411 35.0988 40.7703 35.3744 39.9799 35.3744Z" fill="#03070D"/>
</svg>
