<svg width="14" height="15" viewBox="0 0 14 15" fill="none" xmlns="http://www.w3.org/2000/svg">
<path d="M1 7C1 4.50018 1 3.25027 1.63661 2.37405C1.84221 2.09107 2.09107 1.84221 2.37405 1.63661C3.25027 1 4.50018 1 7 1C9.4998 1 10.7497 1 11.6259 1.63661C11.9089 1.84221 12.1578 2.09107 12.3634 2.37405C13 3.25027 13 4.50018 13 7V8.33333C13 10.8331 13 12.0831 12.3634 12.9593C12.1578 13.2423 11.9089 13.4911 11.6259 13.6967C10.7497 14.3333 9.4998 14.3333 7 14.3333C4.50018 14.3333 3.25027 14.3333 2.37405 13.6967C2.09107 13.4911 1.84221 13.2423 1.63661 12.9593C1 12.0831 1 10.8331 1 8.33333V7Z" stroke="#98A2B3" stroke-width="1.2" stroke-linecap="round" stroke-linejoin="round"/>
<path d="M8.99984 6H3.6665M5.6665 9.33333H3.6665" stroke="#98A2B3" stroke-width="1.2" stroke-linecap="round" stroke-linejoin="round"/>
</svg>
