<svg width="40" height="40" viewBox="0 0 40 40" fill="none" xmlns="http://www.w3.org/2000/svg">
<rect width="40" height="40" rx="10.2222" fill="#03070D"/>
<path d="M29.2233 10.6641L29.127 10.7759L29.2233 10.68V10.6641Z" fill="#E4E7EC"/>
<path d="M10.4396 29.2726C9.37986 28.2025 8.51281 27.0845 7.87055 25.9824C7.85449 26.0623 7.85449 26.1421 7.85449 26.238C7.85449 26.5574 7.95083 26.9088 8.09534 27.2601C8.43253 28.0747 9.05873 28.9531 9.89367 29.7836L9.90973 29.7996C10.5359 30.4225 11.1942 30.9336 11.8365 31.285C12.4788 31.6363 13.105 31.8599 13.667 31.7961C12.5912 31.1732 11.4993 30.3267 10.4717 29.3045C10.4556 29.2885 10.4396 29.2726 10.4396 29.2726Z" fill="#E4E7EC"/>
<path d="M20.042 31.8116C20.058 31.8116 20.0741 31.8116 20.0741 31.8116C20.0902 31.7956 20.0902 31.7796 20.1062 31.7637C20.0902 31.7796 20.058 31.7956 20.042 31.8116Z" fill="#E4E7EC"/>
<path d="M17.6664 32.5285C16.8476 32.1611 16.0287 31.6979 15.1937 31.1389C15.0171 31.0751 14.8405 31.0112 14.6639 30.9313C13.6041 30.4841 12.4641 29.7334 11.4205 28.7272C11.3402 28.6474 11.2599 28.5835 11.1796 28.5036C11.1635 28.4877 11.1314 28.4557 11.1154 28.4397C9.84691 27.146 8.9638 25.7246 8.53028 24.4788C7.77562 23.3129 7.18153 22.1629 6.78012 21.0449C6.71589 21.2685 6.65167 21.4921 6.63561 21.7317C6.57138 22.3865 6.66772 23.1052 6.90857 23.8559C7.1173 24.5427 7.43843 25.2454 7.8559 25.9801C8.49817 27.0822 9.36522 28.2161 10.4249 29.2703C10.441 29.2862 10.441 29.2862 10.4571 29.3022C11.4847 30.3244 12.5765 31.1709 13.6523 31.7938C13.9734 31.9854 14.2946 32.1451 14.5996 32.3049C15.9805 32.9597 17.2971 33.2472 18.405 33.0076C18.4853 32.9916 18.5495 32.9597 18.6298 32.9437C18.3248 32.8 18.0036 32.6722 17.6664 32.5285Z" fill="#E4E7EC"/>
<path d="M23.6222 30.8672C23.5901 30.8992 23.558 30.9471 23.5259 30.995C23.1726 31.3464 22.7391 31.5859 22.2253 31.7297C21.6152 31.9054 20.8926 31.9373 20.0898 31.8255C20.0737 31.8255 20.0577 31.8255 20.0577 31.8255C19.3191 31.7137 18.5162 31.4901 17.6813 31.1387C15.9472 30.42 14.1007 29.1742 12.4148 27.5132C12.3827 27.4812 12.3666 27.4653 12.3345 27.4333C12.3184 27.4333 12.3184 27.4174 12.3024 27.4014C10.0866 25.1813 8.64149 22.6738 8.11162 20.5496C7.88683 19.6073 7.8226 18.7608 7.95106 18.0421C8.06345 17.3233 8.35247 16.7324 8.80205 16.3012C8.83416 16.2692 8.88233 16.2373 8.91445 16.2053C8.70571 15.4547 8.59332 14.72 8.5612 14.0332C8.09557 14.2249 7.6781 14.4804 7.32485 14.8318C6.68259 15.4547 6.32935 16.3012 6.21695 17.2275C6.10456 18.1698 6.23301 19.208 6.53808 20.294C6.61837 20.5496 6.69865 20.8051 6.79499 21.0767C7.1964 22.1947 7.79049 23.3446 8.54515 24.5105C9.34797 25.7244 10.3114 26.9382 11.4514 28.1041C11.4835 28.1361 11.5156 28.184 11.5638 28.2159C11.628 28.2798 11.6922 28.3277 11.7565 28.3916C12.8644 29.4777 14.0365 30.42 15.2086 31.1866C16.0435 31.7297 16.8624 32.1928 17.6813 32.5762C18.0185 32.7199 18.3396 32.8477 18.6608 32.9755C20.3146 33.5824 21.8881 33.806 23.1887 33.4865C23.8791 33.3268 24.5053 32.9914 24.987 32.5123C25.3403 32.1609 25.5972 31.7456 25.7738 31.2825C25.0994 31.2026 24.3608 31.0748 23.6222 30.8672Z" fill="#E4E7EC"/>
<path d="M31.1844 25.8719C31.0078 25.9358 30.8312 25.9997 30.6385 26.0476C30.2853 26.1275 29.916 26.1754 29.5306 26.1914C29.4182 27.1656 29.065 27.9802 28.4709 28.5552C28.0374 28.9864 27.5075 29.2739 26.8813 29.4496C25.4844 29.8489 23.5737 29.6093 21.5345 28.7468C19.688 27.9802 17.713 26.7025 15.8986 24.9935C15.706 24.8178 15.5133 24.6421 15.3206 24.4505C15.2243 24.3546 15.1279 24.2428 15.0155 24.147C12.6231 21.6714 11.0335 18.8924 10.4394 16.4966C10.1665 15.3786 10.0862 14.3565 10.2307 13.478C10.3752 12.5996 10.7124 11.8968 11.2583 11.3538C11.6918 10.9226 12.2217 10.6351 12.8479 10.4594C13.0888 10.3955 13.3617 10.3476 13.6347 10.3157C13.6347 10.1559 13.6507 9.98026 13.6668 9.82054C13.715 9.42125 13.8113 9.02197 13.9558 8.67059C13.2493 8.63865 12.591 8.68656 11.9809 8.83031C11.178 9.03794 10.4555 9.40528 9.87745 9.98026C9.13885 10.7149 8.72138 11.6732 8.57687 12.7593C8.5287 13.1586 8.5287 13.5898 8.54476 14.0211C8.57687 14.7078 8.68927 15.4425 8.898 16.1932C8.91406 16.2411 8.91406 16.273 8.93012 16.321C9.73294 19.1639 11.6918 22.3582 14.5499 25.2171C16.7657 27.4212 19.1742 29.0982 21.4703 30.1044C22.1928 30.4238 22.9153 30.6794 23.6058 30.871C24.3604 31.0787 25.083 31.2064 25.7734 31.2384C26.4638 31.2703 27.1382 31.2224 27.7484 31.0787C28.5512 30.871 29.2737 30.5037 29.8518 29.9287C30.8794 28.9225 31.2808 27.4851 31.1844 25.8719Z" fill="#E4E7EC"/>
<path d="M33.2379 19.5925C33.1737 19.3529 33.0934 19.1134 32.9971 18.8898C32.8686 19.1932 32.692 19.4807 32.4672 19.7043C32.2745 19.896 32.0658 20.0397 31.8249 20.1515C31.9052 20.7584 31.9213 21.3334 31.841 21.8445C31.7125 22.5632 31.4396 23.1542 30.99 23.5854C30.6367 23.9368 30.2032 24.1763 29.6894 24.3201C28.5173 24.6555 26.8956 24.4638 25.1454 23.7132C23.5077 23.0264 21.7735 21.8924 20.1679 20.3591C20.0394 20.2473 19.911 20.1196 19.7986 20.0078C19.7183 19.9279 19.638 19.8321 19.5577 19.7522C17.4704 17.5961 16.0895 15.1844 15.5918 13.124C15.367 12.1977 15.3028 11.3352 15.4312 10.6165C15.5436 9.89778 15.8326 9.30683 16.2822 8.8756C16.6355 8.52423 17.0529 8.28465 17.5828 8.14091C18.1929 7.96522 18.9315 7.93328 19.7504 8.06105C19.8628 7.82148 20.0073 7.61385 20.2 7.42219C20.4409 7.18262 20.7138 7.00693 21.0349 6.89513C19.4293 6.32015 17.9039 6.12849 16.6194 6.43195C15.929 6.59167 15.3028 6.92707 14.805 7.40622C14.4518 7.75759 14.1788 8.18882 13.9861 8.652C13.8416 9.01934 13.7453 9.40266 13.6971 9.80195C13.6811 9.96166 13.6811 10.1374 13.665 10.2971C13.6329 11.0956 13.7613 11.9581 14.0182 12.8685C14.7408 15.376 16.507 18.219 19.06 20.7744C21.0189 22.7229 23.1384 24.2083 25.1615 25.1346C26.735 25.8374 28.2283 26.2207 29.561 26.1888C29.9463 26.1728 30.3156 26.1408 30.6689 26.045C30.8615 25.9971 31.0382 25.9492 31.2148 25.8693C31.6965 25.6777 32.1139 25.4221 32.4832 25.0548C33.1255 24.4319 33.4788 23.5854 33.5911 22.659C33.6714 21.7327 33.543 20.6945 33.2379 19.5925Z" fill="#E4E7EC"/>
<path d="M32.9349 15.9016C32.6459 14.9753 32.1482 13.9851 31.4898 13.0108C31.6022 13.2823 31.6665 13.5379 31.6825 13.7774C31.7146 14.0809 31.6343 14.3684 31.4417 14.576C31.3453 14.6718 31.2329 14.7357 31.1045 14.7677C31.249 15.1031 31.3614 15.4225 31.4417 15.726C31.6022 16.3169 31.6343 16.8599 31.5701 17.3071C31.5059 17.7543 31.3293 18.0897 31.0884 18.3453C30.8957 18.5529 30.6388 18.6807 30.3177 18.7765C29.6112 18.9682 28.5836 18.8404 27.4436 18.3613C26.3036 17.8821 25.0833 17.0516 23.9593 15.9336C22.4982 14.4802 21.5348 12.8351 21.1816 11.4616C21.021 10.8706 20.9889 10.3276 21.0531 9.88037C21.1173 9.43317 21.2779 9.09777 21.5509 8.84222C21.7596 8.63459 22.0004 8.50682 22.3055 8.41099C22.9799 8.21933 23.9914 8.33113 25.0833 8.79431C25.1154 8.66654 25.1796 8.55474 25.276 8.45891C25.4205 8.31516 25.6453 8.2353 25.8701 8.21933C26.1912 8.20336 26.5284 8.29919 26.8977 8.44293C26.3357 8.05962 25.7737 7.74019 25.2278 7.48464C23.8469 6.82981 22.5303 6.54232 21.4224 6.78189C21.2779 6.81384 21.1334 6.86175 20.9889 6.92564C20.6838 7.05341 20.3948 7.2291 20.1539 7.4527C19.9613 7.64436 19.8167 7.85199 19.7044 8.09156C19.5438 8.41099 19.4314 8.76236 19.3993 9.14568C19.3351 9.80051 19.4314 10.5192 19.6722 11.2699C20.2021 12.9789 21.4063 14.8795 23.1244 16.6044C23.1404 16.6363 23.1726 16.6523 23.1886 16.6843C23.2528 16.7481 23.3171 16.7961 23.3652 16.8599C24.6658 18.1217 26.0467 19.096 27.3633 19.7188C28.7442 20.3737 30.0608 20.6612 31.1687 20.4216C31.3935 20.3737 31.5862 20.2938 31.7949 20.198C32.0358 20.0862 32.2605 19.9265 32.4372 19.7508C32.678 19.5112 32.8546 19.2397 32.967 18.9362C33.0794 18.6647 33.1437 18.3772 33.1758 18.0738C33.2721 17.371 33.1758 16.6523 32.9349 15.9016Z" fill="#E4E7EC"/>
<path d="M31.6816 13.7789C31.6655 13.5394 31.5852 13.2678 31.4889 13.0123C31.4568 12.9484 31.4247 12.8686 31.3926 12.8047C31.0393 12.0221 30.3971 11.1596 29.5621 10.3291C28.9199 9.69021 28.2615 9.17913 27.6353 8.79581C27.3784 8.65206 27.1376 8.52429 26.8967 8.42846C26.5435 8.28472 26.1902 8.18889 25.8691 8.20486C25.6443 8.22083 25.4195 8.28472 25.275 8.44443C25.1787 8.54026 25.1145 8.65206 25.0823 8.77984C25.0342 8.92358 25.0342 9.06732 25.0342 9.22704C25.0502 9.5305 25.1626 9.8659 25.3232 10.2013C25.6925 10.9839 26.3187 11.8464 27.1536 12.6769C27.1536 12.6769 27.1697 12.6769 27.1697 12.6929C27.2179 12.7408 27.25 12.7727 27.2981 12.8047C27.8922 13.3796 28.5024 13.8588 29.0804 14.1942C29.7066 14.5615 30.3007 14.8011 30.8306 14.7851C30.9109 14.7851 30.9911 14.7692 31.0714 14.7372C31.1999 14.7053 31.3283 14.6414 31.4086 14.5456C31.6495 14.3699 31.7137 14.0824 31.6816 13.7789ZM29.257 10.6166C29.257 10.6325 29.2731 10.6325 29.257 10.6166V10.6166ZM30.3971 13.2199C30.3649 13.2359 30.3489 13.2678 30.2686 13.2678C30.1241 13.2998 29.7709 13.2359 29.3373 12.9963C28.9038 12.7727 28.406 12.4054 27.9244 11.9262C27.2981 11.3033 26.8646 10.6325 26.688 10.1534C26.6077 9.94576 26.5756 9.77007 26.5917 9.65827C26.5917 9.54647 26.6238 9.49856 26.6559 9.46661C26.688 9.43467 26.7201 9.4187 26.7843 9.4187C26.9288 9.38676 27.2821 9.45064 27.7156 9.69021C28.1491 9.91382 28.6469 10.2812 29.1286 10.7603L29.2249 10.6485V10.6645L29.1286 10.7603C29.7548 11.3832 30.1883 12.054 30.3649 12.5331C30.4452 12.7408 30.4773 12.9165 30.4613 13.0283C30.4613 13.1401 30.4292 13.188 30.3971 13.2199Z" fill="#E4E7EC"/>
</svg>
