<svg width="12" height="13" viewBox="0 0 12 13" fill="none" xmlns="http://www.w3.org/2000/svg">
<path d="M4.25 9.5C5.15675 8.52315 6.8335 8.47715 7.75 9.5M6.9703 6.5C6.9703 7.0523 6.5344 7.5 5.9967 7.5C5.459 7.5 5.0231 7.0523 5.0231 6.5C5.0231 5.9477 5.459 5.5 5.9967 5.5C6.5344 5.5 6.9703 5.9477 6.9703 6.5Z" stroke="#10182B" stroke-width="1.1" stroke-linecap="round"/>
<path d="M4.75 2.5C3.4278 2.50493 2.7205 2.55116 2.26256 2.985C1.75 3.47059 1.75 4.25212 1.75 5.81522V8.18363C1.75 9.74673 1.75 10.5282 2.26256 11.0138C2.77512 11.4994 3.60009 11.4994 5.25 11.4994H6.75C8.3999 11.4994 9.22485 11.4994 9.73745 11.0138C10.25 10.5282 10.25 9.74673 10.25 8.18363V5.81522C10.25 4.25212 10.25 3.47059 9.73745 2.985C9.2795 2.55116 8.5722 2.50493 7.25 2.5" stroke="#10182B" stroke-width="1.1" stroke-linecap="round" stroke-linejoin="round"/>
<path d="M4.88608 2.31581C4.93405 2.10841 4.95804 2.00471 5.0041 1.92002C5.11145 1.72273 5.3094 1.57774 5.5457 1.52335C5.64715 1.5 5.7648 1.5 6 1.5C6.2352 1.5 6.35285 1.5 6.4543 1.52335C6.6906 1.57774 6.88855 1.72272 6.9959 1.92002C7.04195 2.00471 7.06595 2.10841 7.1139 2.31581L7.15555 2.49588C7.24065 2.86372 7.2832 3.04764 7.219 3.18912C7.17745 3.28075 7.1066 3.35921 7.0155 3.41456C6.8748 3.5 6.6662 3.5 6.24905 3.5H5.75095C5.3338 3.5 5.1252 3.5 4.9845 3.41456C4.89338 3.35921 4.82255 3.28075 4.78098 3.18912C4.7168 3.04764 4.75934 2.86372 4.84443 2.49588L4.88608 2.31581Z" stroke="#10182B" stroke-width="1.1"/>
</svg>
