<svg width="46" height="46" viewBox="0 0 46 46" fill="none" xmlns="http://www.w3.org/2000/svg">
<rect width="46" height="46" rx="10.2222" fill="#03070D"/>
<path d="M33.8813 12.0312L33.7705 12.1598L33.8813 12.0496V12.0312Z" fill="#3CA0C9"/>
<path d="M12.7857 33.4301C11.5959 32.1995 10.6224 30.9138 9.90133 29.6465C9.8833 29.7383 9.8833 29.8302 9.8833 29.9404C9.8833 30.3077 9.99147 30.7118 10.1537 31.1159C10.5323 32.0526 11.2354 33.0628 12.1728 34.0179L12.1908 34.0363C12.8939 34.7526 13.633 35.3403 14.3541 35.7444C15.0752 36.1485 15.7783 36.4056 16.4092 36.3322C15.2014 35.6158 13.9755 34.6424 12.8218 33.4669C12.8037 33.4485 12.7857 33.4301 12.7857 33.4301Z" fill="#3CA0C9"/>
<path d="M23.5669 36.35C23.5854 36.35 23.6038 36.35 23.6038 36.35C23.6223 36.3317 23.6223 36.3133 23.6408 36.2949C23.6223 36.3133 23.5854 36.3317 23.5669 36.35Z" fill="#3CA0C9"/>
<path d="M20.8983 37.1768C19.9789 36.7543 19.0595 36.2217 18.1221 35.5788C17.9238 35.5054 17.7255 35.4319 17.5272 35.34C16.3374 34.8258 15.0574 33.9625 13.8857 32.8054C13.7955 32.7135 13.7054 32.6401 13.6152 32.5482C13.5972 32.5299 13.5612 32.4931 13.5431 32.4747C12.119 30.987 11.1275 29.3523 10.6407 27.9197C9.79343 26.5789 9.12641 25.2564 8.67573 23.9707C8.60362 24.2278 8.53151 24.485 8.51348 24.7605C8.44137 25.5136 8.54953 26.3401 8.81994 27.2033C9.0543 27.9931 9.41485 28.8013 9.88356 29.6462C10.6047 30.9135 11.5781 32.2176 12.768 33.4298C12.786 33.4482 12.786 33.4482 12.804 33.4666C13.9578 34.6421 15.1836 35.6156 16.3915 36.3319C16.752 36.5523 17.1126 36.736 17.4551 36.9196C19.0054 37.6727 20.4837 38.0033 21.7276 37.7278C21.8177 37.7094 21.8898 37.6727 21.98 37.6543C21.6375 37.489 21.2769 37.3421 20.8983 37.1768Z" fill="#3CA0C9"/>
<path d="M27.5869 35.2654C27.5508 35.3021 27.5148 35.3572 27.4787 35.4123C27.0821 35.8164 26.5954 36.0919 26.0185 36.2572C25.3334 36.4592 24.5222 36.496 23.6208 36.3674C23.6028 36.3674 23.5848 36.3674 23.5848 36.3674C22.7555 36.2388 21.8541 35.9817 20.9167 35.5776C18.9698 34.7511 16.8966 33.3184 15.0037 31.4082C14.9677 31.3715 14.9496 31.3531 14.9136 31.3164C14.8956 31.3164 14.8956 31.298 14.8775 31.2797C12.3897 28.7266 10.7673 25.8429 10.1724 23.4001C9.91998 22.3164 9.84787 21.343 9.99209 20.5164C10.1183 19.6899 10.4428 19.0103 10.9475 18.5144C10.9836 18.4777 11.0377 18.4409 11.0737 18.4042C10.8394 17.5409 10.7132 16.696 10.6771 15.9062C10.1543 16.1267 9.68563 16.4205 9.28902 16.8246C8.56792 17.5409 8.17132 18.5144 8.04513 19.5797C7.91894 20.6634 8.06316 21.8572 8.40568 23.1062C8.49581 23.4001 8.58595 23.694 8.69412 24.0062C9.1448 25.2919 9.81182 26.6144 10.6591 27.9552C11.5605 29.3511 12.6421 30.747 13.9221 32.0878C13.9581 32.1246 13.9942 32.1797 14.0483 32.2164C14.1204 32.2899 14.1925 32.345 14.2646 32.4184C15.5085 33.6674 16.8245 34.7511 18.1405 35.6327C19.0779 36.2572 19.9973 36.7898 20.9167 37.2307C21.2953 37.396 21.6558 37.5429 22.0164 37.6898C23.8732 38.3878 25.6399 38.6449 27.1001 38.2776C27.8753 38.0939 28.5784 37.7082 29.1192 37.1572C29.5158 36.7531 29.8042 36.2756 30.0025 35.7429C29.2454 35.6511 28.4161 35.5041 27.5869 35.2654Z" fill="#3CA0C9"/>
<path d="M36.0789 29.519C35.8806 29.5925 35.6823 29.6659 35.4659 29.721C35.0693 29.8129 34.6547 29.868 34.2221 29.8863C34.0959 31.0067 33.6993 31.9435 33.0322 32.6047C32.5455 33.1006 31.9506 33.4312 31.2475 33.6333C29.6791 34.0924 27.5339 33.8169 25.2444 32.8251C23.1712 31.9435 20.9539 30.4741 18.9168 28.5088C18.7004 28.3068 18.4841 28.1047 18.2678 27.8843C18.1596 27.7741 18.0514 27.6455 17.9253 27.5353C15.2392 24.6884 13.4544 21.4925 12.7874 18.7374C12.481 17.4517 12.3908 16.2762 12.5531 15.266C12.7153 14.2558 13.0939 13.4476 13.7068 12.8231C14.1936 12.3272 14.7885 11.9966 15.4915 11.7946C15.762 11.7211 16.0684 11.666 16.3749 11.6293C16.3749 11.4456 16.3929 11.2436 16.4109 11.0599C16.465 10.6007 16.5732 10.1415 16.7354 9.73744C15.9422 9.70071 15.2031 9.75581 14.5181 9.92111C13.6167 10.1599 12.8055 10.5823 12.1565 11.2436C11.3272 12.0885 10.8585 13.1905 10.6963 14.4395C10.6422 14.8986 10.6422 15.3946 10.6602 15.8905C10.6963 16.6803 10.8224 17.5252 11.0568 18.3884C11.0748 18.4435 11.0748 18.4803 11.0929 18.5354C11.9942 21.8047 14.1936 25.4782 17.4025 28.7659C19.8902 31.3006 22.5944 33.2292 25.1723 34.3863C25.9835 34.7537 26.7948 35.0475 27.5699 35.268C28.4172 35.5067 29.2285 35.6537 30.0036 35.6904C30.7788 35.7271 31.536 35.672 32.221 35.5067C33.1224 35.2679 33.9336 34.8455 34.5826 34.1843C35.7364 33.0271 36.187 31.3741 36.0789 29.519Z" fill="#3CA0C9"/>
<path d="M38.3862 22.299C38.3141 22.0234 38.2239 21.7479 38.1157 21.4908C37.9715 21.8398 37.7732 22.1704 37.5208 22.4275C37.3045 22.6479 37.0702 22.8132 36.7997 22.9418C36.8899 23.6398 36.9079 24.301 36.8178 24.8887C36.6736 25.7153 36.3671 26.3949 35.8623 26.8908C35.4657 27.2949 34.979 27.5704 34.4021 27.7357C33.0861 28.1214 31.2653 27.901 29.3003 27.0377C27.4615 26.2479 25.5146 24.9438 23.7118 23.1806C23.5676 23.052 23.4234 22.9051 23.2972 22.7765C23.2071 22.6847 23.1169 22.5745 23.0268 22.4826C20.6832 20.003 19.1329 17.2296 18.574 14.8602C18.3216 13.7949 18.2495 12.8031 18.3937 11.9766C18.5199 11.15 18.8444 10.4704 19.3492 9.97452C19.7458 9.57044 20.2145 9.29493 20.8094 9.12962C21.4945 8.92758 22.3237 8.89085 23.2431 9.03779C23.3693 8.76228 23.5316 8.5235 23.7479 8.3031C24.0183 8.02759 24.3248 7.82555 24.6853 7.69698C22.8826 7.03575 21.17 6.81535 19.7278 7.16432C18.9526 7.348 18.2495 7.73371 17.6907 8.28473C17.2941 8.68881 16.9876 9.18472 16.7713 9.71738C16.609 10.1398 16.5009 10.5806 16.4468 11.0398C16.4287 11.2235 16.4287 11.4255 16.4107 11.6092C16.3747 12.5276 16.5189 13.5194 16.8073 14.5663C17.6186 17.45 19.6016 20.7194 22.4679 23.6581C24.6673 25.8989 27.0469 27.6071 29.3184 28.6724C31.085 29.4806 32.7616 29.9214 34.2579 29.8846C34.6905 29.8663 35.1052 29.8295 35.5018 29.7193C35.7181 29.6642 35.9164 29.6091 36.1147 29.5173C36.6555 29.2969 37.1242 29.003 37.5389 28.5806C38.26 27.8642 38.6566 26.8908 38.7828 25.8255C38.8729 24.7602 38.7287 23.5663 38.3862 22.299Z" fill="#3CA0C9"/>
<path d="M38.0436 18.0546C37.7191 16.9893 37.1603 15.8505 36.4211 14.7301C36.5473 15.0424 36.6194 15.3363 36.6375 15.6118C36.6735 15.9607 36.5834 16.2914 36.3671 16.5301C36.2589 16.6403 36.1327 16.7138 35.9885 16.7505C36.1507 17.1363 36.2769 17.5036 36.3671 17.8526C36.5473 18.5322 36.5834 19.1567 36.5113 19.6709C36.4392 20.1852 36.2409 20.5709 35.9705 20.8648C35.7541 21.1036 35.4657 21.2505 35.1051 21.3607C34.3119 21.5811 33.1582 21.4342 31.8782 20.8832C30.5983 20.3322 29.2282 19.3771 27.9663 18.0913C26.3258 16.4199 25.2441 14.5281 24.8475 12.9485C24.6673 12.2689 24.6312 11.6444 24.7033 11.1302C24.7754 10.6159 24.9557 10.2302 25.2622 9.93628C25.4965 9.69751 25.7669 9.55057 26.1095 9.44036C26.8666 9.21996 28.0023 9.34853 29.2282 9.88118C29.2643 9.73424 29.3364 9.60567 29.4445 9.49547C29.6068 9.33016 29.8592 9.23832 30.1115 9.21996C30.4721 9.20159 30.8507 9.31179 31.2653 9.4771C30.6343 9.03628 30.0034 8.66894 29.3904 8.37506C27.8401 7.622 26.3618 7.29139 25.1179 7.5669C24.9557 7.60364 24.7934 7.65874 24.6312 7.73221C24.2887 7.87915 23.9642 8.08119 23.6938 8.33833C23.4774 8.55873 23.3152 8.79751 23.189 9.07302C23.0087 9.44036 22.8825 9.84444 22.8465 10.2853C22.7744 11.0383 22.8825 11.8648 23.153 12.7281C23.7479 14.6934 25.0999 16.8791 27.0289 18.8628C27.0469 18.8995 27.0829 18.9179 27.101 18.9546C27.1731 19.0281 27.2452 19.0832 27.2993 19.1566C28.7595 20.6077 30.3098 21.7281 31.7881 22.4444C33.3385 23.1975 34.8167 23.5281 36.0606 23.2526C36.313 23.1975 36.5293 23.1056 36.7637 22.9954C37.0341 22.8668 37.2865 22.6832 37.4848 22.4811C37.7552 22.2056 37.9535 21.8934 38.0797 21.5444C38.2059 21.2322 38.278 20.9015 38.314 20.5526C38.4222 19.7444 38.314 18.9179 38.0436 18.0546Z" fill="#3CA0C9"/>
<path d="M36.6382 15.6133C36.6201 15.3378 36.53 15.0256 36.4218 14.7317C36.3858 14.6582 36.3497 14.5664 36.3137 14.4929C35.9171 13.5929 35.196 12.6011 34.2585 11.646C33.5374 10.9113 32.7983 10.3236 32.0952 9.88276C31.8068 9.71745 31.5364 9.57051 31.266 9.46031C30.8694 9.295 30.4728 9.1848 30.1122 9.20317C29.8598 9.22153 29.6075 9.295 29.4452 9.47868C29.3371 9.58888 29.2649 9.71745 29.2289 9.86439C29.1748 10.0297 29.1748 10.195 29.1748 10.3787C29.1928 10.7277 29.319 11.1134 29.4993 11.4991C29.9139 12.3991 30.617 13.3909 31.5544 14.346C31.5544 14.346 31.5725 14.346 31.5725 14.3644C31.6265 14.4195 31.6626 14.4562 31.7167 14.4929C32.3837 15.1542 33.0687 15.7052 33.7177 16.0909C34.4208 16.5133 35.0878 16.7889 35.6827 16.7705C35.7728 16.7705 35.863 16.7521 35.9531 16.7154C36.0973 16.6786 36.2416 16.6052 36.3317 16.495C36.6021 16.2929 36.6742 15.9623 36.6382 15.6133ZM33.916 11.9766C33.916 11.995 33.934 11.995 33.916 11.9766V11.9766ZM35.196 14.9705C35.1599 14.9889 35.1419 15.0256 35.0517 15.0256C34.8895 15.0623 34.4929 14.9889 34.0062 14.7133C33.5194 14.4562 32.9606 14.0338 32.4197 13.4827C31.7167 12.7664 31.2299 11.995 31.0316 11.444C30.9415 11.2052 30.9054 11.0032 30.9235 10.8746C30.9235 10.746 30.9595 10.6909 30.9956 10.6542C31.0316 10.6174 31.0677 10.5991 31.1398 10.5991C31.302 10.5623 31.6986 10.6358 32.1854 10.9113C32.6721 11.1685 33.231 11.5909 33.7718 12.1419L33.88 12.0134V12.0317L33.7718 12.1419C34.4749 12.8583 34.9616 13.6297 35.1599 14.1807C35.25 14.4195 35.2861 14.6215 35.2681 14.7501C35.2681 14.8787 35.232 14.9338 35.196 14.9705Z" fill="#3CA0C9"/>
</svg>
