<svg width="24" height="24" viewBox="0 0 24 24" fill="none" xmlns="http://www.w3.org/2000/svg">
<path d="M11 22C10.1818 22 9.40019 21.6698 7.83693 21.0095C3.94564 19.3657 2 18.5438 2 17.1613C2 16.7742 2 10.0645 2 7M11 22V11.3548M11 22C11.3404 22 11.6463 21.9428 12 21.8285M20 7V11.5" stroke="#2B2B2B" stroke-width="1.5" stroke-linecap="round" stroke-linejoin="round"/>
<path d="M7.32592 9.69138L4.40472 8.27785C2.80157 7.5021 2 7.11423 2 6.5C2 5.88577 2.80157 5.4979 4.40472 4.72215L7.32592 3.30862C9.12883 2.43621 10.0303 2 11 2C11.9697 2 12.8712 2.4362 14.6741 3.30862L17.5953 4.72215C19.1984 5.4979 20 5.88577 20 6.5C20 7.11423 19.1984 7.5021 17.5953 8.27785L14.6741 9.69138C12.8712 10.5638 11.9697 11 11 11C10.0303 11 9.12883 10.5638 7.32592 9.69138Z" stroke="#2B2B2B" stroke-width="1.5" stroke-linecap="round" stroke-linejoin="round"/>
<path d="M5 12L7 13" stroke="#2B2B2B" stroke-width="1.5" stroke-linecap="round" stroke-linejoin="round"/>
<path d="M16 4L6 9" stroke="#2B2B2B" stroke-width="1.5" stroke-linecap="round" stroke-linejoin="round"/>
<path d="M18.5 14V15.5" stroke="#2B2B2B" stroke-width="1.5" stroke-linecap="round"/>
<path d="M18.5 21.5V23" stroke="#2B2B2B" stroke-width="1.5" stroke-linecap="round"/>
<path d="M23 18.5H21.5" stroke="#2B2B2B" stroke-width="1.5" stroke-linecap="round"/>
<path d="M15.5 18.5H14" stroke="#2B2B2B" stroke-width="1.5" stroke-linecap="round"/>
<path d="M21.6817 15.3203L20.6211 16.381" stroke="#2B2B2B" stroke-width="1.5" stroke-linecap="round"/>
<path d="M16.379 20.6211L15.3184 21.6817" stroke="#2B2B2B" stroke-width="1.5" stroke-linecap="round"/>
<path d="M21.6817 21.6817L20.6211 20.6211" stroke="#2B2B2B" stroke-width="1.5" stroke-linecap="round"/>
<path d="M16.379 16.381L15.3184 15.3203" stroke="#2B2B2B" stroke-width="1.5" stroke-linecap="round"/>
</svg>
