<svg width="215" height="48" viewBox="0 0 215 48" fill="none" xmlns="http://www.w3.org/2000/svg">
<path d="M55.3633 15.043H57.0721C57.2171 15.043 57.3558 15.0494 57.4882 15.0559C57.6206 15.0623 57.7215 15.1138 57.7846 15.2104C57.8476 15.307 57.8855 15.4294 57.8918 15.5775C57.8981 15.7256 57.9044 15.8866 57.9044 16.067V17.8316V24.8644V28.1876C57.9044 28.3615 57.9044 28.5611 57.917 28.7736C57.9233 28.9926 57.8918 29.1536 57.8287 29.2631C57.7783 29.3597 57.6585 29.4305 57.4693 29.4885C57.3747 29.5143 57.2802 29.5207 57.173 29.5078C57.0658 29.4949 56.9586 29.4885 56.8577 29.4885H55.6849C55.5399 29.4885 55.4012 29.4821 55.275 29.4692C55.1489 29.4563 55.0481 29.4177 54.9661 29.3468C54.8967 29.2824 54.8589 29.1794 54.8463 29.0441C54.8337 28.9089 54.8274 28.7672 54.8274 28.6191V26.8544V19.4417V16.4856C54.8274 16.2988 54.8211 16.0734 54.8148 15.8158C54.8085 15.5582 54.84 15.3779 54.903 15.2684C54.9535 15.1847 55.0417 15.1203 55.1616 15.0687C55.1994 15.0687 55.2372 15.0687 55.2687 15.0559C55.3066 15.0494 55.3381 15.043 55.3633 15.043Z" fill="#10182B"/>
<path d="M66.2132 18.7512C67.0077 18.7254 67.6698 18.8413 68.1994 19.0925C68.7291 19.3501 69.1452 19.7301 69.4479 20.226C69.5425 20.3741 69.6118 20.5351 69.6686 20.7026C69.719 20.87 69.7758 21.0439 69.8262 21.2178C69.8514 21.3273 69.8704 21.4303 69.8767 21.5205C69.883 21.6171 69.9019 21.7072 69.9271 21.8038C69.9271 21.8876 69.9334 21.9391 69.946 21.9648C69.9712 22.1516 69.9839 22.3513 69.9839 22.5509C69.9839 22.7506 69.9839 22.9502 69.9839 23.137V24.9403V28.2248C69.9839 28.4824 69.9776 28.7271 69.9712 28.9654C69.9649 29.2037 69.8704 29.3518 69.6812 29.4227C69.5992 29.4484 69.511 29.4613 69.4038 29.4613C69.2966 29.4613 69.1894 29.4613 69.0885 29.4613H68.0166C67.8589 29.4613 67.7139 29.4484 67.5878 29.4291C67.4617 29.4098 67.3671 29.3518 67.2978 29.2552C67.2473 29.1715 67.2158 29.0685 67.2095 28.9397C67.2032 28.8109 67.1969 28.6756 67.1969 28.521V27.1042V24.0837C67.1969 23.5814 67.178 23.1241 67.1401 22.6926C67.1023 22.2611 66.9825 21.9069 66.7807 21.6106C66.5979 21.3401 66.3267 21.1534 65.9673 21.0439C65.898 21.0181 65.8286 21.0053 65.7593 21.0053C65.6836 21.0053 65.6079 20.9924 65.5323 20.9666C65.4629 20.9537 65.3809 20.9473 65.2864 20.9537C65.1855 20.9602 65.1098 20.9731 65.0594 20.9859C65.0089 20.9988 64.9585 21.0053 64.9206 21.0053C64.8828 21.0053 64.8387 21.0117 64.8008 21.0246C64.4982 21.1083 64.2523 21.2113 64.0694 21.3466C63.647 21.6557 63.3947 22.113 63.3128 22.7055C63.2308 23.298 63.193 23.9678 63.193 24.7148V27.2459V28.4824C63.193 28.6048 63.193 28.7271 63.193 28.8495C63.193 28.9719 63.1741 29.0749 63.1362 29.1522C63.0669 29.3003 62.966 29.3905 62.821 29.4162C62.6759 29.442 62.4994 29.4549 62.285 29.4549H61.2951C61.15 29.4549 61.005 29.4484 60.86 29.4356C60.715 29.4227 60.6078 29.3776 60.5447 29.2939C60.4501 29.1715 60.406 28.9976 60.4186 28.7658C60.4249 28.5339 60.4312 28.3214 60.4312 28.1153V25.3589V20.9022V19.8718C60.4312 19.7236 60.4312 19.5884 60.4438 19.466C60.4501 19.3437 60.488 19.2406 60.551 19.1633C60.5762 19.1247 60.6204 19.0925 60.6771 19.0732C60.7339 19.0538 60.7969 19.0345 60.8663 19.0216H60.9672C61.0302 19.0088 61.0996 19.0023 61.1753 19.0023C61.2509 19.0023 61.3203 19.0023 61.3833 19.0023H62.2156C62.3228 19.0023 62.4237 19.0088 62.5246 19.0152C62.6255 19.0216 62.7138 19.041 62.7894 19.0667C62.884 19.1054 62.9471 19.1698 62.9786 19.2471C63.0101 19.3308 63.0416 19.4209 63.0669 19.5304C63.0795 19.582 63.0858 19.6335 63.0795 19.6721C63.0732 19.7108 63.0795 19.7558 63.111 19.7945C63.1362 19.8653 63.1614 19.904 63.1804 19.9168C63.1993 19.9297 63.2308 19.949 63.2686 19.9748C63.4137 19.9877 63.5335 19.9362 63.628 19.8202C63.7226 19.7043 63.8172 19.6142 63.9244 19.5497C64.2838 19.2793 64.681 19.0603 65.1161 18.8993C65.2359 18.8606 65.3557 18.8349 65.4818 18.8156C65.6079 18.8027 65.7403 18.7834 65.8917 18.7576C65.9295 18.7447 65.9926 18.7383 66.0682 18.7447C66.1313 18.7705 66.188 18.764 66.2132 18.7512Z" fill="#10182B"/>
<path d="M82.1663 28.3166C82.1663 28.5033 82.1663 28.6901 82.1663 28.8769C82.1663 29.0637 82.1284 29.2053 82.0465 29.3148C81.9771 29.3857 81.8951 29.4243 81.7879 29.4436C81.6808 29.4629 81.561 29.4758 81.4285 29.4758H80.3377C80.2053 29.4758 80.0855 29.4758 79.972 29.4629C79.8585 29.4565 79.7702 29.4243 79.7072 29.3728C79.6126 29.3084 79.5622 29.2182 79.5495 29.1087C79.5369 28.9992 79.5117 28.8898 79.4676 28.7867C79.4423 28.761 79.4171 28.7352 79.3982 28.7159C79.3793 28.6966 79.3541 28.6708 79.3289 28.645C79.1838 28.645 79.0766 28.6772 79.0136 28.7481C78.9442 28.8189 78.8812 28.8833 78.8181 28.9477C78.7235 29.0186 78.6416 29.0701 78.5596 29.1216C78.4776 29.1667 78.3957 29.2247 78.3011 29.2955C78.2506 29.3213 78.1939 29.347 78.1308 29.3792C78.0741 29.405 78.011 29.4307 77.9417 29.4629C77.7588 29.5273 77.557 29.5918 77.349 29.6433C77.2796 29.669 77.2229 29.6819 77.1724 29.6819C77.122 29.6819 77.0652 29.6884 77.0148 29.7012C76.9454 29.7012 76.895 29.7012 76.8445 29.7141C76.8004 29.7206 76.7437 29.727 76.6743 29.727H76.4977C76.4158 29.7528 76.3023 29.7656 76.1383 29.7592C75.9807 29.7528 75.8672 29.7334 75.8041 29.7077C75.7096 29.6819 75.6276 29.669 75.5582 29.6755C75.4826 29.6819 75.4069 29.669 75.3312 29.6433C75.1736 29.5918 75.016 29.5402 74.8647 29.4887C74.7133 29.4436 74.562 29.3857 74.417 29.3148C73.9567 29.1152 73.5405 28.7996 73.1748 28.3745C72.8091 27.9495 72.5254 27.4987 72.311 27.0285C72.2416 26.8804 72.1912 26.7323 72.1533 26.5906C72.1155 26.4489 72.0651 26.3008 72.0146 26.1526C72.002 26.1011 71.9957 26.0496 71.9957 25.9981C71.9957 25.953 71.9831 25.895 71.9579 25.8242C71.9327 25.7147 71.9074 25.5988 71.8885 25.47C71.8696 25.3412 71.8444 25.2124 71.8192 25.0771C71.8065 25.0385 71.8002 24.987 71.8065 24.9354C71.8129 24.8839 71.8065 24.8324 71.7939 24.7937C71.7939 24.7293 71.7939 24.6649 71.7939 24.6005C71.7939 24.5426 71.7876 24.4782 71.775 24.4073C71.7624 24.3429 71.7561 24.2592 71.7561 24.1755C71.7561 24.0853 71.7624 24.0145 71.775 23.963C71.7876 23.8986 71.7939 23.8341 71.7939 23.7697C71.7939 23.7118 71.7939 23.6474 71.7939 23.5765C71.8065 23.5121 71.8129 23.4477 71.8065 23.3833C71.8002 23.3254 71.8065 23.261 71.8381 23.1901C71.8633 23.042 71.8885 22.9003 71.9074 22.7651C71.9263 22.6298 71.9579 22.4946 71.9957 22.3593C72.0462 22.1983 72.0966 22.0438 72.1344 21.8956C72.1723 21.7475 72.229 21.5994 72.2921 21.4512C72.4749 21.0455 72.7082 20.6591 72.9857 20.2984C73.0109 20.2598 73.0487 20.2212 73.0928 20.189C73.137 20.1568 73.1748 20.1181 73.2 20.0795C73.2505 20.0151 73.3072 19.9507 73.3577 19.8991C73.4081 19.8476 73.4712 19.7897 73.5342 19.7381C73.5847 19.7124 73.6351 19.6737 73.6729 19.6287C73.7108 19.5836 73.7612 19.5449 73.8117 19.5192C74.1395 19.2873 74.5242 19.1005 74.9592 18.9524C75.0538 18.9267 75.1484 18.9073 75.2493 18.8945C75.3502 18.8816 75.4511 18.8623 75.5582 18.8365C75.6528 18.8107 75.7726 18.7914 75.9176 18.785C76.0627 18.7785 76.2077 18.7721 76.3527 18.7721C76.4977 18.7721 76.6428 18.7785 76.7815 18.7914C76.9202 18.8043 77.0337 18.8236 77.1283 18.8494C77.3237 18.9202 77.5192 18.9782 77.7021 19.0297C77.8849 19.0812 78.0615 19.1585 78.2191 19.2551C78.3137 19.326 78.3957 19.3839 78.4776 19.4483C78.5596 19.5063 78.6416 19.5707 78.7361 19.6415C78.7866 19.6802 78.8623 19.7381 78.9631 19.8025C79.064 19.8734 79.1586 19.8734 79.2532 19.8025C79.3036 19.7768 79.3352 19.7253 79.3352 19.6609C79.3352 19.5964 79.3478 19.5256 79.373 19.4612V19.2616C79.3856 19.2229 79.3919 19.1714 79.3919 19.1199C79.3919 19.0683 79.3919 19.0104 79.3919 18.9589V16.2024C79.3919 16.0543 79.3856 15.8869 79.3793 15.7065C79.373 15.5262 79.4045 15.3845 79.4676 15.2879C79.518 15.1784 79.6189 15.114 79.7639 15.0883C79.7891 15.0754 79.8144 15.0689 79.8459 15.0754C79.8711 15.0818 79.8963 15.0818 79.9279 15.0625H81.334C81.4916 15.0625 81.6366 15.0689 81.769 15.0818C81.9014 15.0947 82.0023 15.1527 82.0654 15.2428C82.1284 15.3523 82.1663 15.4876 82.1663 15.655C82.1663 15.8224 82.1663 15.9899 82.1663 16.1509V28.3166ZM79.4676 24.3494C79.4802 24.2978 79.4865 24.2399 79.4802 24.1755C79.4739 24.1175 79.4676 24.0596 79.4676 24.0016C79.4676 23.8664 79.4613 23.7311 79.4487 23.5959C79.436 23.4606 79.4171 23.3382 79.3919 23.2288C79.3667 23.0806 79.3415 22.9454 79.3225 22.823C79.3036 22.7007 79.2658 22.5847 79.2154 22.4817C79.0325 21.9922 78.7614 21.6123 78.4146 21.3289C78.0615 21.0455 77.557 20.9038 76.895 20.9038C76.813 20.9038 76.7121 20.9167 76.5797 20.9425C76.4725 20.9682 76.3779 20.994 76.2897 21.0133C76.2014 21.0326 76.1194 21.0648 76.0438 21.1035C75.6843 21.2516 75.4069 21.4835 75.2114 21.7926C75.016 22.1017 74.852 22.4559 74.7322 22.8488C74.6944 22.984 74.6629 23.1193 74.6503 23.2545C74.6377 23.3898 74.6124 23.5315 74.5683 23.6796V23.963C74.5431 24.0853 74.5368 24.2528 74.5494 24.4589C74.562 24.6714 74.5809 24.8195 74.6061 24.9161C74.6061 24.9548 74.6061 24.9934 74.6187 25.0256C74.625 25.0578 74.6314 25.09 74.6314 25.1158C74.6566 25.2252 74.6818 25.3283 74.7007 25.4185C74.7196 25.5151 74.7448 25.6117 74.7701 25.7212C74.9971 26.4231 75.3754 26.9448 75.9176 27.2797C76.0879 27.4021 76.3275 27.4987 76.6302 27.5631C76.6806 27.5759 76.7626 27.5824 76.8698 27.5824C76.9076 27.5953 76.9706 27.6081 77.0589 27.6146C77.1472 27.621 77.2166 27.621 77.267 27.6017C77.3742 27.5759 77.4814 27.5566 77.5823 27.5437C77.6895 27.5309 77.7966 27.5051 77.8975 27.46C78.2254 27.3119 78.4902 27.1251 78.692 26.8933C78.8875 26.6614 79.064 26.3716 79.209 26.0238C79.2595 25.9015 79.3036 25.7791 79.3289 25.6503C79.3541 25.5215 79.3793 25.3863 79.4108 25.2317C79.4234 25.1673 79.4297 25.1029 79.4234 25.0385C79.4171 24.9805 79.4234 24.9161 79.455 24.8453C79.4676 24.8066 79.4739 24.7551 79.4739 24.7036C79.4739 24.6521 79.4739 24.5877 79.4739 24.5233V24.3494H79.4676Z" fill="#10182B"/>
<path d="M84.8028 19.0324H86.2908C86.4359 19.0324 86.5683 19.0389 86.6881 19.0517C86.8079 19.0646 86.8899 19.1097 86.9466 19.1934C87.0097 19.2771 87.0538 19.3866 87.0664 19.5283C87.079 19.67 87.0853 19.8181 87.0853 19.9662V21.3831V24.4036C87.0853 24.8931 87.1042 25.3503 87.1421 25.7818C87.1799 26.2133 87.2997 26.574 87.5015 26.8573C87.6843 27.1407 87.987 27.3468 88.3968 27.4627C88.4599 27.4756 88.5166 27.482 88.5671 27.482C88.6112 27.482 88.668 27.4885 88.7373 27.5014C88.8004 27.5142 88.876 27.5207 88.958 27.5207C89.04 27.5207 89.0967 27.5142 89.1346 27.5014C89.1976 27.4756 89.2544 27.4692 89.3048 27.482C89.3489 27.4949 89.3994 27.4885 89.4561 27.4627C89.7336 27.3983 89.9543 27.3082 90.1119 27.1987C90.3515 27.0506 90.5407 26.8573 90.6794 26.6191C90.8181 26.3808 90.919 26.1167 90.9757 25.8269C91.0325 25.5371 91.0703 25.2151 91.0829 24.8544C91.0955 24.4938 91.1018 24.1202 91.1018 23.7274V21.2736V19.9534C91.1018 19.831 91.1018 19.7086 91.1018 19.5798C91.1018 19.451 91.1271 19.348 91.1838 19.2643C91.2469 19.1419 91.3477 19.0711 91.4802 19.0517C91.6126 19.0324 91.7702 19.0195 91.9594 19.0195H93.0124C93.1448 19.0195 93.2709 19.0195 93.3907 19.0195C93.5105 19.0195 93.6114 19.0453 93.687 19.1033C93.7942 19.1741 93.851 19.2707 93.8636 19.4059C93.8762 19.5412 93.8825 19.6958 93.8825 19.8696V21.4089V27.1021V28.5382C93.8825 28.6735 93.8825 28.8087 93.8825 28.944C93.8825 29.0792 93.8573 29.1823 93.8005 29.2467C93.7312 29.3562 93.6366 29.4141 93.5042 29.427C93.3718 29.4399 93.2331 29.4463 93.088 29.4463H92.0161C91.8711 29.4463 91.7387 29.4399 91.6315 29.427C91.518 29.4141 91.4297 29.3626 91.3667 29.266C91.3414 29.2274 91.3162 29.163 91.2973 29.0857C91.2784 29.0019 91.2595 28.9247 91.2406 28.8409C91.2216 28.7572 91.1964 28.6864 91.1712 28.6155C91.146 28.5511 91.1018 28.5061 91.0514 28.4932C91.0262 28.4674 90.9946 28.461 90.9505 28.4738C90.9127 28.4867 90.8748 28.4996 90.8496 28.5125C90.755 28.564 90.6794 28.6284 90.61 28.6928C90.5407 28.7637 90.4713 28.8216 90.3893 28.8731C90.3389 28.9118 90.2884 28.9569 90.238 29.002C90.1939 29.047 90.1371 29.0921 90.0678 29.1308C89.7651 29.3175 89.4057 29.4657 88.9958 29.5751C88.9013 29.6009 88.813 29.6202 88.7184 29.6267C88.6238 29.6331 88.5293 29.6524 88.4221 29.6782C88.3716 29.6911 88.3149 29.6975 88.2518 29.6911C88.1951 29.6846 88.1383 29.6846 88.0816 29.7039C88.0437 29.7168 87.9618 29.7233 87.8357 29.7168C87.7096 29.7104 87.6276 29.6975 87.5897 29.6846C87.5204 29.6846 87.4573 29.6782 87.3943 29.6717C87.3249 29.6653 87.2619 29.6589 87.1988 29.6589C87.0412 29.6202 86.8899 29.5816 86.7448 29.5558C86.5998 29.5301 86.4548 29.485 86.3098 29.4334C86.2404 29.4077 86.19 29.3819 86.1395 29.3626C86.0954 29.3433 86.0386 29.3175 85.9693 29.2918C85.509 29.0342 85.137 28.6799 84.8595 28.2162C84.6893 27.9329 84.5632 27.5915 84.4812 27.1922C84.3992 26.7929 84.3551 26.3679 84.3299 25.9171C84.311 25.4662 84.3047 24.9961 84.311 24.5195C84.3173 24.0429 84.3236 23.5664 84.3236 23.0898V20.3333C84.3236 20.1595 84.3173 19.9534 84.311 19.7151C84.3047 19.4768 84.3362 19.3093 84.3992 19.1999C84.4371 19.1355 84.519 19.0711 84.6388 19.0195C84.7019 19.0517 84.7649 19.0453 84.8028 19.0324Z" fill="#10182B"/>
<path d="M99.9424 18.7302C100.932 18.7045 101.796 18.814 102.534 19.0651C103.265 19.3163 103.826 19.7414 104.211 20.3532C104.306 20.5013 104.388 20.6559 104.457 20.8104C104.533 20.965 104.589 21.1389 104.646 21.3257C104.671 21.4094 104.684 21.4931 104.684 21.5897C104.684 21.6863 104.671 21.7636 104.646 21.8344C104.596 21.9182 104.52 21.9697 104.425 21.9955C104.356 22.0212 104.28 22.0341 104.186 22.0341C104.091 22.0341 104.003 22.0341 103.908 22.0341H103.038C102.944 22.0341 102.855 22.0405 102.761 22.047C102.666 22.0534 102.584 22.047 102.502 22.0148C102.37 21.989 102.269 21.9311 102.206 21.8538C102.137 21.77 102.08 21.6863 102.029 21.6026C101.979 21.5124 101.929 21.4223 101.878 21.3192C101.834 21.2162 101.765 21.1325 101.67 21.0681C101.538 20.9586 101.412 20.8813 101.285 20.8233C101.159 20.7718 101.002 20.7203 100.819 20.6816C100.724 20.6559 100.592 20.6366 100.409 20.6237C100.232 20.6108 100.094 20.6172 99.9991 20.643H99.8604C99.791 20.6559 99.7343 20.6688 99.6712 20.6752C99.6145 20.6816 99.5514 20.6945 99.4821 20.7074C99.2551 20.7782 99.0722 20.8684 98.9335 20.9779C98.7948 21.0938 98.7002 21.2677 98.6434 21.4931C98.6182 21.5897 98.6182 21.6734 98.6434 21.7572C98.6687 21.8409 98.6939 21.9053 98.7254 21.9568C98.82 22.1178 98.9272 22.2466 99.0533 22.3432C99.1794 22.4398 99.3307 22.5171 99.501 22.588C99.7532 22.6974 100.024 22.7876 100.327 22.8585C100.623 22.9357 100.926 23.0001 101.241 23.0581C101.55 23.1161 101.859 23.1869 102.156 23.2577C102.452 23.335 102.736 23.4252 103 23.5282C103.12 23.5798 103.234 23.6248 103.347 23.657C103.461 23.6892 103.568 23.7408 103.675 23.8116C103.927 23.9726 104.154 24.1465 104.362 24.3397C104.564 24.5265 104.728 24.7648 104.848 25.0481C104.886 25.1447 104.924 25.2349 104.949 25.3315C104.974 25.4281 104.999 25.5247 105.031 25.6342C105.043 25.7179 105.056 25.8403 105.062 26.0077C105.069 26.1752 105.062 26.3104 105.05 26.4006V26.5036C105.024 26.5874 105.006 26.6647 104.999 26.7355C104.993 26.8128 104.98 26.8836 104.968 26.948C104.873 27.3538 104.728 27.7144 104.533 28.0236C104.318 28.3456 104.066 28.6096 103.757 28.8157C103.454 29.0154 103.108 29.1957 102.723 29.3438C102.578 29.4146 102.42 29.4597 102.256 29.4855C102.092 29.5113 101.929 29.5435 101.771 29.5885C101.651 29.6143 101.531 29.6336 101.405 29.6401C101.279 29.6465 101.159 29.6658 101.039 29.6916H100.674C100.592 29.7173 100.459 29.7302 100.264 29.7302C100.075 29.7302 99.936 29.7173 99.8541 29.6916C99.8162 29.6916 99.7721 29.6851 99.728 29.6787C99.6838 29.6723 99.6334 29.6658 99.5766 29.6658C99.419 29.6401 99.2614 29.6207 99.0974 29.6079C98.9398 29.595 98.7885 29.5692 98.6434 29.5241C98.1264 29.376 97.6724 29.2021 97.2752 29.0089C96.8779 28.8157 96.5438 28.5194 96.2663 28.1266C96.0835 27.869 95.9195 27.5727 95.7871 27.2378C95.7619 27.1541 95.7367 27.0511 95.7051 26.9158C95.6799 26.8514 95.661 26.7548 95.6484 26.6324C95.6358 26.5101 95.6421 26.407 95.6673 26.3298C95.7051 26.2332 95.7745 26.1688 95.8628 26.1301C95.9258 26.1043 96.0078 26.0915 96.1024 26.0915C96.197 26.0915 96.2915 26.0915 96.3987 26.0915H97.3319C97.4391 26.0915 97.5463 26.0915 97.6472 26.0915C97.7544 26.0915 97.8427 26.1043 97.9246 26.1301C98.0697 26.1816 98.1642 26.2718 98.2147 26.3942C98.2588 26.5165 98.3156 26.6453 98.3849 26.7806C98.4101 26.8514 98.4606 26.9351 98.5363 27.0446C98.6119 27.1541 98.6687 27.2185 98.7254 27.2443C98.883 27.3795 99.0344 27.4826 99.1794 27.5598C99.3244 27.6371 99.5073 27.708 99.7343 27.7724C99.7973 27.7981 99.8667 27.811 99.9297 27.8046C99.9928 27.7981 100.062 27.8046 100.125 27.8175C100.232 27.8432 100.346 27.8561 100.472 27.8497C100.598 27.8432 100.705 27.8239 100.8 27.7981C100.863 27.7853 100.926 27.7788 100.989 27.7788C101.046 27.7788 101.109 27.7659 101.178 27.7402C101.361 27.6758 101.531 27.5921 101.683 27.4954C101.834 27.3988 101.96 27.2765 102.048 27.1284C102.111 27.0189 102.168 26.8514 102.206 26.6196C102.231 26.523 102.231 26.4392 102.206 26.3555C102.181 26.2718 102.156 26.2074 102.124 26.1559C102.029 25.9691 101.916 25.8274 101.777 25.7308C101.638 25.6342 101.475 25.5505 101.292 25.4668C101.039 25.3573 100.775 25.2736 100.497 25.2027C100.22 25.1383 99.9424 25.061 99.6649 24.9773C99.5577 24.9515 99.4505 24.9322 99.337 24.9193C99.2235 24.9065 99.1163 24.8871 99.0092 24.8614C98.5867 24.739 98.1832 24.6231 97.7985 24.5072C97.4139 24.3912 97.0671 24.2173 96.7455 23.9919C96.3735 23.7214 96.1024 23.3544 95.9321 22.8971C95.9069 22.8005 95.8817 22.6717 95.8502 22.5107C95.8249 22.4141 95.806 22.3046 95.7934 22.1693C95.7808 22.0341 95.7871 21.9117 95.8123 21.8022C95.8376 21.7378 95.8439 21.6799 95.8313 21.6284C95.8186 21.5833 95.8249 21.5253 95.8502 21.4545C95.8754 21.3063 95.9069 21.1647 95.9384 21.0359C95.97 20.907 96.0141 20.7847 96.0646 20.6623C96.2348 20.2695 96.4744 19.9539 96.7771 19.7092C97.0797 19.4644 97.4265 19.2712 97.8111 19.1231C97.9562 19.0587 98.1075 19.0072 98.2651 18.9685C98.4228 18.9363 98.5867 18.8977 98.7632 18.859C98.8452 18.8333 98.9209 18.814 99.0029 18.8075C99.0848 18.8011 99.1605 18.7882 99.2425 18.7753C99.3496 18.7624 99.4631 18.756 99.5766 18.756C99.6901 18.756 99.8352 18.7431 99.9424 18.7302Z" fill="#10182B"/>
<path d="M108.057 15.8984H109.388C109.583 15.8984 109.76 15.9113 109.911 15.9306C110.062 15.95 110.169 16.0337 110.239 16.1818C110.264 16.2527 110.277 16.3299 110.277 16.4265C110.277 16.5231 110.277 16.6133 110.277 16.7099V17.6244C110.277 17.6953 110.27 17.7726 110.264 17.8563C110.258 17.9464 110.258 18.0237 110.277 18.0881V18.3135C110.277 18.423 110.283 18.5196 110.295 18.6098C110.308 18.7 110.34 18.7772 110.396 18.8416C110.491 18.964 110.655 19.0284 110.901 19.0348C111.147 19.0413 111.38 19.0477 111.607 19.0477C111.689 19.0477 111.765 19.0477 111.847 19.0477C111.929 19.0477 111.998 19.0606 112.067 19.0864C112.212 19.1572 112.294 19.2731 112.313 19.4535C112.332 19.6274 112.345 19.827 112.345 20.0395C112.345 20.1361 112.345 20.2263 112.357 20.3229C112.364 20.4195 112.351 20.4968 112.326 20.5676C112.256 20.7866 112.118 20.8961 111.91 20.909C111.695 20.9218 111.462 20.9283 111.197 20.9283C111.147 20.9283 111.09 20.9283 111.027 20.9154C110.97 20.909 110.92 20.9154 110.876 20.9283C110.825 20.9412 110.775 20.9476 110.737 20.9412C110.699 20.9347 110.655 20.9476 110.617 20.9734C110.51 20.9991 110.434 21.0571 110.39 21.1473C110.346 21.2374 110.308 21.3405 110.283 21.4628C110.27 21.5337 110.27 21.6045 110.283 21.6882C110.295 21.772 110.295 21.8428 110.283 21.9136V23.1695V25.5395C110.283 25.8744 110.295 26.1707 110.314 26.4218C110.333 26.673 110.415 26.892 110.56 27.0787C110.623 27.1625 110.718 27.2204 110.825 27.2526C110.939 27.2848 111.052 27.317 111.172 27.3428C111.21 27.3557 111.254 27.3621 111.298 27.3557C111.342 27.3492 111.38 27.3557 111.405 27.3686H111.626C111.771 27.3686 111.897 27.375 112.004 27.3879C112.111 27.4008 112.193 27.4587 112.263 27.5489C112.313 27.6326 112.345 27.7357 112.345 27.8645C112.345 27.9933 112.345 28.1221 112.345 28.2573C112.345 28.5407 112.338 28.7983 112.332 29.0366C112.326 29.2749 112.219 29.4295 112.004 29.5132C111.935 29.5389 111.878 29.5518 111.828 29.5454C111.777 29.5389 111.714 29.5454 111.651 29.5776H111.456C111.43 29.5776 111.386 29.5711 111.336 29.5647C111.285 29.5583 111.235 29.5583 111.197 29.5776C111.128 29.5905 111.058 29.5969 110.989 29.5905C110.913 29.584 110.844 29.5776 110.781 29.5776C110.712 29.5776 110.649 29.5776 110.586 29.5905C110.516 29.5969 110.459 29.5905 110.409 29.5776H110.188C110.119 29.5647 110.05 29.5583 109.968 29.5583C109.886 29.5583 109.816 29.5518 109.747 29.5389C109.652 29.526 109.57 29.5132 109.488 29.5003C109.406 29.4874 109.331 29.4745 109.249 29.4616C109.104 29.423 108.965 29.3715 108.833 29.32C108.7 29.2684 108.574 29.204 108.454 29.1396C108.416 29.1139 108.372 29.0817 108.335 29.0495C108.297 29.0173 108.246 28.9786 108.196 28.94C108.171 28.9142 108.139 28.882 108.095 28.8498C108.057 28.8176 108.019 28.7854 107.994 28.7597C107.811 28.502 107.672 28.2187 107.578 27.9095C107.553 27.858 107.54 27.8065 107.546 27.755C107.553 27.7099 107.546 27.6519 107.534 27.5811C107.521 27.5553 107.515 27.5231 107.515 27.478C107.515 27.4394 107.509 27.4008 107.496 27.375V27.1754C107.483 27.1238 107.477 27.0594 107.483 26.995C107.49 26.9306 107.496 26.8598 107.496 26.7954V26.0225V23.0021V21.8943C107.496 21.7977 107.496 21.7076 107.509 21.611C107.515 21.5144 107.502 21.4306 107.477 21.3469C107.427 21.1601 107.332 21.0378 107.2 20.9798C107.055 20.9154 106.872 20.8896 106.645 20.9218C106.418 20.9476 106.229 20.9283 106.071 20.8639C105.964 20.8252 105.901 20.7608 105.875 20.6836C105.85 20.5998 105.825 20.5032 105.793 20.3809V19.9558C105.793 19.7111 105.806 19.5179 105.831 19.3697C105.857 19.2216 105.97 19.1186 106.165 19.067C106.216 19.0413 106.273 19.0284 106.323 19.0348C106.374 19.0413 106.437 19.0477 106.5 19.0477C106.695 19.0477 106.884 19.0348 107.055 19.0155C107.225 18.9962 107.345 18.9189 107.414 18.7837C107.452 18.6871 107.477 18.584 107.483 18.4617C107.49 18.3393 107.496 18.2169 107.496 18.0946V16.8387C107.496 16.7292 107.496 16.6133 107.496 16.4974C107.496 16.375 107.509 16.272 107.534 16.1947C107.597 16.0594 107.698 15.9693 107.83 15.9306C107.855 15.9178 107.893 15.9113 107.937 15.9178C107.994 15.9113 108.026 15.9113 108.057 15.8984Z" fill="#10182B"/>
<path d="M119.502 18.75C119.647 18.75 119.78 18.7629 119.887 18.7886C120 18.8144 120.089 18.8788 120.152 18.969C120.234 19.0785 120.272 19.2652 120.272 19.5293C120.272 19.7933 120.272 20.0252 120.272 20.2313C120.272 20.3794 120.272 20.5468 120.284 20.74C120.29 20.9268 120.265 21.0749 120.215 21.1844C120.164 21.281 120.089 21.339 119.988 21.3647C119.887 21.3905 119.773 21.4034 119.654 21.4034C119.528 21.4034 119.395 21.3969 119.256 21.3841C119.118 21.3712 118.992 21.3776 118.872 21.4034C118.777 21.4292 118.689 21.4485 118.594 21.4549C118.5 21.4614 118.418 21.4807 118.336 21.5064C118.121 21.5773 117.913 21.6739 117.699 21.8027C117.485 21.9315 117.321 22.0732 117.201 22.2406C117.131 22.3501 117.062 22.4596 116.993 22.5755C116.917 22.6914 116.848 22.8074 116.785 22.9297C116.747 23.0392 116.709 23.1487 116.678 23.2646C116.646 23.3806 116.614 23.49 116.589 23.5995C116.564 23.6961 116.551 23.7927 116.551 23.8958C116.551 23.9988 116.539 24.0954 116.514 24.192C116.501 24.2436 116.495 24.2951 116.501 24.3466C116.507 24.3917 116.501 24.4368 116.488 24.4754V24.7974C116.463 24.894 116.457 24.9971 116.469 25.113C116.482 25.2289 116.488 25.3384 116.488 25.4479V26.7424V28.4619C116.488 28.6358 116.482 28.7968 116.469 28.9514C116.457 29.0995 116.419 29.2219 116.35 29.3185C116.324 29.3571 116.28 29.3893 116.224 29.4086C116.167 29.428 116.104 29.4473 116.034 29.4602H115.933C115.864 29.4731 115.795 29.4795 115.713 29.4795C115.631 29.4795 115.561 29.4795 115.492 29.4795H114.641C114.559 29.4666 114.477 29.4602 114.395 29.4602C114.307 29.4602 114.218 29.4602 114.13 29.4602C114.061 29.4344 113.998 29.4087 113.935 29.3893C113.865 29.37 113.821 29.3249 113.796 29.2605C113.746 29.1961 113.714 29.0931 113.708 28.9643C113.701 28.8355 113.695 28.7067 113.695 28.5714V27.1932V21.4807V19.9801C113.695 19.8448 113.695 19.716 113.695 19.5872C113.695 19.4584 113.72 19.3554 113.777 19.2717C113.84 19.1622 113.941 19.0978 114.073 19.072C114.206 19.0463 114.363 19.0334 114.553 19.0334H115.561C115.719 19.0334 115.858 19.0463 115.978 19.0656C116.097 19.0849 116.192 19.1493 116.255 19.2588C116.293 19.3296 116.318 19.4198 116.324 19.5422C116.331 19.6645 116.343 19.7804 116.356 19.8964C116.369 20.0123 116.394 20.1153 116.425 20.2119C116.457 20.3085 116.52 20.3536 116.614 20.3536C116.64 20.3279 116.665 20.315 116.696 20.315C116.722 20.315 116.747 20.3021 116.778 20.2763C116.86 20.2119 116.93 20.1282 116.986 20.0445C117.043 19.9543 117.119 19.877 117.213 19.8126C117.264 19.774 117.314 19.7289 117.352 19.6838C117.39 19.6388 117.44 19.5937 117.491 19.555C117.611 19.4713 117.731 19.394 117.857 19.3103C117.983 19.2266 118.109 19.1557 118.241 19.0849C118.374 19.0334 118.506 18.9818 118.651 18.9432C118.79 18.9046 118.935 18.8595 119.08 18.8208C119.118 18.808 119.193 18.8015 119.307 18.808C119.408 18.7886 119.477 18.7758 119.502 18.75Z" fill="#10182B"/>
<path d="M120.849 18.9766H122.356C122.489 18.9766 122.621 18.9766 122.754 18.9766C122.886 18.9766 122.999 19.0023 123.088 19.0603C123.245 19.1698 123.353 19.3372 123.416 19.5691C123.472 19.8009 123.535 20.007 123.605 20.2002C123.668 20.3612 123.725 20.5287 123.775 20.709C123.819 20.8829 123.876 21.0503 123.945 21.2178C124.052 21.5269 124.147 21.836 124.242 22.1387C124.336 22.4414 124.431 22.7441 124.538 23.0404L124.954 24.3155C124.992 24.4379 125.03 24.5603 125.061 24.6891C125.093 24.8179 125.137 24.9403 125.187 25.0626C125.225 25.1721 125.269 25.2945 125.314 25.4297C125.358 25.565 125.459 25.6229 125.604 25.61C125.629 25.5843 125.654 25.565 125.673 25.5585C125.692 25.5521 125.717 25.5328 125.742 25.507C125.78 25.4426 125.818 25.3718 125.843 25.3073C125.868 25.2429 125.894 25.1721 125.925 25.1077C125.988 24.9596 126.045 24.7986 126.083 24.6311C126.121 24.4637 126.171 24.2962 126.222 24.1352C126.404 23.5685 126.587 23.0082 126.757 22.4543C126.928 21.9004 127.111 21.3401 127.293 20.7734C127.357 20.5866 127.413 20.3999 127.464 20.2131C127.508 20.0328 127.565 19.8524 127.634 19.6785C127.672 19.5691 127.71 19.466 127.741 19.363C127.773 19.2599 127.836 19.1762 127.93 19.1118C128.012 19.0474 128.107 19.0088 128.227 19.0023C128.346 18.9959 128.479 18.9894 128.624 18.9894H129.835C129.967 18.9894 130.093 18.9959 130.213 19.0088C130.333 19.0216 130.427 19.0603 130.49 19.1311C130.572 19.2277 130.585 19.3501 130.528 19.4982C130.503 19.6077 130.471 19.7172 130.427 19.8202C130.389 19.9297 130.345 20.0392 130.307 20.1423C130.125 20.6124 129.942 21.0954 129.771 21.5913C129.601 22.0872 129.418 22.5702 129.236 23.0404C129.154 23.24 129.084 23.4461 129.015 23.6586C128.945 23.8712 128.876 24.0773 128.794 24.2769C128.725 24.4637 128.662 24.6504 128.599 24.8243C128.529 24.9982 128.466 25.185 128.403 25.3718C128.138 26.048 127.892 26.7242 127.659 27.4069C127.426 28.0895 127.18 28.7593 126.915 29.4227C126.877 29.5193 126.846 29.603 126.827 29.6867C126.808 29.7705 126.776 29.8477 126.739 29.9315C126.631 30.1891 126.531 30.4402 126.442 30.6785C126.348 30.9233 126.253 31.1551 126.146 31.3805C126.039 31.6059 125.913 31.812 125.768 31.9988C125.623 32.1856 125.446 32.3595 125.232 32.5076C125.061 32.6299 124.872 32.7265 124.664 32.8038C124.456 32.8811 124.235 32.9519 124.002 33.0164C123.895 33.0421 123.788 33.055 123.687 33.055C123.58 33.055 123.472 33.0679 123.372 33.0936H122.854C122.747 33.0936 122.621 33.0936 122.476 33.0936C122.331 33.0936 122.186 33.0872 122.047 33.0743C121.909 33.0614 121.783 33.0421 121.669 33.0228C121.556 33.0035 121.474 32.9713 121.423 32.9326C121.354 32.8811 121.316 32.8167 121.297 32.7394C121.278 32.6621 121.253 32.572 121.228 32.4689V31.9795C121.228 31.7476 121.228 31.5093 121.228 31.2517C121.228 30.9941 121.31 30.8331 121.467 30.7623C121.53 30.7365 121.625 30.7172 121.732 30.7107C121.846 30.7043 121.94 30.7107 122.022 30.7429H122.52H122.76C122.81 30.7301 122.867 30.7236 122.918 30.7236C122.968 30.7236 123.025 30.7107 123.075 30.685C123.485 30.5626 123.75 30.2857 123.87 29.8542C123.895 29.8027 123.92 29.7189 123.952 29.6095C123.977 29.5 123.977 29.4098 123.952 29.3261C123.926 29.2617 123.914 29.1908 123.914 29.1264C123.914 29.062 123.901 28.9912 123.876 28.9268C123.794 28.6563 123.712 28.3922 123.617 28.1282C123.523 27.8641 123.428 27.6065 123.321 27.3489C123.214 27.0913 123.119 26.8337 123.031 26.5761C122.943 26.3185 122.848 26.0609 122.741 25.8033C122.672 25.6422 122.621 25.4812 122.571 25.3138C122.527 25.1528 122.47 24.9918 122.4 24.8243C122.186 24.3091 121.991 23.781 121.814 23.2465C121.638 22.7055 121.442 22.1774 121.228 21.6686C121.202 21.6171 121.19 21.572 121.19 21.5398C121.19 21.5076 121.177 21.4689 121.152 21.4303C121.045 21.1856 120.957 20.9408 120.887 20.6897C120.812 20.4385 120.723 20.2002 120.622 19.9684C120.597 19.8846 120.553 19.7687 120.496 19.6141C120.44 19.4596 120.427 19.3243 120.465 19.2213C120.503 19.1118 120.591 19.0474 120.723 19.0216C120.748 19.0088 120.774 19.0023 120.793 19.0088C120.799 18.9959 120.824 18.9894 120.849 18.9766Z" fill="#10182B"/>
<path d="M132.532 15.043H139.474H141.082C141.227 15.043 141.365 15.0494 141.498 15.0623C141.63 15.0752 141.731 15.1203 141.794 15.204C141.845 15.2748 141.882 15.365 141.901 15.4745C141.92 15.5904 141.933 15.7192 141.933 15.8609C141.933 16.0026 141.927 16.1443 141.92 16.2859C141.914 16.4276 141.908 16.5564 141.908 16.6788C141.908 16.7754 141.908 16.8656 141.92 16.9622C141.927 17.0588 141.92 17.1425 141.908 17.2262C141.882 17.2971 141.857 17.355 141.838 17.4194C141.819 17.4774 141.782 17.5289 141.731 17.574C141.624 17.6577 141.441 17.6899 141.183 17.6835C140.924 17.677 140.703 17.6706 140.52 17.6706H136.693C136.479 17.6706 136.227 17.6706 135.93 17.6577C135.634 17.6513 135.419 17.6899 135.287 17.7672C135.205 17.8187 135.142 17.9218 135.092 18.0699C135.066 18.1665 135.054 18.2889 135.06 18.437C135.066 18.5851 135.073 18.7139 135.073 18.8234V19.7959C135.073 19.8667 135.066 19.944 135.06 20.0406C135.054 20.1372 135.054 20.2145 135.073 20.2854V20.5108C135.098 20.6331 135.129 20.7362 135.161 20.8135C135.192 20.8972 135.262 20.9551 135.369 20.9938C135.432 21.0195 135.514 21.0389 135.609 21.0453C135.703 21.0517 135.798 21.0582 135.905 21.0582H136.662H139.417C139.524 21.0582 139.644 21.0582 139.783 21.0453C139.921 21.0389 140.06 21.0389 140.199 21.0453C140.338 21.0517 140.464 21.0646 140.577 21.0775C140.691 21.0904 140.773 21.1161 140.823 21.1612C140.956 21.2578 141.019 21.4317 141.012 21.6958C141.006 21.9598 141 22.1981 141 22.4171C141 22.5266 141 22.6425 141.012 22.7713C141.019 22.9001 141.006 23.016 140.981 23.1255C140.93 23.2736 140.855 23.3767 140.76 23.4282C140.666 23.4797 140.489 23.5055 140.224 23.499C139.959 23.4926 139.739 23.4862 139.568 23.4862H136.315C136.063 23.4862 135.817 23.4926 135.583 23.5055C135.344 23.5184 135.192 23.615 135.129 23.7889C135.104 23.8275 135.092 23.8726 135.092 23.9177C135.092 23.9627 135.085 24.0078 135.073 24.0465V24.2461V24.5488V25.0962V27.9557C135.073 28.1425 135.073 28.3808 135.085 28.6577C135.092 28.9346 135.06 29.1343 134.997 29.2567C134.959 29.3275 134.902 29.3661 134.839 29.3855C134.77 29.4048 134.707 29.4305 134.644 29.4563C134.549 29.4821 134.455 29.4885 134.348 29.4756C134.24 29.4627 134.133 29.4563 134.032 29.4563H132.885C132.74 29.4563 132.601 29.4563 132.475 29.4434C132.349 29.437 132.248 29.3983 132.166 29.3339C132.071 29.2695 132.021 29.16 132.015 29.0184C132.008 28.8767 132.002 28.7285 132.002 28.5804V26.8351V19.4417V16.4856C132.002 16.2988 131.996 16.0734 131.989 15.8158C131.983 15.5582 132.015 15.3779 132.078 15.2684C132.128 15.1718 132.229 15.1074 132.374 15.0687C132.399 15.0559 132.424 15.0494 132.456 15.0559C132.481 15.0623 132.506 15.0623 132.532 15.043Z" fill="#10182B"/>
<path d="M143.985 19.0324H145.473C145.618 19.0324 145.751 19.0389 145.871 19.0517C145.991 19.0646 146.072 19.1097 146.129 19.1934C146.192 19.2771 146.236 19.3866 146.249 19.5283C146.262 19.67 146.268 19.8181 146.268 19.9662V21.3831V24.4036C146.268 24.8931 146.287 25.3503 146.325 25.7818C146.363 26.2133 146.482 26.574 146.684 26.8573C146.867 27.1407 147.17 27.3468 147.579 27.4627C147.643 27.4756 147.699 27.482 147.75 27.482C147.794 27.482 147.851 27.4885 147.92 27.5014C147.983 27.5142 148.059 27.5207 148.141 27.5207C148.223 27.5207 148.279 27.5142 148.317 27.5014C148.38 27.4756 148.437 27.4692 148.487 27.482C148.532 27.4949 148.582 27.4885 148.639 27.4627C148.916 27.3983 149.137 27.3082 149.295 27.1987C149.534 27.0506 149.723 26.8573 149.862 26.6191C150.001 26.3808 150.102 26.1167 150.158 25.8269C150.215 25.5371 150.253 25.2151 150.266 24.8544C150.278 24.4938 150.284 24.1202 150.284 23.7274V21.2736V19.9534C150.284 19.831 150.284 19.7086 150.284 19.5798C150.284 19.451 150.31 19.348 150.366 19.2643C150.429 19.1419 150.53 19.0711 150.663 19.0517C150.795 19.0324 150.953 19.0195 151.142 19.0195H152.195C152.327 19.0195 152.454 19.0195 152.573 19.0195C152.693 19.0195 152.794 19.0453 152.87 19.1033C152.977 19.1741 153.034 19.2707 153.046 19.4059C153.059 19.5412 153.065 19.6958 153.065 19.8696V21.4089V27.1021V28.5382C153.065 28.6735 153.065 28.8087 153.065 28.944C153.065 29.0792 153.04 29.1823 152.983 29.2467C152.914 29.3562 152.819 29.4141 152.687 29.427C152.554 29.4399 152.416 29.4463 152.271 29.4463H151.199C151.054 29.4463 150.921 29.4399 150.814 29.427C150.701 29.4141 150.612 29.3626 150.549 29.266C150.524 29.2274 150.499 29.163 150.48 29.0857C150.461 29.0019 150.442 28.9247 150.423 28.8409C150.404 28.7572 150.379 28.6864 150.354 28.6155C150.329 28.5511 150.284 28.5061 150.234 28.4932C150.209 28.4674 150.177 28.461 150.133 28.4738C150.095 28.4867 150.057 28.4996 150.032 28.5125C149.938 28.564 149.862 28.6284 149.793 28.6928C149.723 28.7637 149.654 28.8216 149.572 28.8731C149.522 28.9118 149.471 28.9569 149.421 29.002C149.376 29.047 149.32 29.0921 149.25 29.1308C148.948 29.3175 148.588 29.4657 148.178 29.5751C148.084 29.6009 147.996 29.6202 147.901 29.6267C147.806 29.6331 147.712 29.6524 147.605 29.6782C147.554 29.6911 147.497 29.6975 147.434 29.6911C147.378 29.6846 147.321 29.6846 147.264 29.7039C147.226 29.7168 147.144 29.7233 147.018 29.7168C146.892 29.7104 146.81 29.6975 146.772 29.6846C146.703 29.6846 146.64 29.6782 146.577 29.6717C146.508 29.6653 146.444 29.6589 146.381 29.6589C146.224 29.6202 146.072 29.5816 145.927 29.5558C145.782 29.5301 145.637 29.485 145.492 29.4334C145.423 29.4077 145.373 29.3819 145.322 29.3626C145.278 29.3433 145.221 29.3175 145.152 29.2918C144.692 29.0342 144.32 28.6799 144.042 28.2162C143.872 27.9329 143.746 27.5915 143.664 27.1922C143.582 26.7929 143.538 26.3679 143.512 25.9171C143.494 25.4662 143.487 24.9961 143.494 24.5195C143.5 24.0429 143.506 23.5664 143.506 23.0898V20.3333C143.506 20.1595 143.5 19.9534 143.494 19.7151C143.487 19.4768 143.519 19.3093 143.582 19.1999C143.62 19.1355 143.702 19.0711 143.821 19.0195C143.885 19.0517 143.941 19.0453 143.985 19.0324Z" fill="#10182B"/>
<path d="M159.117 18.7302C160.107 18.7045 160.97 18.814 161.708 19.0651C162.44 19.3163 163.001 19.7414 163.385 20.3532C163.48 20.5013 163.562 20.6559 163.631 20.8104C163.707 20.965 163.764 21.1389 163.821 21.3257C163.846 21.4094 163.858 21.4931 163.858 21.5897C163.858 21.6863 163.846 21.7636 163.821 21.8344C163.77 21.9182 163.694 21.9697 163.6 21.9955C163.53 22.0212 163.455 22.0341 163.36 22.0341C163.266 22.0341 163.177 22.0341 163.083 22.0341H162.213C162.118 22.0341 162.03 22.0405 161.935 22.047C161.841 22.0534 161.759 22.047 161.677 22.0148C161.544 21.989 161.443 21.9311 161.38 21.8538C161.311 21.77 161.254 21.6863 161.204 21.6026C161.153 21.5124 161.103 21.4223 161.052 21.3192C161.008 21.2162 160.939 21.1325 160.844 21.0681C160.712 20.9586 160.586 20.8813 160.46 20.8233C160.334 20.7718 160.176 20.7203 159.993 20.6816C159.899 20.6559 159.766 20.6366 159.583 20.6237C159.407 20.6108 159.268 20.6172 159.173 20.643H159.035C158.965 20.6559 158.909 20.6688 158.846 20.6752C158.789 20.6816 158.726 20.6945 158.656 20.7074C158.429 20.7782 158.247 20.8684 158.108 20.9779C157.969 21.0938 157.875 21.2677 157.818 21.4931C157.793 21.5897 157.793 21.6734 157.818 21.7572C157.843 21.8409 157.868 21.9053 157.9 21.9568C157.994 22.1178 158.102 22.2466 158.228 22.3432C158.354 22.4398 158.505 22.5171 158.675 22.588C158.928 22.6974 159.199 22.7876 159.501 22.8585C159.798 22.9357 160.1 23.0001 160.416 23.0581C160.725 23.1161 161.034 23.1869 161.33 23.2577C161.626 23.335 161.91 23.4252 162.175 23.5282C162.295 23.5798 162.408 23.6248 162.522 23.657C162.635 23.6892 162.742 23.7408 162.849 23.8116C163.102 23.9726 163.329 24.1465 163.537 24.3397C163.739 24.5265 163.902 24.7648 164.022 25.0481C164.06 25.1447 164.098 25.2349 164.123 25.3315C164.148 25.4281 164.174 25.5247 164.205 25.6342C164.218 25.7179 164.23 25.8403 164.237 26.0077C164.243 26.1752 164.237 26.3104 164.224 26.4006V26.5036C164.199 26.5874 164.18 26.6647 164.174 26.7355C164.167 26.8128 164.155 26.8836 164.142 26.948C164.048 27.3538 163.902 27.7144 163.707 28.0236C163.493 28.3456 163.24 28.6096 162.931 28.8157C162.629 29.0154 162.282 29.1957 161.897 29.3438C161.752 29.4146 161.595 29.4597 161.431 29.4855C161.267 29.5113 161.103 29.5435 160.945 29.5885C160.825 29.6143 160.706 29.6336 160.58 29.6401C160.453 29.6465 160.334 29.6658 160.214 29.6916H159.854C159.772 29.7173 159.64 29.7302 159.445 29.7302C159.255 29.7302 159.117 29.7173 159.035 29.6916C158.997 29.6916 158.953 29.6851 158.909 29.6787C158.864 29.6723 158.814 29.6658 158.757 29.6658C158.6 29.6401 158.442 29.6207 158.278 29.6079C158.12 29.595 157.969 29.5692 157.824 29.5241C157.307 29.376 156.853 29.2021 156.456 29.0089C156.059 28.8157 155.724 28.5194 155.447 28.1266C155.264 27.869 155.1 27.5727 154.968 27.2378C154.943 27.1541 154.917 27.0511 154.886 26.9158C154.861 26.8514 154.842 26.7548 154.829 26.6324C154.816 26.5101 154.823 26.407 154.848 26.3298C154.886 26.2332 154.955 26.1688 155.043 26.1301C155.106 26.1043 155.188 26.0915 155.283 26.0915C155.378 26.0915 155.472 26.0915 155.579 26.0915H156.513C156.62 26.0915 156.727 26.0915 156.828 26.0915C156.935 26.0915 157.023 26.1043 157.105 26.1301C157.25 26.1816 157.345 26.2718 157.395 26.3942C157.439 26.5165 157.496 26.6453 157.566 26.7806C157.591 26.8514 157.641 26.9351 157.717 27.0446C157.793 27.1541 157.849 27.2185 157.906 27.2443C158.064 27.3795 158.215 27.4826 158.36 27.5598C158.505 27.6371 158.688 27.708 158.915 27.7724C158.978 27.7981 159.047 27.811 159.11 27.8046C159.173 27.7981 159.243 27.8046 159.306 27.8175C159.413 27.8432 159.527 27.8561 159.653 27.8497C159.779 27.8432 159.886 27.8239 159.981 27.7981C160.044 27.7853 160.107 27.7788 160.17 27.7788C160.226 27.7788 160.29 27.7659 160.359 27.7402C160.542 27.6758 160.712 27.5921 160.863 27.4954C161.015 27.3988 161.141 27.2765 161.229 27.1284C161.292 27.0189 161.349 26.8514 161.387 26.6196C161.412 26.523 161.412 26.4392 161.387 26.3555C161.361 26.2718 161.336 26.2074 161.305 26.1559C161.21 25.9691 161.097 25.8274 160.958 25.7308C160.819 25.6342 160.655 25.5505 160.472 25.4668C160.22 25.3573 159.955 25.2736 159.678 25.2027C159.4 25.1383 159.123 25.061 158.846 24.9773C158.738 24.9515 158.631 24.9322 158.518 24.9193C158.404 24.9065 158.297 24.8871 158.19 24.8614C157.767 24.739 157.364 24.6231 156.979 24.5072C156.595 24.3912 156.248 24.2173 155.926 23.9919C155.554 23.7214 155.283 23.3544 155.113 22.8971C155.088 22.8005 155.062 22.6717 155.031 22.5107C155.006 22.4141 154.987 22.3046 154.974 22.1693C154.961 22.0341 154.968 21.9117 154.993 21.8022C155.018 21.7378 155.025 21.6799 155.012 21.6284C154.999 21.5833 155.006 21.5253 155.031 21.4545C155.056 21.3063 155.088 21.1647 155.119 21.0359C155.151 20.907 155.195 20.7847 155.245 20.6623C155.415 20.2695 155.655 19.9539 155.958 19.7092C156.26 19.4644 156.607 19.2712 156.992 19.1231C157.137 19.0587 157.288 19.0072 157.446 18.9685C157.603 18.9363 157.767 18.8977 157.944 18.859C158.026 18.8333 158.102 18.814 158.184 18.8075C158.265 18.8011 158.341 18.7882 158.423 18.7753C158.53 18.7624 158.644 18.756 158.757 18.756C158.871 18.756 159.016 18.7431 159.117 18.7302Z" fill="#10182B"/>
<path d="M168.626 15.1638C168.72 15.2732 168.765 15.4342 168.765 15.6532C168.765 15.8722 168.765 16.0783 168.765 16.2844C168.765 16.4582 168.765 16.645 168.765 16.8318C168.765 17.0186 168.72 17.1474 168.626 17.2182C168.544 17.289 168.443 17.3277 168.317 17.3406C168.191 17.3534 168.058 17.3599 167.907 17.3599H166.797C166.652 17.3599 166.52 17.3534 166.413 17.3406C166.299 17.3277 166.205 17.289 166.123 17.2182C166.072 17.1796 166.034 17.1023 166.015 16.9863C165.997 16.8704 165.984 16.7416 165.978 16.5999C165.971 16.4582 165.971 16.3101 165.978 16.162C165.984 16.0139 165.99 15.8851 165.99 15.7756C165.99 15.6661 165.99 15.5695 166.003 15.4793C166.009 15.3892 166.034 15.3119 166.072 15.2475C166.097 15.196 166.135 15.1509 166.179 15.1251C166.224 15.0993 166.274 15.0736 166.331 15.0414C166.356 15.0414 166.387 15.0414 166.432 15.0285C166.469 15.0221 166.507 15.0156 166.533 15.0156H167.983C168.115 15.0156 168.241 15.0221 168.361 15.0349C168.462 15.0607 168.557 15.0993 168.626 15.1638ZM168.765 28.3599C168.765 28.6304 168.758 28.8622 168.746 29.049C168.733 29.2357 168.613 29.3646 168.386 29.4354C168.304 29.4612 168.222 29.474 168.128 29.4676C168.033 29.4612 167.939 29.4547 167.831 29.4547H166.722C166.602 29.4547 166.488 29.4483 166.375 29.4354C166.261 29.4225 166.179 29.3839 166.129 29.313C166.047 29.2164 166.009 29.1005 166.003 28.9588C165.997 28.8171 165.99 28.6626 165.99 28.5016V19.9489C165.99 19.8136 165.99 19.6784 165.99 19.5431C165.99 19.4079 166.015 19.2984 166.072 19.2211C166.154 19.1245 166.261 19.0666 166.406 19.0408C166.432 19.0279 166.469 19.0215 166.514 19.0279C166.558 19.0344 166.596 19.0344 166.621 19.015H167.611C167.693 19.015 167.781 19.015 167.876 19.0022C167.976 18.9957 168.058 19.0022 168.121 19.015H168.279C168.361 19.0408 168.43 19.0601 168.5 19.073C168.563 19.0859 168.62 19.1245 168.657 19.1954C168.708 19.2662 168.739 19.3564 168.746 19.4787C168.752 19.6011 168.758 19.7299 168.758 19.8651V28.3599H168.765Z" fill="#10182B"/>
<path d="M181.242 23.8212C181.267 23.9049 181.28 24.0144 181.28 24.1625C181.28 24.3106 181.267 24.4265 181.242 24.5038V24.7035C181.217 24.813 181.204 24.9224 181.211 25.0255C181.217 25.135 181.204 25.2445 181.179 25.3475C181.154 25.4441 181.135 25.5278 181.122 25.6116C181.11 25.6953 181.097 25.779 181.085 25.8756C181.034 26.0237 180.984 26.1783 180.946 26.3329C180.908 26.4874 180.851 26.6356 180.788 26.7708C180.511 27.4213 180.145 27.9429 179.697 28.3487C179.25 28.7544 178.707 29.0893 178.071 29.3598C177.913 29.4306 177.749 29.4757 177.585 29.5144C177.421 29.5466 177.251 29.5852 177.081 29.6238C177.011 29.6496 176.942 29.6625 176.86 29.6625C176.778 29.6625 176.709 29.6689 176.639 29.6818C176.601 29.6818 176.557 29.6818 176.513 29.6947C176.469 29.7011 176.425 29.7076 176.387 29.7076C176.318 29.7205 176.217 29.7333 176.072 29.7398C175.927 29.7462 175.813 29.7333 175.738 29.7076H175.542C175.473 29.6947 175.403 29.6882 175.334 29.6947C175.258 29.7011 175.189 29.6882 175.126 29.6625C175.076 29.6496 175.025 29.6432 174.975 29.6432C174.931 29.6432 174.874 29.6367 174.804 29.6238C174.672 29.5852 174.54 29.5466 174.407 29.5208C174.275 29.495 174.149 29.4564 174.029 29.3984C173.871 29.3469 173.72 29.2889 173.581 29.2374C173.442 29.1859 173.297 29.1151 173.152 29.0378C172.692 28.7544 172.295 28.426 171.961 28.046C171.633 27.666 171.349 27.2152 171.128 26.6871C171.059 26.5647 171.015 26.4359 170.977 26.3007C170.946 26.1654 170.908 26.0237 170.87 25.8756C170.845 25.8112 170.832 25.7468 170.832 25.6953C170.832 25.6438 170.819 25.5794 170.794 25.515C170.769 25.4055 170.756 25.296 170.756 25.1801C170.756 25.0641 170.744 24.9546 170.719 24.8452C170.706 24.7808 170.7 24.7164 170.7 24.6648C170.7 24.6133 170.7 24.5489 170.7 24.4845C170.674 24.4008 170.662 24.2913 170.668 24.1432C170.674 23.995 170.693 23.8791 170.719 23.8018V23.6602C170.731 23.5957 170.737 23.5249 170.731 23.4476C170.725 23.3703 170.731 23.2995 170.763 23.2351C170.775 23.1707 170.782 23.1063 170.782 23.0419C170.782 22.9839 170.794 22.9195 170.819 22.8487C170.87 22.6748 170.92 22.5009 170.958 22.3335C170.996 22.166 171.053 21.9986 171.116 21.8376C171.355 21.2837 171.639 20.82 171.967 20.4465C172.295 20.0729 172.698 19.7316 173.178 19.4224C173.31 19.358 173.449 19.2936 173.594 19.2421C173.739 19.1906 173.884 19.1262 174.029 19.0618C174.199 18.9974 174.382 18.9459 174.565 18.9201C174.748 18.8943 174.943 18.8557 175.139 18.7977C175.246 18.7849 175.34 18.7784 175.435 18.7784C175.53 18.7784 175.618 18.772 175.712 18.7591C176.482 18.7462 177.144 18.8299 177.705 19.0038C178.266 19.1777 178.764 19.4225 179.206 19.7316C179.351 19.8411 179.502 19.957 179.653 20.0858C179.805 20.2146 179.937 20.3498 180.038 20.498C180.145 20.6332 180.24 20.7685 180.328 20.9037C180.416 21.039 180.504 21.1806 180.593 21.3288C180.687 21.4769 180.757 21.6379 180.813 21.8054C180.864 21.9728 180.927 22.1531 180.99 22.3399C181.028 22.4494 181.066 22.5653 181.091 22.6812C181.116 22.8036 181.141 22.926 181.173 23.0483C181.185 23.0998 181.192 23.1578 181.192 23.2093C181.192 23.2609 181.198 23.3188 181.211 23.3703C181.236 23.4412 181.242 23.512 181.23 23.5957C181.204 23.6795 181.211 23.7503 181.242 23.8212ZM178.462 24.5489C178.474 24.4845 178.48 24.3815 178.48 24.2527C178.48 24.1238 178.474 24.0272 178.462 23.9564V23.7954C178.436 23.731 178.424 23.6537 178.424 23.57C178.424 23.4863 178.417 23.4154 178.405 23.3446C178.405 23.2931 178.398 23.248 178.386 23.2222C178.361 23.1127 178.335 23.0032 178.317 22.8873C178.298 22.7714 178.266 22.6619 178.228 22.5524C178.083 22.1982 177.913 21.902 177.711 21.6508C177.516 21.3996 177.251 21.2 176.917 21.0518C176.835 21.0261 176.759 21.0003 176.677 20.981C176.595 20.9617 176.513 20.9359 176.419 20.9102C176.311 20.8844 176.198 20.8715 176.084 20.878C175.965 20.8844 175.845 20.8908 175.725 20.8908C175.687 20.9166 175.637 20.9295 175.586 20.923C175.536 20.9166 175.485 20.923 175.448 20.9359C175.353 20.9617 175.265 20.9874 175.183 21.0068C175.094 21.0261 175.019 21.0583 174.956 21.0969C174.628 21.245 174.357 21.4576 174.155 21.7345C173.947 22.0114 173.789 22.3335 173.669 22.6941C173.632 22.8294 173.6 22.971 173.581 23.1192C173.562 23.2673 173.537 23.4154 173.512 23.5635C173.499 23.6344 173.493 23.6988 173.493 23.7632C173.493 23.834 173.493 23.8984 173.493 23.9628C173.468 24.0594 173.455 24.2011 173.461 24.3879C173.468 24.5747 173.487 24.7164 173.512 24.813V24.9933C173.537 25.1028 173.556 25.2058 173.569 25.3089C173.581 25.4119 173.6 25.515 173.625 25.6244C173.758 26.0302 173.903 26.3586 174.054 26.6098C174.205 26.861 174.445 27.0864 174.779 27.286C174.874 27.3569 174.975 27.4084 175.088 27.447C175.202 27.4857 175.315 27.5243 175.435 27.5501C175.485 27.563 175.536 27.5694 175.574 27.563C175.612 27.5565 175.662 27.563 175.712 27.5758C175.763 27.5887 175.82 27.6016 175.883 27.608C175.939 27.6145 175.996 27.6145 176.053 27.5952H176.211C176.318 27.5694 176.425 27.5501 176.526 27.5372C176.633 27.5243 176.728 27.4986 176.822 27.4535C177.169 27.3182 177.446 27.1379 177.654 26.906C177.869 26.6742 178.045 26.3908 178.19 26.0559C178.241 25.9207 178.285 25.7854 178.31 25.6502C178.335 25.5149 178.367 25.3733 178.411 25.2251C178.424 25.1736 178.43 25.1221 178.43 25.0706C178.43 25.0255 178.436 24.974 178.449 24.916C178.449 24.8516 178.449 24.7872 178.449 24.7228C178.449 24.6584 178.449 24.6198 178.462 24.5489Z" fill="#10182B"/>
<path d="M188.942 18.7512C189.737 18.7254 190.399 18.8413 190.928 19.0925C191.458 19.3501 191.874 19.7301 192.177 20.226C192.271 20.3741 192.341 20.5351 192.398 20.7026C192.448 20.87 192.505 21.0439 192.555 21.2178C192.58 21.3273 192.599 21.4303 192.606 21.5205C192.612 21.6171 192.631 21.7072 192.656 21.8038C192.656 21.8876 192.662 21.9391 192.675 21.9648C192.7 22.1516 192.713 22.3513 192.713 22.5509C192.713 22.7506 192.713 22.9502 192.713 23.137V24.9403V28.2248C192.713 28.4824 192.707 28.7271 192.7 28.9654C192.694 29.2037 192.599 29.3518 192.41 29.4227C192.328 29.4484 192.24 29.4613 192.133 29.4613C192.026 29.4613 191.918 29.4613 191.818 29.4613H190.746C190.588 29.4613 190.443 29.4484 190.317 29.4291C190.191 29.4098 190.096 29.3518 190.027 29.2552C189.976 29.1715 189.945 29.0685 189.938 28.9397C189.932 28.8109 189.926 28.6756 189.926 28.521V27.1042V24.0837C189.926 23.5814 189.907 23.1241 189.869 22.6926C189.831 22.2675 189.712 21.9069 189.51 21.6106C189.327 21.3401 189.056 21.1534 188.696 21.0439C188.627 21.0181 188.558 21.0053 188.488 21.0053C188.413 21.0053 188.337 20.9924 188.261 20.9666C188.192 20.9537 188.11 20.9473 188.015 20.9537C187.914 20.9602 187.839 20.9731 187.788 20.9859C187.738 20.9988 187.687 21.0053 187.65 21.0053C187.612 21.0053 187.568 21.0117 187.53 21.0246C187.227 21.1083 186.981 21.2113 186.798 21.3466C186.376 21.6557 186.124 22.113 186.042 22.7055C185.96 23.298 185.922 23.9678 185.922 24.7148V27.2459V28.4824C185.922 28.6048 185.922 28.7271 185.922 28.8495C185.922 28.9719 185.903 29.0749 185.865 29.1522C185.796 29.3003 185.695 29.3905 185.55 29.4162C185.405 29.442 185.228 29.4549 185.014 29.4549H184.024C183.879 29.4549 183.734 29.4484 183.589 29.4356C183.444 29.4227 183.337 29.3776 183.274 29.2939C183.179 29.1715 183.135 28.9976 183.148 28.7658C183.154 28.5339 183.16 28.3214 183.16 28.1153V25.3589V20.9022V19.8718C183.16 19.7236 183.16 19.5884 183.173 19.466C183.179 19.3437 183.217 19.2406 183.28 19.1633C183.305 19.1247 183.349 19.0925 183.406 19.0732C183.463 19.0538 183.526 19.0345 183.595 19.0216H183.696C183.759 19.0088 183.829 19.0023 183.904 19.0023C183.98 19.0023 184.049 19.0023 184.112 19.0023H184.945C185.052 19.0023 185.153 19.0088 185.254 19.0152C185.354 19.0216 185.443 19.041 185.518 19.0667C185.613 19.1054 185.676 19.1698 185.708 19.2471C185.739 19.3308 185.771 19.4209 185.796 19.5304C185.808 19.582 185.815 19.6335 185.808 19.6721C185.802 19.7108 185.808 19.7558 185.84 19.7945C185.865 19.8653 185.89 19.904 185.909 19.9168C185.928 19.9297 185.96 19.949 185.998 19.9748C186.143 19.9877 186.262 19.9362 186.357 19.8202C186.452 19.7043 186.546 19.6142 186.653 19.5497C187.013 19.2793 187.41 19.0603 187.845 18.8993C187.965 18.8606 188.085 18.8349 188.211 18.8156C188.337 18.8027 188.469 18.7834 188.614 18.7576C188.652 18.7447 188.715 18.7383 188.791 18.7447C188.86 18.7705 188.911 18.764 188.942 18.7512Z" fill="#10182B"/>
<path d="M200.644 22.8103C200.707 22.8618 200.758 22.952 200.783 23.0615C200.808 23.1774 200.827 23.3062 200.833 23.4479C200.84 23.5896 200.84 23.7377 200.833 23.8858C200.827 24.0339 200.821 24.1692 200.821 24.2915C200.821 24.401 200.821 24.5041 200.821 24.6071C200.821 24.7102 200.808 24.8003 200.783 24.8776C200.714 25.0257 200.613 25.1095 200.468 25.1288C200.323 25.1481 200.152 25.161 199.951 25.161H196.243C196.073 25.161 195.865 25.1674 195.625 25.1739C195.386 25.1803 195.215 25.1481 195.108 25.0837C195.026 25.0322 194.969 24.9485 194.938 24.8325C194.906 24.7166 194.887 24.5878 194.881 24.4461C194.875 24.3044 194.875 24.1563 194.881 24.0017C194.887 23.8472 194.894 23.7055 194.894 23.5831C194.894 23.4608 194.894 23.3384 194.906 23.216C194.913 23.0937 194.938 22.9971 194.976 22.9326C195.026 22.8682 195.114 22.8038 195.234 22.7523C195.26 22.7523 195.291 22.7523 195.323 22.7394C195.354 22.733 195.386 22.7266 195.411 22.7266H200.07C200.19 22.7266 200.298 22.733 200.398 22.7394C200.493 22.7459 200.575 22.7652 200.644 22.8103Z" fill="#10182B"/>
<path d="M202.946 15.0221H204.832C205.027 15.0221 205.216 15.0285 205.399 15.0349C205.576 15.0414 205.721 15.0929 205.828 15.1895C205.878 15.2153 205.923 15.2604 205.954 15.3119C205.986 15.3634 206.023 15.4214 206.061 15.4729C206.124 15.5824 206.187 15.6919 206.25 15.7949C206.307 15.9044 206.37 16.0139 206.44 16.1169C206.667 16.4711 206.881 16.8189 207.083 17.1602C207.285 17.5016 207.505 17.8558 207.726 18.2036C207.808 18.3388 207.884 18.4676 207.953 18.5964C208.029 18.7252 208.104 18.8476 208.18 18.9699C208.23 19.0408 208.281 19.1052 208.331 19.1696C208.375 19.2404 208.445 19.2855 208.539 19.3113C208.621 19.3242 208.684 19.3113 208.735 19.2598C208.785 19.2147 208.829 19.176 208.855 19.1503C208.974 19.0279 209.075 18.8927 209.151 18.7317C209.233 18.5771 209.321 18.4225 209.428 18.2744C209.655 17.8944 209.889 17.5209 210.135 17.1409C210.38 16.7609 210.614 16.3874 210.841 16.0074C210.948 15.8464 211.061 15.6661 211.175 15.46C211.288 15.2539 211.452 15.1251 211.654 15.0543C211.761 15.0285 211.881 15.0156 212.014 15.0156C212.146 15.0156 212.278 15.0156 212.411 15.0156H213.842C213.987 15.0156 214.132 15.0221 214.277 15.0349C214.422 15.0478 214.51 15.1122 214.536 15.2153C214.574 15.3119 214.567 15.3956 214.504 15.4793C214.447 15.563 214.403 15.6275 214.378 15.679C214.258 15.8657 214.138 16.0525 214.019 16.2393C213.899 16.4196 213.779 16.6064 213.659 16.7996C213.237 17.4372 212.821 18.0619 212.417 18.6866C212.014 19.3113 211.597 19.936 211.175 20.5736C211.068 20.7346 210.967 20.8956 210.879 21.0502C210.784 21.2047 210.689 21.3657 210.582 21.5267C210.557 21.5783 210.519 21.6491 210.475 21.7264C210.431 21.8101 210.418 21.9003 210.443 22.0098C210.469 22.1321 210.513 22.2352 210.57 22.3253C210.626 22.4155 210.689 22.5057 210.759 22.5958C210.986 22.9629 211.238 23.3365 211.515 23.7293C211.9 24.3347 212.285 24.9401 212.676 25.5455C213.067 26.1444 213.457 26.7498 213.855 27.3616C214 27.5935 214.145 27.8124 214.29 28.0314C214.435 28.2504 214.58 28.4693 214.725 28.7012C214.75 28.7527 214.8 28.8364 214.876 28.9459C214.952 29.0554 214.971 29.1585 214.946 29.2486C214.908 29.371 214.807 29.4354 214.649 29.4418C214.492 29.4483 214.334 29.4547 214.17 29.4547H212.581C212.449 29.4547 212.31 29.4612 212.165 29.4676C212.02 29.474 211.894 29.4676 211.787 29.4354C211.56 29.371 211.389 29.2293 211.269 29.0168C211.15 28.8107 211.03 28.611 210.91 28.4178C210.645 27.9992 210.387 27.5806 210.128 27.162C209.87 26.7434 209.611 26.3247 209.346 25.9061C209.277 25.8095 209.227 25.7194 209.176 25.6356C209.132 25.5455 209.075 25.4553 209.006 25.3651C208.968 25.3007 208.924 25.2299 208.886 25.1655C208.848 25.1011 208.798 25.0302 208.747 24.9658C208.71 24.9272 208.659 24.8757 208.609 24.8242C208.558 24.7726 208.483 24.7598 208.388 24.7855C208.293 24.8113 208.224 24.8628 208.18 24.9272C208.136 24.998 208.085 25.0624 208.029 25.1269C207.947 25.2492 207.871 25.3716 207.802 25.4939C207.726 25.6163 207.65 25.7387 207.575 25.861C207.297 26.2925 207.02 26.724 206.742 27.1491C206.465 27.5742 206.194 28.0057 205.929 28.4372C205.822 28.611 205.708 28.8107 205.582 29.0232C205.456 29.2422 205.279 29.3839 205.059 29.4483C204.952 29.474 204.832 29.4869 204.699 29.4805C204.567 29.474 204.441 29.4676 204.321 29.4676H203.009C202.877 29.4676 202.738 29.474 202.593 29.4805C202.448 29.4869 202.328 29.4612 202.234 29.4096C202.209 29.3839 202.19 29.3581 202.177 29.3388C202.165 29.3195 202.146 29.2937 202.12 29.2679C202.108 29.1198 202.139 28.9975 202.209 28.8944C202.284 28.7914 202.354 28.6883 202.417 28.5788C202.562 28.3599 202.7 28.1538 202.833 27.9477C202.965 27.748 203.104 27.5355 203.249 27.3165C203.634 26.724 204.018 26.1315 204.397 25.5455C204.781 24.9594 205.166 24.3605 205.544 23.7551C205.651 23.5812 205.765 23.4073 205.878 23.2399C205.998 23.0724 206.112 22.8985 206.213 22.7246C206.276 22.6151 206.351 22.5057 206.433 22.4026C206.515 22.2931 206.566 22.1643 206.591 22.0162C206.616 21.9067 206.61 21.8101 206.572 21.7199C206.534 21.6298 206.49 21.5589 206.452 21.5074C206.358 21.3464 206.269 21.1918 206.175 21.0437C206.08 20.8956 205.986 20.7475 205.878 20.5993C205.809 20.4899 205.746 20.3933 205.683 20.2966C205.614 20.2 205.551 20.1034 205.487 19.994C205.21 19.5753 204.933 19.1567 204.661 18.7445C204.39 18.3324 204.107 17.9202 203.817 17.5016C203.747 17.3921 203.69 17.2955 203.627 17.1989C203.571 17.1023 203.508 17.0057 203.438 16.8962C203.344 16.7738 203.262 16.6515 203.192 16.5291C203.117 16.4067 203.041 16.2908 202.965 16.1878C202.896 16.104 202.839 16.0267 202.789 15.943C202.738 15.8593 202.682 15.782 202.631 15.6983C202.606 15.6339 202.568 15.5502 202.524 15.4536C202.48 15.357 202.48 15.2732 202.537 15.1895C202.574 15.138 202.656 15.0929 202.776 15.0671C202.801 15.0543 202.827 15.0478 202.858 15.0543C202.89 15.0414 202.921 15.0349 202.946 15.0221Z" fill="#10182B"/>
<rect width="46.8626" height="48" rx="10.6667" fill="#10182B"/>
<path d="M34.2416 12.7969L34.126 12.931L34.2416 12.816V12.7969Z" fill="#3CA0C9"/>
<path d="M12.2293 35.1279C10.9878 33.8437 9.97194 32.5021 9.21949 31.1797C9.20068 31.2755 9.20068 31.3713 9.20068 31.4863C9.20068 31.8697 9.31355 32.2913 9.48285 32.713C9.87789 33.6904 10.6115 34.7445 11.5897 35.7412L11.6085 35.7603C12.3422 36.5078 13.1134 37.1211 13.8659 37.5427C14.6183 37.9644 15.352 38.2327 16.0104 38.1561C14.75 37.4086 13.4708 36.3928 12.2669 35.1662C12.2481 35.147 12.2293 35.1279 12.2293 35.1279Z" fill="#3CA0C9"/>
<path d="M23.4792 38.1747C23.4985 38.1747 23.5178 38.1747 23.5178 38.1747C23.5371 38.1555 23.5371 38.1364 23.5563 38.1172C23.5371 38.1364 23.4985 38.1555 23.4792 38.1747Z" fill="#3CA0C9"/>
<path d="M20.6958 39.0342C19.7364 38.5933 18.7771 38.0375 17.7989 37.3667C17.5919 37.2901 17.385 37.2134 17.1781 37.1176C15.9366 36.5809 14.601 35.6801 13.3782 34.4727C13.2842 34.3769 13.1901 34.3002 13.0961 34.2044C13.0773 34.1852 13.0396 34.1469 13.0208 34.1277C11.5347 32.5753 10.5001 30.8695 9.99221 29.3746C9.10808 27.9755 8.41206 26.5955 7.94178 25.2539C7.86654 25.5222 7.79129 25.7905 7.77248 26.078C7.69724 26.8638 7.8101 27.7263 8.09227 28.6271C8.33682 29.4512 8.71304 30.2945 9.20214 31.1762C9.95459 32.4986 10.9704 33.8594 12.2119 35.1243C12.2307 35.1435 12.2307 35.1435 12.2496 35.1627C13.4535 36.3893 14.7326 37.4051 15.993 38.1525C16.3692 38.3825 16.7454 38.5742 17.1029 38.7658C18.7206 39.5516 20.2631 39.8966 21.5611 39.6091C21.6552 39.59 21.7304 39.5516 21.8245 39.5325C21.4671 39.36 21.0908 39.2066 20.6958 39.0342Z" fill="#3CA0C9"/>
<path d="M27.6746 37.0407C27.6369 37.079 27.5993 37.1365 27.5617 37.194C27.1478 37.6156 26.6399 37.9031 26.038 38.0756C25.3231 38.2864 24.4766 38.3248 23.5361 38.1906C23.5173 38.1906 23.4985 38.1906 23.4985 38.1906C22.6331 38.0564 21.6926 37.7881 20.7144 37.3665C18.6828 36.504 16.5195 35.0091 14.5443 33.0158C14.5067 32.9775 14.4879 32.9583 14.4503 32.92C14.4314 32.92 14.4314 32.9008 14.4126 32.8817C11.8167 30.2176 10.1237 27.2086 9.5029 24.6595C9.23954 23.5287 9.1643 22.5129 9.31479 21.6505C9.44647 20.788 9.78507 20.0789 10.3118 19.5614C10.3494 19.5231 10.4058 19.4847 10.4435 19.4464C10.1989 18.5456 10.0672 17.664 10.0296 16.8398C9.48409 17.0698 8.995 17.3765 8.58115 17.7981C7.8287 18.5456 7.41485 19.5614 7.28317 20.673C7.1515 21.8038 7.30199 23.0496 7.6594 24.3529C7.75346 24.6595 7.84751 24.9662 7.96038 25.292C8.43066 26.6336 9.12668 28.0135 10.0108 29.4126C10.9514 30.8692 12.08 32.3259 13.4156 33.725C13.4533 33.7633 13.4909 33.8208 13.5473 33.8591C13.6226 33.9358 13.6978 33.9933 13.7731 34.0699C15.071 35.3732 16.4442 36.504 17.8175 37.424C18.7956 38.0756 19.755 38.6314 20.7144 39.0914C21.1094 39.2639 21.4857 39.4172 21.8619 39.5705C23.7994 40.2988 25.6429 40.5672 27.1666 40.1838C27.9755 39.9922 28.7092 39.5897 29.2735 39.0147C29.6874 38.5931 29.9883 38.0948 30.1953 37.539C29.4052 37.4431 28.5399 37.2898 27.6746 37.0407Z" fill="#3CA0C9"/>
<path d="M36.5348 31.0436C36.3279 31.1203 36.121 31.1969 35.8953 31.2544C35.4814 31.3502 35.0488 31.4077 34.5973 31.4269C34.4656 32.596 34.0518 33.5735 33.3558 34.2635C32.8478 34.7809 32.2271 35.1259 31.4934 35.3367C29.8569 35.8159 27.6183 35.5284 25.2293 34.4934C23.066 33.5735 20.7522 32.0402 18.6266 29.9895C18.4008 29.7786 18.1751 29.5678 17.9493 29.3378C17.8365 29.2228 17.7236 29.0887 17.5919 28.9737C14.7891 26.003 12.9267 22.6681 12.2307 19.7932C11.9109 18.4516 11.8169 17.225 11.9862 16.1709C12.1555 15.1168 12.5505 14.2735 13.1901 13.6218C13.698 13.1044 14.3188 12.7594 15.0524 12.5486C15.3346 12.4719 15.6544 12.4144 15.9742 12.3761C15.9742 12.1844 15.993 11.9736 16.0118 11.7819C16.0682 11.3028 16.1811 10.8236 16.3504 10.402C15.5227 10.3636 14.7514 10.4211 14.0366 10.5936C13.096 10.8428 12.2495 11.2836 11.5723 11.9736C10.707 12.8552 10.2179 14.0052 10.0486 15.3084C9.99219 15.7876 9.9922 16.3051 10.011 16.8225C10.0486 17.6467 10.1803 18.5283 10.4249 19.4291C10.4437 19.4866 10.4437 19.5249 10.4625 19.5824C11.403 22.9939 13.698 26.8271 17.0464 30.2578C19.6424 32.9027 22.464 34.9151 25.154 36.1225C26.0006 36.5059 26.8471 36.8125 27.6559 37.0425C28.5401 37.2917 29.3866 37.445 30.1955 37.4833C31.0043 37.5217 31.7944 37.4642 32.5092 37.2917C33.4498 37.0425 34.2963 36.6017 34.9735 35.9117C36.1774 34.7043 36.6477 32.9793 36.5348 31.0436Z" fill="#3CA0C9"/>
<path d="M38.9444 23.511C38.8691 23.2235 38.7751 22.936 38.6622 22.6677C38.5117 23.0319 38.3048 23.3768 38.0415 23.6452C37.8157 23.8752 37.5712 24.0476 37.289 24.1818C37.3831 24.9101 37.4019 25.6001 37.3078 26.2134C37.1573 27.0759 36.8375 27.785 36.3108 28.3025C35.897 28.7241 35.3891 29.0116 34.7871 29.1841C33.4139 29.5866 31.514 29.3566 29.4635 28.4558C27.5448 27.6317 25.5132 26.2709 23.632 24.431C23.4816 24.2968 23.3311 24.1435 23.1994 24.0093C23.1053 23.9135 23.0113 23.7985 22.9172 23.7027C20.4718 21.1153 18.854 18.2212 18.2708 15.7488C18.0075 14.6372 17.9322 13.6023 18.0827 12.7398C18.2144 11.8773 18.553 11.1682 19.0797 10.6507C19.4936 10.2291 19.9827 9.94158 20.6034 9.76909C21.3183 9.55827 22.1836 9.51993 23.143 9.67326C23.2746 9.38577 23.4439 9.13662 23.6697 8.90663C23.9518 8.61914 24.2716 8.40831 24.6479 8.27415C22.7667 7.58418 20.9797 7.35419 19.4748 7.71834C18.6659 7.91 17.9322 8.31248 17.3491 8.88746C16.9352 9.30911 16.6155 9.82659 16.3897 10.3824C16.2204 10.8232 16.1075 11.2832 16.0511 11.7623C16.0323 11.954 16.0323 12.1648 16.0135 12.3565C15.9759 13.3148 16.1264 14.3497 16.4273 15.4422C17.2738 18.4512 19.3431 21.8627 22.3341 24.9293C24.629 27.2675 27.1121 29.0499 29.4823 30.1616C31.3258 31.0049 33.0753 31.4648 34.6366 31.4265C35.0881 31.4073 35.5207 31.369 35.9346 31.254C36.1603 31.1965 36.3673 31.139 36.5742 31.0432C37.1385 30.8132 37.6276 30.5065 38.0603 30.0657C38.8127 29.3183 39.2266 28.3025 39.3582 27.1908C39.4523 26.0792 39.3018 24.8334 38.9444 23.511Z" fill="#3CA0C9"/>
<path d="M38.5854 19.0831C38.2468 17.9715 37.6637 16.7832 36.8924 15.6141C37.0241 15.9399 37.0993 16.2466 37.1182 16.5341C37.1558 16.8982 37.0617 17.2432 36.836 17.4924C36.7231 17.6074 36.5914 17.684 36.4409 17.7224C36.6103 18.1249 36.7419 18.5082 36.836 18.8723C37.0241 19.5815 37.0617 20.2331 36.9865 20.7697C36.9112 21.3064 36.7043 21.7089 36.4221 22.0155C36.1964 22.2647 35.8954 22.418 35.5192 22.533C34.6915 22.763 33.4876 22.6097 32.152 22.0347C30.8164 21.4597 29.3867 20.4631 28.07 19.1215C26.3581 17.3774 25.2295 15.4033 24.8156 13.755C24.6275 13.0459 24.5899 12.3943 24.6651 11.8576C24.7404 11.321 24.9285 10.9185 25.2483 10.6118C25.4928 10.3627 25.775 10.2094 26.1324 10.0944C26.9225 9.86437 28.1076 9.99853 29.3867 10.5543C29.4244 10.401 29.4996 10.2669 29.6125 10.1519C29.7818 9.97937 30.0451 9.88354 30.3085 9.86437C30.6847 9.84521 31.0797 9.9602 31.5124 10.1327C30.854 9.67271 30.1956 9.28939 29.556 8.98274C27.9383 8.19694 26.3958 7.85196 25.0978 8.13944C24.9285 8.17778 24.7592 8.23527 24.5899 8.31194C24.2325 8.46526 23.8939 8.67609 23.6117 8.94441C23.386 9.1744 23.2167 9.42356 23.085 9.71104C22.8969 10.0944 22.7652 10.516 22.7276 10.976C22.6523 11.7618 22.7652 12.6243 23.0474 13.525C23.6681 15.5758 25.079 17.8565 27.0918 19.9264C27.1106 19.9648 27.1482 19.9839 27.167 20.0223C27.2423 20.0989 27.3175 20.1564 27.3739 20.2331C28.8976 21.7472 30.5154 22.9163 32.0579 23.6638C33.6757 24.4496 35.2182 24.7946 36.5162 24.5071C36.7796 24.4496 37.0053 24.3538 37.2498 24.2388C37.532 24.1046 37.7954 23.9129 38.0023 23.7021C38.2845 23.4146 38.4914 23.0888 38.6231 22.7247C38.7547 22.3988 38.83 22.0539 38.8676 21.6897C38.9805 20.8464 38.8676 19.9839 38.5854 19.0831Z" fill="#3CA0C9"/>
<path d="M37.1184 16.5347C37.0996 16.2472 37.0056 15.9214 36.8927 15.6148C36.8551 15.5381 36.8174 15.4423 36.7798 15.3656C36.366 14.4265 35.6135 13.3915 34.6353 12.3949C33.8829 11.6283 33.1116 11.015 32.378 10.555C32.077 10.3825 31.7948 10.2291 31.5127 10.1142C31.0988 9.94166 30.685 9.82667 30.3088 9.84583C30.0454 9.865 29.782 9.94166 29.6127 10.1333C29.4999 10.2483 29.4246 10.3825 29.387 10.5358C29.3306 10.7083 29.3306 10.8808 29.3306 11.0724C29.3494 11.4366 29.4811 11.8391 29.6692 12.2416C30.1018 13.1807 30.8355 14.2156 31.8136 15.2123C31.8136 15.2123 31.8325 15.2123 31.8325 15.2314C31.8889 15.2889 31.9265 15.3273 31.9829 15.3656C32.679 16.0556 33.3938 16.6305 34.071 17.033C34.8046 17.4738 35.5007 17.7613 36.1214 17.7422C36.2155 17.7422 36.3095 17.723 36.4036 17.6847C36.5541 17.6463 36.7046 17.5697 36.7986 17.4547C37.0808 17.2439 37.156 16.8989 37.1184 16.5347ZM34.2779 12.7399C34.2779 12.759 34.2967 12.759 34.2779 12.7399V12.7399ZM35.6135 15.8639C35.5759 15.8831 35.5571 15.9214 35.463 15.9214C35.2937 15.9597 34.8799 15.8831 34.372 15.5956C33.8641 15.3273 33.2809 14.8865 32.7166 14.3115C31.983 13.564 31.475 12.759 31.2681 12.1841C31.1741 11.9349 31.1364 11.7241 31.1553 11.5899C31.1553 11.4558 31.1929 11.3983 31.2305 11.3599C31.2681 11.3216 31.3057 11.3024 31.381 11.3024C31.5503 11.2641 31.9641 11.3408 32.472 11.6283C32.9799 11.8966 33.5631 12.3374 34.1274 12.9124L34.2403 12.7782V12.7974L34.1274 12.9124C34.8611 13.6598 35.369 14.4648 35.5759 15.0398C35.67 15.2889 35.7076 15.4998 35.6888 15.6339C35.6888 15.7681 35.6511 15.8256 35.6135 15.8639Z" fill="#3CA0C9"/>
</svg>
