<svg width="19" height="20" viewBox="0 0 19 20" fill="none" xmlns="http://www.w3.org/2000/svg">
<path d="M1.02693 12.4926C0.835545 13.7472 1.6912 14.618 2.73884 15.052C6.75531 16.7159 12.3446 16.7159 16.3611 15.052C17.4088 14.618 18.2644 13.7472 18.073 12.4926C17.9554 11.7216 17.3738 11.0795 16.9429 10.4526C16.3785 9.62134 16.3225 8.7146 16.3224 7.74998C16.3224 4.02206 13.2903 1 9.54998 1C5.8097 1 2.77761 4.02206 2.77761 7.74998C2.77752 8.7146 2.72144 9.62134 2.15705 10.4526C1.72615 11.0795 1.14455 11.7216 1.02693 12.4926Z" stroke="#2b2b2b" stroke-width="1.5" stroke-linecap="round" stroke-linejoin="round"/>
<path d="M5.95117 16.2998C6.36381 17.8525 7.81912 18.9998 9.55116 18.9998C11.2832 18.9998 12.7385 17.8525 13.1512 16.2998" stroke="#2b2b2b" stroke-width="1.5" stroke-linecap="round" stroke-linejoin="round"/>
</svg>
