<svg width="18" height="18" viewBox="0 0 18 18" fill="none" xmlns="http://www.w3.org/2000/svg">
<path d="M4.5 5.95916V3.3999H13.5003V5.95916C13.5003 7.8641 13.5003 8.81657 12.9145 9.40831C12.3287 10.0001 11.3858 10.0001 9.50014 10.0001H8.50015C6.61445 10.0001 5.67161 10.0001 5.0858 9.40831C4.5 8.81657 4.5 7.8641 4.5 5.95916Z" stroke="#10182B" stroke-width="1.4" stroke-linecap="round" stroke-linejoin="round"/>
<path d="M4.5 3.40008L4.9327 2.47697C5.26829 1.76105 5.43608 1.40309 5.77619 1.20155C6.1163 1 6.55257 1 7.42509 1H10.5752C11.4477 1 11.884 1 12.2241 1.20155C12.5642 1.40309 12.732 1.76105 13.0675 2.47697L13.5003 3.40008" stroke="#10182B" stroke-width="1.4" stroke-linecap="round"/>
<path d="M8.10156 5.2002H9.90162" stroke="#10182B" stroke-width="1.4" stroke-linecap="round"/>
<path d="M1.5 14.5C1.5 13.4645 2.33947 12.625 3.375 12.625H5.25H9H12.75H14.625C15.6605 12.625 16.5 13.4645 16.5 14.5" stroke="#10182B" stroke-width="1.4" stroke-linecap="round"/>
<path d="M4.5 14.5H4.5001" stroke="#10182B" stroke-width="1.4" stroke-linecap="round"/>
<path d="M7.5 14.5H7.5001" stroke="#10182B" stroke-width="1.4" stroke-linecap="round"/>
<path d="M10.5 14.5H10.5001" stroke="#10182B" stroke-width="1.4" stroke-linecap="round"/>
<path d="M13.5 14.5H13.5001" stroke="#10182B" stroke-width="1.4" stroke-linecap="round"/>
<path d="M1.5 14.625C1.5 15.6605 2.33947 16.5 3.375 16.5H5.25H9H12.75H14.625C15.6605 16.5 16.5 15.6605 16.5 14.625" stroke="#10182B" stroke-width="1.4" stroke-linecap="round"/>
</svg>
