<svg width="42" height="42" viewBox="0 0 42 42" fill="none" xmlns="http://www.w3.org/2000/svg">
<rect width="42" height="42" rx="10" fill="#10182B"/>
<path d="M14.667 16.8128V13.2109H27.3339V16.8128C27.3339 19.4938 27.3339 20.8343 26.5094 21.6671C25.685 22.5 24.358 22.5 21.7041 22.5H20.2968C17.6428 22.5 16.3159 22.5 15.4914 21.6671C14.667 20.8343 14.667 19.4938 14.667 16.8128Z" stroke="#3CA0C9" stroke-width="1.4" stroke-linecap="round" stroke-linejoin="round"/>
<path d="M14.667 13.2108L15.276 11.9117C15.7483 10.9041 15.9844 10.4003 16.4631 10.1167C16.9418 9.83301 17.5558 9.83301 18.7837 9.83301H23.2171C24.4452 9.83301 25.0591 9.83301 25.5378 10.1167C26.0164 10.4003 26.2526 10.9041 26.7249 11.9117L27.3339 13.2108" stroke="#3CA0C9" stroke-width="1.4" stroke-linecap="round" stroke-linejoin="round"/>
<path d="M19.7354 15.7451H22.2687" stroke="#3CA0C9" stroke-width="1.4" stroke-linecap="round" stroke-linejoin="round"/>
<path d="M11 27.833C11 26.4523 12.1193 25.333 13.5 25.333H16H21H26H28.5C29.8807 25.333 31 26.4523 31 27.833" stroke="#3CA0C9" stroke-width="1.4" stroke-linecap="round" stroke-linejoin="round"/>
<path d="M15 27.833H15.0001" stroke="#3CA0C9" stroke-width="1.4" stroke-linecap="round" stroke-linejoin="round"/>
<path d="M19 27.833H19.0001" stroke="#3CA0C9" stroke-width="1.4" stroke-linecap="round" stroke-linejoin="round"/>
<path d="M23 27.833H23.0001" stroke="#3CA0C9" stroke-width="1.4" stroke-linecap="round" stroke-linejoin="round"/>
<path d="M27 27.833H27.0001" stroke="#3CA0C9" stroke-width="1.4" stroke-linecap="round" stroke-linejoin="round"/>
<path d="M11 28C11 29.3807 12.1193 30.5 13.5 30.5H16H21H26H28.5C29.8807 30.5 31 29.3807 31 28" stroke="#3CA0C9" stroke-width="1.4" stroke-linecap="round" stroke-linejoin="round"/>
</svg>
