<svg width="12" height="12" viewBox="0 0 12 12" fill="none" xmlns="http://www.w3.org/2000/svg">
<g clip-path="url(#clip0_374_1327)">
<path d="M11.7422 10.6582L8.92553 7.8415C9.534 7.00834 9.87749 5.99026 9.87749 4.95872C9.87749 2.26147 7.68218 0.0661621 4.97144 0.0661621C2.26122 0.0661621 0.065918 2.27429 0.065918 4.97221C0.065918 7.66947 2.26122 9.86477 4.97197 9.86477C6.01638 9.86477 7.02155 9.5342 7.85474 8.92572L10.6842 11.7424C10.8299 11.888 11.0148 11.9671 11.2132 11.9671C11.4115 11.9671 11.6099 11.8875 11.7421 11.7424C12.0463 11.4381 12.0464 10.949 11.7422 10.6582ZM4.97207 8.34411C3.10735 8.34411 1.58668 6.82345 1.58668 4.95872C1.58668 3.094 3.10735 1.58682 4.97207 1.58682C6.83627 1.58682 8.35693 3.10748 8.35693 4.97221C8.35693 6.83641 6.83627 8.34411 4.97207 8.34411Z" fill="#95989A"/>
</g>
<defs>
<clipPath id="clip0_374_1327">
<rect width="12" height="12" fill="white"/>
</clipPath>
</defs>
</svg>
