<svg width="14" height="13" viewBox="0 0 14 13" fill="none" xmlns="http://www.w3.org/2000/svg">
<path d="M1 2.9707H3" stroke="#98A2B3" stroke-width="1.2" stroke-linecap="round" stroke-linejoin="round"/>
<path d="M1 9.63672H5" stroke="#98A2B3" stroke-width="1.2" stroke-linecap="round" stroke-linejoin="round"/>
<path d="M11 9.63672H13" stroke="#98A2B3" stroke-width="1.2" stroke-linecap="round" stroke-linejoin="round"/>
<path d="M9 2.9707H13" stroke="#98A2B3" stroke-width="1.2" stroke-linecap="round" stroke-linejoin="round"/>
<path d="M3 2.9707C3 2.34945 3 2.03882 3.10149 1.79379C3.23682 1.46709 3.49639 1.20752 3.82309 1.0722C4.06812 0.970703 4.37875 0.970703 5 0.970703C5.62125 0.970703 5.93187 0.970703 6.17693 1.0722C6.5036 1.20752 6.7632 1.46709 6.89853 1.79379C7 2.03882 7 2.34945 7 2.9707C7 3.59196 7 3.90258 6.89853 4.14762C6.7632 4.47432 6.5036 4.73388 6.17693 4.86921C5.93187 4.9707 5.62125 4.9707 5 4.9707C4.37875 4.9707 4.06812 4.9707 3.82309 4.86921C3.49639 4.73388 3.23682 4.47432 3.10149 4.14762C3 3.90258 3 3.59196 3 2.9707Z" stroke="#98A2B3" stroke-width="1.2"/>
<path d="M7 9.63672C7 9.01545 7 8.70485 7.10147 8.45979C7.2368 8.13312 7.4964 7.87352 7.82307 7.73819C8.06813 7.63672 8.37873 7.63672 9 7.63672C9.62127 7.63672 9.93187 7.63672 10.1769 7.73819C10.5036 7.87352 10.7632 8.13312 10.8985 8.45979C11 8.70485 11 9.01545 11 9.63672C11 10.258 11 10.5686 10.8985 10.8137C10.7632 11.1403 10.5036 11.3999 10.1769 11.5353C9.93187 11.6367 9.62127 11.6367 9 11.6367C8.37873 11.6367 8.06813 11.6367 7.82307 11.5353C7.4964 11.3999 7.2368 11.1403 7.10147 10.8137C7 10.5686 7 10.258 7 9.63672Z" stroke="#98A2B3" stroke-width="1.2"/>
</svg>
