<svg width="16" height="16" viewBox="0 0 16 16" fill="none" xmlns="http://www.w3.org/2000/svg">
<path d="M4.99015 11.0098C4.60695 10.6266 4.67065 8.99864 4.67065 8.99864M4.99015 11.0098C5.37336 11.393 7.00129 11.3292 7.00129 11.3292M4.99015 11.0098L7.33335 8.66651M11.01 4.98992C10.6268 4.60671 8.99882 4.67048 8.99882 4.67048M11.01 4.98992C11.3932 5.37313 11.3294 7.00104 11.3294 7.00104M11.01 4.98992L8.66669 7.33317" stroke="white" stroke-linecap="round" stroke-linejoin="round"/>
<path d="M1.66669 7.99984C1.66669 5.01428 1.66669 3.5215 2.59418 2.594C3.52168 1.6665 5.01446 1.6665 8.00002 1.6665C10.9856 1.6665 12.4784 1.6665 13.4059 2.594C14.3334 3.5215 14.3334 5.01428 14.3334 7.99984C14.3334 10.9854 14.3334 12.4782 13.4059 13.4057C12.4784 14.3332 10.9856 14.3332 8.00002 14.3332C5.01446 14.3332 3.52168 14.3332 2.59418 13.4057C1.66669 12.4782 1.66669 10.9854 1.66669 7.99984Z" stroke="white"/>
</svg>
