<svg width="84" height="26" viewBox="0 0 84 26" fill="none" xmlns="http://www.w3.org/2000/svg">
<path d="M1.74574 14.5119C0.824818 13.7143 0.82482 12.2857 1.74574 11.4881L6.50565 7.36594C7.80094 6.24419 9.81496 7.1643 9.81496 8.8778V17.1222C9.81496 18.8357 7.80094 19.7558 6.50565 18.6341L1.74574 14.5119Z" fill="#2B2B2B"/>
<rect x="4.81494" y="0.5" width="93" height="25" rx="6" fill="#2B2B2B"/>
<path d="M18.0719 15.485C18.6459 15.485 19.1429 15.4057 19.5629 15.247C19.9876 15.0883 20.2886 14.9343 20.4659 14.785L20.9909 15.814C20.7809 16.0007 20.4146 16.1897 19.8919 16.381C19.3739 16.5723 18.7509 16.668 18.0229 16.668C17.3416 16.668 16.7093 16.5467 16.1259 16.304C15.5426 16.0613 15.0316 15.723 14.5929 15.289C14.1589 14.855 13.8183 14.3487 13.5709 13.77C13.3283 13.1913 13.2069 12.566 13.2069 11.894C13.2069 11.222 13.3283 10.5943 13.5709 10.011C13.8136 9.42767 14.1519 8.919 14.5859 8.485C15.0246 8.04633 15.5356 7.70567 16.1189 7.463C16.7069 7.21567 17.3416 7.092 18.0229 7.092C18.7509 7.092 19.3739 7.18767 19.8919 7.379C20.4146 7.57033 20.7809 7.75933 20.9909 7.946L20.4659 8.975C20.2886 8.821 19.9876 8.667 19.5629 8.513C19.1429 8.35433 18.6459 8.275 18.0719 8.275C17.5493 8.275 17.0709 8.36367 16.6369 8.541C16.2029 8.71833 15.8249 8.97033 15.5029 9.297C15.1856 9.619 14.9383 9.99933 14.7609 10.438C14.5883 10.8767 14.5019 11.355 14.5019 11.873C14.5019 12.3957 14.5883 12.8787 14.7609 13.322C14.9383 13.7607 15.1856 14.1433 15.5029 14.47C15.8249 14.792 16.2029 15.0417 16.6369 15.219C17.0709 15.3963 17.5493 15.485 18.0719 15.485ZM25.0556 16.668C24.463 16.668 23.9356 16.535 23.4736 16.269C23.0163 16.003 22.657 15.6437 22.3956 15.191C22.1343 14.7337 22.0036 14.218 22.0036 13.644C22.0036 13.07 22.1343 12.552 22.3956 12.09C22.657 11.628 23.0163 11.2617 23.4736 10.991C23.9356 10.7203 24.463 10.585 25.0556 10.585C25.6436 10.585 26.164 10.7203 26.6166 10.991C27.074 11.2617 27.431 11.628 27.6876 12.09C27.9443 12.552 28.0726 13.07 28.0726 13.644C28.0726 14.218 27.9443 14.7337 27.6876 15.191C27.431 15.6437 27.074 16.003 26.6166 16.269C26.164 16.535 25.6436 16.668 25.0556 16.668ZM25.0556 15.625C25.429 15.625 25.7533 15.5387 26.0286 15.366C26.3086 15.1933 26.5256 14.9577 26.6796 14.659C26.8336 14.3557 26.9106 14.015 26.9106 13.637C26.9106 13.259 26.8336 12.9183 26.6796 12.615C26.5256 12.3117 26.3086 12.0713 26.0286 11.894C25.7533 11.7167 25.429 11.628 25.0556 11.628C24.6776 11.628 24.3486 11.7167 24.0686 11.894C23.7886 12.0713 23.5693 12.3117 23.4106 12.615C23.2566 12.9183 23.1796 13.259 23.1796 13.637C23.1796 14.015 23.2566 14.3557 23.4106 14.659C23.5693 14.9577 23.7886 15.1933 24.0686 15.366C24.3486 15.5387 24.6776 15.625 25.0556 15.625ZM36.318 10.585C36.7427 10.585 37.1067 10.6783 37.41 10.865C37.7133 11.047 37.9443 11.327 38.103 11.705C38.2663 12.083 38.348 12.566 38.348 13.154V16.5H37.144V13.399C37.144 12.7783 37.0577 12.3117 36.885 11.999C36.7123 11.6863 36.3973 11.53 35.94 11.53C35.6973 11.53 35.464 11.5977 35.24 11.733C35.0207 11.8637 34.8387 12.0667 34.694 12.342C34.554 12.6173 34.484 12.9697 34.484 13.399V16.5H33.35V13.399C33.35 12.7783 33.2427 12.3117 33.028 11.999C32.8133 11.6863 32.5123 11.53 32.125 11.53C31.8777 11.53 31.6443 11.5953 31.425 11.726C31.2103 11.852 31.0353 12.0527 30.9 12.328C30.7647 12.6033 30.697 12.9603 30.697 13.399V16.5H29.486V10.753H30.697V11.635C30.7483 11.4903 30.858 11.3363 31.026 11.173C31.1987 11.0097 31.418 10.872 31.684 10.76C31.9547 10.6433 32.2557 10.585 32.587 10.585C32.9323 10.585 33.2217 10.655 33.455 10.795C33.6883 10.935 33.8727 11.1077 34.008 11.313C34.1433 11.5137 34.2367 11.7073 34.288 11.894C34.3533 11.6933 34.4793 11.4927 34.666 11.292C34.8527 11.0867 35.0883 10.9187 35.373 10.788C35.6577 10.6527 35.9727 10.585 36.318 10.585ZM40.1654 16.5V10.753H41.3834V16.5H40.1654ZM40.7884 8.786C40.569 8.786 40.38 8.709 40.2214 8.555C40.0674 8.39633 39.9904 8.20733 39.9904 7.988C39.9904 7.76867 40.0674 7.57967 40.2214 7.421C40.38 7.26233 40.569 7.183 40.7884 7.183C40.933 7.183 41.066 7.22033 41.1874 7.295C41.3134 7.36967 41.4137 7.46767 41.4884 7.589C41.563 7.70567 41.6004 7.83867 41.6004 7.988C41.6004 8.20733 41.521 8.39633 41.3624 8.555C41.2037 8.709 41.0124 8.786 40.7884 8.786ZM46.4583 10.585C46.8363 10.585 47.2026 10.6643 47.5573 10.823C47.9166 10.9817 48.2106 11.2337 48.4393 11.579C48.6726 11.9197 48.7893 12.3653 48.7893 12.916V16.5H47.5573V13.154C47.5573 12.5847 47.4243 12.1717 47.1583 11.915C46.8923 11.6537 46.5493 11.523 46.1293 11.523C45.8539 11.523 45.5879 11.6023 45.3313 11.761C45.0793 11.915 44.8716 12.1297 44.7083 12.405C44.5449 12.6757 44.4633 12.9837 44.4633 13.329V16.5H43.2453V10.753H44.4633V11.775C44.5053 11.6163 44.6196 11.4437 44.8063 11.257C44.9929 11.0703 45.2309 10.9117 45.5203 10.781C45.8096 10.6503 46.1223 10.585 46.4583 10.585ZM53.126 19.573C52.6733 19.573 52.2626 19.5263 51.894 19.433C51.53 19.3397 51.2103 19.2067 50.935 19.034C50.6643 18.866 50.4473 18.6677 50.284 18.439L51.082 17.676C51.1706 17.7973 51.2896 17.9257 51.439 18.061C51.593 18.201 51.8006 18.32 52.062 18.418C52.3233 18.516 52.664 18.565 53.084 18.565C53.4946 18.565 53.8423 18.4763 54.127 18.299C54.4116 18.1263 54.6286 17.8907 54.778 17.592C54.9273 17.2933 55.002 16.9573 55.002 16.584V16.395H56.192V16.661C56.192 17.2957 56.0543 17.8277 55.779 18.257C55.5083 18.691 55.142 19.0177 54.68 19.237C54.218 19.461 53.7 19.573 53.126 19.573ZM55.002 16.5V15.38C54.9646 15.4967 54.855 15.6577 54.673 15.863C54.4956 16.0683 54.2506 16.255 53.938 16.423C53.63 16.5863 53.266 16.668 52.846 16.668C52.314 16.668 51.831 16.542 51.397 16.29C50.9676 16.038 50.6246 15.6857 50.368 15.233C50.116 14.7757 49.99 14.2413 49.99 13.63C49.99 13.0187 50.116 12.4867 50.368 12.034C50.6246 11.5767 50.9676 11.222 51.397 10.97C51.831 10.7133 52.314 10.585 52.846 10.585C53.2613 10.585 53.6206 10.6597 53.924 10.809C54.232 10.9583 54.477 11.131 54.659 11.327C54.8456 11.523 54.9553 11.691 54.988 11.831V10.753H56.192V16.5H55.002ZM51.194 13.63C51.194 14.0453 51.285 14.4047 51.467 14.708C51.649 15.0113 51.8846 15.247 52.174 15.415C52.468 15.5783 52.7806 15.66 53.112 15.66C53.4666 15.66 53.784 15.576 54.064 15.408C54.344 15.24 54.5656 15.0043 54.729 14.701C54.8923 14.393 54.974 14.036 54.974 13.63C54.974 13.224 54.8923 12.8693 54.729 12.566C54.5656 12.258 54.344 12.02 54.064 11.852C53.784 11.6793 53.4666 11.593 53.112 11.593C52.7806 11.593 52.468 11.677 52.174 11.845C51.8846 12.013 51.649 12.2487 51.467 12.552C51.285 12.8553 51.194 13.2147 51.194 13.63ZM64.2725 7.092C64.8045 7.092 65.2618 7.15267 65.6445 7.274C66.0318 7.39533 66.3352 7.52367 66.5545 7.659C66.7785 7.79433 66.9115 7.883 66.9535 7.925L66.3375 8.912C66.2675 8.85133 66.1438 8.765 65.9665 8.653C65.7892 8.53633 65.5675 8.43367 65.3015 8.345C65.0355 8.25167 64.7322 8.205 64.3915 8.205C63.8642 8.205 63.4465 8.31233 63.1385 8.527C62.8352 8.737 62.6835 9.03567 62.6835 9.423C62.6835 9.68433 62.7628 9.91533 62.9215 10.116C63.0848 10.312 63.3135 10.4917 63.6075 10.655C63.9015 10.8183 64.2445 10.9863 64.6365 11.159C64.9585 11.2943 65.2735 11.4483 65.5815 11.621C65.8942 11.7937 66.1765 11.9967 66.4285 12.23C66.6852 12.4633 66.8882 12.734 67.0375 13.042C67.1915 13.35 67.2685 13.7047 67.2685 14.106C67.2685 14.5027 67.1868 14.8597 67.0235 15.177C66.8648 15.4943 66.6385 15.765 66.3445 15.989C66.0552 16.2083 65.7168 16.3763 65.3295 16.493C64.9422 16.6097 64.5245 16.668 64.0765 16.668C63.5118 16.668 63.0008 16.598 62.5435 16.458C62.0908 16.318 61.7245 16.171 61.4445 16.017C61.1692 15.863 61.0105 15.7673 60.9685 15.73L61.6195 14.701C61.6755 14.7477 61.7782 14.8177 61.9275 14.911C62.0768 14.9997 62.2612 15.093 62.4805 15.191C62.6998 15.289 62.9472 15.373 63.2225 15.443C63.4978 15.5083 63.7918 15.541 64.1045 15.541C64.7298 15.541 65.2035 15.401 65.5255 15.121C65.8475 14.841 66.0085 14.4817 66.0085 14.043C66.0085 13.707 65.9058 13.4177 65.7005 13.175C65.4952 12.9323 65.2222 12.7153 64.8815 12.524C64.5408 12.3327 64.1652 12.1483 63.7545 11.971C63.3345 11.7797 62.9495 11.5697 62.5995 11.341C62.2495 11.1123 61.9672 10.8393 61.7525 10.522C61.5425 10.2 61.4375 9.81267 61.4375 9.36C61.4375 8.912 61.5635 8.51767 61.8155 8.177C62.0722 7.83633 62.4152 7.57033 62.8445 7.379C63.2785 7.18767 63.7545 7.092 64.2725 7.092ZM71.417 16.668C70.8243 16.668 70.297 16.535 69.835 16.269C69.3776 16.003 69.0183 15.6437 68.757 15.191C68.4956 14.7337 68.365 14.218 68.365 13.644C68.365 13.07 68.4956 12.552 68.757 12.09C69.0183 11.628 69.3776 11.2617 69.835 10.991C70.297 10.7203 70.8243 10.585 71.417 10.585C72.005 10.585 72.5253 10.7203 72.978 10.991C73.4353 11.2617 73.7923 11.628 74.049 12.09C74.3056 12.552 74.434 13.07 74.434 13.644C74.434 14.218 74.3056 14.7337 74.049 15.191C73.7923 15.6437 73.4353 16.003 72.978 16.269C72.5253 16.535 72.005 16.668 71.417 16.668ZM71.417 15.625C71.7903 15.625 72.1146 15.5387 72.39 15.366C72.67 15.1933 72.887 14.9577 73.041 14.659C73.195 14.3557 73.272 14.015 73.272 13.637C73.272 13.259 73.195 12.9183 73.041 12.615C72.887 12.3117 72.67 12.0713 72.39 11.894C72.1146 11.7167 71.7903 11.628 71.417 11.628C71.039 11.628 70.71 11.7167 70.43 11.894C70.15 12.0713 69.9306 12.3117 69.772 12.615C69.618 12.9183 69.541 13.259 69.541 13.637C69.541 14.015 69.618 14.3557 69.772 14.659C69.9306 14.9577 70.15 15.1933 70.43 15.366C70.71 15.5387 71.039 15.625 71.417 15.625ZM78.4443 16.668C77.8516 16.668 77.3243 16.535 76.8623 16.269C76.405 16.003 76.0456 15.6437 75.7843 15.191C75.523 14.7337 75.3923 14.218 75.3923 13.644C75.3923 13.07 75.523 12.552 75.7843 12.09C76.0456 11.628 76.405 11.2617 76.8623 10.991C77.3243 10.7203 77.8516 10.585 78.4443 10.585C79.0323 10.585 79.5526 10.7203 80.0053 10.991C80.4627 11.2617 80.8197 11.628 81.0763 12.09C81.333 12.552 81.4613 13.07 81.4613 13.644C81.4613 14.218 81.333 14.7337 81.0763 15.191C80.8197 15.6437 80.4627 16.003 80.0053 16.269C79.5526 16.535 79.0323 16.668 78.4443 16.668ZM78.4443 15.625C78.8176 15.625 79.142 15.5387 79.4173 15.366C79.6973 15.1933 79.9143 14.9577 80.0683 14.659C80.2223 14.3557 80.2993 14.015 80.2993 13.637C80.2993 13.259 80.2223 12.9183 80.0683 12.615C79.9143 12.3117 79.6973 12.0713 79.4173 11.894C79.142 11.7167 78.8176 11.628 78.4443 11.628C78.0663 11.628 77.7373 11.7167 77.4573 11.894C77.1773 12.0713 76.958 12.3117 76.7993 12.615C76.6453 12.9183 76.5683 13.259 76.5683 13.637C76.5683 14.015 76.6453 14.3557 76.7993 14.659C76.958 14.9577 77.1773 15.1933 77.4573 15.366C77.7373 15.5387 78.0663 15.625 78.4443 15.625ZM86.0247 10.585C86.4027 10.585 86.769 10.6643 87.1237 10.823C87.483 10.9817 87.777 11.2337 88.0057 11.579C88.239 11.9197 88.3557 12.3653 88.3557 12.916V16.5H87.1237V13.154C87.1237 12.5847 86.9907 12.1717 86.7247 11.915C86.4587 11.6537 86.1157 11.523 85.6957 11.523C85.4203 11.523 85.1543 11.6023 84.8977 11.761C84.6457 11.915 84.438 12.1297 84.2747 12.405C84.1113 12.6757 84.0297 12.9837 84.0297 13.329V16.5H82.8117V10.753H84.0297V11.775C84.0717 11.6163 84.186 11.4437 84.3727 11.257C84.5593 11.0703 84.7973 10.9117 85.0867 10.781C85.376 10.6503 85.6887 10.585 86.0247 10.585Z" fill="white"/>
</svg>
