<svg width="25" height="24" viewBox="0 0 25 24" fill="none" xmlns="http://www.w3.org/2000/svg">
<path d="M3.5 4C3.5 2.34533 3.84533 2 5.5 2H9.5C11.1547 2 11.5 2.34533 11.5 4C11.5 5.65467 11.1547 6 9.5 6H5.5C3.84533 6 3.5 5.65467 3.5 4Z" stroke="#10182B" stroke-width="1.4"/>
<path d="M13.5 13C13.5 11.3453 13.8453 11 15.5 11H19.5C21.1547 11 21.5 11.3453 21.5 13C21.5 14.6547 21.1547 15 19.5 15H15.5C13.8453 15 13.5 14.6547 13.5 13Z" stroke="#10182B" stroke-width="1.4"/>
<path d="M4.5 20C4.5 18.3453 4.84533 18 6.5 18H10.5C12.1547 18 12.5 18.3453 12.5 20C12.5 21.6547 12.1547 22 10.5 22H6.5C4.84533 22 4.5 21.6547 4.5 20Z" stroke="#10182B" stroke-width="1.4"/>
<path d="M17.5 11C17.5 10.5353 17.5 10.303 17.4616 10.1098C17.3038 9.31644 16.6836 8.69624 15.8902 8.53843C15.697 8.5 15.4647 8.5 15 8.5H10C9.53534 8.5 9.30302 8.5 9.10982 8.46157C8.31644 8.30376 7.69624 7.68356 7.53843 6.89018C7.5 6.69698 7.5 6.46466 7.5 6" stroke="#10182B" stroke-width="1.4" stroke-linecap="round" stroke-linejoin="round"/>
<path d="M17.5 15V16C17.5 17.8856 17.5 18.8284 16.9142 19.4142C16.3284 20 15.3856 20 13.5 20H12.5" stroke="#10182B" stroke-width="1.4" stroke-linecap="round" stroke-linejoin="round"/>
</svg>
