<svg width="19" height="18" viewBox="0 0 19 18" fill="none" xmlns="http://www.w3.org/2000/svg">
<path d="M2.99878 3.39598C2.99878 2.18771 3.25094 1.93555 4.45921 1.93555H7.38007C8.58836 1.93555 8.84051 2.18771 8.84051 3.39598C8.84051 4.60424 8.58836 4.85641 7.38007 4.85641H4.45921C3.25094 4.85641 2.99878 4.60424 2.99878 3.39598Z" stroke="#3CA0C9" stroke-width="1.3"/>
<path d="M10.3009 9.96776C10.3009 8.75947 10.553 8.50732 11.7613 8.50732H14.6822C15.8905 8.50732 16.1426 8.75947 16.1426 9.96776C16.1426 11.176 15.8905 11.4282 14.6822 11.4282H11.7613C10.553 11.4282 10.3009 11.176 10.3009 9.96776Z" stroke="#3CA0C9" stroke-width="1.3"/>
<path d="M3.729 15.0796C3.729 13.8713 3.98117 13.6191 5.18944 13.6191H8.1103C9.31859 13.6191 9.57073 13.8713 9.57073 15.0796C9.57073 16.2879 9.31859 16.54 8.1103 16.54H5.18944C3.98117 16.54 3.729 16.2879 3.729 15.0796Z" stroke="#3CA0C9" stroke-width="1.3"/>
<path d="M13.2217 8.50752C13.2217 8.16819 13.2217 7.99856 13.1937 7.85749C13.0784 7.27816 12.6256 6.82528 12.0462 6.71005C11.9051 6.68198 11.7355 6.68198 11.3962 6.68198H7.7451C7.40579 6.68198 7.23615 6.68198 7.09507 6.65392C6.51573 6.53869 6.06285 6.08581 5.94762 5.50647C5.91956 5.36539 5.91956 5.19575 5.91956 4.85645" stroke="#3CA0C9" stroke-width="1.3" stroke-linecap="round" stroke-linejoin="round"/>
<path d="M13.2218 11.4282V12.1584C13.2218 13.5353 13.2218 14.2238 12.794 14.6515C12.3662 15.0793 11.6778 15.0793 10.3009 15.0793H9.57068" stroke="#3CA0C9" stroke-width="1.3" stroke-linecap="round" stroke-linejoin="round"/>
</svg>
