<svg width="18" height="18" viewBox="0 0 18 18" fill="none" xmlns="http://www.w3.org/2000/svg">
<path d="M8.625 4.5C5.26624 4.5 3.58687 4.5 2.54343 5.37868C1.5 6.25736 1.5 7.6716 1.5 10.5C1.5 13.3284 1.5 14.7427 2.54343 15.6213C3.58687 16.5 5.26624 16.5 8.625 16.5C11.9837 16.5 13.6631 16.5 14.7066 15.6213C15.75 14.7427 15.75 13.3284 15.75 10.5C15.75 9.62265 15.75 8.88142 15.7189 8.25" stroke="#98A2B3" stroke-width="1.4" stroke-linecap="round"/>
<path d="M13.875 1.5L14.0684 2.02277C14.3221 2.70827 14.4489 3.05102 14.699 3.30104C14.949 3.55108 15.2917 3.6779 15.9772 3.93156L16.5 4.125L15.9772 4.31844C15.2917 4.5721 14.949 4.69893 14.699 4.94896C14.4489 5.19898 14.3221 5.54173 14.0684 6.22723L13.875 6.75L13.6816 6.22723C13.4279 5.54173 13.3011 5.19898 13.051 4.94896C12.801 4.69893 12.4582 4.5721 11.7727 4.31844L11.25 4.125L11.7727 3.93156C12.4582 3.6779 12.801 3.55108 13.051 3.30104C13.3011 3.05102 13.4279 2.70827 13.6816 2.02277L13.875 1.5Z" stroke="#98A2B3" stroke-width="1.4" stroke-linejoin="round"/>
<path d="M9 7.5V13.5" stroke="#98A2B3" stroke-width="1.4" stroke-linecap="round" stroke-linejoin="round"/>
<path d="M6.75 9V12" stroke="#98A2B3" stroke-width="1.4" stroke-linecap="round" stroke-linejoin="round"/>
<path d="M4.5 9.75V11.25" stroke="#98A2B3" stroke-width="1.4" stroke-linecap="round" stroke-linejoin="round"/>
<path d="M11.25 9V12" stroke="#98A2B3" stroke-width="1.4" stroke-linecap="round" stroke-linejoin="round"/>
<path d="M13.5 9.75V11.25" stroke="#98A2B3" stroke-width="1.4" stroke-linecap="round" stroke-linejoin="round"/>
</svg>
