<svg width="18" height="18" viewBox="0 0 18 18" fill="none" xmlns="http://www.w3.org/2000/svg">
<path d="M6.48223 2.35919L5.20362 2.95021C3.23454 3.86039 2.25 4.31548 2.25 5.0625C2.25 5.80952 3.23454 6.26461 5.20363 7.17478L6.48223 7.7658C7.7214 8.33857 8.34105 8.625 9 8.625C9.65895 8.625 10.2786 8.33857 11.5178 7.7658L12.7964 7.17478C14.7655 6.26461 15.75 5.80952 15.75 5.0625C15.75 4.31548 14.7655 3.86039 12.7964 2.95021L11.5178 2.35919C10.2786 1.7864 9.65895 1.5 9 1.5C8.34105 1.5 7.7214 1.7864 6.48223 2.35919Z" stroke="#2B2B2B" stroke-width="1.3" stroke-linecap="round" stroke-linejoin="round"/>
<path d="M15.591 8.32422C15.697 8.47324 15.75 8.62864 15.75 8.79949C15.75 9.53584 14.7655 9.98449 12.7964 10.8817L11.5178 11.4643C10.2786 12.0289 9.65895 12.3113 9 12.3113C8.34105 12.3113 7.7214 12.0289 6.48223 11.4643L5.20363 10.8817C3.23454 9.98449 2.25 9.53584 2.25 8.79949C2.25 8.62864 2.303 8.47324 2.409 8.32422" stroke="#2B2B2B" stroke-width="1.3" stroke-linecap="round" stroke-linejoin="round"/>
<path d="M15.2825 12.1992C15.5941 12.4475 15.75 12.6949 15.75 12.9878C15.75 13.7243 14.7655 14.1728 12.7964 15.0701L11.5178 15.6527C10.2786 16.2173 9.65895 16.4996 9 16.4996C8.34105 16.4996 7.7214 16.2173 6.48223 15.6527L5.20363 15.0701C3.23454 14.1728 2.25 13.7243 2.25 12.9878C2.25 12.6949 2.40583 12.4475 2.7175 12.1992" stroke="#2B2B2B" stroke-width="1.3" stroke-linecap="round" stroke-linejoin="round"/>
</svg>
