<svg width="18" height="18" viewBox="0 0 18 18" fill="none" xmlns="http://www.w3.org/2000/svg">
<path d="M10.2677 14.5925C10.125 14.248 10.125 13.8112 10.125 12.9375C10.125 12.0638 10.125 11.627 10.2677 11.2825C10.458 10.823 10.823 10.458 11.2825 10.2677C11.627 10.125 12.0638 10.125 12.9375 10.125C13.8112 10.125 14.248 10.125 14.5925 10.2677C15.052 10.458 15.417 10.823 15.6073 11.2825C15.75 11.627 15.75 12.0638 15.75 12.9375C15.75 13.8112 15.75 14.248 15.6073 14.5925C15.417 15.052 15.052 15.417 14.5925 15.6073C14.248 15.75 13.8112 15.75 12.9375 15.75C12.0638 15.75 11.627 15.75 11.2825 15.6073C10.823 15.417 10.458 15.052 10.2677 14.5925Z" stroke="#2B2B2B" stroke-width="1.3" stroke-linecap="square" stroke-linejoin="round"/>
<path d="M10.2677 6.71753C10.125 6.37296 10.125 5.93614 10.125 5.0625C10.125 4.18886 10.125 3.75204 10.2677 3.40747C10.458 2.94804 10.823 2.58303 11.2825 2.39272C11.627 2.25 12.0638 2.25 12.9375 2.25C13.8112 2.25 14.248 2.25 14.5925 2.39272C15.052 2.58303 15.417 2.94804 15.6073 3.40747C15.75 3.75204 15.75 4.18886 15.75 5.0625C15.75 5.93614 15.75 6.37296 15.6073 6.71753C15.417 7.17696 15.052 7.542 14.5925 7.73228C14.248 7.875 13.8112 7.875 12.9375 7.875C12.0638 7.875 11.627 7.875 11.2825 7.73228C10.823 7.542 10.458 7.17696 10.2677 6.71753Z" stroke="#2B2B2B" stroke-width="1.3" stroke-linecap="square" stroke-linejoin="round"/>
<path d="M2.39272 14.5925C2.25 14.248 2.25 13.8112 2.25 12.9375C2.25 12.0638 2.25 11.627 2.39272 11.2825C2.58303 10.823 2.94804 10.458 3.40747 10.2677C3.75204 10.125 4.18886 10.125 5.0625 10.125C5.93614 10.125 6.37296 10.125 6.71753 10.2677C7.17696 10.458 7.542 10.823 7.73228 11.2825C7.875 11.627 7.875 12.0638 7.875 12.9375C7.875 13.8112 7.875 14.248 7.73228 14.5925C7.542 15.052 7.17696 15.417 6.71753 15.6073C6.37296 15.75 5.93614 15.75 5.0625 15.75C4.18886 15.75 3.75204 15.75 3.40747 15.6073C2.94804 15.417 2.58303 15.052 2.39272 14.5925Z" stroke="#2B2B2B" stroke-width="1.3" stroke-linecap="square" stroke-linejoin="round"/>
<path d="M2.39272 6.71753C2.25 6.37296 2.25 5.93614 2.25 5.0625C2.25 4.18886 2.25 3.75204 2.39272 3.40747C2.58303 2.94804 2.94804 2.58303 3.40747 2.39272C3.75204 2.25 4.18886 2.25 5.0625 2.25C5.93614 2.25 6.37296 2.25 6.71753 2.39272C7.17696 2.58303 7.542 2.94804 7.73228 3.40747C7.875 3.75204 7.875 4.18886 7.875 5.0625C7.875 5.93614 7.875 6.37296 7.73228 6.71753C7.542 7.17696 7.17696 7.542 6.71753 7.73228C6.37296 7.875 5.93614 7.875 5.0625 7.875C4.18886 7.875 3.75204 7.875 3.40747 7.73228C2.94804 7.542 2.58303 7.17696 2.39272 6.71753Z" stroke="#2B2B2B" stroke-width="1.3" stroke-linecap="square" stroke-linejoin="round"/>
</svg>
